ply
format ascii 1.0
element vertex 3172
property float x
property float y
property float z
property int map_id
end_header
0.181898 0.487127 -0.109230 0
1.409743 1.314562 -0.049841 0
-0.146134 1.047227 -0.114318 0
0.419140 1.663158 -0.131800 0
0.336193 1.262163 -0.146754 0
-0.241839 0.934836 -0.122520 0
1.735218 1.278392 0.559239 0
1.375164 2.075333 -0.234202 0
1.426574 5.796223 0.418266 0
0.108330 0.452384 -0.063900 0
-0.122094 1.081529 -0.064167 0
-0.115042 0.793206 -0.130654 0
-0.168347 0.688240 -0.126513 0
-0.388785 1.287662 -0.013428 0
-0.495091 1.207998 -0.103787 0
1.039596 0.669487 -0.160862 0
1.400212 1.385777 0.070893 0
0.658356 1.232385 -0.067611 0
-0.102780 0.945219 -0.135547 0
-0.283918 1.276421 -0.071923 0
-0.467092 1.284364 -0.070999 0
-0.926624 1.612932 -0.160454 0
0.066345 3.522638 0.013727 0
1.273474 1.262458 -0.197167 0
1.434046 0.976560 0.122549 0
1.159418 0.753119 -0.135230 0
1.231752 0.795002 -0.134327 0
0.595658 1.156061 -0.069097 0
1.599352 1.767493 0.275195 0
1.401943 1.086557 0.223634 0
1.380529 1.011189 0.223805 0
0.403141 0.202162 -0.115685 0
-0.148666 0.939797 -0.081535 0
-0.036509 0.997337 -0.118948 0
0.048571 0.813355 -0.129294 0
0.048561 0.468411 -0.092445 0
-0.121565 0.846520 -0.129912 0
-0.009207 0.955971 -0.130907 0
-0.192060 0.696035 -0.118549 0
0.101371 0.796290 -0.128390 0
-0.101519 0.741276 -0.114098 0
0.740641 0.475017 -0.089816 0
0.136511 0.494582 -0.126888 0
-0.398716 1.310855 -0.023026 0
0.220765 1.499959 -0.038791 0
1.413968 1.761099 0.005292 0
-0.339365 0.860534 -0.054491 0
0.733786 0.506736 -0.090188 0
0.172493 0.808200 -0.127500 0
-0.040125 0.965658 -0.122074 0
-0.186363 3.231763 -0.055352 0
0.748083 0.514670 -0.097534 0
0.606512 1.376040 -0.181263 0
-0.281914 1.155423 -0.076970 0
-0.494830 1.204732 -0.101071 0
0.659336 1.238962 -0.065989 0
-0.083298 0.428827 -0.109540 0
-0.066359 0.498492 -0.125909 0
-0.082153 1.085824 -0.111215 0
-0.010688 0.985786 -0.130093 0
0.044901 0.814550 -0.130039 0
-0.043924 1.145101 -0.110453 0
-0.873194 2.985816 0.231195 0
1.589967 3.847636 0.674927 0
1.358917 1.881124 0.068257 0
1.369181 2.041558 -0.104775 0
1.496144 3.543577 0.048008 0
1.667444 1.438171 0.312591 0
1.406814 1.398156 -0.050998 0
1.401540 0.983773 0.223802 0
0.650042 3.736363 0.196153 0
1.432665 1.772420 0.115773 0
1.391959 1.387274 0.070550 0
1.186887 1.446400 -0.401891 0
1.847323 2.842900 0.742730 0
1.426937 2.285755 0.383369 0
1.526787 6.200108 0.870219 0
1.705328 1.797920 0.644080 0
1.297354 3.965795 -0.480574 0
1.391117 1.743669 0.001352 0
0.167958 0.804429 -0.123979 0
-0.149096 0.812241 0.106928 0
-4.866023 6.187195 1.049014 0
1.348252 2.249795 0.107124 0
1.528346 3.702781 0.273475 0
1.875308 3.594918 1.519697 0
1.823010 1.725219 1.071910 0
1.286174 1.277506 -0.198564 0
1.424922 2.286842 0.470768 0
1.518858 3.678938 0.245536 0
1.675619 3.998252 0.698377 0
1.697578 1.903630 0.354396 0
1.416342 1.717496 0.196300 0
1.867246 2.896530 0.751374 0
0.217277 4.545752 1.450002 0
-0.135591 0.794140 -0.158831 0
-3.170776 2.601678 0.201709 0
-2.634835 3.124652 0.185712 0
1.482954 1.419039 0.254059 0
-0.114760 1.046441 -0.066028 0
-2.728707 3.025631 -1.773142 0
-2.959613 4.911994 0.234895 0
-3.308841 2.556301 -0.349772 0
-1.974698 2.786699 -0.457346 0
-2.027650 4.990921 -0.188029 0
-3.470490 4.074123 0.306864 0
1.600795 8.357882 0.990779 0
-2.840505 3.196164 0.069603 0
-5.524539 4.907453 0.697015 0
-0.119300 0.729440 -0.133744 0
-4.771983 5.970519 1.413995 0
-0.472306 1.182006 -0.141652 0
0.100664 0.794424 -0.127822 0
1.527530 0.731775 -0.384380 0
0.402045 1.512866 -0.164522 0
0.524805 1.027960 -0.167228 0
1.424275 2.371518 0.108525 0
0.671003 1.027047 -0.208662 0
-0.099397 0.752483 -0.127034 0
-4.707140 8.466656 1.295384 0
-0.115261 0.344532 -0.089002 0
-4.709683 8.464826 1.323644 0
-2.965063 3.116221 0.590596 0
1.386817 2.384741 0.053512 0
-2.955536 8.177927 1.424577 0
0.976963 4.790117 1.475778 0
1.563554 0.916098 -0.335105 0
0.263972 6.916473 1.409859 0
-1.820364 8.349390 0.955251 0
-2.874790 2.949773 0.565035 0
0.389281 1.410239 -0.090934 0
0.714959 3.970494 0.089162 0
-2.626839 2.893793 -1.683766 0
1.243346 1.443144 -0.677652 0
1.312200 1.549173 -0.735798 0
-1.764291 2.878255 -0.003144 0
1.404598 1.915130 0.392303 0
-2.789362 4.163143 -0.236428 0
-0.345734 1.108777 -0.082845 0
1.815482 5.191547 0.647405 0
-2.025740 2.745531 -0.293744 0
0.056221 6.849997 1.395106 0
1.713987 2.203209 0.525694 0
1.555836 6.531136 0.062467 0
1.418364 1.725158 0.197898 0
1.217745 1.330200 -0.041330 0
1.577123 4.339512 -0.132510 0
1.535167 5.830581 0.770339 0
-3.084312 6.908682 0.200112 0
-1.900832 2.207474 -0.440702 0
0.017860 4.162972 0.063481 0
-0.237154 7.227516 0.302110 0
-1.989984 2.812642 -0.464813 0
1.519575 6.199704 0.843725 0
1.379383 2.062414 -0.106030 0
0.011959 4.631880 1.488930 0
0.123863 4.258716 0.270958 0
1.496255 5.894619 1.083509 0
-2.180788 2.290596 -0.620221 0
0.374563 8.587098 1.096373 0
1.744735 5.598676 0.911757 0
0.372217 1.446257 -0.104178 0
1.418869 2.269520 0.467277 0
1.409847 2.247014 0.392690 0
1.363240 1.850152 0.385670 0
1.396253 5.607216 0.833642 0
0.053515 3.405563 0.005108 0
-2.310190 4.308810 -0.094958 0
1.360015 1.930741 0.281048 0
1.746208 1.516012 0.317179 0
1.459290 5.513175 1.205480 0
1.653663 1.243743 0.645389 0
1.388766 2.062539 -0.108597 0
0.022790 4.746248 1.512839 0
-0.864470 2.978186 0.228657 0
0.030293 5.637250 1.427922 0
1.458970 3.532510 0.155272 0
1.511720 5.712577 0.512000 0
1.405789 1.304422 -0.166747 0
0.395885 0.200408 -0.111577 0
-0.460416 1.378854 -0.067074 0
0.663036 3.840440 0.186219 0
0.087337 4.670389 0.270653 0
-3.799109 8.528565 0.303746 0
1.372452 2.289629 0.280631 0
-0.134106 0.702391 -0.110788 0
-2.216003 2.915710 -0.077133 0
1.716200 1.269214 0.360867 0
1.412496 1.054333 0.293694 0
-0.487942 1.198589 -0.098677 0
-0.115764 0.799025 -0.131333 0
1.490314 3.592048 0.285041 0
1.492633 1.111342 0.307937 0
1.423314 1.763870 0.012967 0
-0.374042 1.631993 -0.032356 0
-1.897200 2.206116 -0.442333 0
1.747004 1.826109 0.342087 0
1.725385 1.902488 0.437820 0
1.517582 1.471190 0.262192 0
1.366123 2.288545 0.282843 0
1.370134 2.196273 0.100189 0
1.652346 1.238362 0.648655 0
-4.530354 6.674173 1.419825 0
-4.731033 6.795902 1.016575 0
1.819832 5.928381 1.397750 0
0.566373 3.252309 0.105200 0
1.995489 3.359571 1.131208 0
1.844797 2.398090 1.266226 0
1.403800 1.394390 0.071297 0
0.062781 3.433537 0.019397 0
1.430304 2.300867 0.474279 0
1.390284 1.896764 0.390586 0
1.656499 6.975653 1.203499 0
-0.856458 2.921660 0.233875 0
-0.712396 2.862107 0.100295 0
1.354851 2.102663 0.230062 0
1.380392 1.292167 -0.044582 0
1.696661 1.793972 0.645912 0
1.455424 0.925929 -0.119182 0
1.835823 2.801561 0.901561 0
0.046640 0.814271 -0.129117 0
1.215985 1.310297 -0.311589 0
1.746090 4.783963 1.372153 0
0.251925 5.674362 1.444612 0
1.572353 4.308697 1.507784 0
-0.141428 3.690348 -0.001353 0
0.229591 3.490789 1.527730 0
1.829823 1.739924 1.074065 0
1.467890 5.236160 -0.242593 0
-2.597152 9.852340 -0.248302 0
1.475854 3.852520 0.039993 0
1.864933 2.856636 0.746953 0
1.356703 1.858280 0.417919 0
1.501065 1.039336 0.306366 0
1.557398 5.544773 0.903470 0
1.423658 1.732583 0.198513 0
1.712891 1.794993 0.334345 0
1.418396 1.751741 0.228059 0
1.219798 1.335917 -0.040436 0
1.396193 2.255595 0.094326 0
1.691343 4.846363 0.595508 0
1.760033 2.095201 0.482460 0
1.867443 3.038000 0.910459 0
0.874506 0.562936 -0.120637 0
1.874142 3.598686 1.527796 0
2.116572 3.595178 1.487340 0
-0.841737 2.793277 0.150438 0
-0.840064 2.805786 0.114547 0
-0.017998 4.875121 0.114207 0
-0.137208 4.057495 0.068998 0
-0.186187 3.743584 -0.023629 0
1.478852 5.920637 -0.261942 0
1.511653 5.973890 0.125320 0
1.548676 5.858926 0.170757 0
1.497665 5.559548 0.764493 0
1.356920 1.870916 0.070795 0
1.587237 4.323453 -0.128994 0
1.476937 3.594892 0.036529 0
1.363932 2.409748 0.097523 0
1.684022 1.784353 0.641208 0
1.884562 3.217053 0.738645 0
-3.578495 3.198024 0.325297 0
1.893656 3.558941 0.553189 0
1.827842 2.418327 0.893740 0
0.174903 0.818617 -0.132201 0
0.389433 8.496051 1.360932 0
-2.991740 3.511783 1.498564 0
-2.494724 5.118449 0.005214 0
-2.336061 2.626765 -0.184531 0
1.561505 3.660259 0.021904 0
-3.498531 3.513105 0.178696 0
1.489315 1.891181 0.442972 0
1.626390 6.159311 -0.122997 0
-2.148902 6.050602 -0.077631 0
1.470889 0.920851 -0.128099 0
1.354982 1.656470 -0.463029 0
-0.298111 0.991785 -0.119906 0
0.103203 0.852788 0.004711 0
0.223964 1.539518 -0.046446 0
0.749739 1.169557 -0.258553 0
-0.794476 0.557086 -0.164923 0
-0.384609 1.680498 -0.041759 0
0.229528 1.584102 -0.056018 0
-0.402543 0.184534 -0.112807 0
0.347690 1.307839 -0.162652 0
-0.286675 1.148816 -0.073180 0
-2.380504 2.273267 -0.950732 0
1.200557 1.348410 -0.033185 0
-2.010838 3.171606 -0.484596 0
-2.955297 4.631365 -0.118799 0
1.544149 4.202983 -0.569146 0
-2.728548 2.977906 0.525021 0
-3.682801 3.285837 0.345328 0
0.050372 3.709312 -0.003515 0
1.469419 0.883339 0.130596 0
-0.256061 3.797305 -0.116527 0
1.326898 0.922241 0.081427 0
-2.708588 3.214566 0.207029 0
-2.583700 3.337198 0.367602 0
0.668143 1.302561 -0.098388 0
-0.294621 4.108483 0.214733 0
-2.983603 5.805097 1.465956 0
-4.357404 7.828885 0.518645 0
-2.942790 2.931468 -0.169353 0
-3.496544 3.423279 -0.064506 0
1.464682 1.050048 0.355247 0
1.480360 5.550394 1.235442 0
-3.326336 3.225580 0.519282 0
1.368788 0.988512 0.222483 0
1.384567 2.064730 -0.106261 0
0.015629 3.405292 0.088462 0
1.438370 4.875368 0.379955 0
-2.907865 4.938331 0.045784 0
-2.311804 4.296271 -0.076903 0
1.359785 1.917974 0.287083 0
1.799531 5.857378 1.381745 0
-0.328029 4.503844 0.219619 0
-4.442813 6.396728 0.368593 0
-2.734231 3.265722 -0.091125 0
1.560563 2.079167 0.496685 0
-3.035036 3.544139 1.515925 0
1.223894 1.316704 -0.314297 0
-2.899909 4.598385 1.458118 0
-3.112432 4.620365 1.449615 0
1.758749 1.438591 1.076485 0
-2.458040 4.147311 -0.177192 0
1.488457 4.459627 0.157595 0
-2.233334 4.956988 -0.197458 0
1.538782 4.004492 0.416220 0
1.531454 6.053111 0.936243 0
1.732398 1.908202 0.438830 0
-2.072441 2.696231 -0.464324 0
0.271910 6.916017 1.416035 0
1.405616 1.386602 -0.051370 0
-2.892085 8.076827 1.401217 0
-2.935424 5.798537 1.452091 0
1.304461 4.988440 1.045360 0
-2.857595 5.476794 1.407083 0
-5.000085 8.666415 1.424050 0
-3.098248 4.692579 1.471595 0
-2.690227 7.206340 1.301873 0
-2.511021 4.859612 0.305468 0
1.526666 5.746926 0.593539 0
-3.356723 3.372762 -0.162903 0
-4.548584 9.841178 0.826753 0
-2.306188 3.878898 -0.099127 0
1.559084 6.601238 0.111903 0
-2.728585 3.218010 -0.063466 0
-4.775737 4.545514 -0.365323 0
1.390022 1.292411 -0.163228 0
-2.749579 7.356158 0.226770 0
1.500808 6.079017 0.880247 0
-3.103403 3.913243 0.455514 0
1.530982 5.719573 0.536332 0
-3.138867 4.691230 1.471026 0
-2.789870 6.123340 0.121937 0
-2.806182 2.923551 -0.217645 0
1.336689 5.647994 0.078899 0
-2.844897 3.208520 0.072883 0
-2.757188 2.915326 -0.097243 0
-2.766074 3.286482 -0.078203 0
-2.231878 4.777896 -0.195288 0
-3.048130 3.493505 1.513559 0
1.422873 0.947955 0.243994 0
1.200573 1.369594 -0.185128 0
-4.534824 6.614737 1.415882 0
-0.309689 0.509118 -0.129282 0
-0.184855 0.338862 -0.118637 0
0.029081 0.898049 -0.163966 0
0.157074 0.834870 0.053434 0
-0.139072 0.789443 -0.038377 0
-3.252087 3.213284 -0.063096 0
-2.908154 2.999688 -0.256221 0
1.420581 0.994668 0.227112 0
1.362187 1.970384 -0.112926 0
1.383749 1.042624 -0.139837 0
1.465724 0.928425 -0.080150 0
0.083656 0.417477 -0.130619 0
0.080606 0.410231 -0.123994 0
1.403917 0.979551 0.226318 0
0.101964 0.440733 -0.106685 0
-0.138083 0.421361 -0.108884 0
1.571435 0.619543 -0.328354 0
-2.242728 6.067644 -0.032986 0
-2.305568 4.291157 -0.073153 0
-2.196788 4.537261 -0.097991 0
-3.338774 6.614753 0.275173 0
1.316192 5.504964 -0.133371 0
-3.122010 3.109601 -0.201969 0
-2.404746 3.155522 0.334024 0
-3.984228 3.228676 0.091970 0
-2.696821 3.231948 -0.093121 0
0.040084 4.540732 0.267515 0
-3.112064 7.003604 1.425653 0
-3.149483 4.655696 1.460892 0
-2.234824 4.096564 -0.109793 0
1.469029 2.075088 0.477507 0
-3.694237 2.825172 -0.135605 0
0.067733 3.521134 -0.449646 0
0.155273 2.259241 -0.226361 0
1.413320 1.333876 -0.043585 0
-0.434794 0.435314 -0.088946 0
1.412737 1.311658 -0.166768 0
0.718748 0.990250 -0.093585 0
0.360378 1.311771 -0.077122 0
1.590886 0.847945 -0.313336 0
1.104027 1.275829 -0.124972 0
1.408494 1.058558 0.262817 0
1.477350 0.891636 0.129489 0
0.630411 0.944459 -0.073213 0
-0.304612 0.982573 -0.118416 0
-5.058233 6.124154 1.517903 0
-2.904320 2.972483 0.584625 0
-4.815677 6.907417 0.984991 0
-4.361697 6.286141 1.165433 0
1.701263 5.556218 1.328762 0
-3.018765 8.239038 1.447651 0
-15.259027 13.492959 0.066543 0
-2.286437 4.900070 -0.197472 0
-3.096823 3.122671 0.182803 0
1.739780 1.279253 0.565253 0
-2.672960 2.861393 -0.109618 0
1.873219 2.677048 0.870597 0
-0.198988 3.829078 -0.200055 0
-2.282225 4.078258 -0.353575 0
1.883627 5.505760 0.813014 0
-2.728296 5.344656 0.177352 0
-2.630363 4.402810 -0.065646 0
-0.198424 3.800535 -0.196304 0
-3.442204 3.430118 -0.186921 0
-2.874370 7.713995 0.242347 0
-2.174973 5.287471 0.047448 0
-2.117600 4.732959 -0.191200 0
1.641467 0.744232 -0.337451 0
-1.846013 5.197010 -0.155036 0
0.399631 1.243284 -0.101263 0
-3.811431 4.763098 0.505594 0
-2.185694 4.578262 -0.179951 0
-2.456507 3.313319 0.127505 0
1.373132 1.948534 -0.093915 0
-4.243403 9.512098 0.818216 0
1.489179 5.568230 1.260308 0
1.370903 5.770251 0.041345 0
-3.555783 6.372700 0.333443 0
1.460457 0.932535 -0.119732 0
-4.333517 6.239482 0.348614 0
-0.898253 3.019570 0.191171 0
1.343153 4.233610 0.354237 0
-3.606750 6.508618 0.459497 0
-30.687851 29.669140 -0.421446 0
1.620317 2.270055 0.565382 0
1.477789 3.530155 0.070087 0
-2.523592 3.753402 -0.195236 0
-3.322811 3.230486 0.518789 0
-3.428168 3.487083 -0.103490 0
-2.436259 3.624438 -0.189403 0
1.447756 0.911654 -0.122007 0
1.397586 1.381521 -0.050011 0
1.193873 1.374431 -0.351811 0
1.391801 1.085432 0.220058 0
-2.738867 7.445817 0.245676 0
-0.057748 4.205262 -0.200471 0
-0.256340 3.866926 -0.129915 0
1.695314 5.120220 0.526062 0
-2.071668 3.132764 -0.408731 0
1.432080 2.178728 0.418254 0
-1.013787 3.977489 0.126613 0
-1.177994 2.446615 -0.013667 0
-2.684524 3.164694 0.181774 0
1.527015 4.078473 0.131512 0
0.236287 0.301912 -0.105210 0
-2.931524 5.701210 0.271685 0
-0.214284 6.223089 0.273679 0
-2.608990 3.901754 -0.216483 0
-3.026017 7.048204 1.425609 0
1.884822 7.960529 0.745918 0
0.318754 0.123036 -0.112459 0
-0.306283 3.590557 0.105133 0
1.556102 3.613730 0.669879 0
-0.173806 0.673377 -0.130022 0
1.506849 0.901932 0.273267 0
5.193480 1.279507 -5.175096 0
1.566718 0.774179 -0.277980 0
0.399946 1.209704 -0.090780 0
-0.182547 0.341553 -0.120098 0
0.408498 0.666978 -0.119373 0
-0.178850 0.342600 -0.120922 0
-0.251822 1.036548 0.047130 0
-0.442481 1.217348 -0.076934 0
0.098757 0.788810 -0.128723 0
-5.033618 4.494893 1.469090 0
-3.232193 3.259598 0.206834 0
1.490517 4.514842 -0.595980 0
1.858745 3.162794 0.897852 0
-2.315046 4.014491 -0.627705 0
1.675830 1.260606 0.579601 0
1.374918 2.002305 -0.232756 0
-0.482421 0.275952 -0.130626 0
1.443751 3.789867 0.041826 0
-0.304744 0.993541 -0.121542 0
-0.204069 0.896877 -0.122219 0
-0.089557 1.087486 -0.110423 0
0.411545 1.243810 -0.102802 0
0.785860 0.604099 -0.154724 0
0.417826 1.231861 -0.127875 0
-0.255362 3.866147 -0.131130 0
-4.663186 4.868661 1.465304 0
0.041919 3.177150 -0.158321 0
-0.040796 3.762137 -0.147566 0
0.057129 0.479069 -0.072829 0
1.350674 1.855399 -0.225294 0
1.733000 1.483296 0.301269 0
0.058950 3.096206 -0.254632 0
1.336200 2.065884 0.227190 0
-3.650352 2.793036 -0.319883 0
-0.041991 3.706913 -0.065312 0
-2.566037 1.978608 -1.613030 0
-0.140094 0.793530 -0.042230 0
0.303116 1.122311 -0.131827 0
1.357878 1.827194 0.115466 0
-0.309315 1.013851 -0.126147 0
-2.842800 3.211065 0.071429 0
-3.435904 2.525818 -0.210934 0
1.690206 1.785475 0.643483 0
-2.817022 6.311590 0.201306 0
-2.226586 4.770264 -0.195477 0
-2.482281 3.616922 -0.300931 0
1.496655 5.626222 -0.107576 0
1.878963 2.490066 1.024791 0
-2.262296 4.417995 -0.018575 0
1.558989 0.918455 -0.337302 0
1.511879 4.217022 -0.602538 0
-4.055610 3.138836 0.289413 0
-4.897754 6.111658 1.429020 0
-4.040935 3.132011 0.281961 0
-5.118435 4.567413 1.488715 0
0.279512 7.897198 1.373594 0
-4.902481 3.726053 0.521596 0
1.420890 4.635544 -0.334109 0
1.560246 0.776841 -0.389473 0
0.240009 1.567935 0.029088 0
-0.009526 3.520609 1.540894 0
-0.116822 0.830229 -0.129094 0
-0.019368 0.667286 -0.129707 0
1.589464 0.784721 -0.343902 0
-10.260996 9.405739 -0.389355 0
1.392579 1.390887 0.069706 0
-0.055062 3.830571 -0.170142 0
-0.150291 2.679027 0.222244 0
-0.084302 1.054225 -0.048081 0
0.620483 0.966490 -0.215445 0
-0.036516 0.994991 0.005225 0
-0.082554 1.054254 -0.047369 0
1.344010 2.022562 0.149630 0
-2.970821 4.682815 -0.102617 0
-0.434277 5.686625 -0.485697 0
-3.262152 3.574199 1.513767 0
-2.080541 4.091631 -0.162946 0
-3.157488 3.150659 -0.196724 0
-2.349957 3.000118 -0.112140 0
-2.258716 3.526047 -0.259391 0
1.516001 3.678886 0.044571 0
1.364128 1.902117 -0.031224 0
-2.331979 2.577636 -0.205325 0
1.349277 1.915218 0.114384 0
1.393783 2.061488 -0.110518 0
1.553239 1.917219 0.457076 0
0.394732 1.164527 -0.117350 0
0.087187 3.579485 -0.181353 0
1.390057 4.476123 -0.345927 0
1.707900 1.533439 0.344290 0
1.589548 3.660453 1.518933 0
1.410966 2.315041 -0.075795 0
1.017285 5.013578 1.538593 0
-2.536970 2.498046 0.009783 0
1.555718 5.538155 0.904095 0
-2.727272 3.252302 0.207737 0
-0.147181 5.634315 0.109396 0
-0.927137 4.318410 0.027064 0
-1.990187 2.613340 -0.280081 0
-3.116331 3.680387 -0.164005 0
-2.251042 4.712558 -0.197686 0
-2.885674 3.949853 0.200379 0
1.577232 0.912628 -0.250309 0
-2.974064 3.088096 0.565981 0
-0.239919 0.978197 -0.157599 0
-0.135644 0.891283 -0.072652 0
0.291519 1.388965 -0.088606 0
1.448705 1.059874 0.336897 0
0.308178 1.480394 -0.106090 0
-0.443784 1.233655 -0.090946 0
-0.192208 3.411753 -0.189219 0
-4.569258 4.153359 1.398602 0
-4.787053 6.865175 1.006160 0
0.229914 6.510646 1.323080 0
-3.280215 7.295633 0.175289 0
0.804197 0.974539 -0.315801 0
-0.644977 0.657794 -0.203472 0
-0.012223 0.954945 -0.124683 0
0.048655 0.910126 0.001390 0
-0.167052 0.687438 -0.124712 0
-0.038207 1.064826 -0.073385 0
0.105817 0.678814 -0.127786 0
-3.115093 3.209064 0.586088 0
-0.807093 0.553438 -0.164255 0
0.704641 1.124494 -0.246547 0
-0.840580 0.471933 -0.180043 0
-0.100947 0.948452 -0.136607 0
-0.276107 3.513517 0.095345 0
-3.308619 3.198971 0.516431 0
-3.743282 3.361113 0.259418 0
-1.858178 2.718447 -0.397842 0
-3.892955 2.968603 0.137657 0
-0.006143 0.631316 -0.123219 0
-4.848200 3.840594 -0.245380 0
-3.714237 3.005923 0.100113 0
-3.126529 7.112201 1.439630 0
2.043355 2.897344 -0.377839 0
0.650169 3.327546 -0.182440 0
0.604917 3.450701 0.076669 0
2.046555 3.454873 1.148775 0
1.373138 2.025830 -0.227177 0
1.424045 1.748493 0.225567 0
1.729518 4.604290 0.063519 0
0.053259 6.828776 1.396706 0
-3.039523 5.186356 0.036471 0
0.761731 1.554332 -0.246200 0
0.051450 0.394442 -0.133563 0
-0.810918 0.570053 -0.173429 0
1.473293 3.604432 0.204072 0
-1.950636 5.186908 0.061379 0
-0.101773 0.117360 -0.080585 0
-0.134494 0.151296 -0.122248 0
0.179255 0.591622 -0.115034 0
-0.177206 0.192445 -0.129456 0
-0.125255 0.805668 -0.070016 0
1.548415 0.711880 -0.516459 0
1.474659 0.787502 -0.091539 0
1.566113 0.911350 -0.330785 0
-0.437074 5.930919 -0.553405 0
1.580482 0.817641 -0.424856 0
1.393387 3.951706 0.514080 0
-0.164470 0.562421 -0.134863 0
-0.390406 0.184532 -0.107638 0
-2.948701 5.808397 0.279790 0
-0.137405 0.425234 -0.111129 0
1.348539 2.061185 0.362027 0
-0.112182 0.949969 -0.072072 0
0.345167 0.314280 -0.119375 0
-1.988513 2.306957 -0.478723 0
1.461335 0.951318 0.201731 0
1.673530 1.570264 0.646714 0
-0.180300 0.656529 -0.104623 0
1.481664 0.945516 -0.088151 0
-2.436390 3.622005 -0.223339 0
1.348428 1.876880 -0.030962 0
-0.014543 4.664942 0.111514 0
-2.184068 2.317585 -0.670642 0
1.651135 5.987754 0.960703 0
-2.057948 3.113960 -0.403338 0
1.969875 8.403205 1.416185 0
1.347933 1.909163 0.108361 0
-0.029660 1.045430 -0.050654 0
-0.130879 0.214413 -0.116493 0
-2.225797 3.398173 -0.014853 0
1.587407 4.341164 0.509020 0
-2.150144 2.167908 -0.358630 0
0.081309 3.007187 -0.178149 0
1.423188 1.068676 0.273830 0
-0.177185 2.887677 0.227489 0
-4.690529 7.497017 0.567549 0
1.834044 2.821527 0.898868 0
1.413353 0.835014 0.264587 0
-2.131928 2.486548 -0.558702 0
-2.117978 5.134147 -0.184917 0
-2.166357 6.072948 -0.231923 0
1.934708 1.682183 1.171379 0
1.542426 3.670011 0.510021 0
-0.485118 0.277729 -0.132314 0
-1.451329 1.356994 -0.319247 0
0.544286 2.876792 -0.142813 0
0.371219 8.607373 1.104752 0
-0.317580 3.924685 0.077732 0
-4.469063 9.031201 0.795748 0
-4.792839 3.713293 1.431825 0
1.409058 4.564137 -0.338908 0
-2.356233 1.916449 -0.672176 0
-1.538998 1.312075 -0.388080 0
-2.330521 1.917586 -0.569664 0
1.868809 2.995429 0.742582 0
-2.955572 5.006000 0.043653 0
1.910465 3.678627 1.436685 0
1.464401 5.573051 0.064895 0
-2.665067 2.729084 0.517884 0
0.611700 1.358885 -0.168151 0
1.497250 2.218305 0.501619 0
-1.969748 5.023346 -0.343124 0
1.450008 0.484808 -0.311032 0
-3.278830 3.223533 -0.067979 0
-2.636842 2.508664 -1.117395 0
-2.142191 2.033199 -0.837624 0
-0.444803 0.343424 -0.129749 0
0.229330 1.577241 0.035984 0
-0.445662 0.406940 -0.134142 0
1.626339 0.730079 -0.333297 0
1.317818 4.150252 0.347937 0
-0.077831 0.428088 -0.110438 0
1.718745 5.439728 0.851919 0
1.618797 4.018342 -0.074905 0
-4.753517 6.003501 1.026344 0
-0.868497 2.955018 0.233279 0
-1.616207 1.641772 -0.530964 0
1.309816 1.461996 -0.063759 0
1.563032 0.919041 -0.336545 0
-3.511177 2.905344 -0.967343 0
1.354159 2.020692 0.150283 0
-0.241650 3.756169 -0.238458 0
-0.160956 0.736160 -0.122149 0
-3.114769 3.144427 0.567669 0
-5.080036 7.399718 0.674858 0
1.582280 0.925477 -0.284273 0
-3.396130 2.478595 -0.195776 0
0.385211 1.189565 -0.138892 0
-1.830193 2.743340 -0.388005 0
1.605430 0.769455 -0.408724 0
1.368449 2.060495 -0.230710 0
-0.186554 0.737235 -0.129549 0
1.372416 1.303111 -0.487516 0
0.667794 3.452092 -0.171053 0
-0.366003 1.191882 -0.103646 0
-0.171239 3.672812 -0.000035 0
0.064995 3.179370 -0.163994 0
-1.837684 2.296911 -0.883976 0
-2.031205 3.233852 -0.494099 0
1.812935 7.093146 -0.315365 0
-2.591417 3.204036 0.350204 0
-1.584230 6.323663 1.455179 0
-3.895779 3.488313 0.252731 0
-2.400410 3.210451 0.105043 0
1.568099 0.811492 -0.415789 0
-5.317549 6.541653 1.571201 0
1.444889 0.811009 0.100271 0
-0.215812 0.727793 -0.105216 0
-0.062636 0.499713 -0.123787 0
-3.309088 3.301162 0.247674 0
-1.798371 2.768985 -0.396037 0
0.336673 1.424313 -0.165841 0
0.251152 1.700618 0.018319 0
1.502391 0.367083 -0.542375 0
1.518641 0.371534 -0.551297 0
1.518039 0.373206 -0.547949 0
1.581474 0.283875 -0.593330 0
1.471328 0.430525 -0.415959 0
1.447029 2.425946 0.279756 0
1.532447 3.514339 1.484893 0
0.969061 5.202074 -0.376476 0
1.712105 1.893798 0.370091 0
0.662734 1.031406 -0.249106 0
-1.981681 5.054778 -0.339985 0
1.369861 0.936373 0.122230 0
-4.664000 6.069077 1.024578 0
-0.268700 1.125515 -0.071482 0
-1.996900 2.820438 -0.464314 0
-0.120032 0.730294 -0.136474 0
1.717245 5.524242 0.953378 0
1.252147 1.277276 -0.315499 0
-0.057103 3.636571 -0.188596 0
-2.108361 3.373445 -0.177051 0
1.555355 0.910379 -0.332806 0
0.068773 3.100388 -0.263885 0
0.048933 0.822970 -0.133841 0
-2.108487 1.889669 0.007259 0
-4.781303 6.881672 0.865514 0
-2.156085 5.300895 0.049185 0
1.573085 3.949898 1.326882 0
1.489314 0.877497 -0.081943 0
-3.606941 3.246065 0.879659 0
1.587671 3.999734 -0.053332 0
1.363584 2.197826 0.147150 0
-2.926566 2.709168 -0.023603 0
0.495725 0.941082 -0.141471 0
-0.823258 0.574701 -0.177026 0
1.120738 0.239686 -0.348720 0
1.653368 0.924214 0.337935 0
1.355624 0.526128 -0.040254 0
1.682520 0.535583 -0.317296 0
1.541130 0.628267 0.222526 0
1.531452 0.718842 0.386210 0
1.473915 0.443970 -0.129709 0
1.543597 0.630902 -0.313831 0
1.494419 0.542374 0.026911 0
1.579247 0.766325 0.311627 0
1.812961 1.021918 0.323500 0
1.455163 0.786081 0.099889 0
1.652731 1.246408 0.640908 0
0.658182 1.030950 -0.199881 0
-1.895471 2.177824 -0.482169 0
-0.145621 1.037049 -0.113190 0
-4.515140 6.515476 0.551120 0
-4.652333 4.924901 1.381472 0
0.337362 1.273132 -0.108867 0
0.295900 1.346253 -0.075647 0
-0.166763 0.880449 -0.065875 0
0.031553 0.941302 -0.034388 0
0.046585 0.929779 -0.002872 0
-0.486695 1.203127 -0.099316 0
1.422563 0.975663 0.101790 0
0.046170 0.943806 -0.005248 0
-0.103586 1.048912 -0.055939 0
1.442133 0.962008 0.247512 0
-4.651975 6.081951 1.397533 0
1.562497 2.107580 0.511499 0
1.486894 5.595569 0.101948 0
-4.835734 6.946222 1.053053 0
0.243079 4.629883 1.486132 0
-0.123536 0.186758 -0.117028 0
-3.196137 3.243932 0.595618 0
-3.522429 2.820619 0.116182 0
-4.335521 4.194602 -0.110440 0
-4.450315 8.990172 0.791290 0
-2.038694 2.651500 -0.451877 0
-4.734755 4.234048 1.322543 0
-0.141934 0.942231 -0.113788 0
-0.007373 1.504377 -0.146097 0
0.399691 1.502668 -0.096353 0
-4.260003 3.430884 0.265523 0
-0.214696 0.712110 -0.099580 0
1.566761 0.918491 -0.395326 0
0.412004 1.261732 -0.107759 0
-0.093151 1.406791 0.267844 0
0.373807 0.025191 -0.098043 0
0.034119 0.395456 -0.123372 0
0.541304 2.180212 -0.190907 0
0.494753 1.076229 -0.136002 0
-0.140715 0.174138 -0.120835 0
0.060552 0.432795 -0.111772 0
0.115027 0.389974 -0.086176 0
0.014106 0.389697 -0.128606 0
0.037392 0.491135 -0.172890 0
-4.552817 8.169826 0.509567 0
-0.627122 3.095617 0.094539 0
-0.321451 0.073897 -0.288793 0
1.412264 0.916146 -0.192641 0
0.277889 1.212973 -0.142513 0
-0.064200 0.330744 -0.109476 0
0.471419 0.948773 -0.126781 0
-0.158761 0.759972 -0.076482 0
1.216358 1.318755 -0.331929 0
-2.598596 2.756858 -0.199467 0
0.033477 0.434753 -0.158528 0
0.768052 2.177140 -0.265894 0
-0.344365 4.906057 0.241507 0
-3.117421 3.181752 0.590730 0
-2.724253 3.105222 0.513428 0
0.211529 0.359669 -0.117026 0
0.119821 3.653228 0.070594 0
0.217331 0.367952 -0.123079 0
-0.068937 0.421744 -0.112581 0
-2.726069 2.737227 0.177560 0
-0.063638 1.258265 -0.012083 0
0.231767 1.584168 -0.055787 0
0.252103 1.640600 0.018102 0
0.234861 0.144613 -0.106575 0
-4.181368 3.230574 0.281778 0
0.022300 1.572479 -0.159610 0
-0.297066 1.599491 -0.057656 0
0.319322 0.123504 -0.113007 0
1.363782 1.272046 -0.155445 0
-3.456033 2.413956 0.209406 0
1.365877 1.892282 -0.221635 0
-2.255276 2.866711 -0.090666 0
1.374342 2.012861 -0.228754 0
-2.467822 2.632684 -0.898823 0
0.061236 0.482827 -0.131616 0
1.663049 1.243520 0.654280 0
0.354169 0.247581 -0.117316 0
-2.565606 6.430304 0.126538 0
-3.731775 3.262708 0.241623 0
-5.173015 3.955617 0.326907 0
-4.698522 6.814896 1.433835 0
1.894796 2.775729 1.080774 0
0.044318 0.816321 0.011491 0
1.384290 2.043981 -0.219459 0
-0.711785 0.638179 -0.128636 0
-1.769123 2.770778 -0.895121 0
-2.246213 4.047615 -0.358748 0
-0.261700 1.129255 -0.078420 0
-0.107217 0.602538 -0.063971 0
-107.745522 237.717529 -54.392479 0
1.371985 2.419551 -0.054372 0
-2.209467 3.170698 -0.855860 0
-0.159734 0.339191 -0.106232 0
-2.315020 2.323557 -0.387603 0
1.479398 0.668467 0.131616 0
1.494845 0.606216 0.226028 0
1.495063 0.450036 -0.131463 0
1.487286 0.667065 0.132528 0
1.558841 0.747523 0.271762 0
1.504762 0.454713 -0.261551 0
1.716040 0.981194 0.912188 0
1.533669 0.630779 0.057180 0
1.477846 0.604263 0.064014 0
1.430462 0.363746 -0.295797 0
1.530028 0.467618 -0.138031 0
0.195056 0.527004 -0.123562 0
-0.079701 0.408575 -0.098123 0
0.266888 1.224565 -0.086060 0
-0.166473 0.757690 -0.095253 0
-2.308415 2.933569 -0.076636 0
1.298181 1.824492 0.400706 0
-3.070806 2.828938 -0.060771 0
0.037429 5.462025 1.396769 0
1.465034 5.497293 0.508670 0
1.568428 3.666783 0.212618 0
-0.348356 1.763950 -0.030747 0
0.058514 0.453637 -0.116311 0
1.393383 2.226391 0.152455 0
-0.187233 1.213314 -0.221964 0
-0.427424 1.343758 -0.047463 0
-0.340044 1.091100 -0.030282 0
-0.169044 0.146228 -0.109436 0
-0.196804 1.057444 -0.042169 0
-0.270191 0.137043 -0.102896 0
-0.164530 0.174541 -0.108061 0
-0.241281 0.148813 -0.118514 0
-0.475610 2.276256 0.057504 0
-4.501596 4.011371 0.796378 0
-0.100376 0.116232 -0.079009 0
0.046510 0.364502 -0.120858 0
1.421743 1.334458 0.073942 0
1.457873 4.419277 -0.595791 0
1.362153 1.023332 0.286143 0
-3.160145 3.143249 0.245207 0
0.569771 0.495885 -0.164534 0
-4.780521 8.592602 1.355568 0
-0.679823 2.637841 -0.048814 0
-0.021541 0.886091 -0.054007 0
1.690724 1.508003 0.656266 0
1.178375 1.425394 -0.071922 0
-2.053536 7.647555 -0.059211 0
1.396995 1.391413 -0.046097 0
0.056253 0.507853 -0.122553 0
-0.565907 1.369472 -0.224596 0
-0.103125 0.935059 -0.137371 0
-0.368206 0.486752 -0.130691 0
-2.633049 4.651234 0.004364 0
0.034988 0.395210 -0.123436 0
1.582189 2.316824 0.518149 0
-0.154766 0.336677 -0.106812 0
-3.903488 2.931056 0.233338 0
-0.039148 2.752604 0.062403 0
1.175883 1.932404 -0.195422 0
-0.671509 0.689556 -0.230924 0
1.457687 1.396924 0.251263 0
1.425226 2.293905 0.376923 0
-2.141204 2.708560 -0.175605 0
-0.387008 0.953349 -0.046552 0
1.708007 0.261447 -0.762213 0
0.008089 0.877574 -0.042223 0
-3.020193 4.126242 0.210439 0
-2.246880 3.085789 -1.050597 0
0.579479 3.183643 -0.202515 0
-2.244184 4.959991 -0.938203 0
1.602423 3.633641 -0.836586 0
1.506669 2.530931 -0.351002 0
-1.708886 2.086920 -0.618970 0
-0.868869 4.298096 0.225582 0
-0.388049 1.664013 -0.075112 0
-0.038825 0.988630 -0.117950 0
-0.210437 1.244723 -0.073864 0
-0.218516 1.174991 -0.017937 0
-0.386185 1.219745 -0.007560 0
0.070091 7.689461 1.365032 0
-0.470714 4.170472 -0.169405 0
0.232837 0.281752 -0.095610 0
-0.481834 1.330135 -0.105318 0
-2.396631 3.056373 -1.227450 0
-0.195597 0.692277 -0.125637 0
1.366252 1.974971 0.172365 0
0.446408 0.254694 -0.118987 0
1.449522 3.753753 0.170751 0
-1.724565 2.332443 -0.753743 0
-0.887838 2.715144 0.043951 0
0.340783 0.038845 -0.104304 0
0.402667 0.013688 -0.118005 0
-4.808908 3.727476 1.448307 0
-4.556845 4.057459 0.292064 0
1.549649 5.188221 -0.205434 0
1.580294 4.316520 -0.135287 0
-3.348081 3.006178 0.953627 0
0.213310 0.363396 -0.118232 0
0.196845 0.530561 -0.127395 0
0.215472 0.364219 -0.119389 0
-0.048700 3.846466 -0.164099 0
-3.178658 5.880643 1.460273 0
-1.188505 4.852847 -0.017033 0
1.549075 0.730607 -0.376303 0
-2.785437 3.178921 0.521734 0
1.632490 0.737699 -0.333515 0
1.496045 0.589176 -0.305890 0
-0.752363 0.692741 -0.158287 0
-1.048280 2.154479 -0.233537 0
-2.224029 4.902836 -0.925951 0
1.459298 3.743483 -0.664436 0
0.003118 1.474707 -0.142285 0
0.105974 0.460354 -0.063250 0
-0.351900 1.078064 -0.111242 0
0.108883 0.459298 -0.066215 0
1.398685 2.311204 -0.245463 0
-0.316581 3.881432 0.088942 0
1.550219 4.176799 0.088234 0
-0.470176 1.532265 -0.090916 0
0.108661 0.463668 -0.066089 0
-0.418575 1.321815 -0.045474 0
-0.007244 0.956511 -0.133778 0
-0.176793 0.988344 -0.083123 0
1.547068 1.506388 0.273805 0
-3.003326 3.134539 0.226251 0
-2.339508 6.525466 -1.100179 0
-4.204588 8.487238 -1.839919 0
1.384134 1.038429 0.264074 0
-0.692153 1.455201 -0.140136 0
-2.978527 4.963054 0.236183 0
1.415246 2.099766 -0.124169 0
-2.197520 3.743852 -0.564812 0
-4.517413 10.083481 0.851676 0
-0.408681 1.782498 -0.063012 0
0.759374 1.541327 -0.237868 0
-2.242564 2.679014 -0.911178 0
1.386293 2.346818 -0.299461 0
-1.905630 2.433895 -0.920614 0
-0.708513 3.398056 0.228481 0
-0.804582 3.256889 -0.120405 0
1.394452 1.049566 -0.213643 0
1.356025 1.028837 -0.053341 0
1.382849 2.332383 -0.316820 0
-2.753364 4.607873 -0.071003 0
-2.184452 4.670154 -0.156599 0
-2.261048 3.083073 -0.901612 0
-1.791466 2.282396 -0.848159 0
0.221680 0.370494 -0.125560 0
0.045811 0.805595 -0.129606 0
1.350707 2.233382 -0.235513 0
-2.555209 3.802967 -0.180999 0
-1.080380 6.256727 1.431642 0
-4.540302 9.203593 0.806305 0
-0.811264 2.841492 0.216859 0
-1.097509 6.419738 1.465778 0
0.012111 1.475916 -0.136009 0
-0.094070 1.001346 -0.071512 0
-0.370964 0.801445 -0.170817 0
-0.361764 1.141091 -0.136359 0
0.238751 0.147418 -0.109985 0
-0.347502 0.734820 -0.140059 0
-0.221082 1.145812 -0.055475 0
-0.211142 0.888067 -0.117952 0
-0.194023 0.884109 -0.116087 0
1.394340 2.179463 -0.209865 0
-2.002903 2.706737 -0.813829 0
-2.941737 3.408510 1.465820 0
1.742926 1.928677 0.376791 0
0.021402 0.496494 -0.118091 0
1.919336 2.760216 0.653504 0
1.183846 0.889060 -0.216010 0
0.102702 0.438880 -0.071094 0
-0.333314 4.555675 0.213096 0
1.528155 6.218165 0.856727 0
-4.772248 3.474432 0.638648 0
-2.237798 2.264426 -0.378200 0
-7.838289 8.731552 0.076309 0
-3.013751 3.388138 0.234693 0
0.383159 1.184808 -0.032002 0
0.185219 0.370634 -0.110294 0
-0.085342 0.105126 -0.063917 0
0.562174 2.841534 -0.379582 0
-0.136948 0.776992 0.017989 0
44.876274 34.240788 -1.300283 0
-4.433123 5.871537 1.131989 0
1.408912 1.317746 0.072846 0
-0.801744 1.682701 -0.175083 0
-0.139205 0.198113 -0.119434 0
-0.129460 0.187481 -0.109396 0
0.066740 3.611196 0.008291 0
0.094459 0.409304 -0.164934 0
-0.133559 0.179324 -0.111636 0
0.633556 0.978290 -0.184310 0
-1.895583 2.755242 -0.693278 0
-2.023523 7.539199 -0.096765 0
1.456408 0.216558 -0.522423 0
1.508601 0.223483 -0.548242 0
1.671732 1.430434 0.291644 0
0.147211 4.173210 0.224525 0
0.396558 1.529735 -0.128456 0
-0.208440 1.098172 -0.055908 0
-0.122368 0.784792 0.270747 0
0.102785 0.447493 -0.114669 0
0.080983 0.421790 -0.130753 0
-0.072982 0.429313 -0.114193 0
1.857568 3.398227 0.911659 0
-3.033054 3.340288 0.231403 0
1.884717 3.222372 0.743249 0
-2.898462 2.975880 0.580747 0
-3.471424 4.339589 -1.507164 0
-0.266467 1.194086 -0.060673 0
-4.378242 6.299223 0.788587 0
-4.140273 3.701948 0.839726 0
1.872041 8.144002 0.944417 0
-3.753867 3.855331 -0.115505 0
-3.052083 5.171030 0.037839 0
-0.316534 1.034241 -0.060261 0
-0.252814 0.837062 -0.149882 0
-0.249727 1.277729 -0.009868 0
-1.795623 2.233567 -0.865541 0
-1.945059 2.652996 -0.728959 0
-2.429778 3.186084 0.335335 0
-2.399653 3.054561 -0.124607 0
1.591770 3.663459 0.730569 0
-2.159562 2.714020 -0.757988 0
1.574837 0.789220 -0.222231 0
0.061420 0.486817 -0.132446 0
-3.066335 3.131275 0.536956 0
0.171886 0.857523 0.000454 0
-0.085964 0.690781 -0.133548 0
0.102096 0.888356 0.003558 0
0.612394 3.770412 -0.221957 0
-0.327044 1.053746 0.022133 0
-0.305007 0.976323 -0.111431 0
0.638699 0.943318 -0.223622 0
1.840405 3.073740 1.088649 0
1.540462 3.929085 0.419843 0
1.327179 2.263091 0.055937 0
-1.057429 3.513062 0.142150 0
-0.145247 0.189111 -0.112449 0
-0.215190 0.880911 -0.120295 0
1.537248 0.337356 -0.575745 0
1.593513 0.346838 -0.603733 0
-0.159922 0.130327 -0.116023 0
-0.166989 0.353093 -0.117439 0
1.449457 1.091115 0.266184 0
1.558293 0.635292 -0.312081 0
1.493433 0.579353 -0.311455 0
0.061938 0.332870 -0.121053 0
0.171366 0.724736 -0.004292 0
0.785130 1.110379 -0.122135 0
1.203599 1.305430 -0.304783 0
0.044710 4.462167 0.266255 0
1.492697 0.596252 -0.076004 0
1.453537 0.441451 -0.120989 0
1.480219 0.079903 -0.673242 0
1.540329 0.225011 -0.667330 0
1.504254 0.387892 -0.165435 0
1.477684 1.412219 0.259437 0
1.731412 2.212015 0.533113 0
-2.733063 3.277997 0.206921 0
1.414399 1.741951 0.021671 0
0.696755 0.968700 -0.088507 0
-0.036649 1.026781 -0.114003 0
1.536915 0.452759 -0.442135 0
-2.196532 4.329475 -0.818622 0
-4.721154 5.974378 1.015762 0
0.401217 0.201920 -0.113193 0
1.445232 0.941656 0.199460 0
-0.325246 0.078747 -0.083597 0
-0.066562 0.503305 -0.127751 0
-0.320855 0.077044 -0.080254 0
-0.073307 1.045994 0.007383 0
0.054934 0.515816 -0.124103 0
0.046316 0.361226 -0.118862 0
-3.631592 4.193777 -0.200175 0
-0.411238 0.190897 -0.125948 0
-0.605577 1.402702 -0.227349 0
-0.285318 1.144424 -0.070912 0
-0.006415 0.955118 -0.132611 0
1.688462 7.222482 1.222211 0
-1.992162 2.813020 -0.461812 0
1.184142 6.389030 -0.027968 0
-1.785302 2.216426 -0.867642 0
-2.114528 2.216048 -0.469912 0
1.496467 3.489966 -0.064331 0
-2.444298 3.182398 -0.814912 0
1.512054 0.907076 0.270360 0
-0.010322 0.951091 -0.129207 0
-0.114958 0.790573 0.263813 0
1.570943 5.911051 0.151627 0
1.856458 2.414534 1.273175 0
-99.501305 90.848289 7.771939 0
-2.863869 4.247921 -0.093028 0
-2.527632 4.553014 0.028037 0
-0.066496 0.503353 -0.127389 0
0.389992 1.463978 -0.085568 0
-1.834560 1.846737 -0.509666 0
-2.309734 2.921896 -0.811073 0
-0.085252 0.218537 -0.048061 0
-0.189041 0.416845 -0.171979 0
-0.164809 0.225266 -0.121613 0
-0.127712 0.153949 -0.102584 0
-0.111188 0.198877 -0.092102 0
0.109863 0.429568 -0.091444 0
-0.134111 0.192226 -0.114044 0
0.129740 0.863930 0.013443 0
0.068404 2.909003 -0.149615 0
-4.071349 5.077375 0.523459 0
1.492281 1.047759 0.316486 0
1.394732 1.313403 0.074814 0
-4.556142 6.658660 1.233845 0
-0.463080 0.353560 -0.141945 0
1.478006 4.381486 -0.916032 0
-2.027471 5.597792 -0.922708 0
-1.959663 8.923152 1.001846 0
-0.666703 3.889609 0.565694 0
0.386513 7.919165 0.353965 0
-4.831108 4.491574 1.058940 0
1.898232 8.171624 0.751661 0
1.009418 2.295292 -0.448509 0
0.568367 1.166724 -0.171783 0
1.623790 1.408795 0.634863 0
0.058044 0.480930 -0.068678 0
0.053760 0.478442 -0.102338 0
-0.173903 0.363466 -0.103255 0
-0.248009 0.185843 -0.122790 0
-2.675318 4.825444 0.025612 0
-0.202882 0.429365 -0.144526 0
-0.426260 1.238420 -0.053985 0
-0.457332 1.342584 -0.064300 0
-0.133803 0.412646 -0.105157 0
1.557939 0.634515 -0.392581 0
-0.059844 0.485546 -0.123676 0
1.404382 1.713339 -0.511026 0
0.056842 0.475365 -0.067111 0
-0.092596 0.668548 -0.127838 0
1.369501 1.517141 -0.069635 0
1.539999 4.114298 -0.787710 0
-3.113657 3.167489 0.580572 0
-1.902091 2.510493 -0.258583 0
0.078863 3.322531 -0.168541 0
-2.037110 2.159984 -0.536515 0
-2.729029 7.710860 0.062546 0
1.109263 2.248564 -0.431589 0
-0.822676 0.574768 -0.171697 0
1.690467 1.271243 0.655065 0
-0.100503 0.690976 -0.110025 0
-0.102961 0.710998 -0.120484 0
1.366448 1.286938 -0.036715 0
-1.975871 2.686549 -0.292148 0
-0.074546 0.410313 -0.096131 0
0.050510 0.478065 -0.099019 0
0.190638 0.868416 -0.017557 0
-0.335249 1.334044 0.000305 0
1.537093 6.151416 0.440164 0
0.111406 0.454335 -0.099356 0
-0.192576 0.877754 -0.111424 0
-0.647848 1.301291 -0.099125 0
1.357313 2.396090 0.096929 0
1.502637 0.458226 -0.284297 0
1.658695 0.934274 0.315163 0
1.525453 0.466216 -0.292971 0
1.498180 0.673266 0.130599 0
1.726393 0.973424 0.316754 0
1.502366 0.673445 0.131739 0
1.383726 1.011401 0.222596 0
-0.139242 0.800063 -0.042521 0
1.636299 6.825405 1.199157 0
-4.070012 6.310811 -2.754011 0
-1.964551 2.480626 -0.140884 0
-2.512868 2.743440 -0.072227 0
-0.081579 1.019554 -0.048442 0
-0.037283 1.131704 0.119817 0
1.398859 1.318811 -0.044924 0
-0.131212 0.214207 -0.118564 0
0.173339 0.950961 -0.197277 0
-0.819923 1.807862 -0.253482 0
1.668213 2.036444 0.472632 0
-0.012098 2.339307 0.130313 0
0.684645 1.084261 -0.232934 0
1.534176 8.100752 -1.167778 0
1.523942 0.691693 -0.507515 0
1.393317 1.725243 0.223880 0
-2.402358 3.464238 -0.276127 0
-0.120362 0.791066 0.269022 0
-4.934627 8.872084 1.185174 0
1.302060 2.234836 -0.251753 0
-0.071386 0.224029 -0.118332 0
1.575202 0.724350 -0.535859 0
1.570008 0.572651 -0.587851 0
-0.276477 0.139542 -0.113373 0
-0.011961 0.417534 -0.131301 0
-0.169656 0.357772 -0.098724 0
-0.133717 0.780015 -0.023057 0
-0.166236 0.696400 -0.121285 0
-0.067884 0.411902 -0.101015 0
-2.135252 3.311046 -0.515462 0
1.712923 1.478792 0.324388 0
-2.226801 4.785926 -0.238681 0
-2.101655 2.203603 -0.460984 0
1.560144 4.273553 1.498735 0
0.102557 0.674242 -0.121797 0
0.231800 1.697927 -0.084604 0
-0.014055 0.407301 -0.122459 0
-2.279340 4.461890 -0.199421 0
-0.172170 0.357143 -0.099102 0
-2.521976 2.821149 -0.224182 0
0.142582 4.144789 0.221889 0
-0.512633 0.504625 -0.140014 0
-0.649056 0.684933 -0.258220 0
-3.310694 5.960951 0.396654 0
1.641686 1.030295 0.291992 0
1.455177 0.813583 0.098878 0
0.067253 7.873043 1.373914 0
1.616262 1.175341 0.358155 0
1.503152 0.756591 -0.200380 0
1.110509 3.159467 -0.392364 0
0.129185 1.178608 -0.015375 0
1.471758 0.962761 0.244538 0
1.499132 0.501937 -0.334336 0
1.580064 0.732022 -0.381919 0
-0.144785 0.307277 -0.084922 0
0.176752 1.186844 -0.001004 0
-0.083096 1.043469 -0.047015 0
1.487582 0.224987 -0.712704 0
-0.015483 0.415746 -0.126725 0
0.881419 3.623344 -0.454352 0
0.136716 0.496197 -0.127111 0
-0.154485 0.420908 -0.116254 0
1.559232 -0.079349 -0.816388 0
0.271365 1.023179 -0.089169 0
1.712709 1.896256 0.432854 0
-0.004355 0.182040 0.027137 0
-0.073190 0.359266 -0.134199 0
0.095013 0.407014 -0.169437 0
0.094358 0.405267 -0.165338 0
0.322401 0.207953 -0.111034 0
0.043262 5.180917 1.340223 0
0.118244 0.283992 -0.094068 0
-0.470133 1.334135 -0.275545 0
-1.647223 1.282679 -0.131322 0
-0.208408 0.165069 -0.185758 0
-2.389292 1.941995 0.040447 0
1.733735 1.808342 0.346174 0
0.194270 0.523527 -0.123809 0
1.802588 2.388379 0.892482 0
1.086724 0.817298 -0.084797 0
-0.858767 3.147362 0.230800 0
-0.080250 1.038854 -0.046589 0
-0.806208 3.031946 0.205294 0
1.550176 3.621223 0.030525 0
1.574042 3.835068 0.668745 0
0.496661 0.367753 -0.127841 0
-2.892848 3.261640 -0.116836 0
1.647581 2.138142 0.504559 0
-3.458318 3.436119 0.077609 0
1.375800 1.870671 0.113939 0
0.076717 0.392645 -0.115706 0
-0.854594 3.163836 0.225965 0
0.273998 0.354140 -0.136104 0
-0.144769 0.121616 -0.102591 0
0.259879 0.334244 -0.125222 0
-0.103660 0.503194 -0.139213 0
0.084833 0.360502 -0.140339 0
-0.052472 0.281413 -0.090754 0
0.049364 0.208715 -0.051600 0
0.116499 4.321035 0.269289 0
0.048626 0.195258 -0.044976 0
-0.178521 0.310283 -0.158899 0
0.064310 0.347290 -0.129100 0
-0.053879 0.287101 -0.095047 0
-0.052475 0.279007 -0.090587 0
-0.135800 0.249045 -0.114958 0
1.444712 1.299916 0.264496 0
0.047510 0.812504 -0.128719 0
1.364096 1.032480 0.222953 0
0.107433 0.455476 -0.062831 0
-0.467724 1.367428 -0.069851 0
0.497384 0.603826 -0.127352 0
-0.241663 1.041102 -0.113644 0
1.485747 3.553703 0.294708 0
1.264515 3.605381 0.430301 0
0.106262 0.689002 -0.129677 0
0.049079 0.471662 -0.094881 0
-0.121919 0.786407 0.269509 0
1.688785 2.433459 0.572569 0
-4.648741 4.149772 0.717996 0
1.205518 4.607135 0.462954 0
-2.899005 3.288915 0.066210 0
-4.283555 5.344614 0.623197 0
-0.592669 0.795327 -0.224611 0
-0.576544 1.103364 -0.183518 0
0.075240 0.370186 0.049436 0
1.409878 1.342232 -0.365512 0
-0.114665 0.129354 -0.038659 0
-4.809564 4.296826 1.094913 0
2.365712 3.917589 1.279947 0
-0.060196 0.383456 -0.103144 0
1.649903 4.737094 0.521224 0
1.157703 3.300295 -0.425306 0
-2.114134 2.218575 -0.598032 0
-0.907489 3.454960 0.063802 0
-2.261709 2.521126 -0.213485 0
-2.932495 8.129360 -1.276828 0
-2.430614 3.501992 -0.970398 0
1.796373 1.313579 0.595276 0
0.531699 2.892650 -0.158013 0
1.440153 0.923133 -0.084199 0
-0.209005 0.888400 -0.008090 0
-0.217653 0.914253 -0.126186 0
0.100911 0.873719 0.006975 0
0.027600 0.874929 -0.093568 0
0.425816 0.031218 -0.109068 0
-1.915719 2.221942 -0.442734 0
-0.164903 0.746046 -0.065604 0
1.360002 2.084762 0.374233 0
0.394833 0.198281 -0.117641 0
1.657760 2.412158 0.523849 0
-2.310152 4.964393 -0.848328 0
-19.423208 15.351624 -1.403289 0
-1.101194 1.901752 -0.196389 0
-1.552777 1.210978 -0.130721 0
1.727465 1.908559 0.338589 0
-0.136271 0.311647 -0.113749 0
-0.013368 0.301730 -0.106326 0
-2.176861 4.463964 -0.110269 0
2.082156 2.749610 1.101519 0
-0.043468 0.476080 -0.209584 0
-0.054290 0.345843 -0.092453 0
0.315413 1.170146 -0.122984 0
0.051312 0.852141 -0.135108 0
0.521352 0.971293 -0.036252 0
0.402277 0.203720 -0.115414 0
-2.267249 3.824617 -0.142915 0
-5.416439 4.830339 1.343562 0
1.753263 1.522537 0.332528 0
1.280370 0.975086 0.007445 0
-0.147004 0.186039 -0.120231 0
-0.695704 0.223624 -0.648033 0
-1.366599 0.414006 -1.314337 0
-40.513634 11.391220 -39.533142 0
-0.137307 0.894842 -0.435442 0
1.418146 2.153579 0.412101 0
-0.474556 0.898792 -0.458269 0
-4.388100 5.795365 0.981775 0
-0.004071 3.453583 1.516530 0
-0.023486 0.299536 -0.047769 0
-3.779418 3.896719 -0.311529 0
-0.041595 0.071652 -0.005581 0
-0.163143 0.142974 -0.106634 0
-0.851914 0.974857 -0.471381 0
1.353844 1.028584 -0.024075 0
0.442398 0.263095 -0.120016 0
-0.360638 1.769042 -0.042834 0
1.380566 1.893254 0.392268 0
0.729175 1.006335 -0.109124 0
0.025575 1.019242 -0.071012 0
-0.064139 0.393184 -0.111697 0
-0.168538 0.353323 -0.094899 0
0.110627 0.468964 -0.067537 0
0.277958 1.196681 -0.139738 0
1.512055 0.224272 -0.646920 0
0.364950 1.344637 -0.116001 0
0.021119 3.610983 -0.131741 0
1.488944 0.884188 0.127181 0
-0.061667 0.390314 -0.107223 0
-0.114565 0.796339 -0.130426 0
0.100941 0.448699 -0.115744 0
1.602922 0.899807 0.324615 0
1.502399 0.833398 0.313456 0
1.538111 0.689356 -0.089850 0
-1.642020 3.099838 -1.062322 0
-0.034525 1.012541 -0.007363 0
1.662010 0.934002 0.321951 0
-0.008465 0.977363 0.034185 0
-1.927203 1.324427 -0.189090 0
-0.068959 0.417040 -0.111793 0
-3.064707 3.317257 0.228707 0
-0.349252 1.162163 -0.102974 0
-4.098902 1.141455 -3.906814 0
-0.911133 3.913734 -0.047053 0
-0.165431 0.248481 -0.147220 0
-54.670799 -0.165041 -49.807323 0
0.185017 0.472323 -0.204301 0
0.142456 0.602162 -0.013551 0
36.379570 10.659557 -38.909355 0
-1.260296 5.713950 -0.930761 0
7.778340 2.374381 -8.234970 0
-0.187799 0.518559 -0.098479 0
-0.209731 0.393283 -0.121384 0
-2.534964 6.889535 -1.925990 0
-0.066902 0.417992 -0.128771 0
0.107367 0.478024 -0.068529 0
-4.969526 6.219491 1.415339 0
-2.465967 4.687110 -1.654222 0
1.448486 4.434439 0.023273 0
-4.858587 5.938964 0.979603 0
-4.842915 4.512287 1.286439 0
1.580534 3.907174 0.451386 0
0.163702 0.850729 -0.419120 0
-0.070566 0.349176 -0.123382 0
-0.165110 0.378845 -0.110455 0
-0.169733 0.177544 -0.112449 0
-0.433158 1.407012 -0.134675 0
0.249421 0.297284 -0.135871 0
-4.352442 6.243584 0.402482 0
0.366066 1.364978 -0.119753 0
0.111856 0.437423 -0.121029 0
0.040621 0.711422 -0.145200 0
0.028996 1.100602 -0.137981 0
-0.427213 1.072279 -0.080914 0
-30.176117 78.501144 -20.950056 0
-0.013142 0.409373 -0.125875 0
-0.077026 1.243555 0.242498 0
-0.866483 1.573585 -0.147119 0
0.112067 0.444777 -0.123115 0
0.338505 0.037763 -0.101830 0
1.766846 2.768917 0.869109 0
-3.307775 3.236276 -0.070371 0
-0.556782 2.306981 0.076975 0
-2.941131 3.074940 -0.232064 0
1.346803 0.802211 0.258988 0
-2.230876 3.990193 -0.341630 0
-0.055736 0.345111 -0.084824 0
-0.055429 0.360205 -0.094593 0
-0.061218 0.379116 -0.105206 0
0.291738 1.445450 -0.078343 0
1.421550 1.748493 -0.542961 0
1.368410 2.225513 0.146596 0
1.459773 0.813733 0.094706 0
1.435174 0.738289 0.098524 0
1.436289 0.746876 0.068141 0
1.407506 1.714084 -0.111714 0
-0.168694 0.146995 -0.109818 0
1.205731 1.409988 -0.261685 0
0.611578 1.191226 -0.075828 0
0.537403 0.440460 -0.141319 0
0.048445 0.391867 -0.122279 0
-0.238623 1.151977 -0.082068 0
1.206265 1.365039 -0.178827 0
1.437438 2.118148 0.440857 0
0.043053 0.546775 -0.132581 0
0.011215 0.380294 -0.125448 0
-0.141078 0.929203 -0.111421 0
-0.058975 0.395267 -0.104561 0
1.428632 0.740192 0.097629 0
1.668410 0.935125 0.317407 0
-2.267012 3.309577 -0.242691 0
1.456396 0.746020 0.096887 0
1.543628 0.725076 0.388961 0
1.541826 0.724095 0.388524 0
1.527860 0.628592 0.057999 0
1.436829 0.517153 0.038837 0
1.412987 0.358959 -0.143720 0
1.255370 0.863153 -0.311300 0
0.015954 0.308638 -0.121312 0
-2.903740 6.974096 1.430970 0
-3.032863 6.194677 0.120658 0
-2.983131 3.249119 0.551874 0
-2.304272 5.122078 0.000046 0
-1.764028 5.237250 -0.083995 0
-2.163681 2.938132 0.245606 0
0.082768 0.485586 -0.065097 0
-0.081434 0.472823 -0.143471 0
-0.305092 0.964995 -0.104396 0
-0.260224 0.132397 -0.098031 0
-0.455714 1.150122 -0.130544 0
0.000407 0.363944 -0.121252 0
1.477213 1.112232 -0.290069 0
-0.009210 0.489166 -0.199764 0
-0.198306 0.984438 -0.049452 0
0.059133 0.336517 -0.118213 0
0.024553 0.803211 -0.079411 0
0.027429 0.777895 -0.045989 0
0.001601 0.364225 -0.118773 0
1.124454 1.307079 -0.130404 0
-0.076081 0.401109 -0.093652 0
0.063147 0.335185 -0.123230 0
1.411713 0.068821 -0.627994 0
-0.157001 0.347952 -0.114360 0
-0.812632 3.593479 0.009547 0
0.412349 0.017059 -0.122634 0
0.107153 0.427218 -0.113064 0
1.367093 2.300858 0.283732 0
0.152199 0.647588 -0.145151 0
-0.029853 0.989434 -0.112802 0
-0.200547 0.165400 -0.135933 0
-4.733209 3.585591 0.813374 0
-3.549257 2.751804 0.528949 0
0.019696 0.500438 -0.115943 0
0.192637 0.221453 -0.083814 0
-0.146909 0.122544 -0.104641 0
-0.141780 0.201114 -0.123041 0
-0.139018 0.249218 -0.115622 0
-0.180485 0.239017 -0.121816 0
-0.124366 0.219698 -0.106766 0
0.478254 0.366515 -0.120595 0
-0.175041 0.323267 -0.109568 0
-0.116462 0.244069 -0.098348 0
-0.212295 0.168837 -0.190538 0
-0.163391 0.184570 -0.117295 0
-0.167187 0.382850 -0.112098 0
-0.169477 0.227372 -0.112905 0
0.505698 0.605853 -0.133238 0
0.329347 0.177143 -0.121505 0
-0.171659 0.176044 -0.112070 0
-0.488648 0.381124 -0.130732 0
-0.186066 0.342133 -0.120447 0
0.234267 5.526914 1.416484 0
-0.136994 0.679295 -0.064060 0
-1.206220 1.057876 -0.734231 0
0.727931 1.367314 -0.080216 0
0.484622 0.393234 -0.119933 0
-0.729666 1.514134 -0.141365 0
-0.116319 3.648336 -0.010693 0
1.265555 0.962899 -0.003031 0
0.236429 4.666297 1.494210 0
3.106505 2.356803 -0.393744 0
1.440740 1.087632 -0.105727 0
-0.776088 0.666360 -0.389580 0
0.499628 0.300433 -0.127865 0
-0.529878 1.848964 0.082984 0
-0.068706 0.414190 -0.109994 0
0.104962 0.438386 -0.105703 0
1.405039 1.301959 -0.168093 0
-2.568988 2.620466 0.488243 0
1.865034 3.561540 1.505210 0
-63.297031 17.403648 -61.215813 0
0.071615 0.098824 0.007479 0
-0.161780 0.177732 -0.114953 0
-0.104953 0.541313 -0.161402 0
0.083896 0.180033 -0.037444 0
0.212718 0.083393 -0.103922 0
0.112915 0.468425 -0.114965 0
0.015549 0.348936 -0.111781 0
0.465112 0.353523 0.073780 0
0.083228 0.425712 -0.131374 0
0.262778 0.338420 -0.127788 0
0.333165 0.178492 -0.122745 0
0.033778 0.639468 -0.128321 0
-0.189474 0.152691 -0.166147 0
-0.151476 0.231506 0.138872 0
-0.067765 0.347635 -0.124816 0
-3.082126 3.125289 0.171122 0
-0.014634 0.304336 -0.106587 0
-0.001302 0.360375 -0.134437 0
-0.138060 0.281453 -0.116007 0
-0.111868 0.261710 -0.087926 0
0.228193 0.101488 -0.109017 0
-0.043055 0.967016 -0.125788 0
0.222694 0.100285 -0.105202 0
0.323737 0.292989 -0.107405 0
-0.068397 0.507188 -0.128967 0
0.200780 0.411469 -0.129394 0
0.014763 0.371637 -0.125108 0
0.369275 0.354030 -0.123750 0
-1.066725 0.924223 -0.083935 0
-0.132434 0.189852 -0.110574 0
-0.175402 0.234104 -0.117061 0
-0.162691 0.339155 -0.096201 0
-0.173932 0.313688 -0.114383 0
-0.120006 0.207054 -0.102054 0
-0.190768 0.153911 -0.168183 0
-0.173018 0.201231 -0.125067 0
-0.093866 0.236705 -0.072924 0
0.021904 0.040916 0.048958 0
-0.118758 0.248380 -0.100914 0
-0.123375 0.218828 -0.106226 0
-0.123845 0.255696 -0.106016 0
-0.206241 0.167335 -0.185650 0
-0.156963 0.215386 -0.116473 0
-0.164135 0.353539 -0.119177 0
0.076119 0.142843 -0.020881 0
-0.263770 0.128444 -0.119804 0
0.216926 0.357083 -0.120055 0
0.122245 0.309667 -0.094337 0
-0.120204 0.178469 -0.098329 0
0.466407 0.376082 -0.109339 0
-0.185857 0.239133 -0.134562 0
-0.150401 0.179424 -0.097908 0
-0.195110 0.244010 -0.135363 0
-0.146244 0.336982 -0.130004 0
-0.180401 0.206933 -0.131195 0
-0.162780 0.221459 -0.106537 0
-0.230581 0.179765 -0.122177 0
0.526570 0.401447 -0.143050 0
1.721365 1.781783 0.355639 0
1.371870 2.076688 0.152637 0
-11.799209 75.647430 -41.523121 0
-0.124148 0.795251 0.272653 0
-0.121292 1.021476 0.296004 0
-0.073238 1.226115 0.241207 0
-4.500625 5.806278 1.008941 0
1.799313 4.935412 1.411962 0
1.850789 2.693438 1.536944 0
1.364277 1.877494 -0.311841 0
1.413760 5.426011 0.146586 0
1.337168 1.833672 -0.301420 0
-5.054584 4.541373 1.557696 0
1.910831 5.871970 1.256399 0
1.829336 1.991683 0.442008 0
-2.449178 1.880077 -1.520721 0
1.523499 3.714029 0.223986 0
3.727513 11.385629 -6.193406 0
-5.145616 4.576742 1.442614 0
1.590352 3.795821 0.231689 0
1.904587 5.827196 1.260500 0
1.560272 3.608726 1.483333 0
0.082029 6.987134 1.281213 0
-3.085318 4.078522 0.738875 0
1.405077 1.755927 0.113887 0
1.480889 5.013150 0.392237 0
-0.153627 0.633564 -0.283242 0
1.482235 1.373783 0.261221 0
-4.862226 6.232443 1.479992 0
1.574796 4.009251 0.428810 0
1.728775 1.445228 0.674022 0
0.612291 0.544766 -0.189147 0
1.439915 5.484514 0.404753 0
1.372491 1.995125 -0.233797 0
-0.140530 0.814335 -0.058429 0
1.391049 1.307273 -0.046075 0
1.526390 4.073253 0.129868 0
0.036800 0.254665 -0.019323 0
-4.597188 8.549215 1.366739 0
1.694966 1.295386 0.357600 0
-4.116148 5.874690 1.332831 0
1.589808 6.025520 0.147491 0
-2.369708 4.152354 -0.227204 0
-0.340264 2.461773 -0.256265 0
1.355041 1.964278 0.170580 0
0.186032 0.842505 -0.128397 0
-0.296166 0.944310 -0.001964 0
0.282121 0.704738 -0.114845 0
-0.316398 0.901870 -0.011226 0
-0.281689 1.024852 -0.017640 0
0.544648 1.153910 -0.087621 0
-0.075642 0.514168 -0.127460 0
0.460813 0.402767 -0.120931 0
-0.192593 0.845686 -0.037415 0
-0.189494 0.826676 -0.032365 0
0.541797 1.234607 -0.120074 0
-0.337468 0.918126 -0.047710 0
-0.105140 1.032765 0.265537 0
-0.294547 0.992321 -0.014987 0
-0.258968 0.793304 -0.123452 0
-0.319507 0.859432 -0.038158 0
-0.184908 0.833009 -0.031536 0
0.085852 0.819459 0.013631 0
-0.072079 1.000710 0.120158 0
-0.177428 0.777965 -0.122274 0
0.167694 0.749001 -0.001521 0
-0.127923 0.928577 -0.064193 0
-0.316338 0.853819 -0.034610 0
-0.131339 0.937498 -0.066524 0
-0.301374 0.859446 -0.017224 0
-0.550644 1.067772 -0.173578 0
0.550522 1.190518 -0.128484 0
-0.295538 2.418993 0.063956 0
-0.139868 0.957174 -0.070284 0
-0.069098 0.990118 0.119086 0
1.179485 1.656930 -0.557437 0
-0.059801 0.486454 -0.127115 0
0.626058 0.563914 -0.207651 0
-0.002695 1.603164 -0.017473 0
-0.095301 0.819942 0.264412 0
0.320870 1.296443 0.084936 0
-0.279722 0.836233 -0.075628 0
-0.247633 0.773335 -0.122023 0
1.219578 1.935721 -0.574938 0
0.496419 0.433072 -0.173989 0
0.370702 0.316716 -0.076987 0
1.373887 1.812859 -0.525841 0
0.085409 0.812605 0.015632 0
1.693358 1.109825 0.306084 0
1.438938 1.312081 0.258086 0
0.226556 3.527503 1.544821 0
-0.068795 3.841577 0.040019 0
-4.366428 7.852364 0.503120 0
-3.866264 5.544730 0.850071 0
-0.693680 1.085618 -0.114639 0
1.859448 2.426603 1.281046 0
0.056305 3.217294 -0.167302 0
0.070176 3.066920 -0.156853 0
-2.560183 4.515338 0.134054 0
1.885900 1.546819 1.156075 0
1.891750 3.620293 1.536453 0
1.366819 1.717560 0.113718 0
1.006706 4.924487 1.515137 0
2.212117 2.925679 1.183173 0
1.131166 3.534085 -0.152246 0
0.285045 1.654513 0.021259 0
-0.098859 0.841972 -0.050000 0
1.575698 2.275760 0.506346 0
-2.421042 4.010673 0.221525 0
1.629176 3.770940 1.230242 0
-2.456736 3.085076 -0.191254 0
-1.017468 11.310971 0.630208 0
-0.597042 6.243104 0.439405 0
-0.049958 4.397946 0.204391 0
-0.114344 0.540586 -0.061996 0
-0.264008 0.767156 -0.031881 0
-0.228169 0.678952 -0.148313 0
-0.205523 0.901220 -0.029503 0
-0.172137 1.216828 -0.088867 0
0.433740 0.330007 -0.124016 0
-0.088134 1.032870 0.234909 0
-0.574275 1.083675 -0.181665 0
0.212299 1.120224 -0.130500 0
-0.238200 0.782495 -0.020000 0
0.511282 1.205791 -0.109242 0
-0.152517 1.119255 -0.117375 0
-0.068837 1.260071 0.020784 0
0.214217 0.897249 -0.067995 0
0.221386 0.972819 -0.031107 0
-0.184064 1.045722 -0.013247 0
-0.271148 1.098516 0.007918 0
-0.675108 0.506550 -0.145638 0
-0.240469 1.151227 -0.042340 0
-3.202023 2.361546 -0.226193 0
-2.153498 2.894655 -0.065575 0
-0.121384 3.904270 0.172382 0
1.713912 1.293098 0.361419 0
1.740274 1.802113 0.350209 0
-0.133308 0.784481 0.111397 0
1.434977 0.952086 0.228201 0
-0.097198 0.719664 -0.046922 0
-0.745591 1.137554 -0.128451 0
1.657873 1.689516 0.282827 0
0.132810 0.653422 -0.157350 0
0.051917 0.601162 -0.120189 0
0.009467 4.135569 0.067965 0
0.284356 0.674201 -0.104569 0
0.052084 0.602774 -0.121736 0
0.040494 0.648287 -0.146694 0
0.213103 0.945793 -0.074839 0
0.163219 0.736835 0.003993 0
-0.284918 0.950321 0.001672 0
0.184849 0.836038 -0.127171 0
-0.319329 0.908425 -0.021470 0
-0.139150 0.909268 -0.081201 0
0.272071 0.617931 -0.088342 0
1.560394 0.865073 0.316221 0
1.331315 1.755847 -0.503600 0
-0.075137 0.662160 -0.129405 0
0.257397 0.710632 -0.117410 0
0.302506 0.744484 -0.120329 0
-0.287461 0.898793 0.020033 0
-0.083445 1.281463 0.244990 0
0.299070 0.624345 -0.104585 0
-0.297734 0.879630 -0.042290 0
-0.077379 1.058261 0.005212 0
0.292988 0.671047 -0.105378 0
1.608046 1.006958 0.276338 0
-0.005625 0.954249 -0.135795 0
0.265104 0.720920 -0.130008 0
-0.316000 0.918238 0.001004 0
0.206129 1.038667 -0.107638 0
1.654822 1.092427 0.306833 0
1.326207 1.838402 -0.308406 0
1.399554 2.021455 -0.541187 0
1.340750 1.878821 -0.419995 0
1.335833 1.874168 -0.416499 0
1.345956 1.776852 -0.511755 0
-2.409404 3.631447 -0.064007 0
1.345820 1.889391 -0.420943 0
1.367020 1.979991 -0.518031 0
1.455792 0.948890 0.202635 0
0.620123 0.555385 -0.195072 0
-0.164669 0.777322 -0.122140 0
-0.146819 0.691942 -0.124395 0
0.387538 0.251212 -0.117923 0
-0.075360 0.405517 -0.137232 0
0.317162 0.571050 -0.102146 0
0.283699 0.627281 -0.096053 0
-0.270282 0.835662 -0.066204 0
-0.258489 0.862486 -0.056868 0
-0.355164 0.858683 -0.021896 0
-0.217999 0.844958 -0.056450 0
0.339583 0.580261 -0.102377 0
1.688219 1.516872 0.343714 0
0.129183 0.876355 0.007660 0
-0.201322 1.916894 0.121099 0
0.325121 0.606125 -0.106454 0
-0.514711 1.209406 -0.165063 0
-2.475926 3.819233 -1.625114 0
0.792443 1.780828 -0.156198 0
-1.826648 2.124773 -0.119180 0
-3.740542 1.710149 -0.932289 0
0.273646 0.705063 -0.110485 0
-0.473559 1.123539 -0.146993 0
-2.289247 1.749152 -1.409591 0
-3.262576 2.573603 -0.699306 0
-2.128274 2.607001 -0.144718 0
-0.763307 0.765345 -0.184625 0
-3.650600 2.863007 -0.801885 0
-3.335257 2.422783 1.568842 0
-3.590351 3.234952 -0.075060 0
-2.842269 2.845157 0.229601 0
-0.134855 0.768853 -0.039797 0
-0.865250 1.341461 -0.146950 0
-2.270583 3.451585 -0.082657 0
1.633995 4.462938 1.304380 0
-2.572785 0.940124 -1.640911 0
-5.035724 4.493917 1.439510 0
1.052183 5.033248 1.543502 0
0.007235 0.738851 -0.051543 0
-0.134377 0.752146 0.025415 0
0.522397 1.103924 -0.144642 0
1.477093 1.373754 -0.178078 0
-0.311634 0.890133 -0.014685 0
-0.110528 1.154980 -0.062671 0
-0.701796 1.156733 -0.107102 0
-1.381603 2.016057 -0.466709 0
0.107517 0.606937 -0.113169 0
-0.422429 0.908907 -0.055326 0
-0.082008 0.344610 -0.098467 0
0.078874 0.648568 -0.143909 0
-0.160358 0.735081 -0.126355 0
-0.192927 0.682553 -0.134255 0
0.178735 1.573195 -0.002638 0
0.083538 0.602111 -0.120850 0
0.158990 1.740197 0.027191 0
-2.409871 3.207359 0.230438 0
-0.078058 1.293246 0.231309 0
-2.918780 3.482789 0.262336 0
-2.560891 4.582540 0.031903 0
-0.079228 1.046902 -0.072835 0
0.207352 0.851330 -0.054538 0
-0.144111 2.214515 0.202392 0
-0.102387 0.429579 -0.120662 0
-0.202037 0.849352 -0.036700 0
1.342123 2.120614 -0.246403 0
-0.291638 0.947261 -0.000101 0
0.305743 0.603099 -0.103047 0
-2.427695 3.093829 -0.126154 0
-2.109323 3.510400 -0.117925 0
-0.235043 0.676172 -0.126831 0
-4.188472 5.249020 -1.575804 0
-0.274027 0.840380 -0.067516 0
-0.092418 0.786817 -0.130855 0
0.431416 0.353744 -0.123691 0
-0.093433 0.428101 -0.133860 0
0.499600 0.180951 -0.288144 0
0.366921 0.290695 -0.120641 0
0.494735 0.373823 -0.125642 0
-0.085903 0.422691 -0.127218 0
0.335095 0.596288 -0.103197 0
-0.068822 0.998452 0.121313 0
0.327978 0.624840 -0.118051 0
-0.271422 0.845667 -0.003648 0
1.053826 5.040239 1.542550 0
-0.994483 1.016919 0.113965 0
0.064264 0.650126 -0.124900 0
-0.173068 0.638612 -0.110382 0
-0.151544 0.707774 -0.138943 0
-0.074462 0.669233 -0.127908 0
-0.202627 0.881446 -0.092433 0
-0.101727 0.990077 -0.094682 0
0.053335 0.602557 -0.132240 0
-0.248076 0.886196 -0.107853 0
1.356226 2.349058 0.061291 0
-0.092816 1.109167 -0.113795 0
1.425761 0.924700 -0.348924 0
0.502172 0.347901 -0.129009 0
1.610225 1.093284 0.312850 0
1.729460 3.315728 -0.743659 0
1.603557 1.433405 0.277422 0
-0.027738 0.499095 -0.126974 0
-0.018688 0.487622 -0.122479 0
0.249136 7.487916 1.343344 0
-0.107517 0.783807 0.269154 0
0.184725 0.860741 0.003044 0
-0.732430 1.137009 -0.127414 0
0.263562 0.717729 -0.117414 0
-0.265770 0.961919 -0.021497 0
0.349137 0.575072 -0.107683 0
-4.739904 2.497019 -5.075863 0
-3.556457 1.820804 -3.718697 0
-0.035967 1.029224 -0.118998 0
-1.082739 6.278141 1.438615 0
0.241679 4.556277 0.234158 0
1.552746 0.916369 -0.080580 0
-0.047225 1.155837 0.099565 0
1.434317 3.893871 0.187524 0
-5.025344 7.284299 1.367838 0
0.482566 0.291329 -0.116498 0
0.106202 0.634408 -0.144654 0
0.053176 0.675268 -0.144143 0
-0.161643 0.729277 -0.149923 0
0.243278 0.628362 -0.079143 0
0.442854 0.341099 -0.129087 0
0.050539 0.635033 -0.146724 0
-2.432961 3.269243 0.124865 0
-2.043789 2.865022 -0.209480 0
-2.967007 3.116576 0.619228 0
-0.114843 0.918852 0.281158 0
0.660363 0.537724 -0.120294 0
-2.355746 3.152700 -0.144536 0
1.747958 1.934012 0.342588 0
-0.280793 1.020884 -0.018980 0
-2.474561 3.312705 0.145204 0
-2.144217 2.979372 -0.212806 0
-2.380424 3.180702 -0.074434 0
0.129769 0.856446 0.010216 0
1.630907 1.243772 0.350133 0
-2.008322 2.474621 -0.195729 0
-2.025231 2.843234 -0.218138 0
-0.182320 0.352757 -0.107166 0
1.905691 2.803734 1.357406 0
1.340813 2.255723 -0.312562 0
-0.163074 0.798798 -0.132369 0
-0.157496 0.854732 -0.072215 0
0.121777 0.691903 -0.127195 0
0.555172 1.172077 -0.093599 0
-0.149233 0.815040 -0.027604 0
0.067663 0.625633 -0.114045 0
0.300413 0.623006 -0.104142 0
0.320250 0.616175 -0.101757 0
-5.025198 4.673381 1.335764 0
-3.611292 2.524080 0.220771 0
-3.476332 3.439891 0.274050 0
-4.840232 3.531534 0.997328 0
-2.937095 2.276763 1.489838 0
-3.816551 2.604424 -0.134874 0
1.578716 3.672023 0.615589 0
0.305669 0.950429 -0.333525 0
-3.153963 5.507928 0.132349 0
-2.675764 4.771573 0.163338 0
1.407105 1.800119 -0.044303 0
1.355750 1.994613 0.423929 0
-0.131235 0.779745 0.111245 0
-0.108545 0.786983 0.271652 0
1.677482 1.784874 0.534982 0
-0.095678 0.896974 0.261186 0
-0.471464 7.698804 0.385288 0
1.307917 2.489040 0.598129 0
1.369839 1.899466 0.139990 0
-0.084528 1.327019 0.100065 0
-0.077444 0.410111 -0.127080 0
-0.078390 0.410741 -0.127988 0
0.502262 0.453202 -0.131677 0
1.622641 0.793468 -0.294209 0
-0.029705 1.077458 0.091640 0
1.026221 1.376884 -0.359968 0
1.566943 1.603236 0.273488 0
-0.170555 0.884183 -0.147959 0
-0.391092 0.934563 -0.110350 0
1.769743 1.851030 0.345409 0
-0.333159 0.970119 -0.058968 0
-0.305584 0.849712 -0.063473 0
-0.167765 0.432069 -0.180705 0
-0.069784 0.338503 -0.122255 0
-0.004606 0.633069 -0.131147 0
-0.058821 0.484288 -0.126179 0
0.076874 0.621824 -0.111792 0
-0.113944 0.435753 -0.110319 0
-0.160960 0.715003 -0.133130 0
0.620205 0.556183 -0.196248 0
-0.220790 0.905749 -0.030549 0
0.944058 1.287641 -0.383259 0
1.466281 0.930231 -0.122379 0
1.651985 1.106102 0.314395 0
-0.050128 0.494760 -0.126858 0
-0.147417 0.925016 -0.064063 0
1.484855 0.955207 -0.360069 0
1.407876 0.963114 0.091988 0
0.292634 0.614103 -0.098881 0
0.334614 0.597086 -0.103011 0
0.013695 0.859471 -0.106192 0
-0.391964 0.934162 -0.112522 0
0.321361 0.601193 -0.103184 0
0.291822 0.612741 -0.098145 0
1.506787 0.889506 -0.082272 0
-0.160376 0.859129 -0.136794 0
1.409832 0.983986 0.226359 0
0.478777 0.792306 -0.219801 0
0.560194 0.920433 -0.338883 0
0.417281 0.672543 -0.186225 0
1.395484 1.383330 -0.050647 0
1.385567 1.693260 -0.624870 0
-0.168062 2.935362 0.135253 0
-0.274998 0.976798 0.016625 0
0.166276 0.746051 -0.124343 0
-0.192504 3.212990 0.221181 0
-2.345635 3.290843 -0.090667 0
1.377656 1.929811 -0.032295 0
1.359177 1.943298 -0.091237 0
1.372845 2.298730 0.098530 0
-2.250124 3.116145 -0.220183 0
-2.197059 2.800346 -0.220390 0
-2.204949 3.537791 -0.106000 0
-0.081693 1.052206 -0.070322 0
1.469120 0.883724 0.129689 0
-0.158078 0.838070 -0.078890 0
-0.197441 0.827536 -0.123932 0
-0.730274 0.754373 -0.172171 0
0.120703 0.825840 -0.000392 0
-0.102183 0.779197 -0.133633 0
-1.046577 0.253021 -0.866895 0
-2.907372 2.230652 -0.053990 0
-2.988478 2.286774 -0.062307 0
-2.925547 2.266519 1.485320 0
-3.563642 3.925051 0.266635 0
1.865805 2.865527 0.754959 0
1.914215 3.247327 0.621428 0
1.367120 2.410661 -0.051863 0
-0.455243 0.727289 -0.141473 0
1.337378 2.066513 0.227453 0
0.196633 1.920999 0.016619 0
0.033256 1.412304 -0.108899 0
-0.104040 0.784029 -0.134073 0
0.162360 0.746836 0.001924 0
-3.100168 2.262550 1.460606 0
-3.847575 2.595135 -0.196927 0
-1.909546 2.091853 -0.440353 0
-3.060398 2.229906 1.440326 0
-3.622406 2.487007 0.119894 0
-3.612830 2.858836 -0.794677 0
-2.458290 3.094533 -0.186878 0
-3.988293 2.696347 -0.229130 0
1.497017 5.571581 0.758671 0
-0.281097 1.053466 0.044681 0
-0.024329 1.214470 -0.101700 0
-2.083421 2.288058 -0.450592 0
-0.335549 0.365219 -0.140223 0
1.356170 1.963986 -0.112513 0
-0.270628 0.951717 -0.049155 0
1.611083 0.900797 -0.301693 0
1.582638 0.790061 -0.341813 0
1.435222 0.935960 0.196515 0
-0.074512 1.012524 0.119734 0
-0.120046 0.789097 0.269915 0
-0.058780 0.484178 -0.125863 0
-0.201372 0.668134 -0.128542 0
0.424258 0.399905 -0.120832 0
-0.164691 0.871373 -0.142818 0
-0.087046 0.974548 0.248558 0
0.314078 0.562864 -0.106222 0
-0.091355 0.989387 0.253851 0
-0.087504 0.348662 -0.103426 0
-0.261899 0.925285 -0.050322 0
-0.099598 0.721205 -0.045742 0
-0.434426 0.949504 -0.090524 0
0.437041 0.378374 -0.092437 0
-0.002450 0.669598 -0.131121 0
1.488132 0.811707 0.062370 0
0.248377 1.597204 0.018059 0
-0.238674 0.846104 -0.081951 0
-0.149508 0.827175 -0.059675 0
1.353614 1.349440 -0.044942 0
0.129208 0.590563 -0.112117 0
1.889080 1.411369 0.646932 0
-0.306525 0.851773 -0.063813 0
-0.102257 0.778967 -0.132271 0
0.339624 0.579589 -0.102173 0
0.127111 0.870236 0.006741 0
1.502703 0.868946 0.266344 0
0.037493 0.783837 -0.131390 0
-0.101763 0.777297 -0.133563 0
1.329090 0.944562 0.211452 0
1.423949 1.005058 0.218654 0
1.716475 1.284998 0.586253 0
-0.082263 1.047016 -0.047963 0
-2.432766 3.045844 -0.186058 0
0.219245 0.977906 -0.056752 0
-0.127288 3.847202 0.067113 0
-0.176431 0.796379 -0.128444 0
-0.093308 0.427346 -0.110753 0
-0.284135 0.831004 -0.050859 0
0.319504 0.573610 -0.103625 0
-0.252029 0.842844 -0.060776 0
-0.398465 0.954367 -0.116271 0
0.182708 0.812155 -0.124829 0
-0.092861 0.704012 -0.145602 0
-0.102898 0.858239 -0.132500 0
-0.317303 0.858724 -0.041356 0
-0.036421 1.019757 -0.114540 0
0.309007 0.628983 -0.103451 0
0.257137 1.224741 -0.141773 0
0.165948 0.759931 -0.129959 0
-0.075300 0.664852 -0.128820 0
-0.283025 0.965524 0.017439 0
0.122526 0.687055 -0.127253 0
-0.294280 0.854336 -0.035448 0
-0.297518 0.861094 -0.081762 0
0.305254 0.667475 -0.116365 0
-0.272450 0.883326 -0.060804 0
-0.279323 1.106510 0.027697 0
-0.280648 1.020390 -0.017771 0
-0.295237 0.954037 0.005159 0
-0.273337 1.103001 0.007050 0
-0.140197 0.909577 -0.080205 0
1.804790 1.705813 1.072757 0
-0.099292 1.051698 -0.102280 0
-0.136150 0.833482 -0.149419 0
-0.139018 0.774862 -0.007693 0
-0.278487 1.011779 -0.022214 0
-0.321965 0.864902 -0.115936 0
-0.282041 1.023944 -0.020773 0
-3.383881 2.465770 1.598100 0
-2.197947 0.814283 -0.810917 0
-2.259350 0.608497 -0.885626 0
-0.138049 0.681543 -0.128785 0
-0.199729 0.656453 -0.123421 0
-0.300033 0.848596 -0.012435 0
-0.670228 0.505002 -0.142877 0
1.393012 2.251018 0.149548 0
-3.288118 3.199764 0.165399 0
-3.008332 3.125744 0.551765 0
0.168384 0.758996 -0.001474 0
1.817215 3.464306 -0.796902 0
0.530824 3.133331 0.079278 0
-4.464480 6.480034 1.199168 0
0.219288 1.593839 0.025529 0
-0.281594 1.003965 0.037610 0
0.118704 0.716152 -0.132140 0
-0.157686 0.803510 -0.014584 0
-0.128446 0.696913 -0.012125 0
-0.179553 0.845976 0.127346 0
-0.273139 0.835503 -0.106170 0
0.041841 0.783491 -0.128663 0
-0.340402 0.924329 0.001098 0
-0.255181 2.751235 0.106521 0
-2.463673 4.374624 -0.263674 0
-4.545831 5.888873 1.231418 0
1.466568 0.821040 0.102346 0
0.225975 5.301704 1.377917 0
1.731985 1.294685 0.612369 0
-0.151502 0.412555 -0.096193 0
-0.314415 0.929432 0.007913 0
-0.262121 0.765389 -0.031670 0
-0.321028 0.978786 0.038524 0
0.124403 0.685493 -0.128201 0
-0.152001 0.412504 -0.096586 0
-0.187553 0.670389 -0.130440 0
-0.332488 0.920215 -0.000471 0
-0.245874 0.896267 -0.042861 0
0.264393 0.720445 -0.127668 0
0.034262 0.749926 0.005941 0
-0.035401 1.043912 -0.121496 0
0.181319 0.806807 -0.121303 0
-0.140604 0.691265 -0.132822 0
0.320040 0.573124 -0.102159 0
-0.076230 1.231047 0.238257 0
0.485307 0.299999 -0.118748 0
0.344369 0.561756 -0.120237 0
-0.099303 0.848470 -0.131873 0
0.940868 1.291810 -0.387515 0
-0.330686 0.802298 0.010625 0
0.107826 0.575466 -0.117226 0
-0.136618 0.777662 0.054004 0
0.042269 1.309148 -0.058708 0
0.102622 0.631849 -0.144550 0
0.194708 0.879314 -0.067980 0
-0.067514 0.997972 0.119175 0
-0.262901 0.766529 -0.030543 0
-0.298911 0.956908 0.018066 0
0.035045 0.793669 0.004360 0
-0.287814 0.746671 -0.128744 0
-0.157402 2.019604 -0.859991 0
0.124913 0.852394 -0.253212 0
-0.365550 0.870419 -0.003096 0
0.177063 0.831284 0.003976 0
0.107481 0.567302 -0.095203 0
-0.078605 1.221928 0.250721 0
-0.319382 0.880708 -0.012201 0
0.520223 1.525824 -0.154925 0
1.307221 1.830364 -0.405427 0
1.218324 2.021281 -0.526624 0
1.321526 1.909420 -0.489617 0
1.500877 2.371004 -0.727645 0
-0.201218 0.868786 -0.091933 0
-0.286930 0.941803 -0.038128 0
0.052807 2.553356 -0.095768 0
-0.139580 0.955451 -0.069117 0
-0.296379 0.922613 -0.008273 0
0.172483 0.794012 -0.000794 0
1.373927 0.944791 0.255151 0
-0.020385 0.439561 -0.003022 0
0.485951 0.325710 -0.126483 0
-0.111599 0.488241 -0.124792 0
0.113939 0.890486 0.030348 0
-0.278931 0.975506 -0.020985 0
1.378864 1.936675 0.100583 0
1.855727 2.450994 0.802197 0
0.185071 0.833826 -0.128957 0
1.351391 2.335948 -0.313444 0
0.086497 0.820887 0.025751 0
-0.170721 2.298325 0.214198 0
1.184509 1.703374 0.252308 0
1.330300 4.208784 0.360354 0
-0.123020 2.415634 -0.113288 0
0.051136 0.715237 0.015870 0
1.331372 2.073416 0.229353 0
-4.657796 3.396038 0.831729 0
-0.098672 3.387124 0.148392 0
1.645043 1.302173 0.646211 0
-0.096715 3.879957 0.183914 0
0.657553 3.786686 0.187808 0
0.492580 0.368588 -0.126327 0
0.352021 0.577812 -0.108978 0
-0.090650 0.750305 -0.123804 0
0.564828 1.620460 -0.189497 0
0.083801 0.816938 0.015519 0
-2.655714 3.039596 -0.132015 0
-0.136603 0.799435 -0.133658 0
1.331452 1.823240 -0.298873 0
-2.768904 3.158448 -0.144028 0
0.118563 0.747693 -0.125140 0
0.328386 0.597364 -0.113218 0
0.504034 0.330213 -0.130303 0
1.713308 1.259963 0.346528 0
6.682523 0.720858 -6.320996 0
-3.036979 5.287974 0.283353 0
1.523237 0.330546 -1.341343 0
-2.288005 4.320506 0.274488 0
-0.095674 0.994228 -0.050516 0
1.667834 1.500659 0.647462 0
-4.750488 6.852427 1.317082 0
1.587701 4.107920 0.431984 0
1.418654 2.278667 0.379472 0
-2.941212 4.387338 0.431595 0
1.841084 1.955259 0.595690 0
1.708910 1.813797 0.366768 0
1.526556 1.443442 -0.458237 0
1.595676 1.587300 0.277862 0
-0.204190 0.838698 0.057311 0
1.661851 5.258876 0.837785 0
1.727900 1.831591 0.369937 0
1.489483 0.844567 -0.236094 0
-0.070871 1.261665 -0.007486 0
1.415199 1.810812 -0.042894 0
1.445672 1.375746 -0.299680 0
-0.134821 0.771915 -0.008419 0
0.557133 1.274677 -0.128624 0
1.327441 5.344316 0.784970 0
-0.304364 0.862761 -0.014395 0
-0.322334 0.874535 -0.009038 0
-0.358027 0.878723 -0.006167 0
0.548125 1.188151 -0.126814 0
-0.322778 0.872295 -0.008178 0
0.320638 0.571897 -0.102332 0
-2.021989 3.163626 -1.300795 0
1.706859 2.172184 0.500804 0
-0.308775 0.767552 -0.125572 0
-0.267063 0.930681 -0.050286 0
0.037861 0.795168 0.003980 0
1.853724 5.327553 0.647414 0
-2.029309 2.493472 -0.199193 0
1.440258 4.321249 0.152697 0
-0.278203 0.848871 -0.114195 0
-0.641531 0.468823 -0.151093 0
0.053661 0.586205 -0.125664 0
0.129512 0.488510 -0.122197 0
-0.864636 0.538828 -0.206577 0
-0.638578 0.467126 -0.148300 0
-0.235245 0.742705 -0.119592 0
0.131499 0.490408 -0.123791 0
-0.137205 0.706661 -0.100271 0
0.065079 0.624314 -0.113321 0
0.053901 0.586878 -0.125707 0
-0.719028 0.636350 -0.158922 0
-0.859936 0.538100 -0.205965 0
0.114913 0.615967 -0.127624 0
-2.001523 3.234569 -0.085385 0
-2.320913 2.668051 0.204547 0
1.736604 1.846007 0.374094 0
-2.575472 2.762375 -0.227245 0
-3.055533 3.180094 0.557881 0
-2.707047 2.808187 -0.227222 0
-2.347204 2.573040 -0.230805 0
-2.900739 3.418032 -0.145509 0
1.443783 2.313499 -0.502146 0
-0.314900 0.929740 0.008087 0
-0.183050 0.732919 -0.125474 0
-2.128758 2.945362 -0.193715 0
1.393849 2.241122 -0.483594 0
1.303030 2.108148 -0.536002 0
1.435020 1.304336 0.885302 0
-4.801074 6.067647 1.319046 0
-0.105566 0.875685 0.266492 0
0.577782 1.251651 -0.086855 0
0.285475 0.679794 -0.106757 0
0.313904 0.626104 -0.100070 0
-0.137756 1.127928 -0.127591 0
-0.322542 0.870976 -0.117138 0
-0.180941 0.787935 -0.154934 0
0.327413 0.622350 -0.103744 0
-0.163576 0.785496 -0.130510 0
0.588764 1.276679 -0.093003 0
0.038999 0.786800 -0.131161 0
-0.200523 0.665139 -0.127565 0
-0.297668 0.955466 0.019264 0
-0.249326 0.832101 -0.061880 0
-0.249161 0.833169 -0.064066 0
-0.323590 0.875097 -0.119701 0
-0.281779 0.858675 -0.118232 0
0.356882 0.592515 -0.110947 0
-2.573312 2.685457 -0.188023 0
-0.163246 0.958941 -0.172452 0
-0.250874 0.837512 -0.062090 0
-0.319090 0.847188 -0.034324 0
1.524752 1.217186 0.601126 0
0.068378 2.691935 0.071243 0
1.890548 1.549533 1.153243 0
-0.132314 0.792367 0.207827 0
0.773584 3.945716 0.079983 0
1.475114 4.574081 -0.540789 0
1.703201 4.297932 0.454938 0
0.128394 3.552322 0.217331 0
1.314006 0.905187 -0.320923 0
-0.138349 0.806994 -0.056043 0
1.784218 3.407952 -0.773900 0
0.260763 0.716377 -0.119578 0
0.161111 1.745287 0.026089 0
-0.207648 0.883121 -0.045739 0
0.127826 0.862048 0.007941 0
0.258454 0.710715 -0.115791 0
0.499878 0.657375 -0.132252 0
0.933891 1.194593 -0.552653 0
0.918311 1.154142 -0.530155 0
0.392564 8.527360 1.366470 0
1.506398 4.088589 0.207800 0
0.419616 0.341286 -0.114999 0
-0.115150 0.847133 -0.050650 0
0.347083 0.334934 -0.122769 0
0.357461 0.334673 -0.121665 0
-0.068639 0.338006 -0.121635 0
-0.206010 0.882465 -0.093854 0
0.303093 0.690560 -0.120415 0
-0.293917 0.919246 -0.013281 0
1.426339 0.996195 0.227169 0
0.146424 0.899402 0.002442 0
-0.084414 0.363093 -0.122950 0
0.147866 0.772144 0.016555 0
1.386525 1.906541 0.276185 0
0.656285 0.867213 -0.337989 0
1.552298 5.185508 -0.211810 0
0.021980 0.803735 -0.092206 0
-0.091894 0.378924 -0.145125 0
-0.286641 0.893420 -0.043668 0
-0.052927 0.353345 -0.109061 0
-0.062031 0.361132 -0.118033 0
0.310521 0.595933 -0.102871 0
1.640173 0.823773 -0.113750 0
-0.252260 0.887651 -0.109807 0
-2.044809 2.576031 -0.162071 0
0.223574 3.426541 1.503158 0
1.654392 1.113575 0.321674 0
-2.482308 3.334485 0.120042 0
1.790159 2.370742 0.932726 0
0.377270 0.451787 -0.116677 0
0.379633 0.453850 -0.119086 0
1.639318 1.094587 0.304453 0
2.271106 2.204628 0.863940 0
-3.114199 3.547524 -2.118876 0
-0.446317 0.966921 -0.089751 0
-0.319478 0.906017 -0.019333 0
0.509415 1.090302 -0.145746 0
0.227367 1.616604 0.031058 0
0.123459 0.842010 0.004023 0
0.116992 0.765790 -0.132528 0
-0.085379 1.072411 -0.074665 0
-0.108935 0.448302 -0.117850 0
0.270332 0.721460 -0.133819 0
0.164695 0.760898 -0.128838 0
0.128642 0.588646 -0.112418 0
-0.284040 0.869633 -0.118756 0
-1.152854 0.767783 -0.202290 0
0.172690 1.542502 0.001440 0
-3.599393 2.613896 -0.526658 0
-0.310356 0.861155 -0.066126 0
-2.653485 3.232249 0.334434 0
-2.463430 2.209163 -0.188151 0
-1.803451 2.889389 -1.228745 0
1.402074 4.211017 0.151576 0
-3.243290 7.669655 -0.281253 0
0.083238 0.816562 0.020023 0
-0.373947 3.355997 0.161003 0
-0.273504 0.873916 -0.093226 0
1.845953 2.967269 0.761367 0
1.744159 5.516701 0.853990 0
-1.114223 0.986560 -0.664833 0
-2.357801 4.169771 -0.218580 0
-0.255710 0.906259 -0.039214 0
0.103066 1.093899 -0.059021 0
-0.160785 1.080335 -0.029736 0
0.053382 1.066068 -0.144288 0
-0.088308 0.962034 -0.124398 0
0.037245 0.837965 -0.094450 0
0.030115 1.047048 -0.113324 0
0.110629 0.608553 -0.121614 0
0.067253 0.953456 -0.133701 0
0.986157 1.362681 -0.413476 0
0.166963 0.762112 -0.131849 0
-4.588665 6.529390 1.494398 0
0.088336 0.826800 0.002998 0
-2.825883 3.873732 -0.123624 0
-2.388870 4.216120 -0.206928 0
-0.099812 4.614742 -0.177037 0
-0.078217 1.044859 -0.114745 0
-2.462570 3.273820 0.230029 0
1.336683 2.151595 -0.235811 0
0.080175 0.806722 0.017108 0
-2.380158 3.183064 -0.075099 0
0.965528 1.334185 -0.404694 0
0.103848 0.587848 -0.123647 0
0.116240 0.754163 -0.128072 0
-0.084304 1.042156 0.039139 0
-0.189686 0.820424 -0.036489 0
-0.124785 1.077756 -0.071229 0
-0.237229 0.680269 -0.125732 0
0.066698 0.625655 -0.114147 0
-0.230029 0.670662 -0.121624 0
0.124036 0.685455 -0.127433 0
-0.243706 1.071088 -0.008313 0
-0.301106 0.865343 -0.083569 0
-4.071860 2.892082 0.119178 0
0.105752 0.598190 -0.127543 0
-0.332224 0.915110 0.000748 0
-0.218786 0.845829 -0.056145 0
-0.293855 0.752514 -0.131460 0
0.107107 0.591399 -0.125813 0
-0.217702 0.843847 -0.055717 0
-0.114005 0.452905 -0.113411 0
-0.097962 0.998029 -0.096665 0
-0.299269 0.879215 -0.084224 0
-0.043447 1.483718 -0.116890 0
-0.131088 0.784487 0.165640 0
-2.111298 2.874540 -0.366481 0
-3.634593 2.099527 -0.013554 0
-4.505023 1.730266 -0.937917 0
-1.177242 0.719938 -0.215953 0
-1.232625 0.836479 0.439860 0
-2.970065 1.218206 -0.748292 0
-4.552364 1.733762 -0.956737 0
-4.317618 1.667964 -0.880441 0
-2.906087 2.224456 -0.051114 0
-0.123827 0.141814 -0.034177 0
0.110713 0.323948 -0.075296 0
0.411852 0.226308 -0.091508 0
-0.044409 0.438593 -0.002589 0
-0.121660 0.381763 -0.104240 0
-0.328358 0.880713 -0.031669 0
-0.103752 0.347484 -0.086636 0
-0.143049 0.775012 -0.021630 0
-0.394664 0.929672 -0.008562 0
0.072282 0.299675 -0.077125 0
-0.122554 0.132656 -0.003041 0
-0.057612 0.320779 -0.113472 0
-0.099136 0.916114 -0.131106 0
-0.114887 0.400335 -0.108423 0
-0.273124 0.860572 -0.087898 0
-0.125642 0.401265 -0.113562 0
1.434863 2.194921 0.386904 0
-3.306551 3.560982 -2.124964 0
2.215307 2.122253 0.845099 0
-0.291544 1.000477 -0.057683 0
-0.118741 0.712190 0.122743 0
-0.102864 0.035772 -0.079509 0
-0.193590 0.713167 -0.070892 0
-0.217093 0.741122 -0.052885 0
0.284331 0.139255 -0.088694 0
-0.089780 0.418485 -0.104869 0
-0.115382 0.895524 0.280004 0
0.011180 0.221890 -0.059074 0
0.201178 0.526305 -0.075330 0
-2.916922 2.263389 -0.063544 0
-0.307260 0.851484 -0.061268 0
-0.341791 0.841700 0.001642 0
1.758907 3.031922 0.678363 0
-2.208548 2.512170 0.192987 0
-2.259495 2.032640 -0.099518 0
-3.128230 2.500641 0.207041 0
-0.727159 1.428656 -0.380771 0
-0.638532 0.983709 -0.216440 0
-0.310685 0.778367 -0.129155 0
-0.196108 0.933230 0.065895 0
-0.275879 0.878893 -0.051951 0
-0.180741 0.761853 -0.019425 0
-0.322465 1.077854 0.048216 0
-0.279055 0.979347 0.015991 0
0.499866 0.330141 -0.128811 0
-0.313536 0.831301 -0.044255 0
-0.103493 0.442550 -0.112064 0
-0.432494 0.919932 -0.058275 0
-0.129474 3.948069 0.046599 0
1.305429 2.011714 -0.208668 0
0.299578 0.620989 -0.104003 0
1.431397 1.419161 0.256062 0
1.500118 1.421444 -0.425115 0
-0.098503 1.017893 -0.082585 0
-2.610678 4.676990 0.175323 0
1.401470 1.367485 0.214086 0
1.667054 1.751008 0.306347 0
1.329319 1.268177 -0.403881 0
-2.285592 4.276438 0.124657 0
-0.274684 0.861207 -0.086590 0
1.388992 2.183215 0.326590 0
1.550067 3.607976 0.227534 0
1.423488 2.461461 -0.269287 0
-0.154652 0.596374 -0.103732 0
0.331409 0.653744 -0.116180 0
1.364782 1.274390 -0.159835 0
-2.239604 3.589287 -0.106787 0
1.388297 1.389334 0.071613 0
0.427882 0.369847 -0.120258 0
-0.198937 0.836186 -0.040770 0
-0.155856 0.728095 -0.124543 0
-0.137204 0.774047 -0.009238 0
-0.069931 0.337851 -0.121064 0
-0.306249 0.767273 -0.125288 0
-3.761545 2.497231 -0.189650 0
-2.408464 3.211890 -0.076876 0
-2.721440 0.968517 -1.704227 0
-4.784385 3.664588 0.349964 0
-0.010779 1.031610 0.322287 0
-5.065666 2.493445 -0.388513 0
-3.488867 3.392423 0.523402 0
-0.154272 0.855587 0.068168 0
-4.698638 1.789560 -0.966050 0
-4.516978 1.733894 -0.932075 0
-4.077982 2.943434 -0.583548 0
-0.212064 0.900300 -0.041814 0
-0.172044 0.325322 -0.083768 0
-0.203443 0.382486 -0.116883 0
-5.105477 2.147204 -0.056740 0
-0.304603 0.720358 -0.118613 0
-2.192511 0.596037 -0.864102 0
-1.928339 0.839360 -0.719639 0
-2.120133 0.778616 -0.784709 0
-3.765256 2.733803 -0.434632 0
-0.317884 1.045998 0.007092 0
0.161335 0.688374 -0.098206 0
-0.060184 0.392422 -0.120486 0
-0.065163 0.397056 -0.125364 0
-0.142101 0.683929 -0.124680 0
-0.065334 0.397447 -0.125982 0
1.362629 5.207150 0.386160 0
-0.842743 0.465647 -0.927828 0
1.413359 1.002409 0.219901 0
2.257982 4.690089 -1.181940 0
0.866977 4.238534 -0.058964 0
0.193860 0.609903 -0.137849 0
0.666476 0.529005 -0.100704 0
0.472636 0.321592 -0.118301 0
0.431321 0.405028 -0.122664 0
0.186324 0.866386 0.002402 0
0.308483 0.626985 -0.103063 0
0.293848 0.609082 -0.098543 0
0.353332 0.334692 -0.121443 0
-0.091790 0.420684 -0.107963 0
-0.152507 0.480509 -0.133531 0
-0.105512 0.429353 -0.100409 0
0.389342 0.327624 -0.133749 0
-0.082998 0.385319 -0.140702 0
-2.872081 5.444442 -0.022632 0
1.677225 1.275091 0.659414 0
0.194725 2.069396 -0.008169 0
0.718925 0.952956 -0.387343 0
1.656671 1.768577 0.291772 0
0.361169 0.595634 -0.114198 0
-0.071221 0.424522 -0.127183 0
0.034948 0.792174 0.004173 0
-1.144940 0.760744 -0.244065 0
0.552180 1.262915 -0.129338 0
-0.479768 0.622182 -0.135475 0
-1.098714 1.920893 -0.202427 0
1.557839 3.694276 0.262740 0
-2.840164 2.500594 -0.169846 0
-5.567779 5.001289 -3.686064 0
-0.315608 0.833537 -0.036014 0
-0.303524 0.759467 -0.122245 0
-0.447799 1.077789 -0.030975 0
-3.457909 2.758731 0.014690 0
0.069596 1.243908 -0.092281 0
-0.265865 0.849512 -0.239800 0
-2.958289 2.751779 -0.463615 0
0.305692 0.603077 -0.103280 0
-0.184384 0.737286 -0.127709 0
-0.138928 0.903429 -0.060284 0
-0.104382 0.433043 -0.119797 0
0.431128 0.349199 -0.123352 0
-0.122863 0.786329 0.272320 0
0.285351 0.677304 -0.106716 0
0.320709 0.599214 -0.102707 0
-0.165079 0.446441 -0.219300 0
0.360371 0.341752 -0.136350 0
-0.140658 0.795557 0.084622 0
1.903207 3.060220 0.759180 0
-0.253763 0.893431 -0.040435 0
-0.203971 0.877515 -0.093235 0
-2.992284 3.022049 0.596736 0
-0.485427 0.627570 -0.138804 0
1.795468 1.879383 0.550803 0
-0.277311 0.952736 -0.053353 0
-0.409247 0.975768 -0.150728 0
-3.114644 3.041314 -0.062091 0
-3.540596 3.136010 -0.176531 0
-0.037474 1.056251 -0.047172 0
-3.556438 2.813273 -0.777390 0
-3.678107 3.196357 -0.041520 0
-2.661875 2.554849 -0.652880 0
-3.245621 3.557972 1.503984 0
1.317487 1.911439 -0.481880 0
-0.368339 0.874238 -0.003675 0
-0.376039 0.884390 -0.004646 0
-0.168453 0.842580 -0.030791 0
-3.218133 3.241832 -0.171855 0
-0.141434 1.140169 -0.131754 0
-2.875128 3.127054 0.533666 0
-2.341003 4.359036 -1.539537 0
-0.719892 0.642008 -0.158478 0
-4.062799 3.095146 1.238959 0
-2.036033 2.239945 -0.453992 0
-0.228756 0.718966 -0.107541 0
-3.422283 2.835974 0.077377 0
-2.110111 2.315601 -0.459660 0
-0.752744 0.767541 -0.182577 0
-0.711120 0.633052 -0.154080 0
0.116309 0.764336 -0.131327 0
-3.614158 2.640374 -0.701001 0
1.829767 2.423095 1.089257 0
-3.442177 2.486594 0.104954 0
-0.646055 1.000092 -0.216160 0
-0.447183 1.059977 -0.135426 0
-0.691177 0.655707 -0.168847 0
0.457115 0.400860 -0.115530 0
0.345160 0.316018 -0.105161 0
-0.232813 0.471455 -0.231002 0
0.152092 0.256956 0.066727 0
-0.065872 0.621775 -0.231441 0
0.450249 0.337140 -0.134353 0
0.469971 0.341148 -0.147105 0
1.418862 1.316150 -0.170867 0
1.363824 1.970579 -0.513542 0
1.308904 2.105617 -0.573136 0
-0.443930 0.963310 -0.091873 0
-0.364554 0.863951 -0.068449 0
-0.274124 0.982464 0.017123 0
-0.331472 0.840593 -0.073626 0
0.115714 0.799110 0.008367 0
1.593912 2.528770 -0.566214 0
1.611027 1.641884 0.277592 0
1.304441 2.125183 -0.520904 0
1.379612 2.219949 -0.612202 0
1.323153 2.128720 -0.580106 0
1.348532 1.856545 -0.223507 0
-0.138999 0.778247 -0.034487 0
1.404845 1.311588 -0.164456 0
1.363287 1.347353 -0.047518 0
-3.128237 3.630889 -0.160313 0
1.761663 1.287802 0.572843 0
1.557361 1.014279 0.216712 0
-0.715741 0.934210 -0.283283 0
2.022273 1.722694 0.785875 0
1.399658 1.400095 -0.051547 0
1.514306 1.438515 -0.289544 0
1.522346 1.446507 -0.377967 0
-0.358675 0.874760 -0.110690 0
-2.908944 3.165469 0.546721 0
-0.218437 0.865984 -0.049303 0
-2.882716 3.016952 -0.208546 0
-3.120172 3.416987 1.458171 0
-2.615350 2.793841 -0.237200 0
1.329921 2.349797 0.093964 0
-5.187792 5.739307 1.359399 0
1.967937 8.489070 1.050362 0
1.505035 2.115573 0.481176 0
-2.829126 3.200326 0.518009 0
-2.567000 2.801924 -0.132675 0
-1.658544 2.777690 -0.022048 0
-2.304065 2.822369 0.286621 0
-2.939298 3.206298 0.563616 0
0.166415 0.759580 -0.128985 0
-0.334615 0.936698 -0.028229 0
-0.318009 0.938835 0.007045 0
-0.284717 0.953067 0.001172 0
-0.171190 0.793958 -0.135941 0
-3.607141 3.491606 0.247992 0
-0.101979 0.989680 0.269833 0
-3.359213 3.069913 0.015768 0
-3.283467 3.030482 -0.118027 0
-0.034261 1.083719 -0.050931 0
-0.178909 3.083188 0.176634 0
1.321899 2.148730 -0.521184 0
-0.481519 0.967677 -0.149668 0
0.535003 0.382012 -0.149657 0
-2.935059 3.089954 0.640578 0
-2.265284 4.511913 0.220792 0
-4.683194 1.954735 -0.820310 0
-4.009591 2.777440 -0.146589 0
-5.124038 2.141994 -0.104056 0
-2.120143 0.783391 -0.780469 0
-0.181719 1.029105 -0.200308 0
1.762142 3.367144 0.194585 0
-0.077101 0.670820 -0.126806 0
-0.176334 0.417538 -0.063910 0
-0.190493 0.434430 -0.103138 0
-0.147247 0.371261 -0.102323 0
-0.197718 0.452692 -0.112191 0
-0.117057 0.426014 -0.094373 0
-0.170515 0.397139 -0.058963 0
0.053919 0.578845 -0.116610 0
-0.194583 0.946444 0.041242 0
-0.286741 1.027316 -0.006175 0
-1.316317 1.354670 -0.076249 0
0.354851 0.587433 -0.112470 0
0.076981 2.969485 0.065588 0
-0.253726 0.800720 -0.130733 0
-0.981434 2.336187 -0.043984 0
-0.269335 0.712280 0.190438 0
1.489063 3.982875 0.035672 0
-0.125510 0.880443 0.293695 0
1.376428 2.056919 0.151204 0
0.689390 3.938386 0.202410 0
0.088036 5.079134 1.036032 0
0.251733 1.200308 -0.136959 0
0.647576 0.517154 -0.094395 0
-0.202917 0.897694 -0.028504 0
-0.190641 0.637071 -0.124127 0
0.041181 0.786378 -0.130443 0
0.054026 0.877570 0.003662 0
0.119728 0.753935 -0.144466 0
-0.270267 0.775270 -0.033877 0
-0.157322 0.835430 -0.078293 0
-2.582853 3.410700 0.297222 0
-3.283687 2.899712 0.202864 0
-0.079713 0.734148 -0.131898 0
-0.226243 0.840014 -0.054244 0
-0.280522 0.986121 0.014383 0
-0.285222 0.991574 0.016620 0
-2.758787 2.148354 1.401875 0
-3.804779 2.770022 0.208197 0
-3.618097 2.601511 0.111311 0
-2.761242 2.441564 -0.140713 0
-4.579650 3.540104 1.356693 0
-2.980932 2.855450 0.131101 0
1.036835 4.275111 0.871825 0
-0.246559 1.138880 -0.041685 0
-2.184263 2.711967 -0.454793 0
1.438350 4.608720 0.375767 0
-0.337902 0.926416 0.000697 0
-0.067559 1.034983 -0.106187 0
-0.120134 0.859850 -0.139698 0
-0.388751 0.454203 -0.134831 0
-0.405363 0.467523 -0.135122 0
-0.037183 1.036823 -0.118889 0
-0.363840 0.470045 -0.132190 0
-2.377870 2.240884 -0.028041 0
-3.305067 2.748615 0.067250 0
-0.003432 1.395724 -0.138270 0
-0.098739 0.847931 -0.131676 0
-0.286846 0.944845 -0.011987 0
-0.248417 0.829330 -0.063851 0
-0.037571 1.032112 -0.116905 0
-0.445753 0.964818 -0.093558 0
-0.104208 0.948740 -0.137293 0
-0.724603 0.749588 -0.168048 0
0.053441 1.053354 -0.136792 0
-15.760985 56.689804 0.289183 0
-0.017566 1.259437 -0.108826 0
0.034431 0.832985 -0.080568 0
-0.204074 0.876507 -0.093421 0
-0.236036 0.746395 -0.121375 0
1.382558 2.309448 0.105885 0
-0.622714 0.891726 -0.210411 0
1.422205 2.294928 0.471625 0
-0.390905 0.456992 -0.137179 0
-0.296435 0.924267 -0.013364 0
-0.666283 0.674082 -0.169462 0
-0.083865 0.960573 -0.127330 0
-0.340890 0.795008 -0.154707 0
-0.325456 0.880973 -0.009329 0
0.159860 1.628526 -0.065169 0
0.144858 0.480229 -0.125010 0
0.134550 0.602163 -0.127252 0
-0.006150 0.953453 -0.134808 0
-0.455820 0.542256 -0.120531 0
0.169307 0.761287 -0.133371 0
-0.725445 0.639559 -0.163690 0
-0.703022 0.662361 -0.173640 0
0.077026 0.586890 -0.116375 0
-0.515015 0.523847 -0.151280 0
-0.448150 0.431190 -0.127703 0
0.102792 0.584977 -0.123117 0
0.039731 0.793646 -0.133650 0
-0.277223 0.850646 -0.076057 0
0.136189 1.580506 0.030662 0
-1.072550 0.733728 -0.215944 0
-0.343476 0.829803 -0.109817 0
-1.044290 0.719685 -0.209660 0
-0.668492 0.504420 -0.142024 0
-0.144423 0.815240 -0.011308 0
-0.201910 0.839463 -0.036786 0
0.103615 0.598215 -0.114456 0
0.123597 0.584855 -0.109155 0
-0.305351 0.762980 -0.122289 0
0.128547 0.590634 -0.112895 0
-0.698225 0.626496 -0.151068 0
-0.627856 0.462695 -0.145192 0
-0.700232 0.489811 -0.143175 0
-0.666593 0.503700 -0.141305 0
-0.293413 0.743294 -0.145740 0
-0.187273 0.746308 -0.132375 0
0.073392 0.580489 -0.112523 0
-0.686261 0.485822 -0.178195 0
-0.611763 0.878929 -0.206299 0
0.077720 0.519982 -0.124575 0
-0.309596 0.838708 -0.038622 0
-0.318973 0.863963 -0.115788 0
-0.202966 0.867491 -0.091364 0
-1.079241 0.687576 -0.228114 0
0.114989 0.614019 -0.125269 0
0.100620 0.582335 -0.121634 0
0.042805 0.819691 0.000866 0
0.057506 0.915538 -0.121558 0
0.107085 1.098914 -0.153758 0
-1.140151 0.794687 0.599479 0
-1.103429 0.697019 -0.236774 0
0.070453 0.633765 -0.118007 0
-0.150034 0.952006 -0.034472 0
0.062009 0.888838 0.001665 0
-0.087367 0.941957 -0.116352 0
-0.119056 0.865539 -0.142492 0
-0.008828 0.962591 -0.131896 0
-0.226896 0.546551 -0.232572 0
-2.641454 2.746905 -1.644548 0
-2.373224 4.317891 0.178753 0
-1.051365 1.031926 -0.643797 0
0.513557 0.443105 -0.128061 0
-2.030528 4.057314 -0.162246 0
-0.884213 0.911522 -0.525916 0
-0.888730 0.915737 -0.531541 0
-0.024653 0.367694 0.003077 0
-2.028289 0.749496 -1.962277 0
-1.913136 0.708518 -1.849738 0
-1.993457 0.479950 -1.919712 0
-2.079183 0.762600 -2.019454 0
-3.043211 3.386867 0.980424 0
-2.682134 2.986143 -1.782346 0
1.554429 4.236463 -0.157080 0
-2.014874 0.750136 -1.960092 0
1.294721 2.424724 -0.450568 0
0.922724 2.055458 -0.168670 0
1.170637 2.186066 -0.401961 0
0.958446 1.381703 -0.314887 0
-0.071920 1.209152 0.137338 0
-0.134765 0.253055 -0.040049 0
0.238560 0.257224 -0.116606 0
-0.136546 0.692845 -0.097226 0
-3.636752 3.698584 -2.365719 0
-3.698382 3.759870 -2.447862 0
-3.215274 3.153136 -2.125425 0
0.437488 0.791342 -0.109864 0
0.650342 1.588333 -0.863895 0
-0.265160 0.982236 -0.026208 0
0.083450 0.165050 -0.033799 0
0.316309 0.167076 -0.247221 0
0.314194 0.259947 -0.050938 0
-1.016794 0.657171 -0.998535 0
0.025537 0.669320 -0.134741 0
0.025706 0.679058 -0.139803 0
-1.732275 1.471804 -1.093325 0
0.024782 1.499257 0.516254 0
0.029715 1.648044 0.560010 0
-2.175306 0.355050 -2.042389 0
1.355304 2.165642 0.114492 0
-0.046658 0.188510 0.089884 0
0.046419 0.135915 0.020400 0
-0.343856 0.339796 -0.101042 0
2.185036 3.698340 1.526293 0
-1.229014 1.186566 -0.728291 0
1.497440 5.304399 -0.244696 0
-0.355339 0.490450 -0.360029 0
-0.358346 0.498792 -0.366921 0
-3.378729 3.074341 -0.076435 0
0.260670 0.715887 -0.117265 0
0.067518 0.623791 -0.113332 0
0.052495 0.585191 -0.124674 0
0.130258 0.589420 -0.113136 0
-0.753419 0.859978 -0.405746 0
0.514030 0.935206 -0.137247 0
-0.060172 0.485565 -0.125980 0
-3.201223 3.741564 -2.047437 0
-0.248372 4.241691 0.088536 0
-3.566196 4.122001 -2.271730 0
-4.521094 4.418013 -3.040910 0
-0.059974 0.185619 -0.042780 0
0.000137 0.207914 -0.054789 0
0.000396 0.211128 -0.056969 0
-1.445948 1.466335 -0.991520 0
0.428665 0.783361 -0.106857 0
1.527696 3.727404 0.270162 0
-0.860374 1.580454 -0.141963 0
0.027942 0.668264 -0.131161 0
1.788852 2.645569 1.002743 0
1.870062 2.725716 1.543168 0
0.583739 1.073357 -0.168823 0
0.026357 0.660916 -0.131781 0
-3.092218 2.774083 -0.253223 0
-0.010126 0.347202 -0.121869 0
1.450863 2.404113 -0.315697 0
-2.837298 2.182636 -1.896303 0
-3.833706 3.834940 0.658986 0
-2.093434 0.785579 -0.815784 0
-2.264879 0.640930 -0.878274 0
-2.481049 0.716152 -0.801724 0
-2.459700 0.811929 -0.794499 0
-2.201643 0.828289 -0.807989 0
-2.589585 0.837856 -0.826037 0
-2.083989 0.852171 -0.766834 0
1.351807 2.334091 -0.246388 0
-0.169961 0.970023 -0.007624 0
-0.384990 0.915287 -0.134113 0
-3.085708 3.004221 -0.070857 0
-3.764344 2.609194 -0.137113 0
-3.557508 2.945519 0.054028 0
-2.903206 2.121560 -0.177185 0
-1.071219 0.734302 -0.212218 0
-0.204555 0.875369 -0.038007 0
-0.609387 0.458270 -0.179022 0
-0.227954 0.702955 -0.105932 0
-2.489013 0.821898 -0.801195 0
-0.218937 0.672712 -0.104739 0
-2.309117 0.649021 -0.896567 0
1.359507 2.397935 0.098270 0
-2.443670 0.810597 -0.787169 0
-0.235058 0.641964 0.182258 0
-0.173217 0.852002 -0.031287 0
-0.170890 0.897486 -0.080998 0
0.342441 0.560505 -0.120096 0
-0.152545 0.858607 0.073709 0
-0.120511 1.114961 0.312324 0
-0.165487 0.772845 -0.127299 0
1.348230 1.646391 -0.463137 0
0.054123 0.572780 -0.118031 0
-0.581233 0.439193 -0.167815 0
-1.250846 0.851524 0.457471 0
-2.584328 0.850526 -0.830848 0
-0.549698 0.412335 -0.152066 0
-1.306255 0.884641 0.469477 0
1.595350 2.539001 -0.558643 0
0.142306 0.473432 -0.120906 0
0.154978 0.731139 -0.120089 0
-0.329186 1.328438 0.077233 0
-0.130871 0.893780 0.298493 0
-2.475905 2.963377 -0.147408 0
-4.929150 3.800771 1.416759 0
-4.634223 5.908371 1.175063 0
-2.491240 3.549039 0.016826 0
-5.183610 3.063525 -0.501509 0
-4.958870 2.947129 -0.477480 0
-4.840509 2.854369 -0.673099 0
-5.067223 3.010840 -0.064692 0
-3.870505 2.680442 -0.146301 0
-3.061229 3.127685 0.639190 0
-3.034027 3.472042 0.067672 0
-3.467480 3.804066 0.265093 0
-3.172036 3.077326 0.501351 0
-3.350120 3.266926 -0.547970 0
-2.949039 3.232849 -0.162242 0
-2.188667 2.707291 -0.210792 0
-2.241785 2.696578 -0.157096 0
-5.017705 6.457451 1.496336 0
0.264132 0.719273 -0.118175 0
-3.770714 2.755280 -0.742778 0
-5.444599 3.214915 -0.069157 0
-4.982790 2.093879 -0.887477 0
-3.904147 1.747729 -0.951326 0
1.926689 2.818267 1.587624 0
-0.265800 1.064776 0.030554 0
0.241749 0.130892 -0.103524 0
0.274858 0.744933 -0.123658 0
-0.589560 0.443696 -0.170645 0
-0.252671 0.842977 -0.058624 0
-0.235507 0.708688 -0.111351 0
-0.144509 0.506649 -0.085654 0
-0.116084 0.379181 -0.101540 0
0.167361 0.747058 -0.113138 0
-0.134541 0.470262 -0.074855 0
-0.190097 0.426952 -0.100056 0
0.124086 0.846556 0.010378 0
-0.135815 1.126107 -0.123296 0
-0.373773 0.882963 -0.004033 0
0.010273 0.356825 -0.120136 0
-0.428797 1.821467 0.115188 0
-0.139831 0.684723 -0.129432 0
0.028352 0.835009 -0.021033 0
-2.096961 4.347858 -0.082323 0
-3.733251 2.737109 -2.280041 0
-0.365565 0.876195 -0.104154 0
-4.436295 3.971856 -1.578108 0
1.220093 0.301358 -1.043521 0
-4.323257 3.868233 -1.557655 0
-4.415893 3.958215 -1.581686 0
1.232845 0.302175 -1.055916 0
1.430436 0.910090 -0.081050 0
0.704212 0.486470 -0.096311 0
-3.278982 3.631625 0.250419 0
0.910425 2.998509 1.467782 0
0.116452 0.753931 -0.128599 0
-0.121639 0.442570 -0.094282 0
-0.314299 0.871653 -0.066720 0
-0.445947 0.948401 -0.061684 0
-0.128092 0.468618 -0.112233 0
-0.129612 0.766807 0.145922 0
0.211628 0.102992 -0.099050 0
-0.199835 0.107975 -0.117953 0
-0.237948 0.135468 -0.121968 0
-0.074085 1.233302 0.134490 0
-0.049954 0.088306 0.088219 0
0.073049 0.305154 -0.079523 0
1.801373 0.422434 -1.542519 0
0.078717 4.611254 0.262998 0
2.144979 0.496627 -1.882814 0
1.428151 1.762675 0.116505 0
0.114126 0.431531 -0.174628 0
-0.160538 0.722483 0.044747 0
0.044679 0.616423 0.156364 0
0.060823 0.405340 -0.146703 0
-0.129402 0.207090 -0.102216 0
-0.725937 0.580320 -0.415950 0
-0.088552 0.440148 -0.175468 0
-0.258071 0.747467 -0.004097 0
0.081367 0.178308 -0.033433 0
0.102095 0.387824 -0.151385 0
-0.016399 0.390792 -0.150672 0
-0.359965 0.704919 0.087142 0
0.022090 0.380664 -0.131766 0
0.089850 0.328161 -0.116518 0
-0.003107 0.373638 -0.112309 0
0.064993 0.622482 -0.113405 0
-0.171416 0.072761 -0.107743 0
-0.173776 0.340561 -0.110073 0
0.091341 0.335191 -0.121958 0
-0.284281 0.304338 -0.177023 0
0.361183 0.211335 -0.084009 0
1.499947 0.902223 0.118664 0
0.541224 1.183948 -0.147102 0
-3.837503 3.414166 0.360651 0
-0.693825 0.769986 -0.410380 0
-1.551672 1.492523 -1.121475 0
-1.608040 1.532737 -1.159587 0
-2.768536 2.792230 -0.228792 0
-0.793377 1.051357 -0.839408 0
-3.015303 2.222584 -1.955942 0
-0.774867 1.289630 -0.828621 0
-0.633948 0.419656 -0.632132 0
-2.943168 3.098312 0.602085 0
-4.854114 4.520317 1.120322 0
1.480081 1.977633 0.119968 0
-0.276711 0.844732 -0.087125 0
-4.307436 3.885587 -1.873090 0
0.165594 0.742012 -0.108035 0
1.630829 1.101671 0.313938 0
-0.270774 0.891048 -0.063252 0
1.441786 0.981835 0.114332 0
-0.637232 0.827493 -0.196349 0
-0.618825 0.814031 -0.188734 0
-4.243444 4.749010 -2.607532 0
-0.896078 1.766596 0.015619 0
1.793048 1.217214 0.317042 0
-0.103817 0.930107 0.271077 0
-0.291275 0.599177 -0.294800 0
1.373409 0.965917 0.222192 0
1.745789 1.873328 0.387234 0
1.797984 1.995095 0.364312 0
0.051514 0.069251 0.019863 0
-0.057185 0.323451 -0.113426 0
0.051791 0.069491 0.019542 0
-0.342790 0.856765 -0.119902 0
0.052162 0.069812 0.019162 0
-0.128175 0.667354 -0.100042 0
0.005102 0.060099 0.058090 0
-0.229701 0.992721 -0.025708 0
-0.255717 1.116213 -0.034211 0
