ply
format ascii 1.0
element vertex 3092
property float x
property float y
property float z
property int map_id
end_header
0.192166 0.520749 -0.122177 0
1.403664 1.311201 -0.048175 0
-0.146219 1.047452 -0.114371 0
0.423793 1.690512 -0.137477 0
0.336548 1.263808 -0.147019 0
-0.239337 0.927660 -0.120897 0
1.715688 1.263834 0.555245 0
1.376785 2.080271 -0.233992 0
1.366838 5.551933 0.401730 0
0.108301 0.452568 -0.063960 0
-0.102943 0.950986 -0.048161 0
-0.115191 0.793109 -0.130870 0
-0.168188 0.687324 -0.126199 0
-0.374247 1.239750 -0.010212 0
-0.491984 1.200148 -0.102689 0
0.904399 0.581541 -0.129455 0
1.399096 1.387077 0.070710 0
0.658850 1.233518 -0.067876 0
-0.102936 0.942065 -0.133592 0
-0.283235 1.273166 -0.071611 0
-0.479946 1.317392 -0.075494 0
-0.006724 0.966159 -0.136282 0
-1.166737 2.012677 -0.216477 0
0.065719 3.530591 0.012806 0
1.274898 1.264398 -0.197706 0
1.429121 0.974244 0.123617 0
1.159095 0.753188 -0.135243 0
1.257870 0.812062 -0.138754 0
0.655997 1.276469 -0.085514 0
1.568669 1.730093 0.272769 0
1.387313 1.596943 0.243460 0
1.402267 1.086976 0.223539 0
1.385963 1.016063 0.224253 0
0.404508 0.203101 -0.116836 0
-0.138600 0.908837 -0.074204 0
-0.028184 0.960823 -0.105251 0
0.047409 0.816165 -0.130135 0
0.049416 0.472096 -0.095853 0
-0.121340 0.848612 -0.130703 0
-0.008940 0.954250 -0.130297 0
-0.193617 0.699947 -0.119529 0
0.101108 0.798179 -0.129060 0
-0.208402 1.316880 -0.251372 0
0.744928 0.480069 -0.092687 0
-0.122296 0.784604 0.270748 0
-0.090551 0.668729 -0.126494 0
0.135611 0.484384 -0.121650 0
-0.416704 1.353697 -0.033610 0
0.217799 1.475558 -0.034813 0
1.415586 1.763766 0.005221 0
-0.492931 1.211318 -0.100773 0
0.773512 0.529327 -0.101914 0
0.178773 0.817462 -0.126325 0
-0.039217 0.953770 -0.118807 0
-0.183134 3.209578 -0.058423 0
0.740486 0.508199 -0.094028 0
0.657163 1.491582 -0.212470 0
-0.291424 1.194284 -0.084928 0
-0.495450 1.204777 -0.101133 0
0.665426 1.249178 -0.067276 0
-0.082981 0.428037 -0.108658 0
-0.065953 0.498546 -0.125789 0
-0.082209 1.073044 -0.108632 0
-0.009192 0.963327 -0.124881 0
0.044964 0.814006 -0.129810 0
-0.037865 1.055741 -0.096757 0
-0.862921 2.955708 0.230947 0
1.575518 3.813573 0.669357 0
1.385521 1.924923 0.067507 0
1.366744 2.038366 -0.105033 0
1.480203 3.504482 0.049662 0
1.693339 1.459645 0.311520 0
1.401552 1.393677 -0.049918 0
1.401411 0.985087 0.224290 0
0.648804 3.702720 0.192992 0
1.441605 1.784757 0.116112 0
1.400165 1.397292 0.069202 0
1.869126 3.575916 1.516516 0
0.513702 0.609697 -0.136478 0
1.861074 2.862265 0.746386 0
1.425582 2.284355 0.384081 0
1.524533 6.181534 0.868263 0
1.692224 1.784315 0.641331 0
1.403577 1.756565 0.002813 0
0.169562 0.801947 -0.123146 0
-0.146409 0.804485 0.101877 0
-4.682957 5.961723 1.015023 0
1.395857 4.412807 0.359420 0
1.342118 2.238317 0.105657 0
1.547673 3.757556 0.275453 0
1.840867 3.524195 1.488805 0
1.826673 1.731375 1.076017 0
1.287109 1.279038 -0.199553 0
1.429646 2.296020 0.472026 0
1.502557 3.633590 0.238241 0
1.714042 4.072603 0.701436 0
1.710145 1.917132 0.356716 0
1.398193 1.699942 0.196739 0
1.871582 2.912911 0.751193 0
0.211505 4.322720 1.381207 0
-0.122994 0.737517 -0.141890 0
-3.464607 2.833222 0.203866 0
-2.723984 3.222937 0.188856 0
1.483793 1.418483 0.254787 0
-0.120810 1.091340 -0.069997 0
-2.633521 2.930189 -1.705504 0
-2.957389 4.916775 0.235410 0
-3.308595 2.555921 -0.349569 0
-1.975178 2.786863 -0.457265 0
-2.041744 5.024460 -0.190198 0
1.403798 7.295433 0.902861 0
-2.846690 3.201053 0.069260 0
-5.493633 4.888151 0.697952 0
-0.119197 0.728807 -0.133548 0
-4.833145 6.047899 1.430712 0
-0.474703 1.186770 -0.143920 0
0.103515 0.804309 -0.129133 0
0.400906 1.520142 -0.165791 0
0.512396 0.982837 -0.145659 0
0.670681 1.026480 -0.208391 0
-0.099278 0.753274 -0.126093 0
-4.703749 8.466614 1.297463 0
-0.115971 0.346867 -0.090700 0
-4.782825 8.598590 1.342538 0
-2.969828 3.122955 0.594398 0
-0.019746 3.955626 0.140938 0
-2.962946 8.187179 1.429516 0
0.968007 4.718714 1.455340 0
1.573983 0.922870 -0.338796 0
0.274556 7.059459 1.439960 0
-1.545627 6.183600 1.427257 0
-1.883579 8.601402 0.980599 0
-2.901374 2.973758 0.568777 0
1.921108 2.828284 1.367616 0
0.390819 1.410762 -0.090953 0
0.810683 4.494220 0.044815 0
-2.846947 3.118811 -1.811351 0
1.242631 1.442385 -0.677065 0
1.468096 1.776482 -0.878536 0
-1.925498 3.105001 -0.012569 0
1.391721 1.896998 0.389095 0
-2.722911 4.069482 -0.227698 0
-2.587209 2.022471 -1.653384 0
-0.359261 1.148379 -0.091722 0
1.734784 4.964743 0.633623 0
-1.958930 2.659952 -0.278772 0
0.060497 6.923172 1.408172 0
1.459086 6.114319 0.063623 0
1.421020 1.730135 0.198151 0
1.225680 1.339617 -0.042070 0
1.573979 4.329784 -0.131989 0
0.121222 4.282532 0.270263 0
-3.579020 8.024508 0.200407 0
-1.905156 2.212481 -0.441801 0
0.016598 4.083140 0.069686 0
-0.232924 7.555141 0.310783 0
-1.958504 2.767587 -0.455010 0
1.503025 6.124950 0.833955 0
1.379738 2.064751 -0.105940 0
0.013396 4.625336 1.485387 0
0.125515 4.259139 0.270991 0
1.494147 5.877320 1.080711 0
-2.302347 2.411280 -0.665250 0
0.371380 8.511533 1.090602 0
1.705794 5.419395 0.878742 0
0.368732 1.440145 -0.107539 0
1.434335 2.295112 0.471433 0
1.409259 2.249014 0.393245 0
1.364405 1.850605 0.387569 0
0.054956 3.592074 -0.006877 0
-2.344477 4.397389 -0.095768 0
1.358262 1.931096 0.282618 0
1.778795 1.543884 0.321950 0
1.478582 5.570214 1.215171 0
1.653040 1.246741 0.644964 0
0.021242 4.707226 1.503158 0
-0.843156 2.909651 0.226615 0
0.031765 5.636144 1.429730 0
1.465545 3.554371 0.156829 0
1.533625 5.779188 0.517224 0
1.363806 4.350269 0.356111 0
1.406036 1.305382 -0.166820 0
0.399062 0.202594 -0.114086 0
-0.433917 1.305131 -0.061671 0
0.661189 3.840448 0.184182 0
0.081375 4.728158 0.273575 0
-4.081347 9.146005 0.316759 0
1.359788 2.267387 0.280059 0
-0.133554 0.707100 -0.112186 0
1.719557 1.271448 0.356238 0
1.366908 1.003921 0.278390 0
-0.121916 0.795219 0.271266 0
-0.490079 1.210891 -0.102973 0
-0.115757 0.799345 -0.131447 0
1.488384 3.594440 0.282231 0
1.409229 1.035965 0.293522 0
1.414471 1.754261 0.014049 0
-0.394188 1.727194 -0.052753 0
-1.892379 2.200963 -0.440621 0
1.725897 1.803966 0.339155 0
1.745511 1.926608 0.442085 0
1.497582 1.454345 0.260568 0
1.364187 2.285213 0.282764 0
1.375484 2.205554 0.098714 0
1.660908 1.244140 0.651980 0
-4.446256 6.544801 1.396006 0
-4.831791 6.941597 1.034760 0
1.773255 5.760769 1.361908 0
0.491048 2.794365 0.116045 0
1.945561 3.278775 1.105304 0
1.867645 2.428427 1.280099 0
1.404484 1.397782 0.071387 0
0.063620 3.437634 0.018707 0
1.436907 2.311730 0.474306 0
1.395026 1.905240 0.391464 0
1.809938 7.644125 1.306121 0
-0.861114 2.936791 0.235170 0
-0.723910 2.915362 0.103764 0
1.350520 2.097247 0.229875 0
1.396345 1.309371 -0.046941 0
1.698347 1.797194 0.646426 0
1.468995 0.936092 -0.121592 0
1.838441 2.808894 0.901678 0
0.046398 0.814634 -0.129538 0
1.216885 1.311837 -0.312084 0
1.841226 5.046818 1.443638 0
0.250425 5.610323 1.430855 0
1.559960 4.272686 1.493502 0
-0.137444 3.677895 -0.001414 0
0.226504 3.390659 1.485780 0
1.836130 1.746252 1.077790 0
1.482357 5.285306 -0.246916 0
-1.145422 4.332680 0.010734 0
1.467354 3.828778 0.040640 0
1.851851 2.838075 0.744669 0
1.366396 1.872317 0.419567 0
1.501978 1.040606 0.306515 0
1.556718 5.537199 0.902941 0
1.425808 1.738449 0.199116 0
1.714813 1.797055 0.334299 0
1.406656 1.738616 0.226860 0
1.224688 1.341718 -0.041223 0
1.393687 2.251436 0.096496 0
1.775068 5.080500 0.617150 0
1.728920 2.051672 0.477523 0
1.861485 3.027382 0.907269 0
0.731225 0.469731 -0.088649 0
1.861725 3.569802 1.514988 0
2.102542 3.568428 1.475341 0
-0.850351 2.818739 0.150915 0
-0.864272 2.881499 0.114601 0
-0.022284 4.830796 0.110740 0
-0.140559 4.150558 0.066423 0
-0.189103 3.738307 -0.021935 0
1.501997 6.019041 -0.269668 0
1.506044 5.949622 0.126001 0
1.524296 5.758929 0.166797 0
1.488822 5.518770 0.760255 0
1.362125 1.880666 0.069380 0
1.605701 4.376720 -0.132706 0
1.466259 3.564097 0.037270 0
1.353383 2.393012 0.098204 0
1.690477 1.791869 0.644054 0
1.872902 3.195040 0.734004 0
-3.368101 3.008664 0.312639 0
1.839239 3.460328 0.542950 0
1.784563 2.362238 0.878080 0
0.173808 0.813287 -0.130038 0
-3.004714 3.533067 1.505825 0
-2.395247 4.915842 0.011974 0
-2.351670 2.642451 -0.186712 0
-3.539930 3.559933 0.177310 0
1.493525 1.900415 0.444572 0
1.619207 6.129328 -0.121626 0
-2.144390 6.037157 -0.077198 0
1.300529 1.569107 -0.431855 0
-0.296359 0.983247 -0.118831 0
0.102187 0.855307 0.004502 0
0.238882 1.612968 -0.062420 0
0.679671 1.055667 -0.215339 0
-0.793497 0.557453 -0.164453 0
-0.384226 1.678923 -0.041281 0
0.233722 1.625662 -0.063958 0
-0.402215 0.185026 -0.112745 0
0.347969 1.309654 -0.163073 0
-0.284886 1.139644 -0.069417 0
0.028567 1.093394 -0.135830 0
-2.206898 2.101630 -0.859884 0
-1.835483 2.884614 -0.415638 0
-2.608874 4.128092 -0.090458 0
1.551265 4.222669 -0.570959 0
-2.688271 2.939314 0.522358 0
-3.893883 3.466439 0.362613 0
0.050832 3.723525 -0.001971 0
1.479833 0.891199 0.131153 0
-0.256496 3.802203 -0.116778 0
1.330704 0.925140 0.081165 0
-2.796725 3.314457 0.202747 0
-2.656118 3.460439 0.358341 0
-4.513939 6.541910 1.211118 0
0.626085 1.205099 -0.070769 0
-0.293005 4.130722 0.215640 0
-2.973509 5.795637 1.465165 0
-2.225401 4.110548 -0.073525 0
-2.945874 2.933184 -0.168895 0
-3.753968 3.675910 -0.073969 0
1.468533 1.053528 0.355709 0
1.483346 5.557897 1.235678 0
-3.248314 3.157254 0.513426 0
1.328304 0.953379 0.220074 0
1.390557 2.075895 -0.107642 0
-0.004074 6.110760 0.110690 0
1.468907 4.971837 0.384680 0
-2.980151 5.054049 0.042284 0
-2.213929 4.087727 -0.063263 0
1.362011 1.922987 0.287920 0
1.780210 5.782993 1.363490 0
-0.299441 4.210680 0.214266 0
-4.523150 6.503690 0.376904 0
-3.009926 4.444899 0.244417 0
-2.709360 3.237908 -0.088365 0
1.647674 2.208870 0.524139 0
-3.028549 3.542613 1.516146 0
1.227136 1.321727 -0.315661 0
-2.944455 4.670969 1.478913 0
-3.146861 4.668420 1.466011 0
2.059509 1.690089 1.246246 0
-2.493727 4.201841 -0.191774 0
1.525041 4.576076 0.158671 0
-2.209813 4.895820 -0.192435 0
1.536107 4.000438 0.415744 0
1.521743 6.004047 0.927419 0
1.729744 1.906150 0.438393 0
-2.081127 2.707072 -0.465700 0
0.275392 6.935521 1.420137 0
1.418268 1.402473 -0.053073 0
1.662485 1.244864 0.654671 0
-2.857418 7.995816 1.388145 0
-2.897633 5.734706 1.438077 0
1.265528 4.831626 1.015559 0
-2.874136 5.509477 1.417628 0
-5.030695 8.717734 1.426686 0
-3.081928 4.678557 1.466299 0
-2.896269 7.772089 1.390599 0
-2.347968 4.534458 0.290386 0
1.466388 5.486159 0.573488 0
-3.153758 3.167129 -0.142139 0
-4.823819 10.462362 0.874627 0
-2.101125 3.535587 -0.084376 0
1.331224 5.613047 0.061072 0
-2.736009 3.231002 -0.063787 0
-4.374856 4.177531 -0.315379 0
1.406956 1.309534 -0.166752 0
-2.720528 7.294092 0.229364 0
1.524829 6.180820 0.896548 0
-1.362131 1.637087 -0.004078 0
-3.196699 3.997546 0.443743 0
-0.399920 0.410026 0.087725 0
-3.103287 4.634300 1.454789 0
-3.041077 6.660562 0.125614 0
-2.689878 2.809751 -0.202216 0
1.281444 5.395673 0.085587 0
-2.828182 3.193653 0.076710 0
-2.656818 2.816750 -0.087687 0
-2.735041 3.251805 -0.076499 0
-2.236845 4.790870 -0.194985 0
-2.914656 3.340732 1.455849 0
1.583406 2.219950 0.508870 0
1.458380 0.970807 0.241874 0
1.201485 1.370763 -0.185627 0
-4.650840 6.774998 1.442133 0
-2.418119 3.227315 0.240507 0
-0.315669 0.516037 -0.133317 0
-0.176085 0.325282 -0.110956 0
0.049018 0.823109 -0.130238 0
-0.141104 0.806143 -0.044953 0
-3.018091 3.048155 -0.071991 0
-2.889120 2.977770 -0.254160 0
1.414234 0.989133 0.226965 0
1.363867 1.968117 -0.112513 0
1.346546 1.014026 -0.134298 0
1.329406 0.836631 -0.055992 0
0.083379 0.418572 -0.130816 0
0.080514 0.410306 -0.124115 0
1.409974 0.985141 0.227039 0
0.101575 0.440951 -0.105942 0
-0.138344 0.424444 -0.110579 0
1.602817 0.637382 -0.337009 0
-2.258070 6.108823 -0.034738 0
-2.249480 4.152422 -0.067763 0
-2.071732 4.240948 -0.084780 0
-3.552983 7.038882 0.272635 0
1.393049 5.845607 -0.140458 0
-2.943228 2.930030 -0.188184 0
-3.728539 3.013595 0.095359 0
-2.701060 3.236703 -0.093652 0
0.039861 4.543607 0.268026 0
-3.108296 6.993301 1.425206 0
-3.158549 4.670871 1.466463 0
-2.205679 4.025410 -0.105010 0
1.455309 2.056516 0.475605 0
-3.582862 2.742506 -0.126118 0
0.053255 0.853303 0.009598 0
0.169487 2.089746 -0.199575 0
1.415804 1.336368 -0.043016 0
-0.559418 0.573302 -0.172886 0
1.419970 1.318726 -0.167897 0
1.384827 1.909698 -0.319271 0
0.355346 1.301987 -0.073890 0
1.598710 0.852585 -0.315947 0
1.107148 1.279954 -0.126185 0
1.413715 1.062865 0.263631 0
1.483715 0.897019 0.130235 0
0.680812 1.036344 -0.098871 0
-0.305643 0.985632 -0.119912 0
-5.108509 6.201888 1.528807 0
-2.967881 3.036136 0.590995 0
-5.089555 7.287777 1.032388 0
-4.814888 6.931715 1.297103 0
-2.999028 8.195580 1.440032 0
-7.337126 6.516641 0.037643 0
-2.102926 4.490155 -0.162850 0
-3.249493 3.277492 0.180836 0
1.724914 1.269005 0.562805 0
-2.649304 2.837857 -0.108420 0
1.873144 2.678008 0.872776 0
-0.194693 3.772392 -0.190678 0
-2.203438 3.930052 -0.332375 0
1.872122 5.471599 0.808227 0
-2.437994 4.795916 0.181880 0
-2.754384 4.620142 -0.075538 0
-0.200055 3.810030 -0.198473 0
-3.719250 3.715245 -0.210058 0
-2.901998 7.799617 0.249645 0
-2.176100 5.314646 0.048876 0
-2.253021 5.001267 -0.214813 0
1.648748 0.747950 -0.339495 0
-1.932649 5.448648 -0.171161 0
0.402742 1.270765 -0.105750 0
-2.739636 3.427951 0.380998 0
-2.235473 4.677426 -0.187251 0
-2.474328 3.336862 0.128363 0
1.374769 1.951793 -0.093231 0
-4.310725 9.670438 0.830581 0
1.481852 5.534423 1.250236 0
1.405264 5.895844 0.039678 0
-4.203107 7.525934 0.340055 0
1.467039 0.937414 -0.121019 0
-4.488242 6.459490 0.349405 0
-0.900863 3.027169 0.192238 0
1.355903 4.265749 0.359307 0
-3.576865 6.450467 0.465376 0
-19.597971 18.962147 -0.247132 0
1.664422 2.324378 0.560474 0
1.463690 3.495719 0.069009 0
-2.500365 3.714929 -0.189691 0
-3.470039 3.386759 0.543182 0
-3.117247 3.164889 -0.076193 0
-2.484718 3.695871 -0.198965 0
1.463283 0.923093 -0.124680 0
1.408705 1.395882 -0.051506 0
1.194342 1.375986 -0.350712 0
1.394078 1.087713 0.220059 0
-2.741559 7.465899 0.248216 0
-0.055181 4.004359 -0.183986 0
-0.257941 3.876114 -0.130003 0
1.678449 5.083373 0.524636 0
-2.075537 3.140014 -0.409825 0
1.421007 2.162666 0.416130 0
-0.841566 3.335435 0.115009 0
1.605842 6.060875 0.174101 0
-1.956876 4.020627 -0.087418 0
1.426351 2.290255 0.380536 0
-2.731632 3.216552 0.184225 0
0.257840 0.331895 -0.123499 0
-0.221000 6.428467 0.279453 0
-2.650623 3.965828 -0.224742 0
-2.976397 6.915593 1.401476 0
1.865882 7.870787 0.740029 0
0.317907 0.122209 -0.112332 0
-0.337390 3.847485 0.090066 0
1.543337 3.582581 0.666837 0
-3.269131 5.288332 0.272387 0
-0.173387 0.672507 -0.129847 0
1.515188 0.904873 0.273058 0
-1.793377 1.377983 -1.864790 0
4.418693 1.093370 -4.343420 0
1.579042 0.781347 -0.281946 0
0.400127 1.211878 -0.091306 0
-0.187867 0.346015 -0.123676 0
0.408564 0.667198 -0.119485 0
-0.182702 0.345338 -0.123366 0
-0.246681 1.034476 0.046205 0
-0.450524 1.232231 -0.081168 0
0.098586 0.791546 -0.130067 0
-5.015367 4.481495 1.464292 0
-3.237624 3.264318 0.205907 0
1.448791 4.345907 -0.573784 0
1.840361 3.131701 0.888410 0
-2.327619 4.031053 -0.633107 0
1.694144 1.273047 0.586920 0
1.387246 2.023977 -0.236188 0
-0.013369 1.161857 -0.115352 0
-0.477077 0.273526 -0.126550 0
-0.304588 0.992287 -0.121199 0
-0.084377 1.053806 -0.097181 0
0.735566 0.548836 -0.115886 0
0.417363 1.227533 -0.127569 0
-0.278286 4.145279 -0.155926 0
-4.616518 4.798248 1.454784 0
0.022465 3.160254 -0.157134 0
0.054560 0.483791 -0.074717 0
1.352605 1.859936 -0.225194 0
1.733720 1.484205 0.300684 0
0.063413 3.007190 -0.240444 0
1.342270 2.078437 0.227746 0
-3.645521 2.789176 -0.318915 0
-0.074059 4.211519 -0.094513 0
-3.357885 2.582430 -2.162670 0
-0.140681 0.794736 -0.042867 0
0.301064 1.112908 -0.130009 0
1.383966 1.866193 0.116318 0
-0.305535 1.004059 -0.123946 0
-2.834543 3.200561 0.071636 0
-3.771387 2.737438 -0.234695 0
1.690863 1.788068 0.643205 0
-3.179093 7.127399 0.206302 0
-2.228212 4.774304 -0.196214 0
-2.730218 3.964093 -0.328251 0
1.619255 6.110214 -0.120951 0
1.895322 2.509216 1.032593 0
-2.143852 4.157915 -0.008359 0
1.415636 4.522779 -0.363351 0
1.571404 0.926439 -0.342294 0
-4.062659 3.142004 0.283077 0
-4.885065 6.099994 1.426573 0
-3.907817 3.033529 0.275651 0
-5.042444 4.503908 1.470944 0
0.278622 7.869559 1.370518 0
-5.338554 4.057515 0.547160 0
1.418889 4.607619 -0.329800 0
1.579322 0.786186 -0.396487 0
0.238622 1.579279 0.028688 0
-0.005140 3.449962 1.508662 0
-0.118691 0.833949 -0.130265 0
-0.019539 0.665793 -0.128582 0
1.570534 4.048110 0.429203 0
1.595352 0.787599 -0.343778 0
0.458831 0.188344 -0.104536 0
-9.429972 8.653544 -0.328157 0
1.392820 1.392161 0.069587 0
-0.054499 3.818238 -0.168849 0
-0.112031 1.911988 0.218058 0
-0.088580 1.054865 -0.050878 0
0.624318 0.970242 -0.218244 0
-0.046546 1.150316 -0.001696 0
-0.084286 1.053339 -0.047199 0
1.345131 2.026674 0.150161 0
-2.979475 4.681401 -0.109276 0
-0.105613 2.247571 -0.097863 0
1.474164 0.959704 -0.231779 0
-3.327492 3.648706 1.541024 0
-2.164377 4.241001 -0.176673 0
-2.910477 2.901553 -0.178564 0
-2.688429 5.497058 0.132828 0
-2.274631 2.904027 -0.102494 0
-2.194289 3.426457 -0.247992 0
1.589982 3.848131 0.032749 0
1.373960 1.920324 -0.031967 0
-2.326664 2.571618 -0.204562 0
1.355371 1.926154 0.114871 0
1.376103 2.039262 -0.107826 0
1.900391 2.376494 0.527339 0
0.395762 1.173613 -0.115643 0
0.078334 3.339920 -0.160967 0
1.391672 4.475588 -0.342310 0
0.507677 0.400217 -0.134527 0
1.829548 2.415308 1.011790 0
1.706195 1.532511 0.344946 0
1.561723 3.590882 1.496831 0
0.089416 3.778314 -0.171447 0
1.410530 2.314906 -0.076437 0
0.989778 4.860273 1.493611 0
-2.901280 2.845680 -0.003470 0
-2.714848 3.238170 0.207195 0
-0.150712 5.802065 0.105908 0
-0.938966 4.351931 0.024843 0
-1.993922 2.617652 -0.281026 0
-3.083792 3.647244 -0.163700 0
-2.259559 4.727161 -0.195559 0
-2.774574 3.801120 0.204718 0
-2.983845 3.096904 0.565880 0
-0.231755 0.937327 -0.136954 0
-0.137783 0.894967 -0.075167 0
0.293816 1.390948 -0.088589 0
-0.103101 0.856133 -0.132380 0
1.451253 1.062118 0.337424 0
0.315345 1.519614 -0.113073 0
-0.443139 1.232301 -0.091035 0
-0.193747 3.476826 -0.195332 0
-4.888249 4.420000 1.469701 0
-4.702124 6.753804 0.989115 0
0.243372 6.829327 1.384282 0
-2.485104 5.518529 0.142550 0
0.660308 0.810015 -0.216776 0
-0.725777 0.714742 -0.240235 0
-0.014414 0.952449 -0.127276 0
0.607986 0.545662 -0.207515 0
-0.166645 0.688388 -0.124887 0
-0.039037 1.075420 -0.073095 0
0.106119 0.680128 -0.128297 0
-3.102252 3.195153 0.583101 0
-0.841879 0.580044 -0.185074 0
0.698991 1.108959 -0.241470 0
-0.824799 0.463328 -0.171838 0
-0.104976 0.960124 -0.139818 0
-0.304596 3.785333 0.091442 0
-3.207398 3.106623 0.508461 0
-5.329151 4.690112 0.268324 0
-1.872442 2.734897 -0.403128 0
-3.928967 2.994936 0.134048 0
-4.845230 3.838532 -0.245410 0
-3.675370 2.969436 0.101771 0
-3.148405 7.154749 1.450500 0
2.982823 4.312994 -0.616152 0
0.594653 3.088793 -0.146792 0
0.585942 3.369760 0.084291 0
1.996589 3.370279 1.119785 0
1.424554 2.088087 -0.236034 0
1.411171 1.732175 0.220935 0
1.659572 4.441657 0.076734 0
0.053103 6.983633 1.424730 0
-2.732438 4.659733 0.033452 0
-3.660290 5.317265 -1.374366 0
1.342103 1.870031 -0.206057 0
0.808130 1.650660 -0.265588 0
1.446605 4.464554 -0.525892 0
0.047189 0.388555 -0.129929 0
0.043997 0.378722 -0.125207 0
-0.810308 0.569559 -0.172387 0
1.484235 3.632457 0.203517 0
-1.718611 4.557231 0.068062 0
-0.102190 0.117603 -0.080786 0
-0.130838 0.150339 -0.118559 0
0.175278 0.611483 -0.126913 0
-0.178036 0.192924 -0.129981 0
-0.120851 0.790637 -0.063476 0
1.552396 0.714345 -0.518905 0
1.506245 0.810508 -0.097706 0
1.572489 0.915448 -0.333544 0
-0.096911 3.313790 -0.214308 0
1.584668 4.337966 0.510880 0
1.654588 0.863933 -0.465933 0
1.531481 4.380061 0.560884 0
-0.162116 0.556483 -0.129910 0
0.570893 1.172742 -0.197630 0
-0.401564 0.191322 -0.116317 0
-2.909534 5.737966 0.276248 0
-1.915362 2.618818 -0.914238 0
-0.137763 0.425370 -0.110913 0
1.363834 2.085767 0.365665 0
-0.117851 0.984331 -0.077955 0
0.345489 0.314739 -0.119687 0
-0.219740 0.746604 -0.112691 0
-2.051961 2.372966 -0.505138 0
1.458449 0.951346 0.201520 0
1.757555 1.655043 0.675452 0
-0.188175 0.691388 -0.118153 0
1.477187 0.941823 -0.086907 0
-2.477158 3.683760 -0.229617 0
1.353260 1.883250 -0.030834 0
-0.016789 4.668282 0.105455 0
-2.157038 2.288238 -0.657845 0
1.677368 6.132883 0.980346 0
-2.272397 5.538892 -0.175773 0
-2.064869 3.124515 -0.405233 0
1.830701 7.779254 1.321036 0
1.358097 3.584008 0.145881 0
1.374002 1.949552 0.107601 0
0.048525 0.790983 0.016769 0
-0.130049 0.214105 -0.115755 0
-2.539652 3.837017 -0.065051 0
-0.437002 0.333986 -0.123893 0
-2.162274 2.180285 -0.360125 0
0.085209 2.988763 -0.174253 0
1.857163 2.826813 0.909735 0
1.400478 1.055326 0.270760 0
-0.211730 3.178734 0.222389 0
-4.791798 7.702211 0.567839 0
1.833521 2.822653 0.899612 0
1.513467 0.906933 0.269545 0
-1.825841 2.116752 -0.441599 0
-2.089462 5.084618 -0.181485 0
-2.070978 5.787815 -0.209919 0
1.963636 1.706910 1.188976 0
1.554262 3.695189 0.513496 0
-0.475497 0.272557 -0.123015 0
-2.407309 2.097032 -0.616453 0
0.374262 8.714659 1.118492 0
-0.314304 3.918430 0.078153 0
-4.798281 3.718675 1.439309 0
1.416754 4.588172 -0.344124 0
-2.352558 1.913918 -0.671121 0
0.665914 3.774443 0.196569 0
-2.605218 2.075791 -0.758922 0
-3.090957 2.514088 -0.822445 0
1.753261 2.794894 0.714957 0
-2.992791 5.070137 0.044915 0
1.922599 3.691501 1.441578 0
1.484069 5.639725 0.064880 0
-3.093418 3.157476 0.590177 0
0.706426 1.607593 -0.229356 0
-1.966499 5.013741 -0.339588 0
-0.063197 0.511229 -0.134404 0
1.504682 0.504641 -0.335994 0
-3.257230 3.204763 -0.065369 0
-2.171264 2.049145 -0.865440 0
-2.141078 2.032957 -0.837684 0
-0.450641 0.349033 -0.132634 0
0.225085 1.546249 0.041860 0
-0.440987 0.405206 -0.130679 0
1.617899 0.728440 -0.330065 0
1.469564 4.610509 0.382880 0
-0.096623 1.013084 -0.053322 0
-0.078163 0.429380 -0.111199 0
1.644695 5.180138 0.817400 0
0.241518 4.596987 1.475626 0
1.776955 5.615390 0.870316 0
1.571996 3.901420 -0.068979 0
-4.845213 6.117803 1.042036 0
-2.154790 2.838303 -0.077346 0
-0.864786 2.942389 0.232934 0
-1.618520 1.643805 -0.531706 0
-0.097941 0.940463 -0.132661 0
1.311431 1.464525 -0.064207 0
1.572599 0.925958 -0.340723 0
0.202525 6.090871 1.223624 0
-3.024852 2.526837 -0.815788 0
1.346879 2.010961 0.150189 0
-0.223133 3.642152 -0.223628 0
-0.170455 0.759498 -0.128566 0
-5.295596 4.761510 1.616403 0
-2.988392 3.023608 0.558319 0
-5.322904 7.758427 0.705908 0
1.591819 0.931760 -0.286962 0
-3.430566 2.505862 -0.201861 0
0.385394 1.190521 -0.138912 0
-1.791413 2.700208 -0.379615 0
1.603573 0.769183 -0.406821 0
0.734701 4.034424 0.001449 0
-0.867890 0.499966 -0.204042 0
1.400143 2.108168 -0.238826 0
-0.183110 0.723955 -0.120325 0
1.377806 1.307209 -0.495465 0
0.637454 3.357820 -0.160228 0
-0.357574 1.158475 -0.096697 0
-0.195325 3.789357 0.009205 0
0.050621 2.953356 -0.133577 0
-1.961590 2.448486 -0.973148 0
-1.824995 2.885566 -0.413804 0
1.743610 6.792751 -0.305318 0
-2.940607 3.630955 0.368976 0
-1.596788 6.405917 1.473257 0
-3.914768 3.508071 0.247586 0
-2.459424 3.302734 0.114662 0
1.614612 0.841296 -0.438165 0
-4.753374 5.852184 1.431129 0
1.453575 0.816976 0.100745 0
-0.226028 0.764440 -0.121488 0
-0.063848 0.507957 -0.130330 0
-3.198422 3.194566 0.248469 0
-1.819394 2.798018 -0.402393 0
0.336806 1.426896 -0.166485 0
0.250113 1.658634 0.017283 0
1.482035 0.361292 -0.530409 0
1.467426 0.352653 -0.522791 0
1.495392 0.363588 -0.536072 0
1.464358 0.258623 -0.533982 0
1.484168 0.436504 -0.421857 0
1.387755 2.304092 0.277560 0
0.949959 5.168553 -0.355734 0
1.748750 1.935474 0.367994 0
0.662471 1.031104 -0.248931 0
-1.981998 5.054240 -0.339968 0
1.425713 0.973215 0.120304 0
-0.266931 1.113017 -0.067450 0
-1.983181 2.802379 -0.460884 0
-0.121014 0.733960 -0.137449 0
1.571902 0.884985 -0.254725 0
1.698718 5.454403 0.943129 0
1.251490 1.276634 -0.315231 0
-0.058304 3.665993 -0.191796 0
-2.109373 3.375732 -0.177142 0
1.552934 0.909397 -0.331843 0
0.644966 3.303521 -0.189889 0
-0.163160 3.627673 -0.202085 0
0.071635 3.081166 -0.260322 0
0.045738 0.829985 -0.136345 0
-2.107446 1.888637 0.007447 0
-4.796238 6.896477 0.850101 0
0.106217 0.687345 -0.128143 0
-2.174259 5.349654 0.046793 0
1.566069 3.929798 1.319329 0
1.489606 0.879030 -0.081325 0
-3.175683 2.857194 0.803485 0
1.532211 3.834972 -0.051823 0
-0.890762 1.448804 -0.564948 0
1.364134 2.195837 0.144340 0
-35.824203 32.430000 -1.380012 0
0.494927 0.945118 -0.142020 0
-0.823092 0.574588 -0.177037 0
1.114719 0.238664 -0.345743 0
1.352231 0.525220 -0.039663 0
1.685309 0.537289 -0.318214 0
1.537137 0.626999 0.222467 0
1.597962 0.750990 0.390068 0
1.472065 0.443952 -0.129348 0
1.542294 0.629656 -0.313568 0
1.491328 0.541696 0.027235 0
1.711261 0.838988 0.319415 0
1.671077 0.934460 0.343011 0
1.505846 0.826538 0.098046 0
0.663559 1.042539 -0.207395 0
-1.880916 2.161069 -0.477484 0
-0.145228 1.036132 -0.112813 0
-4.882094 7.136774 0.529930 0
-5.502441 5.804671 1.576332 0
0.337236 1.273323 -0.108889 0
0.323915 1.461144 -0.098633 0
-0.151856 0.840448 -0.063728 0
0.047149 0.928312 -0.002266 0
-0.482753 1.196612 -0.096822 0
1.435486 0.984204 0.097210 0
0.045152 0.947895 -0.004892 0
-0.095763 0.999373 -0.050224 0
1.438802 0.959461 0.247269 0
-4.723307 6.162433 1.418221 0
1.442777 5.424933 0.107356 0
-4.825842 6.934011 1.050162 0
0.243141 4.575843 1.470233 0
-0.123080 0.186705 -0.116487 0
-3.157657 3.206472 0.590834 0
-3.522081 2.820616 0.115780 0
-4.563179 4.493322 -0.112272 0
0.308871 11.418742 2.045060 0
-2.534374 6.288818 0.136911 0
-4.365663 8.832809 0.781404 0
-2.038151 2.648693 -0.452369 0
-5.153859 4.612607 1.434216 0
-0.142066 0.942413 -0.113968 0
-0.011205 1.505961 -0.143825 0
0.399567 1.502128 -0.096146 0
-4.225296 3.394411 0.260707 0
-0.217168 0.724708 -0.104161 0
1.568704 0.919546 -0.395891 0
0.403979 1.221922 -0.095577 0
-0.093292 1.387165 0.264441 0
0.033619 0.393269 -0.122024 0
-0.192509 0.293808 -0.099945 0
0.351878 1.373140 -0.094289 0
-0.232688 0.255916 -0.213630 0
0.062937 0.491735 -0.135740 0
0.150549 0.548079 -0.146887 0
0.014033 0.389871 -0.128697 0
0.036179 0.563262 -0.207516 0
-4.516932 8.113379 0.523966 0
-0.135575 0.780364 0.071599 0
1.348184 0.871003 -0.174422 0
0.192159 0.805273 -0.068222 0
-0.068805 0.339097 -0.116838 0
0.622442 1.277626 -0.195911 0
-0.158623 0.758957 -0.076294 0
1.215475 1.318016 -0.331761 0
-2.726852 2.884025 -0.213987 0
0.033010 0.376071 -0.127346 0
0.962624 2.702762 -0.349425 0
-0.148628 2.252560 0.141433 0
-3.157414 3.219085 0.594873 0
-2.730138 3.112700 0.514447 0
0.338311 0.593185 -0.236898 0
0.124931 3.678316 0.073921 0
0.217517 0.369026 -0.123882 0
-0.068891 0.421436 -0.112425 0
-3.086330 3.124388 0.178714 0
-0.046520 1.192827 0.000883 0
0.232177 1.587669 -0.057721 0
0.253729 1.653672 0.016792 0
0.280471 0.172499 -0.142765 0
-3.992484 3.082578 0.275548 0
-0.294725 1.571882 -0.052811 0
0.319686 0.123055 -0.112884 0
-0.359656 0.705292 -0.128785 0
1.377390 1.285404 -0.157723 0
-2.753989 4.604302 -0.102790 0
-3.194177 7.301685 1.476431 0
0.297769 0.160516 -0.095408 0
-3.569241 2.487876 0.207046 0
1.362774 1.891091 -0.223700 0
-2.307956 2.926921 -0.099149 0
1.377165 2.016221 -0.229403 0
-2.504478 2.674000 -0.914504 0
0.061526 0.486618 -0.132981 0
0.353240 0.247341 -0.116925 0
1.332588 1.977022 -0.204434 0
-2.615999 6.556361 0.125780 0
-3.505064 3.067854 0.241013 0
-4.100709 3.129942 0.262951 0
1.873533 2.743193 1.070746 0
-2.107318 5.756141 -0.848806 0
0.040965 0.784696 0.016783 0
1.361874 2.016797 -0.214718 0
-0.765671 0.694825 -0.163100 0
-1.761934 2.764888 -0.884982 0
-2.242424 4.040596 -0.356378 0
-0.274162 1.188201 -0.091292 0
-5.061934 11.099946 -2.371770 0
1.383666 2.441880 -0.058065 0
-2.191119 3.144854 -0.847766 0
-0.127907 0.283114 -0.077212 0
-2.576662 2.569261 -0.441943 0
-1.826114 4.824040 -0.554979 0
1.443764 0.650723 0.131854 0
1.490468 0.604781 0.225934 0
1.492863 0.449895 -0.131020 0
1.437921 0.682850 0.270847 0
1.504713 0.455350 -0.261594 0
1.726476 0.988147 0.915761 0
1.470052 0.600016 0.063738 0
1.435496 0.583898 0.071055 0
1.426867 0.363299 -0.294572 0
1.526754 0.467083 -0.137330 0
0.194953 0.527439 -0.123678 0
-0.079731 0.413484 -0.101394 0
0.266804 1.224932 -0.086170 0
-0.166651 0.757884 -0.095367 0
-1.036067 1.990266 -1.151200 0
-2.355291 3.013383 -0.081500 0
1.351539 1.899486 0.401255 0
1.414724 5.340827 1.151584 0
-3.736371 3.479397 -0.113368 0
0.036213 5.641034 1.439274 0
1.493549 5.602234 0.519151 0
1.573711 3.679122 0.207316 0
-0.376394 1.906778 -0.041820 0
-0.137735 0.940066 -0.160527 0
-0.316545 1.021199 -0.018898 0
-0.329621 1.059491 -0.025463 0
-0.160887 0.171035 -0.104859 0
-0.758566 3.555900 0.052583 0
-4.560998 4.063818 0.803399 0
-0.100568 0.116163 -0.078958 0
0.046509 0.366232 -0.121764 0
1.472348 4.461682 -0.605433 0
1.389650 1.045851 0.287065 0
-3.051717 3.041391 0.240047 0
-4.763078 8.563582 1.352773 0
-0.781397 3.153420 -0.108849 0
-0.022758 0.899657 -0.056709 0
0.092728 0.662571 -0.115997 0
-1.438344 0.602194 -0.648259 0
-1.477212 1.830929 -0.911981 0
-1.488171 0.625877 -0.684157 0
1.699558 1.472815 0.661624 0
1.191997 1.440762 -0.071952 0
-1.925519 7.107677 -0.057959 0
1.400453 1.395347 -0.046516 0
0.056330 0.508139 -0.122730 0
-1.820923 1.329963 -1.086594 0
-0.523777 1.268228 -0.197005 0
-0.103729 0.923439 -0.134748 0
-0.365914 0.486100 -0.128688 0
-3.187278 5.715788 -0.033446 0
0.034923 0.396055 -0.123627 0
-0.151534 0.333818 -0.105491 0
-3.927523 2.951038 0.233455 0
-0.104178 3.433949 0.010141 0
1.336216 2.269514 -0.281348 0
1.450691 1.389230 0.250799 0
1.419824 2.285989 0.376105 0
-1.950113 2.464598 -0.140762 0
-0.559374 1.415714 -0.149039 0
1.492129 0.219390 -0.638683 0
1.516811 0.604603 -0.338767 0
0.016234 0.980557 -0.077908 0
-0.102167 0.691050 -0.109258 0
-2.825652 3.857486 0.209226 0
-2.539771 2.086012 -0.757966 0
-2.186433 3.002233 -1.023795 0
-2.103066 4.626080 -0.859305 0
1.494055 3.391357 -0.766659 0
1.379280 2.361608 -0.281312 0
-1.925107 2.338728 -0.708037 0
-0.782773 3.777435 0.229131 0
-0.377779 1.609398 -0.059883 0
-0.212152 1.158760 -0.057855 0
-0.222756 1.171277 -0.018539 0
-0.391497 1.228256 -0.006511 0
0.072377 7.733708 1.368922 0
-0.472806 4.179921 -0.169062 0
0.234813 0.284468 -0.095233 0
-0.457297 1.219608 -0.081039 0
-1.743916 2.185594 -0.826586 0
0.402074 0.200655 -0.117442 0
-0.195540 0.696362 -0.126514 0
1.357976 1.963672 0.172158 0
0.451778 0.258203 -0.120831 0
1.457459 3.772948 0.171964 0
-1.897495 2.587411 -0.855750 0
-0.923079 2.828765 0.034885 0
0.351053 0.041244 -0.113568 0
0.398521 0.013367 -0.115051 0
-4.078462 3.143953 0.296219 0
-4.761351 3.691784 1.436237 0
-0.557571 3.731740 -0.064303 0
-5.155108 4.533430 0.318801 0
1.559552 5.214664 -0.207397 0
1.581316 4.320482 -0.134976 0
-3.692526 3.305275 1.042588 0
0.212667 0.362386 -0.117935 0
0.197321 0.529733 -0.128038 0
0.216459 0.366812 -0.121667 0
0.679357 1.028929 -0.095382 0
-0.044468 3.641825 -0.128610 0
-3.141253 5.809598 1.446356 0
-1.269944 5.147293 -0.039948 0
1.483244 0.696087 -0.336073 0
-2.767123 3.161546 0.520406 0
1.494163 0.588487 -0.305790 0
-0.750048 0.690623 -0.157295 0
-0.695332 1.446713 -0.134810 0
-2.212648 4.871391 -0.918372 0
1.255157 3.153359 -0.496391 0
0.014344 1.516121 -0.155814 0
0.103950 0.457790 -0.060788 0
-0.355528 1.090633 -0.112572 0
0.110002 0.463124 -0.068483 0
-2.372629 7.547603 -0.939164 0
-0.327632 3.972165 0.076169 0
1.634388 4.416114 0.088022 0
-0.409625 1.263946 -0.029481 0
0.108420 0.462360 -0.065640 0
-0.418783 1.327043 -0.046305 0
-0.175288 0.975646 -0.072817 0
1.523347 1.479685 0.265368 0
-3.104570 3.232641 0.229121 0
-3.103779 8.766186 -1.556957 0
-2.231217 4.376620 -0.827092 0
1.392869 1.043774 0.265042 0
-0.691260 1.451279 -0.138452 0
-2.964628 4.944054 0.236945 0
1.375446 2.040492 -0.108892 0
-4.389513 9.803766 0.835338 0
-0.391501 1.727995 -0.056099 0
0.630703 1.276363 -0.192547 0
-2.199887 2.624950 -0.888167 0
-0.732384 3.508906 0.229167 0
-0.747749 2.999744 -0.089868 0
1.374278 1.033729 -0.208825 0
1.360340 1.032450 -0.054310 0
1.341585 2.274316 -0.283987 0
-2.951653 4.937970 -0.089476 0
-2.173548 4.638677 -0.154016 0
1.868552 2.732272 1.543504 0
-2.283562 3.122064 -0.914815 0
1.839549 2.680366 1.526184 0
-1.958421 2.506108 -0.952116 0
0.218501 0.368512 -0.124288 0
0.043828 0.780903 -0.121268 0
1.350621 2.233707 -0.234571 0
-1.715997 4.826776 -0.093172 0
-1.796500 2.631610 -0.063242 0
-1.068675 6.210964 1.423753 0
-4.555718 9.253589 0.809514 0
-0.840693 2.942490 0.220429 0
-1.099730 6.441074 1.469767 0
-0.002278 1.223655 -0.069449 0
-0.108011 0.995842 -0.083651 0
-0.765694 0.425683 -0.135330 0
-0.347050 0.744747 -0.140230 0
-0.708160 0.264158 -0.258475 0
-0.361886 1.141002 -0.137134 0
0.250343 0.155542 -0.120366 0
-0.701705 0.261575 -0.255029 0
-0.345824 0.729127 -0.134988 0
-0.225453 1.201698 -0.071546 0
-0.213377 0.895459 -0.120125 0
-0.194406 0.890034 -0.118724 0
-2.179941 2.957999 -0.908335 0
-2.873957 3.340191 1.441787 0
1.732277 1.916682 0.374973 0
0.019560 0.622565 -0.162867 0
1.233399 0.926190 -0.227989 0
0.101285 0.438964 -0.072038 0
-0.320945 4.532928 0.214421 0
-4.672390 10.478213 0.282286 0
-2.204630 2.232621 -0.371584 0
-2.780095 3.121354 0.068083 0
-0.039608 0.364825 -0.037471 0
-2.934615 3.300114 0.230324 0
-0.158452 0.343758 -0.109883 0
0.732788 2.312413 -0.122750 0
0.193988 0.394408 -0.121872 0
-0.281042 1.438997 -0.013832 0
41.672974 31.801193 -1.222665 0
1.542425 8.244429 1.323920 0
-4.694260 6.227572 1.194665 0
1.870612 1.679252 0.722476 0
1.410994 1.320892 0.073137 0
-0.676660 1.431051 -0.138985 0
-0.136090 0.194572 -0.116018 0
-0.124144 0.181737 -0.103654 0
0.405769 38.918274 -0.430303 0
0.095308 0.413033 -0.166843 0
-0.124382 0.168871 -0.102860 0
-2.029707 2.948944 -0.750141 0
-1.271793 4.776772 0.006685 0
1.458342 0.217656 -0.523492 0
1.509476 0.224345 -0.548737 0
1.728720 1.484880 0.298286 0
0.143228 4.049975 0.221493 0
0.419590 1.612886 -0.143664 0
-0.139087 0.778145 -0.025195 0
-0.416471 0.135833 -0.113324 0
0.101828 0.446847 -0.113783 0
0.079760 0.412563 -0.126177 0
-0.072997 0.434693 -0.117657 0
1.803082 3.301390 0.888393 0
-2.891350 3.191077 0.226242 0
1.902462 3.255090 0.749995 0
-2.892941 2.970230 0.579846 0
-2.275220 2.825905 -0.872801 0
-0.265164 1.188742 -0.060174 0
-4.755498 6.842189 1.028753 0
-4.802523 4.281909 0.926503 0
1.901099 8.250308 0.955103 0
-4.192751 4.302348 -0.166523 0
-0.877961 4.300043 0.213817 0
-3.060121 5.181324 0.031201 0
-0.357846 1.161456 -0.092001 0
-0.206943 0.688544 -0.089377 0
-0.254517 1.303177 -0.011031 0
-1.984616 2.479728 -0.993326 0
-2.824233 3.011904 -0.913152 0
-2.128358 2.908886 -0.833555 0
-2.411828 3.164861 0.333703 0
-0.417167 1.316731 -0.033110 0
-2.375512 3.024344 -0.121211 0
1.588635 3.666115 0.727125 0
-2.179630 2.742742 -0.755360 0
1.575751 0.789919 -0.223628 0
0.061360 0.487402 -0.132705 0
-2.719575 3.344248 0.353162 0
-3.056964 3.121512 0.535451 0
0.169610 0.865784 -0.000921 0
-0.531488 0.551267 -0.158127 0
0.102545 0.879291 0.004295 0
0.684876 4.489820 -0.324771 0
-0.029540 1.107245 -0.105501 0
-0.379627 1.215741 -0.007929 0
0.296145 1.145664 -0.140931 0
-0.477119 1.158940 -0.149102 0
-0.317701 1.020612 -0.125660 0
0.602963 0.879145 -0.197406 0
0.629231 0.980640 -0.185436 0
1.989874 3.330424 1.167326 0
1.570191 4.000329 0.426412 0
-1.058753 3.516970 0.142115 0
-0.143047 0.187069 -0.110137 0
-0.222255 0.909530 -0.126708 0
-0.158446 0.129410 -0.114386 0
-0.167218 0.354174 -0.117465 0
1.450128 1.091891 0.266295 0
1.544729 0.629653 -0.308816 0
0.062901 0.332584 -0.121120 0
0.159028 0.695376 0.007334 0
1.203326 1.305474 -0.304648 0
0.043668 4.514807 0.267635 0
1.473361 0.587923 -0.074292 0
1.450094 0.440852 -0.120263 0
1.362430 0.068825 -0.600027 0
1.413953 0.201521 -0.595155 0
1.500796 0.387465 -0.164628 0
1.390596 1.328598 0.249198 0
1.742025 2.222996 0.536071 0
-2.730162 3.274045 0.206528 0
1.416833 1.747135 0.021171 0
-0.037968 1.040188 -0.114790 0
1.538310 0.453890 -0.442760 0
-2.154062 4.244370 -0.799216 0
1.587632 0.918346 -0.253803 0
0.401863 0.202636 -0.113954 0
1.480103 0.970486 0.197906 0
-0.329737 0.081030 -0.089172 0
-0.065882 0.503065 -0.128105 0
-0.326982 0.079970 -0.087703 0
-0.072069 1.031604 0.009212 0
0.051459 0.451981 -0.100367 0
0.046770 0.360030 -0.119104 0
1.368220 2.288934 0.102326 0
0.349672 0.040849 -0.112231 0
-2.417432 2.743021 -0.071162 0
-0.410768 0.191102 -0.125920 0
-0.581154 1.324936 -0.208084 0
-0.286794 1.155270 -0.074424 0
-0.006800 1.022977 -0.154540 0
1.690728 7.243213 1.223554 0
-1.972184 2.788205 -0.454982 0
0.544633 3.252243 0.116438 0
-1.742373 2.162279 -0.841886 0
-2.105020 2.204980 -0.466570 0
1.510890 3.553627 -0.064234 0
-3.243986 4.283170 -1.173053 0
1.503689 0.902274 0.271889 0
-0.010037 0.955219 -0.130819 0
-0.114961 0.788736 0.265052 0
1.576291 5.960325 0.163009 0
1.860226 2.418474 1.274545 0
-7.246277 6.634213 0.616812 0
-3.087732 4.587810 -0.108652 0
-2.253123 4.018277 0.062481 0
-0.066478 0.506028 -0.128759 0
0.394788 1.484236 -0.090749 0
-2.178825 2.222069 -0.665670 0
-2.370198 2.991036 -0.831722 0
-0.083749 0.215688 -0.046568 0
-0.136987 0.320791 -0.119316 0
-0.161129 0.221118 -0.118091 0
-0.125302 0.151695 -0.100010 0
-0.109218 0.196179 -0.089892 0
0.110080 0.435340 -0.094654 0
-0.139470 0.197019 -0.118183 0
0.070494 3.075627 -0.182946 0
-3.614763 4.518452 0.465751 0
1.497472 1.052073 0.317157 0
1.404339 1.324078 0.074124 0
-4.779606 6.984625 1.288070 0
1.460089 4.321081 -0.899901 0
-2.266428 6.287004 -1.067287 0
-1.966955 8.954070 1.004767 0
-10.758728 43.726608 4.014758 0
-5.371214 4.992709 1.198786 0
1.873425 8.066175 0.741984 0
1.252151 2.853958 -0.603890 0
0.598555 1.230567 -0.186894 0
1.655697 1.441978 0.645712 0
0.058492 0.478072 -0.066672 0
0.053698 0.479412 -0.103478 0
-0.178229 0.370751 -0.110476 0
-0.246948 0.185830 -0.122678 0
-2.497870 4.475815 0.027365 0
-0.165881 0.351749 -0.082573 0
-0.433025 1.256743 -0.055649 0
-0.452732 1.334025 -0.062460 0
-0.137663 0.423480 -0.109713 0
0.101607 0.452863 -0.116872 0
1.560238 0.636716 -0.394491 0
-0.062829 0.495775 -0.126613 0
0.056385 0.471845 -0.064060 0
-0.092791 0.669417 -0.128179 0
1.336872 1.473215 -0.057511 0
1.729184 4.679088 -0.933663 0
-3.471659 3.527209 0.630069 0
-1.888791 2.496189 -0.255915 0
-2.030406 2.150365 -0.540191 0
-2.895799 8.186260 0.045593 0
1.089596 2.223249 -0.424348 0
-0.817454 0.571804 -0.169568 0
1.676836 1.263186 0.651904 0
-0.101825 0.690724 -0.109962 0
-0.103258 0.713822 -0.120964 0
-1.981985 2.694226 -0.293495 0
-0.074668 0.412924 -0.096981 0
0.050270 0.479841 -0.100248 0
0.196157 0.955853 -0.033775 0
-0.339000 1.367785 -0.006585 0
0.111409 0.454848 -0.099618 0
-0.192854 0.886169 -0.115485 0
-0.664681 1.374444 -0.105644 0
1.355067 2.394480 0.097838 0
1.499771 0.460681 -0.279317 0
1.735670 0.979352 0.316690 0
1.833637 0.578444 -0.397188 0
1.472875 0.660377 0.134265 0
1.747040 0.986202 0.317054 0
1.385112 1.013038 0.222744 0
-0.135183 0.780334 -0.038791 0
1.725716 7.224827 1.250070 0
-2.381469 3.744186 -1.551634 0
-0.106782 0.883062 -0.136366 0
-1.962446 2.478211 -0.140357 0
-2.508741 2.740821 -0.071905 0
-0.081526 1.002312 -0.044517 0
1.410612 1.334551 -0.048158 0
-0.130661 0.214111 -0.117990 0
-0.881099 1.958829 -0.312228 0
-0.111128 3.495189 0.056416 0
0.696916 1.133687 -0.236517 0
1.914415 10.415433 -1.624678 0
1.527818 0.694067 -0.509918 0
1.395137 1.729307 0.225526 0
-2.403141 3.465916 -0.276595 0
-0.119801 0.788636 0.267693 0
-4.110402 8.340369 0.746993 0
-5.099361 9.160648 1.272959 0
1.287314 2.202221 -0.253796 0
-0.070940 0.223814 -0.117835 0
1.693004 0.796140 -0.606168 0
1.574485 0.574838 -0.590810 0
-0.276996 0.138832 -0.114488 0
-0.169966 0.365464 -0.095110 0
-0.013291 0.416011 -0.129557 0
-0.175769 0.369135 -0.107209 0
-0.145073 0.828408 -0.039084 0
-0.160396 0.679529 -0.118219 0
-0.068184 0.412741 -0.100835 0
-2.186826 3.393792 -0.532379 0
1.718480 1.484388 0.324833 0
-2.195974 4.719429 -0.226100 0
-2.102617 2.202810 -0.463259 0
1.536462 4.200935 1.472145 0
0.102796 0.674744 -0.121440 0
0.231741 1.634924 -0.070808 0
-0.014147 0.408578 -0.122972 0
1.493179 0.877943 -0.077493 0
-2.151473 4.221710 -0.149453 0
-2.688521 2.995006 -0.254031 0
-3.812898 3.537058 -0.108021 0
0.143590 4.097142 0.217780 0
-2.682775 2.802390 -0.189260 0
-0.464231 0.440019 -0.094694 0
-0.603512 0.623604 -0.217271 0
-3.386316 6.103586 0.411898 0
1.647670 1.040038 0.297919 0
1.454930 0.814781 0.097234 0
0.068688 7.934540 1.385050 0
1.560034 0.788699 -0.216260 0
0.080151 0.812736 0.019592 0
1.489009 0.981704 0.250248 0
1.508530 0.507146 -0.337398 0
1.590062 0.742237 -0.384508 0
-0.140842 0.305162 -0.082824 0
0.182104 1.220283 -0.003306 0
-0.319677 1.016911 -0.120335 0
1.442242 0.217644 -0.683223 0
-0.015344 0.413606 -0.125533 0
0.453151 1.778737 -0.135578 0
0.134955 0.485067 -0.122179 0
-0.151734 0.417831 -0.113123 0
1.671161 -0.051149 -0.909806 0
1.409840 -0.078769 -0.717345 0
1.398168 -0.077952 -0.708263 0
0.279306 1.062819 -0.094732 0
1.733904 1.920796 0.438081 0
-0.004548 0.182734 0.027627 0
1.639306 2.379453 0.564359 0
-0.072419 0.353184 -0.128913 0
0.096005 0.409087 -0.170539 0
0.094833 0.408783 -0.168177 0
0.329838 0.212908 -0.115312 0
0.043688 5.646298 1.463743 0
0.152884 0.391915 -0.160819 0
-0.492997 1.395349 -0.291058 0
-1.594960 1.242977 -0.125189 0
-0.203803 0.162003 -0.180876 0
-0.499753 0.441273 0.049195 0
0.195715 0.529660 -0.125898 0
1.813916 2.402140 0.896508 0
1.087796 0.818244 -0.085046 0
-0.859031 3.148535 0.230824 0
-0.075114 0.987329 -0.039838 0
-0.806514 3.032847 0.205206 0
1.365171 1.954948 0.279642 0
1.559249 3.640496 0.028220 0
1.554468 3.786188 0.662821 0
0.478557 0.353424 -0.120887 0
-2.879467 3.247732 -0.116381 0
-3.456631 3.434415 0.077548 0
0.076512 0.395271 -0.117575 0
-0.856596 3.170772 0.226185 0
0.308940 0.400211 -0.163187 0
-0.144052 0.121059 -0.101756 0
0.284241 0.366229 -0.144223 0
-0.090195 0.454511 -0.119220 0
0.094994 0.406186 -0.168007 0
-0.079343 0.367053 -0.139827 0
0.053629 0.253315 -0.075817 0
0.115536 4.279883 0.269741 0
0.057689 0.285312 -0.094743 0
-0.174141 0.303883 -0.154220 0
0.064521 0.350171 -0.130748 0
-0.058050 0.299336 -0.100982 0
-0.057056 0.294856 -0.099092 0
-0.131604 0.242941 -0.110498 0
-0.241797 0.180048 -0.117947 0
0.541829 0.300624 -0.146812 0
1.213884 3.778182 -0.230124 0
1.344315 1.019953 0.222156 0
0.104225 0.444034 -0.056138 0
-0.338039 0.085986 -0.095432 0
1.225048 1.495407 -0.606220 0
-0.244012 1.044767 -0.116959 0
1.490896 3.568792 0.295210 0
1.301085 3.664207 0.440775 0
0.092357 0.659353 -0.117835 0
0.047001 0.465773 -0.089812 0
-1.966965 2.782540 -0.460085 0
-0.119224 0.778926 0.269909 0
-0.059911 4.959604 0.131293 0
-2.912748 3.303604 0.065799 0
-0.187033 0.669671 -0.113955 0
-2.948734 3.680110 0.438722 0
-2.093546 2.664312 -0.900295 0
0.001578 0.361634 -0.134684 0
0.117876 3.106654 0.072201 0
-0.268407 1.374119 -0.028036 0
-0.466989 0.902905 -0.140495 0
-4.608207 8.159170 1.349821 0
-0.183736 0.697364 -0.116940 0
0.076309 0.368786 0.049713 0
1.406999 1.719521 0.225881 0
1.417070 1.349796 -0.372161 0
-5.155482 4.600649 1.093930 0
-4.819081 4.305275 1.096728 0
2.373526 3.931729 1.283463 0
-0.060302 0.385584 -0.104651 0
1.561955 4.462116 0.497730 0
1.127289 3.219708 -0.411062 0
-2.091952 2.196080 -0.590591 0
-0.786927 2.993768 0.098370 0
-2.210621 2.458926 -0.205913 0
-1.820797 4.993468 -0.710682 0
-2.644222 3.820611 -1.081447 0
0.103019 0.894508 0.025330 0
1.369621 2.028336 -0.224626 0
0.517561 2.817640 -0.148194 0
1.461789 0.937687 -0.088303 0
-0.233717 1.170621 -0.102885 0
-0.209079 0.886018 -0.117511 0
0.099265 0.885203 -0.002594 0
0.027243 0.888809 -0.099532 0
0.424802 0.031129 -0.108250 0
-1.913110 2.219496 -0.441473 0
-0.168378 0.755176 -0.060007 0
-0.386869 1.176029 -0.138808 0
1.341841 2.057215 0.371606 0
0.399359 0.200990 -0.119788 0
-2.350284 5.063771 -0.867080 0
-0.074784 1.039362 -0.105984 0
-12.647808 10.010396 -0.895600 0
-1.493064 1.165632 -0.123452 0
1.726502 1.907421 0.339291 0
-0.087217 0.221920 -0.062962 0
-3.688831 2.840051 -2.494018 0
-0.030223 0.409485 -0.169733 0
-2.226727 4.595164 -0.113215 0
1.801891 2.383786 0.946214 0
0.313040 1.169372 -0.122372 0
0.051316 0.856409 -0.136137 0
0.615521 1.152329 -0.052879 0
0.396415 0.200670 -0.112638 0
-5.051460 4.509757 1.259467 0
1.671017 1.450635 0.319341 0
1.315957 1.002313 0.005793 0
-3.041965 2.720108 0.628971 0
-0.175976 0.213726 -0.149957 0
1.406656 1.324321 0.074351 0
-0.685454 0.217972 -0.635313 0
-0.701213 0.225674 -0.653919 0
-0.717694 0.229712 -0.676561 0
-0.137278 0.893477 -0.434703 0
-0.472949 0.898307 -0.459254 0
-3.735746 4.973815 0.862466 0
-0.004097 3.428519 1.502116 0
1.813978 2.399214 0.783828 0
-3.523687 3.635748 -0.286505 0
-0.047972 0.076190 -0.011103 0
-0.164158 0.143423 -0.107297 0
-0.588224 0.689933 -0.312630 0
-0.702404 0.812957 -0.381584 0
1.354579 1.029443 -0.024339 0
0.449683 0.266554 -0.122999 0
-0.167567 0.251298 -0.149074 0
-0.369271 1.811900 -0.046787 0
1.389050 1.905917 0.394411 0
0.740601 1.026578 -0.116262 0
0.020236 1.064094 -0.075453 0
-0.063588 0.392836 -0.111771 0
0.110797 0.470139 -0.067742 0
0.278283 1.210758 -0.143738 0
0.145751 1.016621 0.002756 0
1.427512 0.209058 -0.598854 0
0.090117 0.790837 0.009413 0
0.363837 1.343914 -0.115668 0
1.455387 2.011987 0.429979 0
0.020815 3.689619 -0.140454 0
-0.060057 0.386233 -0.106484 0
-0.114650 0.801549 -0.132161 0
0.101193 0.450358 -0.116355 0
1.479048 0.821096 0.315316 0
1.492082 0.671806 -0.076291 0
-1.143762 2.134889 -0.675505 0
-0.039810 1.384391 -0.088196 0
1.650991 0.930686 0.328185 0
-0.028903 1.471479 0.024423 0
-3.011463 2.049045 -0.314566 0
-3.558902 2.510253 0.122074 0
-0.072618 0.433206 -0.118553 0
-3.037875 3.282813 0.227547 0
-0.479738 0.924795 -0.144500 0
-0.362571 1.205453 -0.108328 0
-0.466688 0.149050 -0.419869 0
-0.163974 0.246450 -0.145469 0
-0.003828 0.019960 0.021750 0
0.147038 0.624426 -0.015037 0
0.101704 0.041108 -0.024094 0
-1.864812 8.715693 -1.558370 0
8.012826 2.419358 -8.502582 0
8.001030 2.434217 -8.488277 0
-0.188049 0.518819 -0.098535 0
-0.187220 0.356928 -0.102670 0
-3.350806 9.052706 -2.563323 0
0.327151 0.350113 0.119901 0
-0.064680 0.410445 -0.124016 0
0.332780 1.221556 -0.160557 0
0.107512 0.476201 -0.067997 0
-5.064075 6.361646 1.439045 0
-2.815688 5.272794 -1.887502 0
1.441570 4.409213 0.024666 0
-4.984066 6.099224 0.999225 0
-4.946767 4.608706 1.313646 0
1.441531 3.565001 0.412020 0
0.077938 0.305521 -0.109858 0
-0.067961 0.339891 -0.117607 0
-0.164925 0.378777 -0.110170 0
-0.168473 0.176358 -0.111201 0
-0.320401 1.071108 -0.088267 0
0.228303 0.270668 -0.117531 0
-4.614568 6.621079 0.409837 0
0.367075 1.366037 -0.120361 0
0.111284 0.436004 -0.120468 0
0.040287 0.706590 -0.143662 0
-0.424146 1.064846 -0.079914 0
-0.014618 0.410991 -0.125572 0
-0.738223 1.347089 -0.115097 0
0.112576 0.445761 -0.123916 0
0.350037 0.040357 -0.112684 0
1.698147 2.633472 0.842004 0
-3.464407 3.382416 -0.076032 0
-0.826100 3.367527 0.087489 0
-2.849222 2.968298 -0.213190 0
1.345714 0.788495 0.257937 0
-2.283722 4.078294 -0.355221 0
-0.057385 0.354525 -0.091555 0
-0.059643 0.371180 -0.101973 0
1.398945 1.724234 -0.549238 0
1.590299 4.404216 -0.635802 0
1.368139 2.226351 0.147084 0
1.461494 0.814427 0.095441 0
1.445481 0.743619 0.098097 0
1.442261 0.749751 0.067817 0
1.370813 1.663716 -0.102311 0
-0.164818 0.144557 -0.105669 0
0.485128 0.396871 -0.121334 0
0.048752 0.397558 -0.124879 0
-0.236953 1.148071 -0.081329 0
1.208239 1.368008 -0.179454 0
1.419585 2.088662 0.437647 0
0.045810 0.514422 -0.121682 0
0.012612 0.393729 -0.133982 0
-0.144882 0.938664 -0.113851 0
-0.058664 0.394355 -0.103585 0
1.690439 0.949933 0.317955 0
-2.255293 3.289916 -0.239983 0
1.449543 0.742513 0.098468 0
1.538715 0.723069 0.388383 0
1.537588 0.722445 0.388017 0
1.464830 0.599028 0.063869 0
1.431729 0.515688 0.039439 0
1.409103 0.358408 -0.142829 0
1.361928 0.941097 -0.360551 0
-2.885303 6.929646 1.426690 0
-2.863367 5.857982 0.105921 0
-2.286900 5.087863 0.002753 0
-4.361886 6.470915 1.375863 0
-1.566922 4.759478 -0.111273 0
-2.943276 4.006566 0.308945 0
0.081722 0.473854 -0.062436 0
-0.064528 0.404761 -0.113553 0
-0.314555 0.994689 -0.110677 0
-0.269140 0.136416 -0.102714 0
-0.497802 1.249438 -0.147299 0
-0.004864 0.436232 -0.159461 0
1.508290 1.135849 -0.297892 0
0.000744 0.405325 -0.157494 0
-0.178633 0.914384 -0.039181 0
0.024019 1.089606 -0.129129 0
0.026643 0.822242 -0.051851 0
0.002421 0.364133 -0.118249 0
1.138826 1.325992 -0.136184 0
-0.080088 0.413865 -0.100907 0
0.063534 0.335591 -0.123402 0
1.446904 1.755949 0.222791 0
1.413535 0.069745 -0.629188 0
-0.153708 0.342564 -0.111634 0
-0.791337 3.486023 0.015546 0
0.107395 0.428300 -0.113561 0
1.360614 2.290189 0.282881 0
0.119995 0.468841 -0.085795 0
-0.201510 0.165730 -0.136450 0
1.472355 3.488297 0.020884 0
-4.736080 3.659771 0.679150 0
0.022284 0.435213 -0.092613 0
0.212379 0.247939 -0.103071 0
-0.143823 0.120526 -0.101677 0
-0.138746 0.197655 -0.119699 0
-0.135984 0.244845 -0.112386 0
-0.176650 0.234765 -0.118420 0
-0.122073 0.216514 -0.104205 0
0.541017 0.418022 -0.150442 0
-0.173975 0.321255 -0.108359 0
-0.114479 0.240818 -0.096120 0
-0.207647 0.165715 -0.185593 0
-0.506692 0.314794 -0.132714 0
-0.160309 0.181735 -0.114415 0
-0.127387 0.246653 0.084395 0
-0.170509 0.390500 -0.115457 0
-0.165965 0.223465 -0.109777 0
0.506327 0.608725 -0.134586 0
1.529359 6.258646 1.275394 0
0.334495 0.179875 -0.124659 0
-5.236310 4.667029 1.499106 0
-0.172365 0.176468 -0.112528 0
-0.480412 0.376602 -0.127270 0
-0.180180 0.336754 -0.118072 0
0.237322 5.491305 1.404591 0
-0.151604 0.737727 -0.074632 0
0.099967 0.779693 -0.125558 0
0.743126 1.396926 -0.083449 0
0.484597 0.393965 -0.120147 0
-0.761582 1.577604 -0.148356 0
-0.103858 3.195920 0.002495 0
1.267135 0.964320 -0.003325 0
0.236424 4.579104 1.467318 0
3.142985 2.384938 -0.399912 0
1.411634 1.065621 -0.102322 0
-0.773062 0.663637 -0.387586 0
-4.404980 3.929020 0.780707 0
0.507383 0.306862 -0.132169 0
-1.167658 3.936918 0.113480 0
-0.072931 0.431384 -0.117203 0
0.125128 0.557345 -0.151648 0
1.408467 1.306047 -0.168846 0
-3.007390 3.060461 0.567511 0
1.823456 3.480346 1.473089 0
-0.737841 0.226578 -0.687005 0
1.489837 3.639440 0.266679 0
1.549420 3.946805 0.433174 0
0.063017 0.118533 -0.002638 0
0.088142 0.129428 -0.012367 0
-0.160564 0.176523 -0.113681 0
-0.106194 0.542468 -0.161121 0
0.068691 0.133388 -0.010947 0
0.202228 0.079585 -0.094326 0
0.112881 0.468674 -0.115080 0
0.010906 0.439700 -0.160169 0
0.091094 0.484256 -0.158908 0
0.264845 0.341302 -0.129513 0
0.333381 0.178534 -0.122927 0
0.032444 0.602350 -0.119992 0
-0.171176 0.141135 -0.147031 0
-0.074851 0.363483 -0.135343 0
-0.023900 0.365934 -0.139740 0
-2.943676 2.981059 0.181058 0
-0.024135 0.368703 -0.144050 0
-0.032741 0.673425 -0.308125 0
-0.134743 0.276002 -0.112468 0
-0.116331 0.270304 -0.093651 0
0.066298 0.125147 -0.007022 0
0.226130 0.100598 -0.107378 0
-0.041901 0.959326 -0.123040 0
0.220666 0.099379 -0.103581 0
0.325480 0.294624 -0.108448 0
-0.068722 0.507943 -0.129252 0
0.202211 0.414949 -0.131074 0
0.012116 0.441914 -0.162584 0
0.366135 0.350780 -0.121958 0
-1.287927 1.105938 -0.111017 0
-0.129246 0.186257 -0.107144 0
-0.171747 0.230035 -0.113823 0
-0.171354 0.355774 -0.105337 0
0.046037 0.045233 0.045656 0
-0.136896 0.259085 -0.082650 0
-0.117773 0.204071 -0.099553 0
-0.187163 0.151497 -0.164350 0
-0.169158 0.197529 -0.121463 0
-0.092370 0.233813 -0.071205 0
-0.122997 0.217555 -0.104644 0
0.021976 0.040563 0.049141 0
-0.116693 0.245004 -0.098595 0
-0.121104 0.215666 -0.103680 0
-0.121830 0.252364 -0.103757 0
-0.201741 0.164263 -0.180833 0
-0.153862 0.211917 -0.113484 0
-0.163294 0.351806 -0.118244 0
0.072594 0.135043 -0.015485 0
-0.166729 0.758115 -0.064640 0
-0.262260 0.127717 -0.118696 0
0.268246 0.448667 -0.169001 0
0.117693 0.297044 -0.088482 0
-0.117658 0.175531 -0.095541 0
0.455796 0.369988 -0.104621 0
-0.181589 0.234528 -0.130636 0
-0.147119 0.176281 -0.094961 0
-0.191288 0.239979 -0.131995 0
-0.143441 0.331703 -0.126934 0
-0.176540 0.203247 -0.127598 0
-0.159376 0.217649 -0.103515 0
-0.229116 0.178631 -0.120925 0
-0.011955 0.413656 -0.128017 0
-0.081842 1.287226 0.248963 0
0.017878 0.588792 -0.150283 0
1.704034 1.767996 0.354133 0
1.366627 1.363867 -0.046844 0
1.485977 5.680459 0.407134 0
1.726634 1.276261 0.361190 0
-3.043735 4.808004 1.523262 0
1.457405 0.953135 0.200221 0
1.690207 1.637217 0.308201 0
-0.376372 0.813256 -0.051344 0
1.346311 1.955304 -0.224454 0
1.661080 1.363541 0.651271 0
-0.103101 4.107716 0.151080 0
1.175435 3.783638 -0.270195 0
-0.007530 0.274822 -0.093204 0
1.411437 1.810970 -0.043959 0
-0.167938 0.904451 0.085705 0
1.319493 5.001261 -0.084789 0
1.321413 1.819943 -0.298204 0
-2.284325 4.255702 0.029994 0
1.377271 1.296121 -0.040699 0
-0.107792 0.988079 0.274791 0
1.385053 1.167597 0.553608 0
0.804517 3.551459 -0.244373 0
2.001465 6.150847 1.302247 0
-1.674611 3.176928 -1.095937 0
0.065905 0.368948 -0.137767 0
1.544481 3.602665 0.628075 0
-1.757862 1.693957 -1.132989 0
1.417591 2.228383 0.332878 0
0.225954 3.429322 1.503980 0
1.829342 7.797896 0.685379 0
1.383227 1.902533 0.276766 0
-4.604187 6.564713 1.493606 0
1.430654 2.357704 -0.250742 0
1.346895 1.934643 -0.186977 0
-4.612388 5.987978 1.251836 0
-4.762463 6.085176 1.197847 0
-4.831189 6.991376 1.339415 0
-4.751330 6.001486 1.302375 0
-2.170354 4.158594 -0.066904 0
1.338339 2.260471 -0.311044 0
1.316979 2.231991 -0.275316 0
1.330485 2.231070 -0.306943 0
-5.044194 4.687398 0.967808 0
-3.435000 3.730946 1.595965 0
-4.711517 8.751884 1.396778 0
0.050887 0.894760 0.002353 0
-2.453786 1.893408 -1.514476 0
-0.075574 1.020115 0.120493 0
1.355110 1.881702 -0.312096 0
-4.172732 7.822792 1.257868 0
1.840890 5.044827 1.443379 0
1.423529 1.952122 0.003631 0
0.398564 0.595089 -0.087505 0
1.146376 0.722733 -0.356930 0
0.314534 0.651003 -0.105031 0
-0.133909 0.941200 -0.066432 0
0.313486 0.649385 -0.104088 0
-0.044291 0.711485 -0.154030 0
0.288974 0.715741 -0.110174 0
-0.076390 1.010641 0.120850 0
-0.268756 0.899410 -0.030500 0
-0.163676 0.667064 -0.064965 0
-0.107791 0.794376 0.273305 0
-0.311278 0.873486 -0.018158 0
-0.215774 0.839346 -0.054193 0
0.274134 0.712403 -0.112089 0
0.113258 0.741908 -0.118797 0
-0.200180 0.751295 -0.098083 0
0.280572 0.671969 -0.103074 0
0.360876 0.752882 -0.148628 0
-0.240750 0.877201 -0.099945 0
-0.062128 1.185842 -0.074889 0
-0.090924 0.705477 -0.027054 0
-0.094931 0.892689 0.258500 0
1.518264 3.815404 -0.033056 0
0.812422 2.581724 -0.341337 0
-0.351599 1.142149 0.035881 0
0.152945 0.699486 0.007843 0
0.214023 1.575644 0.028506 0
-0.100653 0.781642 0.260348 0
1.421636 0.974292 0.091572 0
1.480771 5.493909 0.750333 0
1.473893 5.643055 0.419964 0
-0.719740 1.112706 -0.121346 0
-0.149363 0.672496 -0.101693 0
-0.209682 0.910499 -0.028644 0
1.223822 1.951527 -0.579025 0
0.220767 1.745490 0.025272 0
1.328481 2.138346 -0.583289 0
1.273830 1.844795 -0.495139 0
-0.153272 0.700522 -0.125571 0
-0.133126 1.057905 -0.101937 0
-0.271931 1.025153 0.046268 0
-0.180509 0.611056 -0.123738 0
0.111474 0.865536 0.031431 0
0.169502 0.785201 -0.003897 0
-0.288537 0.897825 -0.044101 0
-0.068479 1.012472 -0.105579 0
-0.143129 0.909060 -0.070196 0
-0.152064 0.808760 -0.001333 0
-0.153227 0.808763 -0.022508 0
0.114679 0.792860 0.006235 0
-0.275120 0.946695 -0.051107 0
0.004000 0.884219 -0.109209 0
-0.192581 0.550659 -0.128509 0
-0.207867 0.763378 -0.100541 0
-0.336455 0.903015 -0.128098 0
-0.287610 0.816283 -0.033238 0
-0.261826 0.762521 -0.029937 0
-0.276159 0.900390 -0.054232 0
-0.175068 0.727211 -0.118701 0
-0.322425 0.884368 -0.093914 0
0.383033 0.460402 -0.123513 0
-0.174912 0.726108 -0.117409 0
0.533635 0.951031 -0.146265 0
-2.152968 2.724211 -0.237121 0
-1.999849 3.340250 -0.165787 0
1.376776 2.247686 0.113692 0
-2.722318 2.023451 -1.580610 0
-0.285945 1.048555 -0.030703 0
1.610712 1.803987 0.271314 0
-4.793580 6.331226 1.121913 0
0.167229 0.324584 -0.111642 0
-0.335587 0.870126 -0.042271 0
-0.203689 0.400099 -0.102810 0
-0.272001 0.855799 -0.084000 0
0.116562 0.867750 0.032898 0
0.307432 0.632324 -0.103745 0
-0.132140 0.789602 -0.049902 0
-0.187102 0.804693 -0.124065 0
-0.218826 0.937309 -0.030168 0
0.318697 0.601463 -0.102096 0
0.292206 0.614466 -0.098399 0
0.479980 0.657180 -0.128974 0
-0.197633 0.860612 -0.088670 0
-0.091802 0.692530 -0.147933 0
-0.294129 0.954078 0.018943 0
0.292047 0.692524 -0.112425 0
-0.169250 0.839450 -0.012888 0
-0.117826 0.852891 -0.134969 0
0.281916 0.674416 -0.103621 0
0.085734 0.811071 0.015709 0
-0.099533 0.846997 -0.130866 0
0.021232 0.873397 -0.106783 0
-0.295327 0.941409 -0.001079 0
0.088822 0.855226 0.009396 0
-0.103139 0.941054 -0.133314 0
-0.311210 0.888451 -0.014879 0
1.421329 1.321222 -0.166621 0
1.709501 1.893394 0.339029 0
1.250844 2.135481 -0.239980 0
1.583558 1.548033 0.279123 0
1.308562 2.144625 -0.222465 0
-0.140184 0.786829 0.044040 0
1.339117 1.883252 -0.418386 0
-0.297495 0.862671 -0.036406 0
1.469258 0.861211 -0.067818 0
1.450818 0.866558 0.131299 0
1.403313 0.967978 0.089811 0
-0.281591 0.453353 -0.128777 0
-3.210069 3.326590 -0.281508 0
1.755147 1.951702 0.358606 0
-2.167395 2.430586 -1.351546 0
0.255288 0.710920 -0.115393 0
0.542979 1.180585 -0.123988 0
-0.023883 1.213320 -0.083986 0
-0.388675 0.934595 -0.110612 0
0.054345 0.854443 0.008445 0
1.360112 1.665995 -0.558213 0
-0.571376 0.607143 -0.275326 0
1.246887 0.596271 -0.057075 0
1.466259 3.567459 0.221438 0
1.648266 1.119525 0.317256 0
1.785922 1.906395 0.580929 0
-0.168827 0.849583 -0.050886 0
-2.462561 3.086543 -0.329056 0
-0.826925 3.764064 0.116294 0
-0.151349 0.804884 0.055560 0
1.339057 1.272917 -0.038833 0
0.479846 0.317397 -0.117740 0
0.054927 0.585742 -0.123304 0
0.147025 0.351881 -0.079350 0
-0.223912 1.039000 0.043899 0
1.377658 2.380377 -0.257752 0
1.569789 0.763079 -0.213237 0
-2.132316 2.653845 -0.443338 0
-0.161084 0.710676 -0.131363 0
0.644080 0.563191 -0.189005 0
1.821479 2.944567 0.889913 0
1.543312 0.735768 -0.076787 0
1.187447 1.048031 0.476842 0
0.337192 0.607208 -0.106245 0
0.065857 0.589306 -0.110021 0
0.052505 0.586909 -0.117399 0
0.056624 0.577362 -0.120888 0
-0.268817 0.956543 0.018017 0
0.467520 0.309670 -0.131543 0
0.977057 1.205157 -0.392019 0
0.209623 1.225234 -0.264811 0
0.127559 0.871200 0.009541 0
0.181838 0.820608 -0.121562 0
0.284213 0.680921 -0.105698 0
0.182947 0.843144 -0.128233 0
-0.254820 0.865472 -0.086575 0
-0.314548 0.927806 0.008408 0
1.416151 1.719804 -0.630075 0
-0.272393 0.981876 0.017541 0
-0.187616 5.491461 0.256191 0
-0.105344 0.777995 0.268464 0
1.570698 0.790321 -0.223959 0
-0.283043 2.299839 -0.088166 0
-0.141456 3.374076 0.010056 0
0.479570 0.238303 -0.115003 0
-0.280393 0.960219 0.019054 0
0.034011 0.806093 0.004125 0
-0.028626 1.338227 -0.119874 0
2.024664 1.657042 1.227720 0
0.473660 0.255581 -0.128723 0
0.311573 0.219020 -0.114687 0
-1.732609 3.475796 0.009631 0
0.055029 1.414879 0.124646 0
-0.122357 1.538430 0.157245 0
0.029883 0.809953 0.000965 0
1.276967 2.184291 -0.542444 0
1.426507 2.147499 -0.624664 0
1.370908 1.920707 -0.028031 0
0.237571 3.036592 0.114551 0
-0.002668 0.673744 -0.131244 0
0.118015 3.593239 0.065610 0
-0.271815 0.870444 -0.090864 0
0.304043 1.870373 0.025451 0
-0.124113 0.812748 -0.049885 0
0.480519 0.292812 -0.116384 0
0.484518 0.341540 -0.120345 0
0.333998 0.576962 -0.098479 0
-0.076905 0.993769 0.221355 0
-0.288646 0.935511 -0.075312 0
-0.098652 1.070266 0.239202 0
-0.219908 0.932947 -0.030648 0
-0.272825 0.843951 -0.087770 0
0.090676 0.753865 0.012878 0
-0.269290 0.769291 -0.134329 0
-0.173772 0.818358 0.078652 0
1.469403 0.585032 -0.071704 0
1.626533 0.925581 0.322992 0
1.447006 5.412809 0.112143 0
-3.327431 5.538124 0.254503 0
1.644043 6.325136 1.328573 0
-0.192608 3.217615 0.230594 0
-0.015946 0.530460 -0.123837 0
0.052696 0.589122 -0.118917 0
0.082370 0.597065 -0.116108 0
0.426794 0.331354 -0.118947 0
0.431088 0.370495 -0.123175 0
0.166717 0.791639 -0.138208 0
0.000654 0.573872 -0.181306 0
0.295362 0.628226 -0.103051 0
0.306346 0.612017 -0.105452 0
0.497301 0.289149 -0.125182 0
-0.086842 0.424783 -0.125390 0
-0.027339 0.082932 0.015983 0
0.537030 0.611934 -0.142131 0
0.070599 0.333878 -0.123999 0
0.167052 0.322250 -0.110965 0
0.239359 0.050582 -0.110603 0
0.051690 -0.002362 0.029655 0
0.372503 0.230598 -0.113531 0
-0.008680 0.007337 0.017698 0
0.141242 0.298695 -0.117986 0
0.238593 0.050218 -0.110420 0
0.005511 0.005561 0.031806 0
1.399001 2.336448 0.108812 0
-0.029142 0.085499 0.014128 0
0.098035 0.207167 -0.053842 0
0.041126 0.001351 0.040509 0
0.039616 0.788971 -0.128394 0
0.180767 0.435814 -0.092913 0
-0.164319 0.394233 -0.123291 0
-0.054600 0.106288 -0.009775 0
0.201701 0.316326 -0.105934 0
-0.150111 0.787630 -0.122100 0
-0.056729 0.118915 -0.002929 0
-0.331575 0.234221 -0.300452 0
0.032156 0.187126 0.117408 0
-0.278132 0.115522 -0.205526 0
0.162334 0.754968 -0.124508 0
-2.498872 3.571782 0.139533 0
1.317670 1.929100 0.438868 0
-2.644826 4.259861 -0.078169 0
-0.309247 0.890286 -0.079487 0
1.604395 0.925677 -0.261118 0
-0.199400 0.842392 -0.034457 0
0.165373 0.759970 -0.125469 0
-4.032147 5.926036 1.248070 0
0.353531 3.008708 0.308738 0
1.409186 1.376656 0.214832 0
1.826923 2.614653 0.757924 0
1.319570 1.824773 0.021257 0
1.134596 1.930423 -0.241983 0
-2.478108 1.962654 -1.529729 0
-2.965196 2.225103 -2.068990 0
3.748628 3.283999 1.404033 0
1.513119 3.539004 0.652972 0
2.097943 3.554955 1.469629 0
0.156869 0.371533 -0.088528 0
0.225892 0.307935 -0.100204 0
0.202813 0.326292 -0.053436 0
0.113589 0.742254 -0.122905 0
-0.068601 3.204944 0.169777 0
0.279653 0.669584 -0.101972 0
-0.213052 0.653210 -0.109044 0
0.301267 0.704329 -0.124371 0
-0.095325 0.838401 -0.127766 0
0.258369 0.718679 -0.120982 0
1.586899 1.510186 0.617171 0
0.339096 0.584292 -0.102927 0
-0.317724 0.866972 -0.006024 0
0.290488 0.670866 -0.103733 0
-0.217092 0.842767 -0.055393 0
-0.184405 0.809344 -0.131607 0
-0.175951 0.709248 -0.138822 0
-3.020231 5.539475 0.219753 0
0.749250 1.182126 -0.255481 0
1.282405 1.705766 -0.479713 0
-0.332065 0.858804 -0.087128 0
0.282486 0.656006 -0.102628 0
1.637510 1.667809 0.280102 0
-0.312943 0.744288 -0.128663 0
0.273289 0.682650 -0.104606 0
1.589073 1.623224 0.274226 0
1.337543 1.767762 -0.505271 0
-0.057674 0.743688 0.217435 0
1.354253 1.782678 -0.511056 0
0.191822 0.852680 -0.135865 0
0.166559 0.765128 -0.131200 0
1.407441 1.386616 -0.052893 0
-2.783879 5.438127 0.248159 0
0.117266 0.778920 0.016026 0
21.803640 16.288095 -7.210974 0
1.394718 1.330385 -0.372700 0
-0.249036 2.519433 0.076379 0
-3.966538 6.308444 0.314976 0
-2.514469 4.461775 0.087934 0
-2.437700 4.391741 0.180864 0
-3.238230 6.488779 0.228785 0
-0.179195 0.619196 -0.087261 0
-1.934567 3.887575 -0.003874 0
-4.362624 5.454534 -1.652847 0
-4.824862 6.021542 -1.833765 0
1.937644 3.258046 1.122062 0
1.508669 2.562712 -0.284054 0
-3.265062 7.412122 -3.184384 0
-4.746903 6.848749 1.318693 0
-0.077178 1.025639 -0.058549 0
0.265110 7.630704 1.342324 0
1.464959 0.912358 -0.483367 0
1.476007 0.917772 -0.484286 0
1.395800 1.918006 0.010306 0
1.427275 1.957076 0.006517 0
-0.073629 0.664856 -0.125364 0
0.346495 0.567807 -0.117314 0
-0.165104 0.880612 0.075573 0
-0.168428 0.881644 0.090387 0
-0.328463 0.922119 0.002840 0
1.416923 1.315830 -0.170034 0
-0.140807 0.788295 0.000995 0
1.398619 1.336811 -0.258847 0
-4.937950 6.080529 1.499788 0
-2.669344 3.054989 -0.130651 0
-4.869705 6.251595 1.472215 0
1.740800 1.868672 0.390759 0
0.476099 1.048360 -0.129989 0
1.339167 1.870640 0.139250 0
-0.728414 1.119116 -0.124556 0
-0.181951 0.628649 -0.115016 0
1.729456 3.132179 0.554702 0
-0.098140 0.843154 -0.127719 0
-0.101236 0.794793 0.263526 0
1.550731 0.606441 -0.316029 0
1.494408 0.453082 -0.348137 0
1.559028 0.628892 0.228824 0
1.558892 0.759849 -0.337535 0
0.127974 0.592199 -0.112497 0
1.451676 0.582135 0.217770 0
1.386496 1.295009 -0.163145 0
-0.320249 0.911541 -0.021052 0
-0.144058 0.792153 0.001324 0
-0.131729 0.786467 0.176451 0
-0.155862 0.827912 0.082199 0
-0.108911 0.902056 0.274626 0
-0.129159 0.779184 0.174724 0
-0.314341 0.862633 -0.036265 0
-0.271160 0.980586 -0.039754 0
-0.179740 3.412069 -0.124184 0
-0.286431 3.073686 0.125189 0
1.499902 0.897454 0.110761 0
-0.068467 0.507806 -0.119532 0
1.483801 0.781554 0.265240 0
1.546535 0.849839 0.328003 0
0.266752 1.450519 -0.136489 0
0.543025 1.290328 -0.122471 0
0.262646 1.410034 -0.125595 0
1.496612 0.785576 0.265568 0
1.457363 0.681211 0.272646 0
1.481005 0.670830 -0.073101 0
1.556556 0.793877 0.343381 0
1.442233 0.685208 0.328056 0
1.500546 0.596506 -0.078421 0
0.540460 1.285427 -0.121229 0
-0.294862 0.927783 -0.089159 0
-0.064054 1.187252 0.228316 0
-0.397614 0.942478 -0.114392 0
-0.190545 0.819639 -0.135581 0
-0.172886 0.821294 0.094041 0
0.426612 0.404937 -0.123400 0
-0.088071 1.090984 0.122683 0
1.842427 2.438337 0.955339 0
0.465457 0.401548 -0.110503 0
0.466694 3.437516 0.215523 0
-0.269725 0.900265 -0.030253 0
0.154753 0.330650 -0.106018 0
0.055896 0.580587 -0.118763 0
0.220543 0.344098 -0.094675 0
0.202046 0.323173 -0.052869 0
0.087499 0.393724 -0.119075 0
0.222413 0.347868 -0.095645 0
0.214468 0.342067 -0.110505 0
0.220418 0.344076 -0.094139 0
0.087699 0.392721 -0.118881 0
0.214609 0.344603 -0.113172 0
0.155472 0.329114 -0.102497 0
0.207186 0.327301 -0.056218 0
0.153847 0.352225 -0.083459 0
0.119946 0.350663 -0.105438 0
0.910511 0.616585 -0.154751 0
0.141576 0.471533 -0.119228 0
-0.294553 0.950105 0.019914 0
0.196786 0.317681 -0.050346 0
0.227798 0.314295 -0.105529 0
0.146492 0.425481 -0.113851 0
0.251357 0.679085 -0.103413 0
-0.474837 1.117003 -0.147585 0
0.153407 0.325152 -0.102554 0
0.127469 0.602814 -0.125168 0
0.155101 0.329826 -0.103887 0
0.150717 0.343164 -0.079282 0
0.117862 0.336786 -0.100078 0
0.027701 0.875760 -0.033211 0
0.218449 0.351042 -0.065357 0
0.030192 0.662695 -0.129179 0
-0.209102 0.425153 -0.093586 0
0.030322 0.256799 0.110496 0
-0.193639 0.407021 -0.093126 0
-1.931488 3.721668 0.028360 0
0.257738 0.709228 -0.113133 0
-2.138438 2.221626 -1.387832 0
-2.350517 2.702111 -1.584988 0
-0.467346 0.418621 -0.261054 0
1.572363 1.975663 0.461837 0
1.368896 2.184688 0.115943 0
-4.572731 5.914544 1.019143 0
0.415894 0.715289 -0.093768 0
-2.131397 3.944403 -0.334479 0
-0.751485 2.686041 -1.443117 0
-0.798884 2.820772 -1.531056 0
-0.821370 2.886868 -1.574739 0
1.443493 3.891191 0.995741 0
0.168158 3.528545 0.246736 0
2.087595 3.542902 1.461842 0
0.353127 0.630687 -0.161811 0
-0.778676 0.779872 -0.463548 0
-0.126045 0.141620 -0.045933 0
-0.006772 0.038347 0.052612 0
-0.718483 0.642364 -0.420493 0
0.094205 0.142966 -0.000292 0
-0.093066 0.129617 0.008188 0
-0.091904 0.400751 -0.180778 0
-2.556991 3.902220 -1.604097 0
-0.285003 0.430252 -0.251524 0
-0.280192 0.425349 -0.246154 0
-1.664674 1.768603 -1.090625 0
-0.227181 0.875083 -0.049794 0
0.053114 0.595931 -0.118753 0
1.514322 0.593084 -0.314777 0
0.558736 0.206464 -0.151530 0
2.106609 3.631382 1.046218 0
-3.001462 3.317503 -0.176876 0
-0.249417 0.748170 -0.027135 0
-0.177812 0.609079 -0.121371 0
-0.060705 1.265900 -0.136027 0
-0.120876 0.780049 0.270534 0
-0.287666 0.842400 -0.045041 0
-0.158823 0.816893 -0.038670 0
-0.314209 0.745318 -0.129518 0
-0.270883 0.991593 0.024013 0
-0.281703 0.960881 0.017592 0
-0.047633 1.126663 -0.127039 0
0.152681 0.879890 0.004665 0
-0.275215 0.891414 -0.058508 0
0.496787 0.335800 -0.127247 0
1.530873 0.868484 0.288588 0
0.162973 0.753785 -0.125400 0
0.126231 3.911077 0.117242 0
1.482388 0.807108 0.277385 0
1.477004 0.752161 0.091940 0
0.276634 1.600763 0.034908 0
0.014741 4.333664 0.054463 0
0.232374 3.744122 0.240451 0
1.517069 0.796393 0.272583 0
1.490605 0.579511 -0.309617 0
1.844947 3.513607 -0.805380 0
0.389500 0.253896 -0.120097 0
0.288519 0.701782 -0.103965 0
0.307427 0.670257 -0.104874 0
0.451895 0.350432 -0.100860 0
-0.003036 0.624397 -0.125248 0
0.541973 0.263134 -0.148748 0
-0.079947 0.412430 -0.139804 0
0.245254 0.669727 -0.097708 0
-0.136967 0.670555 -0.106170 0
2.839474 1.435362 0.730204 0
1.467598 0.956573 0.194577 0
1.598239 0.827269 0.336397 0
-0.298657 0.923298 -0.010239 0
-0.174455 0.679460 -0.071303 0
-0.074731 1.041053 0.007704 0
0.592176 3.457825 0.138075 0
1.530235 3.571086 0.629954 0
1.564303 3.644175 0.227760 0
0.138011 3.849042 0.107623 0
1.648739 0.735565 -0.339110 0
1.736951 0.995980 0.916318 0
1.551588 1.036483 0.283046 0
-0.134159 4.049217 0.061873 0
0.259470 4.220921 0.317042 0
1.450502 0.824633 0.276386 0
1.575353 0.888728 -0.294254 0
-0.300754 0.927305 -0.008594 0
0.421338 3.194135 0.254887 0
-0.201106 2.297276 0.083415 0
0.430310 3.199026 0.196468 0
0.402420 2.967603 0.181171 0
-0.121982 3.379911 0.197996 0
-0.314142 0.852592 -0.040348 0
0.318984 0.598012 -0.106669 0
0.165486 0.751588 -0.008108 0
-0.193288 0.845280 -0.036072 0
-0.301258 0.843994 -0.062995 0
-0.578497 0.968602 -0.176466 0
0.587619 0.509722 -0.172831 0
-0.154251 0.831730 -0.074107 0
-0.319995 0.894097 -0.040413 0
-0.315110 0.916795 0.002148 0
-0.139733 0.801601 -0.064482 0
-0.200866 0.662877 -0.127640 0
-0.280952 0.886370 -0.063041 0
0.086825 0.853450 0.192742 0
0.128330 0.624137 -0.122949 0
1.320942 0.915890 -0.268944 0
0.128106 0.603118 -0.113985 0
-0.201882 0.848820 -0.035620 0
1.551276 0.630756 -0.307961 0
1.580808 0.715171 -0.322923 0
0.125046 0.611676 -0.115068 0
0.327608 0.165106 -0.112186 0
-0.280705 0.859915 -0.104602 0
-0.244698 0.704464 -0.134832 0
-0.077721 0.687058 -0.127809 0
-0.003086 0.621656 -0.123891 0
-0.303937 0.765247 -0.123269 0
0.655948 0.528494 -0.105624 0
-0.181988 3.439858 -0.123879 0
1.392718 1.700731 -0.543323 0
-2.420813 4.599270 0.172887 0
-2.189035 3.036693 -0.210567 0
0.013464 0.909471 -0.099042 0
0.040685 0.813717 -0.133890 0
-0.137101 0.802252 0.156064 0
1.514164 5.718571 0.174213 0
0.074670 0.621829 -0.109757 0
0.475182 0.434676 -0.116196 0
-0.206131 0.817012 -0.017397 0
1.420277 0.754833 0.264680 0
1.535265 0.764557 -0.272067 0
1.542415 0.521303 -0.312697 0
0.547000 1.436860 -0.135360 0
0.324562 1.572218 0.034244 0
1.454468 2.205390 -0.244497 0
-0.198515 0.839429 -0.035711 0
1.313727 2.176909 -0.574178 0
1.371829 1.986874 -0.519339 0
1.446648 0.943172 0.202185 0
-0.175614 3.032045 0.133331 0
0.113632 0.750856 -0.125652 0
1.323601 1.845659 -0.312515 0
-0.085645 1.054839 -0.072859 0
-0.210152 0.821895 -0.109001 0
-0.204053 0.878242 -0.091375 0
3.241414 1.648589 0.831223 0
-0.436734 0.952492 -0.088465 0
-0.100396 0.770655 -0.128106 0
-0.298869 0.857780 -0.012553 0
2.172029 1.178518 0.614692 0
0.296529 0.620562 -0.101374 0
1.470670 0.935388 -0.121780 0
0.164769 0.766347 -0.129516 0
-0.297263 0.955087 0.019441 0
-0.323663 0.876535 -0.008827 0
-0.269146 0.924793 -0.045145 0
0.064571 0.629818 -0.114343 0
-0.203780 0.872141 -0.091634 0
1.531074 0.853644 0.311253 0
0.322225 0.623671 -0.114325 0
-0.245517 0.910113 -0.038312 0
-0.166689 0.831664 -0.028121 0
1.963633 0.341207 -1.738366 0
-0.310511 0.871408 0.015281 0
1.449431 0.870811 0.130702 0
1.439459 2.078843 -0.560040 0
-4.566648 6.557330 0.623645 0
1.583629 0.796815 -0.334921 0
-0.402074 1.008315 -0.066269 0
-0.142871 0.692177 -0.132406 0
-0.286195 0.742372 -0.126841 0
-0.158487 0.773126 -0.125099 0
-0.226863 0.666312 -0.117496 0
-0.141738 0.687575 -0.129234 0
-0.269070 0.995120 -0.020886 0
1.453086 1.022106 0.222385 0
0.427256 0.372715 -0.121625 0
0.334443 0.633313 -0.115155 0
-0.178910 0.726847 -0.120009 0
-0.276529 0.973284 -0.019165 0
1.653961 1.104955 0.307738 0
-0.127177 0.656586 -0.116411 0
-0.288772 0.943856 0.002057 0
-0.244881 0.824356 -0.062283 0
0.065417 0.624512 -0.111485 0
0.293257 0.640089 -0.103881 0
1.379022 2.278411 -0.328891 0
-2.463224 3.317060 0.120568 0
-0.228367 0.667371 -0.119903 0
1.859370 2.984980 0.742441 0
0.162912 0.756595 0.001143 0
-0.160990 0.859069 -0.136104 0
1.338048 1.876768 -0.415923 0
-0.319504 0.867256 -0.115495 0
-0.219688 0.686009 -0.115865 0
0.122023 0.684013 -0.124182 0
0.351735 0.582495 -0.108302 0
0.302957 0.604024 -0.100908 0
1.482839 0.861401 0.262750 0
0.122539 0.685123 -0.125240 0
1.703968 1.255882 0.345864 0
-0.328982 0.890683 -0.011789 0
-0.075785 0.661134 -0.126752 0
-0.216075 0.859777 -0.048115 0
-0.153727 0.694214 -0.126630 0
-0.319937 0.849709 -0.033455 0
0.519079 1.140466 -0.112629 0
0.585663 1.240987 -0.103920 0
-0.146681 0.694187 -0.129897 0
0.317640 0.574776 -0.100424 0
0.175930 0.832420 0.005305 0
0.039993 0.778029 -0.125835 0
0.026714 0.841347 -0.051731 0
-0.073512 1.242571 0.229464 0
-0.713246 1.107858 -0.112351 0
-0.223562 0.897401 0.036286 0
-0.170335 2.159450 0.099832 0
1.639025 1.109628 0.313989 0
0.027535 0.664755 -0.132169 0
0.280355 0.673920 -0.101015 0
-0.010487 1.159440 -0.090463 0
-0.037188 1.398890 -0.103184 0
-0.275714 1.095665 0.029653 0
-0.202930 0.870725 -0.090177 0
1.937037 3.994215 -0.958551 0
1.565083 0.919864 -0.395650 0
1.599520 3.322351 -0.776009 0
0.114906 0.762031 -0.129695 0
-0.248085 0.830176 -0.060461 0
0.158361 1.733734 0.026720 0
0.120255 0.836003 0.003932 0
1.323747 1.818954 -0.297813 0
1.625774 1.098091 0.318544 0
-0.081448 1.242516 0.254024 0
-0.255597 0.945032 -0.014678 0
-0.185589 0.727457 -0.124556 0
-1.940731 3.003413 -1.238930 0
-0.178448 0.844550 0.002675 0
1.647344 1.104947 0.313413 0
0.106036 0.795707 0.039214 0
-0.033760 1.411394 -0.146826 0
0.624393 0.556230 -0.190876 0
-0.439194 0.955713 -0.089461 0
-0.059353 1.523773 -0.187112 0
-0.320582 0.869884 -0.117051 0
-0.305471 0.775646 -0.137813 0
0.126826 0.867337 0.009178 0
-0.098551 1.114611 0.240327 0
0.182865 0.854937 0.004304 0
-0.532599 1.245419 -0.180198 0
-0.022245 3.095712 -0.086991 0
-2.262662 3.956539 -0.213935 0
1.477006 4.567070 -0.541238 0
1.399448 1.755104 0.109787 0
1.467348 5.871783 -0.367201 0
1.341854 1.945302 0.170539 0
1.483337 5.736191 0.752374 0
1.596387 1.427264 0.278278 0
-2.136724 3.894509 -0.214747 0
0.140332 0.468796 -0.118260 0
1.825103 1.463295 0.377533 0
0.393557 0.337004 -0.073539 0
1.472516 1.402487 -0.318621 0
-0.095318 2.314339 0.176243 0
0.034557 0.789096 0.005473 0
1.424757 2.077047 0.476132 0
-0.031745 5.395374 0.117080 0
-2.217637 4.193862 0.183430 0
-0.006936 0.396566 -0.120809 0
0.255494 3.402857 0.116307 0
-0.007757 0.397120 -0.122020 0
-0.005799 0.395186 -0.119774 0
1.334823 0.874279 -0.290597 0
1.450875 0.675289 0.277577 0
-1.210580 0.966783 -0.836284 0
-0.211726 1.081685 0.023400 0
-0.136644 0.955102 -0.067171 0
1.603897 0.791815 -0.280306 0
-0.128912 2.046842 0.185949 0
1.493054 0.602822 0.070976 0
2.380564 0.058062 -2.269606 0
-1.593327 1.436871 -0.993054 0
-0.193001 0.929572 0.036383 0
0.359297 0.615191 -0.121475 0
0.864928 0.590077 0.163678 0
-0.076740 0.692369 -0.129230 0
0.143845 0.413529 -0.114017 0
0.227337 0.308177 -0.101050 0
0.145855 0.423313 -0.118557 0
0.221777 0.298469 -0.096504 0
0.144639 0.426232 -0.120905 0
1.657115 2.362810 0.560465 0
-0.671404 0.891989 -0.153743 0
-0.284557 0.868856 -0.119099 0
1.857958 3.325521 0.593248 0
-2.469998 3.324733 0.116783 0
0.327715 0.163665 -0.111977 0
1.624507 2.623250 -0.587217 0
1.565727 0.723420 -0.075588 0
1.466966 0.764344 0.098493 0
1.649863 0.660844 -0.088512 0
1.430552 0.740924 0.095753 0
1.578099 5.245484 0.310355 0
-0.050191 1.129574 -0.126822 0
1.595036 1.687219 0.295265 0
-0.156736 0.846134 -0.067911 0
-4.917056 4.384726 -1.985118 0
-2.362579 3.177865 0.133855 0
-0.358196 0.864361 -0.099633 0
1.296417 1.705405 -0.510000 0
1.475394 1.337098 0.265519 0
0.665462 0.531969 -0.106254 0
0.113675 0.745003 -0.123505 0
-0.198782 0.663675 -0.124631 0
-0.272017 0.998711 -0.016556 0
-0.212015 0.854001 -0.046935 0
0.125982 0.862775 0.009563 0
-0.278639 0.847751 -0.067219 0
-0.305860 0.915767 -0.001419 0
-0.270196 1.091534 0.007369 0
1.321022 2.261793 0.058838 0
-0.194753 0.761462 -0.115068 0
-0.132433 0.664545 -0.104489 0
1.379548 1.969723 -0.095917 0
-0.133985 1.819308 0.103167 0
1.348774 2.327806 -0.248594 0
-0.266415 0.870637 -0.058076 0
-0.721237 0.738315 -0.155131 0
-0.173320 0.866602 -0.054642 0
-0.311887 0.776754 -0.127239 0
0.451904 0.250157 -0.115629 0
-0.069973 0.666275 -0.118105 0
-0.172115 0.693469 -0.336185 0
-0.100389 0.772193 -0.135440 0
0.496070 1.070008 -0.140648 0
1.517812 5.684081 0.916124 0
1.490412 2.198318 0.508324 0
1.445853 5.779034 -0.254144 0
1.552480 3.936243 0.421843 0
1.480237 6.044664 1.231795 0
0.628667 1.807276 -0.219153 0
0.393355 0.618059 -0.172845 0
-0.039004 1.072291 -0.052406 0
0.336084 0.571321 -0.098436 0
0.433791 0.801868 -0.199195 0
0.334588 0.602323 -0.103141 0
0.053658 0.899970 0.002213 0
0.366678 0.600434 -0.118389 0
-0.167207 0.784744 -0.130959 0
-0.136786 0.903047 -0.077744 0
0.302601 0.341270 -0.121068 0
-0.102649 0.776566 -0.132243 0
0.037056 0.784001 -0.129506 0
-0.274072 0.895000 -0.061351 0
0.320588 0.587076 -0.094023 0
-0.274934 0.945035 -0.050516 0
-0.277608 1.015126 -0.015863 0
-0.272422 0.993423 0.024033 0
-0.297161 0.879475 -0.041671 0
0.028181 0.797120 -0.081414 0
-0.094021 0.798616 -0.131876 0
0.305576 0.627644 -0.101636 0
-0.256146 2.641533 0.119755 0
0.124956 0.861610 0.008338 0
-0.040070 0.944263 -0.121135 0
-0.334219 0.919172 -0.000310 0
0.446081 1.096653 -0.080900 0
-0.089019 1.072417 -0.050183 0
0.297563 0.678542 -0.114801 0
-0.134870 0.885447 -0.064323 0
-0.160566 0.859493 -0.135437 0
-0.297510 0.959794 0.004101 0
0.302341 0.662134 -0.100587 0
-0.153179 0.535984 -0.126719 0
-0.309928 0.892649 -0.019547 0
0.282922 0.657661 -0.103425 0
-0.209300 0.808410 -0.099704 0
0.123702 0.685986 -0.127187 0
-0.190188 0.839232 -0.035685 0
-0.318707 0.867538 -0.116802 0
0.315868 0.573800 -0.101637 0
0.119241 0.703989 -0.127572 0
-0.194655 2.549900 0.233943 0
-0.036782 1.033486 -0.116566 0
-0.082661 1.031663 0.040534 0
-0.170821 0.805313 -0.023783 0
0.425985 0.403330 -0.121629 0
-0.081954 1.029082 0.040911 0
1.620089 1.650909 0.279082 0
1.761215 1.848921 0.516376 0
0.809630 1.437593 -0.527447 0
0.026868 0.804511 -0.015034 0
-0.246505 0.827173 -0.061761 0
0.303099 0.603852 -0.101059 0
-0.199395 0.662357 -0.125233 0
0.425510 3.317698 0.124433 0
-2.547853 2.897377 0.483987 0
-0.347649 0.924861 -0.132421 0
-0.248749 0.834308 -0.059576 0
0.180219 0.805536 -0.120118 0
0.467494 0.539865 -0.112989 0
1.395262 5.578263 0.846191 0
1.797059 5.537631 1.225162 0
-3.070733 8.076853 1.385846 0
-1.452023 5.195471 0.125220 0
1.823147 1.388932 0.378081 0
-0.252164 0.842860 -0.059736 0
-0.201962 0.839447 -0.039346 0
-0.095384 0.754309 -0.123757 0
-0.130404 0.802993 -0.130395 0
-0.074164 0.663084 -0.124999 0
-0.146120 0.789833 -0.013909 0
-0.277258 0.823729 -0.142010 0
1.351934 1.897157 -0.426807 0
-0.156245 0.774054 -0.124079 0
-0.122177 0.791266 0.272005 0
-0.320023 0.867359 -0.115575 0
-0.268076 0.796738 -0.135512 0
0.319969 0.630751 -0.102789 0
0.592668 1.271942 -0.100774 0
-0.266882 0.928210 -0.048725 0
-0.174570 0.940020 -0.010050 0
-0.303319 0.844966 -0.061639 0
0.247608 1.188493 -0.133395 0
0.341078 0.572922 -0.100645 0
-0.319080 0.854253 -0.036301 0
-0.262428 0.768481 -0.028013 0
0.204134 1.314312 0.019067 0
0.257313 0.714025 -0.116318 0
0.340917 0.579781 -0.100895 0
-0.075292 0.662713 -0.125679 0
-0.276947 1.011757 -0.016725 0
-0.292479 0.871072 -0.038176 0
0.083375 0.811512 0.016792 0
-0.131581 1.109482 -0.121311 0
0.084197 0.807721 0.016921 0
0.182407 0.857897 0.003094 0
-0.035287 1.007035 -0.108375 0
-0.139287 0.686805 -0.129633 0
-0.276645 0.980125 0.017190 0
-0.163255 0.778760 -0.127690 0
-0.293013 0.850733 -0.078351 0
1.738987 1.278786 0.572187 0
1.749104 1.307656 0.601564 0
-0.081612 1.036059 0.039556 0
1.831928 1.725463 1.084578 0
-0.155143 0.783742 -0.124821 0
-0.176521 2.352726 0.225900 0
0.258579 0.714633 -0.116327 0
0.122581 3.663971 0.068236 0
-0.104179 0.946834 -0.135327 0
1.641817 1.101209 0.311205 0
1.418018 0.991224 0.227408 0
0.029385 0.659764 -0.129532 0
-0.163550 0.858042 -0.073293 0
0.332709 0.166596 -0.116065 0
0.780464 1.716784 -0.170082 0
0.156508 1.712513 0.028273 0
-0.265915 0.987993 -0.021827 0
0.619079 0.553703 -0.188794 0
-0.312291 0.926499 0.008980 0
-0.352122 0.870622 -0.004483 0
-0.297059 0.880245 -0.168743 0
0.355555 0.597020 -0.111281 0
0.622405 0.557568 -0.192919 0
-0.191838 0.842607 -0.035313 0
-0.221218 1.018091 -0.021764 0
1.551936 5.902368 0.624124 0
-0.337756 0.841525 -0.111879 0
-2.492451 4.873458 -0.016310 0
-7.413656 10.193457 2.027236 0
-4.806158 6.737206 1.037251 0
1.513841 1.423934 -0.332065 0
-4.688962 6.844694 1.258878 0
-3.250279 3.245597 -2.133266 0
1.227860 3.689570 -0.477267 0
-2.241649 4.083641 0.174856 0
1.838084 3.482392 0.473016 0
0.248799 1.598539 -0.005686 0
0.035874 0.779866 0.007313 0
-2.424664 3.227324 0.225499 0
1.343301 2.327125 -0.285724 0
-3.026407 3.406538 -2.180270 0
1.474988 4.420017 -0.605261 0
1.513787 5.671196 0.549908 0
-0.042534 1.099824 -0.061824 0
0.623718 0.552763 -0.190503 0
-0.310865 0.844387 -0.033998 0
-0.210929 0.813229 -0.155385 0
-0.133326 0.800714 0.190645 0
-1.885768 3.263448 -0.023456 0
1.420830 2.358696 -0.304031 0
0.750971 2.340853 -0.261974 0
-2.202797 2.535616 -1.595850 0
-2.269830 1.980011 -1.667483 0
0.113299 0.752827 -0.127019 0
-4.855871 6.060576 -2.115862 0
1.403030 1.337396 -0.362858 0
1.414078 1.320448 -0.167963 0
0.481308 1.020932 -0.062422 0
0.001834 0.052452 0.066517 0
0.982954 2.299784 0.750049 0
1.776832 1.525896 0.310541 0
0.036222 0.139174 0.103423 0
-0.031227 0.089716 0.081084 0
-0.024055 0.062105 0.018561 0
-0.429307 0.085778 -0.405777 0
-0.514435 0.102787 -0.497299 0
-0.453849 0.093043 -0.433366 0
-0.448127 0.092844 -0.428990 0
-0.601781 -0.035137 -0.565584 0
0.103956 0.211967 -0.071919 0
-0.546033 0.000166 -0.521311 0
-0.671104 -0.059599 -0.611376 0
-0.498352 0.037752 -0.481106 0
-0.274204 0.870589 -0.091429 0
1.827554 2.702481 1.020504 0
1.478327 2.114261 0.123640 0
1.215412 2.293419 0.563692 0
-0.790935 1.920598 0.018634 0
0.203046 1.842271 0.219359 0
1.731743 0.992562 0.920202 0
1.519890 4.151747 -0.706612 0
0.035261 0.784255 0.006433 0
-0.220648 0.660643 -0.115530 0
-0.337523 0.920851 0.002039 0
-0.260986 0.810255 -0.097812 0
0.259800 0.714231 -0.114715 0
0.159698 0.759294 -0.127800 0
0.348014 0.577616 -0.106799 0
-0.269120 0.830572 -0.108687 0
-0.202275 0.871124 -0.090775 0
1.583015 1.421329 0.276767 0
-0.140095 1.175568 -0.131366 0
1.390109 1.946368 -0.447542 0
-0.301717 0.842415 -0.059812 0
-0.136394 1.140545 -0.125885 0
-0.273125 0.955855 -0.049848 0
-0.041058 1.064496 -0.050554 0
1.437553 2.312611 -0.499372 0
-0.305950 0.864870 -0.014291 0
-0.136574 1.115419 -0.124432 0
-2.355596 3.154000 -0.072309 0
-2.060467 2.877951 -0.203986 0
-2.092777 2.926786 -0.211827 0
-0.191430 0.733861 -0.128104 0
1.381301 2.228101 0.149920 0
-2.494656 3.351269 0.126185 0
-2.328307 3.125780 -0.069693 0
-2.072387 2.906127 -0.213511 0
-2.038706 2.865009 -0.222494 0
-0.082741 0.845293 0.240596 0
-0.002511 1.208784 -0.105450 0
-0.132883 0.790785 -0.128300 0
1.414343 1.720516 0.194935 0
1.379291 2.108773 0.376427 0
-0.253693 0.961345 0.050983 0
1.854409 2.670795 0.621720 0
0.017320 1.024681 -0.310361 0
-5.149588 6.673884 1.165145 0
-0.228024 0.304416 -0.111791 0
0.356717 0.204752 -0.116326 0
0.500602 0.384899 -0.129506 0
0.317406 0.574515 -0.101768 0
0.318946 0.306713 -0.116043 0
0.470142 0.358855 -0.113647 0
0.330490 0.117075 -0.111271 0
0.057848 0.575538 -0.114021 0
0.262310 0.714232 -0.114125 0
0.645446 0.521671 -0.104549 0
-2.102330 3.499591 -0.114778 0
0.652777 0.515664 -0.099392 0
-2.257985 3.920119 -0.253545 0
-0.328694 0.778619 -0.135728 0
-0.362652 0.863580 -0.000477 0
-0.145039 0.819201 0.069538 0
-2.289921 2.929569 -0.113103 0
-0.092372 0.271287 -0.161296 0
1.564956 0.477635 -0.285517 0
0.067361 1.704889 0.585819 0
0.063985 0.643006 -0.120186 0
0.244156 1.216184 -0.073191 0
-0.122447 0.836412 -0.066757 0
1.659456 1.303184 0.652002 0
0.034042 0.797856 0.004839 0
-0.074183 1.038709 0.007498 0
0.221609 1.561347 0.032955 0
1.394460 2.318547 -0.299370 0
1.436687 2.315710 -0.646422 0
0.161003 1.750613 0.025489 0
0.177357 1.558475 -0.001093 0
1.860809 2.476085 1.571781 0
-1.128774 1.281709 -0.706581 0
0.160772 1.709935 0.028059 0
0.369316 3.157742 0.317359 0
1.347624 2.052417 0.152429 0
-0.094358 0.845092 0.264378 0
0.189311 0.799617 -0.036652 0
1.299971 1.946980 0.397665 0
-0.142264 0.910092 -0.075689 0
-2.384035 3.011666 -0.178724 0
-2.256155 3.615550 -0.109895 0
-2.163583 3.050242 -0.075422 0
-2.528811 4.030827 -0.072460 0
0.262622 0.718418 -0.128053 0
0.126666 0.863712 0.014121 0
1.265533 2.070680 -0.496314 0
1.354548 1.959192 -0.509665 0
1.302608 2.123946 -0.513022 0
1.348166 2.191514 -0.533035 0
1.409959 2.034425 -0.533468 0
-0.006960 0.955920 -0.124484 0
-0.078449 1.249530 0.238761 0
1.879895 5.170335 1.474132 0
0.256548 5.658596 1.433780 0
1.851455 2.838804 0.748173 0
0.780528 0.643841 -0.266205 0
-0.044913 1.094634 -0.056348 0
0.290082 0.670877 -0.103339 0
1.606628 1.469655 0.331476 0
1.775074 1.859382 0.524886 0
0.017738 0.820585 -0.089001 0
-0.308171 0.888340 -0.007600 0
-2.023058 3.549745 -0.018816 0
1.364564 1.872695 -0.405170 0
-2.279226 3.211479 -0.083557 0
1.551751 2.462235 -0.543269 0
0.086347 0.813028 0.026023 0
-0.033903 1.372825 -0.099846 0
-2.853835 3.411958 0.260859 0
1.372092 1.676160 -0.570754 0
1.788030 2.858532 0.742985 0
1.424928 1.824255 -0.046090 0
-0.124689 1.067374 -0.064515 0
0.259799 0.711829 -0.127828 0
1.620073 1.598349 0.280540 0
0.243348 1.576749 0.020642 0
-0.036889 1.044533 -0.114744 0
0.020337 4.550981 1.458865 0
1.322202 2.136595 -0.231510 0
0.160989 0.761216 -0.125577 0
-0.159692 0.732134 -0.122938 0
0.148588 0.870054 0.009193 0
1.404513 1.900903 0.115761 0
-1.738922 2.787481 0.189397 0
0.428941 0.403821 -0.122208 0
0.038547 0.778719 -0.126518 0
-0.389500 0.871327 -0.035970 0
0.317817 0.574789 -0.101350 0
1.649596 1.748571 0.493679 0
-0.063209 0.395671 -0.121662 0
-0.271855 0.943121 -0.052244 0
0.150201 1.125745 0.250187 0
1.562658 0.855296 0.330295 0
0.211129 1.148682 -0.135336 0
1.542776 0.850511 0.328959 0
0.257920 1.244760 -0.145672 0
-0.271001 0.853698 -0.054120 0
0.227463 3.017680 0.250016 0
1.409036 1.972417 -0.035492 0
-0.281511 0.947512 0.002492 0
1.438892 0.864702 0.112303 0
0.044673 0.341784 -0.107164 0
-0.258328 0.773960 -0.126995 0
0.138642 0.292900 -0.115779 0
0.138843 0.292097 -0.115124 0
-0.268103 1.074063 0.027921 0
0.240438 0.328714 -0.108781 0
-0.242069 0.876566 -0.099944 0
-0.219397 0.841227 -0.053185 0
0.320825 0.637742 -0.104744 0
0.280728 0.672745 -0.102588 0
-0.315478 0.934036 0.008419 0
0.123258 3.863043 0.133780 0
0.477790 3.762797 0.283740 0
-2.306479 4.193563 0.188445 0
0.394763 3.175610 0.112200 0
0.183905 0.857594 0.003752 0
1.337217 2.362715 0.092403 0
-0.633476 6.192804 0.437358 0
1.496547 0.594932 -0.299856 0
0.293020 2.433949 -0.215982 0
1.551347 3.892883 1.310896 0
1.503340 3.511385 0.292214 0
3.138084 2.914074 1.181258 0
1.880049 3.596885 -0.818490 0
0.181336 0.858309 0.002182 0
0.246765 1.187444 -0.133092 0
-0.115857 0.796365 0.273744 0
-0.005798 0.632850 -0.127190 0
0.001636 0.898558 -0.123638 0
-0.059090 0.485167 -0.123854 0
-0.048490 0.492198 -0.123198 0
0.453651 0.361048 -0.107912 0
-0.080073 0.950489 0.244640 0
-0.048959 0.493215 -0.123551 0
-0.097687 0.809005 -0.040573 0
1.509426 5.641054 0.537921 0
-0.343186 4.411628 0.310411 0
-0.171020 0.766279 -0.132070 0
-0.159364 0.857268 -0.134724 0
0.243025 1.576609 0.024521 0
0.210756 1.318356 -0.047761 0
0.511789 1.102795 -0.144223 0
0.185690 0.933373 -0.171912 0
1.451782 2.070334 0.458641 0
1.439488 4.338112 -0.574270 0
1.580676 0.787777 -0.340614 0
-0.069205 0.996107 0.119325 0
-0.036654 0.877903 0.114900 0
-0.253957 0.879875 -0.040303 0
0.367767 2.961131 0.098056 0
0.429639 3.376577 0.285267 0
1.457798 1.938447 0.118583 0
-2.263065 2.384944 -0.163145 0
-2.603868 1.910465 -1.516274 0
1.368686 1.278122 -0.159366 0
-2.217602 3.488055 -0.028584 0
-0.082680 4.320736 -0.153677 0
1.576908 4.229470 0.112531 0
-0.067018 0.370748 -0.126585 0
0.221938 0.319681 -0.104947 0
0.156624 0.025166 -0.076974 0
0.154980 0.024894 -0.075445 0
0.151087 0.023980 -0.072672 0
-0.164281 0.197015 0.086387 0
0.533656 0.411564 -0.068433 0
0.041289 0.001384 0.040359 0
-4.809564 5.907649 0.852981 0
-3.246037 3.793590 -0.174407 0
-0.193554 0.551230 -0.129141 0
-3.124606 3.693322 -0.164466 0
1.334114 1.759198 -0.502109 0
-2.377349 2.706863 -0.125447 0
1.865226 2.713476 1.548207 0
1.343942 2.178775 -0.557584 0
-2.078081 3.476095 -0.114402 0
-0.211634 0.873725 -0.043441 0
-0.078923 1.034216 -0.043349 0
1.363577 1.931240 -0.202282 0
1.731949 1.297789 0.596069 0
1.591601 3.673906 1.304565 0
0.580403 3.626845 1.639969 0
-2.535088 3.170311 -0.198218 0
-3.250366 5.618765 0.292659 0
-3.339072 3.975661 1.709800 0
-4.815403 6.894476 0.460688 0
-0.134402 0.780297 0.135850 0
-2.627658 2.756065 -1.635818 0
0.950140 3.138959 1.538110 0
-5.580487 7.187740 1.668222 0
-0.260643 0.761235 -0.029450 0
-0.301079 0.842927 -0.061698 0
-0.178733 0.777520 -0.120972 0
-0.278128 0.902626 -0.064079 0
-0.081400 1.079805 0.223372 0
-0.298851 0.853857 -0.111432 0
1.597046 1.635597 0.276546 0
-0.233585 0.674807 -0.122913 0
-0.134758 1.066490 -0.104272 0
-0.285318 0.931891 0.022633 0
-0.199465 0.794080 -0.093281 0
1.470255 0.940424 -0.088923 0
-0.210644 0.843857 0.057744 0
-0.094559 0.988385 -0.049837 0
-0.119796 1.037332 -0.063337 0
1.680430 1.115459 0.305402 0
1.465002 0.954588 0.202131 0
-0.278947 0.849681 -0.068757 0
1.377334 1.869037 0.373232 0
-0.072179 1.022740 -0.107135 0
-0.280290 0.905586 -0.001691 0
1.448346 0.958184 0.239154 0
-0.274876 0.869139 -0.052597 0
1.624713 1.156715 0.287520 0
1.583419 0.918127 -0.253017 0
0.122713 4.302151 0.270645 0
1.510839 0.675649 -0.089705 0
1.264729 2.232262 0.098016 0
0.236263 3.046514 0.125655 0
-0.109734 0.957663 -0.051816 0
-0.187354 3.180894 0.215674 0
-0.300690 0.957619 0.018513 0
0.292647 1.570881 0.011626 0
0.132047 3.626610 0.102134 0
0.299507 1.072155 -0.144090 0
1.435651 1.369124 -0.309925 0
1.408933 1.312825 -0.166753 0
0.107568 3.904375 0.171988 0
0.503388 4.132641 0.122890 0
-0.105140 3.529529 0.174673 0
-0.275839 0.975097 0.020505 0
-0.116716 1.028022 -0.065455 0
0.009196 0.361559 -0.120684 0
0.151888 0.348207 -0.081216 0
0.211331 0.338529 -0.058685 0
-0.180385 0.733739 -0.122571 0
0.201542 2.208228 -0.047191 0
-0.091386 1.040847 0.237661 0
-0.121892 0.783176 0.271443 0
-0.151924 0.697349 -0.125365 0
-0.073057 1.217123 0.233228 0
-0.087284 1.024752 0.234558 0
-0.194822 0.743456 -0.092188 0
-0.072392 1.212898 0.232116 0
-0.093894 0.794571 -0.130861 0
1.351915 2.343633 0.063041 0
0.400548 3.188598 0.116088 0
-0.249262 0.924604 -0.011960 0
0.260164 2.402801 0.257385 0
-0.360434 0.891830 -0.098019 0
-0.091116 0.822409 -0.114970 0
-0.335495 0.920940 -0.046114 0
0.101846 0.582912 -0.119901 0
0.103302 0.582182 -0.119002 0
0.129981 0.607893 -0.115825 0
0.322708 3.310277 0.333714 0
-0.291804 0.943552 0.020583 0
-0.078659 1.305446 0.097931 0
0.471401 0.322208 -0.118419 0
0.083573 0.775381 0.016214 0
0.347821 0.578422 -0.109496 0
0.233378 3.542124 0.202847 0
0.474574 3.934277 0.141137 0
-0.375919 0.878304 -0.002418 0
0.398268 0.229985 -0.072166 0
0.550132 1.224946 -0.125542 0
1.430788 1.432670 0.066971 0
-0.249036 0.768973 -0.110130 0
-0.280980 0.984948 0.016990 0
-0.285064 0.980394 -0.053422 0
0.220051 1.070496 -0.108700 0
-0.059345 0.486352 -0.124166 0
-0.067698 0.981312 0.046891 0
1.480412 0.677074 -0.071065 0
-0.003724 0.933886 -0.124979 0
-0.058594 0.484232 -0.123529 0
1.481255 0.660465 0.133737 0
0.209691 1.126008 -0.130516 0
0.184777 0.860776 -0.133843 0
0.477088 0.369457 -0.123251 0
1.434601 0.735306 0.095249 0
0.105765 0.893410 -0.178924 0
1.573491 3.738242 0.261822 0
0.475474 0.254338 -0.113136 0
0.380047 0.236684 -0.117695 0
0.054264 0.590392 -0.119808 0
0.065297 0.632934 -0.114020 0
-0.052904 0.445378 -0.115234 0
1.301029 2.142833 -0.531958 0
0.423618 0.331551 -0.116222 0
0.461961 0.242089 -0.115593 0
0.412390 0.251641 -0.126899 0
0.435095 0.371209 -0.127038 0
0.426053 0.330313 -0.118617 0
0.464482 0.408300 -0.123608 0
0.509531 0.403658 -0.135063 0
0.444726 0.412819 -0.132525 0
0.483793 0.385192 -0.121493 0
0.205630 1.065459 -0.111710 0
0.311059 1.499767 0.035826 0
-0.131040 0.931760 -0.064560 0
0.053523 0.427070 -0.152556 0
0.007186 0.474684 -0.172511 0
1.367159 3.692049 0.187102 0
0.028886 0.781180 -0.026965 0
0.128088 0.603916 -0.126411 0
-0.252343 0.756255 -0.125460 0
-0.270752 1.161340 -0.018855 0
0.607238 1.098169 -0.179448 0
-0.139566 0.807889 -0.036975 0
0.121716 0.600696 -0.111583 0
-0.039947 1.067362 -0.120512 0
0.509258 0.433712 -0.127058 0
0.085498 0.383722 -0.115714 0
0.152803 0.355056 -0.083216 0
0.260644 0.695084 -0.123920 0
-0.007197 0.395886 -0.121220 0
0.003278 0.571621 -0.179949 0
-0.029709 0.421572 -0.150323 0
-0.029983 0.422839 -0.149924 0
0.020977 0.813902 -0.097002 0
0.050909 0.630332 -0.153500 0
-0.078988 0.693095 -0.108262 0
0.343124 0.592377 -0.103734 0
0.142735 0.410021 -0.114737 0
-0.247126 0.255138 -0.124097 0
0.071561 0.326735 -0.116112 0
0.088226 0.423310 -0.132687 0
0.470413 1.658014 0.196809 0
0.141435 0.311764 -0.125720 0
-0.034421 0.058142 0.025712 0
0.440127 0.356048 -0.102183 0
-0.330554 0.195696 -0.181039 0
-0.052482 0.238018 0.048533 0
0.285728 0.073221 -0.214742 0
0.287916 0.073831 -0.217257 0
0.004423 0.034647 0.038211 0
0.282849 0.072512 -0.211736 0
-0.778078 1.465193 -0.480323 0
0.260482 0.694985 -0.124419 0
-0.215327 0.818115 -0.092315 0
0.381668 0.235196 -0.118408 0
-0.083285 0.418655 -0.120840 0
-0.254904 0.870873 -0.088222 0
0.496920 0.288334 -0.124799 0
0.049783 0.187868 0.004766 0
1.415811 0.754404 0.101586 0
-0.326451 0.877030 -0.118769 0
-0.253831 1.111189 -0.019598 0
0.114405 0.689966 -0.118879 0
-0.183697 0.918994 -0.154267 0
0.055250 0.384283 -0.121863 0
0.212557 0.330684 -0.153576 0
-0.767069 1.445761 -0.478023 0
-0.355724 0.582813 -0.209737 0
1.917489 2.501739 1.319170 0
-2.262787 3.436169 -1.416445 0
