ply
format ascii 1.0
element vertex 3180
property float x
property float y
property float z
property int map_id
end_header
0.210121 0.578872 -0.142256 0
1.399017 1.306265 -0.046760 0
-0.145889 1.045934 -0.114124 0
0.404755 1.604135 -0.125623 0
0.322928 1.211901 -0.136187 0
-0.243959 0.947211 -0.123625 0
1.748106 1.291436 0.564805 0
1.363686 2.057135 -0.228955 0
1.471373 5.991185 0.426490 0
0.108441 0.453358 -0.064068 0
-0.102392 0.947609 -0.047704 0
-0.115524 0.795039 -0.131200 0
-0.168145 0.688238 -0.126306 0
-0.373618 1.238449 -0.009807 0
-0.492834 1.201666 -0.102573 0
0.898202 0.577496 -0.128060 0
1.406775 1.392986 0.070474 0
0.658343 1.232387 -0.067594 0
-0.100390 0.945332 -0.135888 0
-0.363065 1.599064 -0.105598 0
-0.456781 1.259438 -0.069758 0
-1.174520 2.030256 -0.218326 0
0.065515 3.509964 0.013747 0
1.267816 1.257774 -0.196516 0
1.425813 0.971486 0.124754 0
1.160129 0.753851 -0.135305 0
1.238067 0.799114 -0.135393 0
0.715012 1.398504 -0.100026 0
1.611330 1.793799 0.273209 0
1.439060 1.659919 0.250786 0
1.403431 1.087616 0.223764 0
1.385671 1.015800 0.224374 0
0.404599 0.202921 -0.116639 0
-0.138518 0.911208 -0.073662 0
0.048285 0.814425 -0.128781 0
0.048981 0.467586 -0.091204 0
-0.121248 0.845088 -0.129494 0
-0.193085 0.699119 -0.119210 0
0.101330 0.797767 -0.128852 0
-0.139451 0.947172 -0.164638 0
0.751584 0.482877 -0.094213 0
-0.124463 0.801905 0.273175 0
-0.089748 0.668026 -0.126102 0
0.136060 0.487342 -0.122415 0
-0.376740 1.217580 -0.009355 0
0.194360 1.312368 -0.014943 0
1.408207 1.753697 0.005110 0
-0.473088 1.165754 -0.094823 0
0.172428 0.808514 -0.127632 0
-0.038606 0.980707 -0.124490 0
-0.195476 3.367343 -0.062120 0
0.756601 0.520404 -0.100513 0
0.665210 1.515358 -0.220042 0
-0.288337 1.180318 -0.081151 0
-0.494294 1.202299 -0.100548 0
0.659258 1.238882 -0.065959 0
-0.082974 0.428123 -0.108642 0
-0.066185 0.497634 -0.125198 0
-0.083779 1.113388 -0.118791 0
-0.009447 0.977409 -0.127787 0
0.045096 0.813529 -0.129714 0
-0.039735 1.102066 -0.105624 0
-0.869190 2.980239 0.230526 0
1.627380 3.929199 0.686362 0
1.350773 1.872897 0.069825 0
1.506275 3.566645 0.050942 0
1.694870 1.459113 0.312287 0
1.419983 0.997838 0.224849 0
0.645658 3.687734 0.193527 0
1.434434 1.775324 0.115984 0
1.391852 1.387886 0.070503 0
1.866364 3.567418 1.513952 0
1.844106 2.833954 0.739708 0
1.411385 2.256901 0.380155 0
1.526035 6.188589 0.866168 0
1.703855 1.796610 0.646475 0
1.331453 4.047792 -0.505398 0
-4.360125 6.248770 0.434373 0
0.166782 0.802005 -0.122540 0
-0.151882 0.829219 0.097156 0
-4.848637 6.158390 1.042746 0
1.433465 4.538692 0.367679 0
1.350289 2.250054 0.103054 0
1.515855 3.678489 0.275990 0
1.814098 3.464776 1.467296 0
1.809389 1.710981 1.064365 0
1.287130 1.278179 -0.199299 0
1.413193 2.268291 0.467547 0
1.522464 3.677452 0.239935 0
1.743856 4.154003 0.711416 0
1.695867 1.901509 0.354519 0
1.367080 1.657433 0.201312 0
1.826901 2.836296 0.736335 0
0.220887 4.475256 1.431308 0
-0.123518 0.743027 -0.143346 0
-3.387345 2.773304 0.202456 0
-2.724528 3.220673 0.188122 0
1.478134 1.415614 0.254203 0
-0.121758 1.103257 -0.078455 0
-2.700966 2.992208 -1.746769 0
-3.019344 5.023965 0.234003 0
-3.250246 2.514119 -0.341240 0
-1.963942 2.772757 -0.454194 0
-2.039360 5.019264 -0.189301 0
-2.891517 3.354814 0.278762 0
1.585641 8.290311 0.981629 0
-2.836715 3.190665 0.069436 0
-5.232325 4.652618 0.679430 0
-0.098890 0.634689 -0.109699 0
-4.775237 5.971106 1.412884 0
-0.468154 1.174883 -0.140352 0
0.106924 0.814487 -0.132734 0
0.403613 1.524227 -0.167125 0
0.538891 1.082775 -0.191729 0
1.396463 2.322572 0.108811 0
0.670578 1.026193 -0.208220 0
-0.100750 0.754122 -0.126779 0
-4.729229 8.502077 1.298290 0
-0.115799 0.346507 -0.090476 0
-4.706449 8.449586 1.321886 0
-2.941931 3.094884 0.589916 0
-0.034782 3.518174 0.162282 0
1.338248 2.296179 0.062122 0
-2.995821 8.269586 1.439608 0
0.958731 4.665489 1.442125 0
1.553665 0.910118 -0.329887 0
0.264708 6.893300 1.408430 0
-1.539027 6.160607 1.424578 0
-1.878081 8.592046 0.981757 0
-2.879319 2.954232 0.566113 0
2.062635 3.046700 1.461987 0
0.391598 1.413320 -0.091939 0
0.839118 4.703521 0.025815 0
-2.265806 2.487284 -1.430059 0
1.199349 1.379722 -0.637404 0
1.329265 1.575048 -0.749873 0
-1.908493 2.993899 0.006352 0
1.396123 1.900694 0.389887 0
-2.704210 4.040573 -0.225495 0
-2.370570 1.864028 -1.515759 0
-0.359170 1.147939 -0.090747 0
1.730922 4.944753 0.610375 0
-2.030495 2.750990 -0.297584 0
0.059933 6.935005 1.408636 0
1.670183 2.138886 0.508602 0
1.495327 6.293934 0.051574 0
1.408407 1.712996 0.197615 0
1.219447 1.332312 -0.041456 0
1.587735 4.379981 -0.134007 0
0.120387 4.260285 0.270226 0
-3.554771 7.959845 0.210261 0
-1.901975 2.208338 -0.440428 0
1.368300 2.042674 -0.101818 0
0.019143 3.984415 0.074932 0
-0.228090 7.296739 0.306504 0
-1.991401 2.813373 -0.464823 0
1.492863 6.086505 0.831367 0
1.372042 2.051254 -0.103706 0
0.014454 4.613596 1.484107 0
0.126180 4.226038 0.270146 0
1.493548 5.879388 1.081250 0
-2.180788 2.290596 -0.620221 0
0.368864 8.513096 1.092742 0
1.653255 5.312633 0.873064 0
0.399508 1.552736 -0.132508 0
1.464231 2.343421 0.478950 0
1.397693 2.222509 0.391620 0
1.358149 1.836964 0.384301 0
1.472006 5.915294 0.872786 0
0.056412 3.661772 -0.013141 0
-2.186048 4.046958 -0.078021 0
1.357060 1.929602 0.281912 0
1.721211 1.489052 0.318315 0
1.464727 5.533039 1.207069 0
1.655896 1.246534 0.645085 0
0.019478 4.762169 1.520145 0
-0.841507 2.906934 0.227046 0
0.031295 5.643729 1.433150 0
1.456612 3.525471 0.155442 0
1.504495 5.694196 0.510955 0
1.398957 4.456240 0.361435 0
1.406865 1.307276 -0.166170 0
0.396315 0.200968 -0.112105 0
-0.424422 1.278122 -0.057759 0
0.647210 3.748534 0.186458 0
0.077124 4.670763 0.269767 0
-4.028910 9.021928 0.324375 0
1.357470 2.264087 0.279266 0
-0.133927 0.715022 -0.116393 0
-2.207759 2.915475 -0.080375 0
-0.492449 1.216455 -0.105222 0
-0.115833 0.800259 -0.131716 0
1.470202 3.538409 0.282763 0
1.455079 1.080702 0.301672 0
1.406790 1.743868 0.015144 0
-0.369023 1.592911 -0.025318 0
-1.891168 2.199861 -0.440257 0
1.721020 1.795993 0.338799 0
1.735023 1.914339 0.439837 0
1.441155 1.395040 0.255106 0
1.342701 2.247993 0.280821 0
1.364446 2.186500 0.099327 0
-4.343545 6.401012 1.370101 0
-4.777330 6.862336 1.022552 0
1.825251 5.937000 1.401463 0
0.524292 2.977175 0.094295 0
1.838887 3.076033 1.049414 0
1.864293 2.420885 1.277259 0
1.409572 1.400548 0.071611 0
0.062737 3.431545 0.015868 0
1.430854 2.302755 0.472797 0
1.392902 1.902337 0.391621 0
1.752335 7.453928 1.265808 0
-0.859701 2.926722 0.234203 0
-0.735514 2.948320 0.110555 0
1.588591 4.764636 0.501834 0
1.342715 2.081450 0.229634 0
1.386452 1.298954 -0.044762 0
1.707788 1.805086 0.649087 0
1.454936 0.924926 -0.118506 0
1.836851 2.804347 0.899457 0
0.046670 0.814630 -0.129231 0
1.214562 1.308842 -0.310866 0
1.678219 4.618835 1.336746 0
0.250018 5.559965 1.419667 0
1.538103 4.198249 1.470832 0
-0.140446 3.774456 -0.009035 0
0.231670 3.453520 1.513304 0
1.848016 1.756335 1.083091 0
1.473819 5.259768 -0.243226 0
1.459011 3.809182 0.041896 0
1.846041 2.827700 0.741476 0
1.362361 1.863046 0.416950 0
1.502277 1.040672 0.306819 0
1.554040 5.531996 0.902724 0
1.415655 1.724760 0.198995 0
1.716069 1.798209 0.334893 0
1.421423 1.754096 0.227937 0
1.221128 1.337240 -0.040700 0
1.394711 2.253175 0.096852 0
1.785736 5.119835 0.621337 0
1.723403 2.048966 0.473102 0
1.861593 3.025515 0.906270 0
0.788072 0.507113 -0.100989 0
1.867323 3.579154 1.519736 0
2.102233 3.566532 1.474985 0
-0.841560 2.789118 0.150135 0
-0.861704 2.873876 0.114808 0
-0.016327 4.883833 0.115585 0
-0.145807 4.056938 0.067510 0
-0.190591 3.715071 -0.026936 0
1.446134 5.797771 -0.254278 0
1.496433 5.908471 0.126953 0
1.542593 5.814842 0.166694 0
1.482856 5.498127 0.758773 0
1.345675 1.854757 0.070888 0
1.630880 4.461700 -0.142331 0
1.466874 3.567474 0.039505 0
1.347825 2.380557 0.098789 0
1.685251 1.783974 0.642008 0
1.866562 3.183270 0.732593 0
-3.324574 2.976704 0.315040 0
1.883571 3.544304 0.550383 0
1.721159 2.272500 0.848126 0
0.174683 0.815399 -0.131104 0
0.383628 8.357474 1.345789 0
-3.009326 3.538258 1.505929 0
-2.571839 5.284244 -0.002503 0
-2.343972 2.631906 -0.188567 0
1.553038 3.637960 0.021033 0
-3.525554 3.545511 0.177057 0
1.485051 1.888824 0.443013 0
1.600379 6.059713 -0.120103 0
-2.144353 6.036839 -0.077106 0
1.172673 1.370303 -0.360289 0
-0.298145 0.985629 -0.119153 0
0.102660 0.851491 0.006059 0
0.678377 1.055595 -0.214971 0
-0.793135 0.557683 -0.163864 0
-0.388213 1.689629 -0.044511 0
0.229596 1.605050 -0.059259 0
-0.402622 0.184687 -0.112589 0
0.342935 1.283903 -0.155653 0
-0.285442 1.145880 -0.071497 0
0.028080 1.106566 -0.140227 0
-2.201511 2.096500 -0.857599 0
-1.909486 2.998610 -0.445139 0
-2.371388 3.749815 -0.088744 0
1.508884 4.110394 -0.546374 0
-2.688989 2.940109 0.522418 0
-4.136068 3.684463 0.384591 0
0.051934 3.714761 0.000274 0
1.473454 0.886450 0.130818 0
1.850396 2.401949 1.268388 0
-0.255913 3.808369 -0.118168 0
1.322226 0.918701 0.082740 0
-2.801319 3.320827 0.201619 0
-2.610681 3.403526 0.351438 0
-4.731663 6.874235 1.258853 0
0.630402 1.212469 -0.072259 0
0.257212 7.531980 1.339295 0
-0.284483 4.069935 0.213482 0
-3.025834 5.897882 1.487371 0
-4.353602 7.807659 0.367822 0
-2.191031 4.053673 -0.066684 0
-3.030528 3.016505 -0.174872 0
-3.849641 3.770386 -0.076405 0
1.489407 1.069305 0.356925 0
1.471311 5.510371 1.227371 0
-3.275506 3.181399 0.515974 0
1.343591 0.961164 0.220445 0
1.376858 2.052037 -0.104270 0
-0.004965 4.812692 0.105834 0
1.503067 5.103523 0.392075 0
-3.037615 5.147727 0.033586 0
-2.220272 4.098984 -0.065077 0
1.349605 1.900155 0.286306 0
1.798089 5.844266 1.377882 0
-0.287170 4.003883 0.206574 0
-4.188800 6.022861 0.355066 0
-2.782294 4.087756 0.244966 0
-2.713561 3.243306 -0.088967 0
1.587270 2.109837 0.502731 0
-3.042967 3.557150 1.519007 0
1.229828 1.325577 -0.316121 0
-2.917387 4.627301 1.465073 0
-3.138085 4.654486 1.460550 0
1.904359 1.561427 1.158880 0
-2.445279 4.107946 -0.189172 0
1.598349 4.816940 0.161325 0
-2.267752 5.037323 -0.205503 0
1.527918 3.973227 0.414821 0
1.508601 5.949256 0.926307 0
1.732215 1.908964 0.438334 0
-2.074759 2.698859 -0.463156 0
0.271411 6.870590 1.410066 0
1.409911 1.391004 -0.051346 0
1.673126 1.252090 0.656638 0
-2.901411 8.108320 1.405919 0
-2.989106 5.905116 1.476767 0
1.520697 5.837993 1.186869 0
-2.726527 5.217972 1.347969 0
-4.845627 8.377174 1.365086 0
-3.096830 4.695526 1.465335 0
-2.712825 7.292474 1.319158 0
-3.545785 6.939327 0.378473 0
1.487668 5.564609 0.575706 0
-3.403137 3.421714 -0.161225 0
-4.497219 9.749310 0.820956 0
-2.016059 3.381103 -0.075715 0
1.347374 5.683388 0.054232 0
-2.713056 3.201971 -0.055977 0
-4.426830 4.239670 -0.337331 0
1.384686 1.288163 -0.159413 0
-2.746006 7.354321 0.228248 0
1.499563 6.072844 0.882397 0
-3.229605 4.050428 0.449579 0
-0.830130 0.810768 0.102583 0
1.516619 5.671611 0.537155 0
-3.138699 4.690660 1.470346 0
-4.381697 8.322158 -0.078863 0
-2.950389 6.444792 0.126032 0
-2.712788 2.834797 -0.206097 0
1.340384 5.660745 0.065938 0
-2.825659 3.189624 0.073730 0
-2.673906 2.834992 -0.088960 0
-2.743556 3.260997 -0.077252 0
-2.306813 4.941608 -0.212962 0
-2.925092 3.352594 1.458547 0
1.479097 2.071846 0.489862 0
1.443134 0.965844 0.240643 0
1.200744 1.369840 -0.185205 0
-4.427845 6.454468 1.381801 0
-2.409026 3.213378 0.240552 0
-0.312415 0.512887 -0.131030 0
-0.185452 0.339176 -0.119191 0
0.026604 0.916804 -0.173966 0
-0.142049 0.804959 -0.044063 0
-2.969677 2.999788 -0.070114 0
-2.883425 2.974359 -0.250496 0
1.346187 1.013332 -0.134245 0
1.470609 0.931624 -0.079804 0
0.082818 0.417115 -0.129582 0
0.080594 0.410198 -0.123954 0
1.409120 0.984022 0.226618 0
0.102010 0.440955 -0.105596 0
-0.136297 0.415288 -0.105373 0
1.507851 0.590714 -0.307017 0
-2.240088 6.060720 -0.033843 0
-2.326831 4.293494 -0.071652 0
-2.138544 4.389569 -0.090406 0
-3.303603 6.571315 0.261233 0
1.290561 5.403869 -0.144922 0
-2.985600 2.968389 -0.195081 0
-2.378745 3.120441 0.332465 0
-3.728361 3.013245 0.095438 0
-2.705911 3.241785 -0.093749 0
0.039288 4.518673 0.268265 0
-3.068394 6.899932 1.408226 0
1.813888 2.398175 1.010162 0
-3.189910 4.714782 1.476332 0
-2.184326 3.999459 -0.099821 0
1.425942 2.007123 0.466121 0
-3.610296 2.760813 -0.132175 0
0.039853 1.499615 -0.068697 0
0.162944 2.038089 -0.182648 0
1.391394 1.316332 -0.038974 0
1.409807 1.309082 -0.165290 0
0.709651 0.969690 -0.087221 0
0.363269 1.322535 -0.078292 0
0.027134 1.097693 -0.137703 0
1.590742 0.848354 -0.312245 0
1.107887 1.280906 -0.126299 0
1.406252 1.056550 0.263341 0
1.481082 0.895088 0.130142 0
0.687436 1.043429 -0.100967 0
-0.306301 0.989407 -0.120857 0
-5.033063 6.105702 1.511827 0
-2.885142 2.953902 0.581321 0
-4.850539 6.923653 0.998677 0
-4.682426 6.739504 1.250140 0
1.702088 5.556496 1.326896 0
-36.613613 32.533211 0.075410 0
-2.167462 4.626334 -0.180484 0
-3.222100 3.250197 0.180241 0
1.754689 1.289908 0.567370 0
-2.651325 2.838255 -0.108179 0
1.746403 2.491454 0.831206 0
-0.203274 3.914779 -0.209627 0
-2.256129 4.027688 -0.347419 0
1.914261 5.597818 0.827816 0
-2.185780 4.341145 0.181360 0
-2.617254 4.373425 -0.057923 0
-0.200752 3.767820 -0.188147 0
-3.051263 3.045363 -0.154671 0
-3.071588 8.255008 0.253663 0
-2.486613 6.068353 0.023781 0
-2.113181 4.690619 -0.191566 0
-1.729468 4.836958 -0.127427 0
0.403715 1.277146 -0.106934 0
-2.883140 3.610452 0.395526 0
-2.205839 4.601084 -0.181892 0
-2.467036 3.326091 0.128893 0
1.380715 1.960288 -0.094119 0
-4.295149 9.620707 0.824031 0
1.477586 5.513903 1.247560 0
1.374195 5.742032 0.050279 0
-4.532938 8.119908 0.340466 0
1.461014 0.933188 -0.119047 0
-4.234516 6.091039 0.333200 0
-0.894930 3.009254 0.191560 0
1.413418 4.454751 0.366491 0
-3.066369 5.511939 0.397070 0
-3.325688 3.247835 0.005424 0
1.564011 2.182412 0.548699 0
1.461180 3.491648 0.070047 0
-2.406550 3.568800 -0.174382 0
-3.193123 3.107322 0.504063 0
-3.016389 3.076752 -0.074311 0
-2.414272 3.589280 -0.186909 0
1.440055 0.906894 -0.118635 0
-1.914091 2.015945 -0.527365 0
1.400913 1.388455 -0.050312 0
1.199819 1.381219 -0.352337 0
1.398124 1.090226 0.220965 0
-2.692092 7.319135 0.246735 0
-0.054022 3.867165 -0.178085 0
-0.267187 3.994834 -0.140203 0
1.591771 4.812327 0.502863 0
-2.070747 3.132171 -0.408720 0
-0.567015 2.945761 0.223937 0
-1.067353 4.187197 0.129589 0
1.552455 5.887210 0.170036 0
1.389789 1.779141 -0.042140 0
-2.139245 4.354645 -0.109507 0
-2.723416 3.204942 0.182977 0
1.432681 3.804853 0.121030 0
0.253047 0.326107 -0.119852 0
-2.518261 2.199863 -0.366477 0
-0.210567 6.208567 0.270337 0
-2.641755 3.951675 -0.221335 0
-3.019325 7.011695 1.423766 0
1.883553 7.974671 0.756702 0
0.318966 0.122557 -0.112942 0
-0.339912 3.796831 0.089811 0
1.624213 3.784036 0.687143 0
-2.854059 4.746176 0.236001 0
-0.190775 0.660934 -0.123813 0
1.507212 0.899458 0.272982 0
1.561037 0.771387 -0.273656 0
0.399421 1.209727 -0.090277 0
-0.185159 0.343475 -0.122117 0
0.407970 0.674038 -0.121914 0
-0.182312 0.344854 -0.123021 0
-0.248454 1.032577 0.047409 0
-0.451492 1.239580 -0.081908 0
0.096878 0.789548 -0.129357 0
-5.053174 4.511790 1.473866 0
-3.237567 3.263932 0.206012 0
1.460612 4.407686 -0.579266 0
1.850616 3.151739 0.893436 0
-2.321528 4.021694 -0.630992 0
1.705556 1.281883 0.589729 0
1.371185 1.998065 -0.230253 0
-0.482608 0.276794 -0.131058 0
1.442557 3.783943 0.046576 0
-0.303943 0.991719 -0.121136 0
-0.192838 0.860002 -0.109565 0
-0.090861 1.087615 -0.112494 0
0.404628 1.230689 -0.094252 0
0.747238 0.560882 -0.126442 0
-0.288982 4.116446 -0.151058 0
-4.463196 4.645794 1.410720 0
0.044886 2.991808 -0.144877 0
-0.053592 3.949901 -0.172760 0
0.054672 0.483556 -0.074583 0
1.353496 1.859545 -0.224362 0
1.734988 1.484961 0.301109 0
0.063256 3.071589 -0.254310 0
1.340086 2.071494 0.227419 0
-3.646406 2.789958 -0.319139 0
-0.080789 4.282107 -0.098712 0
-3.654070 2.783596 -2.372756 0
-0.139131 0.791386 -0.041936 0
0.305565 1.131731 -0.134537 0
1.377955 1.854203 0.117803 0
-0.302102 0.993309 -0.120779 0
-2.842622 3.210684 0.071310 0
-3.469720 2.540842 -0.213928 0
1.692758 1.787154 0.643311 0
-2.326355 5.008987 -0.219969 0
-2.641191 3.830362 -0.312714 0
1.565976 5.904408 -0.112907 0
-2.164821 4.210356 -0.007488 0
1.443897 4.625059 -0.375650 0
1.478962 4.118766 -0.569485 0
-4.102988 3.168777 0.283941 0
-4.038400 3.125408 0.279609 0
-5.085334 4.540040 1.479401 0
0.281473 7.963493 1.388923 0
-5.517356 4.180868 0.546925 0
1.353252 4.408936 -0.295297 0
1.556421 0.774985 -0.386888 0
0.233425 1.516073 0.036968 0
-0.003683 3.467399 1.520672 0
-0.117675 0.826615 -0.127912 0
-0.019033 0.658052 -0.126363 0
1.603332 0.791960 -0.346198 0
-9.351411 8.581558 -0.324766 0
1.395922 1.394196 0.069894 0
-0.055750 3.940307 -0.183971 0
-0.115173 1.968369 0.216632 0
-0.085509 1.057389 -0.050556 0
0.601287 0.933514 -0.199035 0
-0.212076 3.508610 -0.116382 0
-0.083975 1.064150 -0.048636 0
1.343565 2.021614 0.149996 0
-2.898659 4.558299 -0.104732 0
-0.250604 3.681613 -0.227326 0
1.480409 0.963679 -0.233220 0
-3.354548 3.675430 1.551266 0
-2.078295 4.073386 -0.163245 0
-3.043023 3.028507 -0.193115 0
-2.826097 5.784459 0.134314 0
-2.272828 2.902620 -0.101816 0
-2.192947 3.421720 -0.247541 0
1.567489 3.789365 0.042546 0
1.358106 1.892466 -0.029241 0
-2.354251 2.599913 -0.205287 0
1.334326 1.893923 0.115175 0
1.366744 2.021553 -0.105320 0
-1.880362 2.378718 -0.122789 0
0.397516 1.175807 -0.116801 0
0.087156 3.543030 -0.174638 0
1.440025 4.646686 -0.363931 0
0.483589 0.378235 -0.121927 0
2.321360 3.085362 1.233081 0
1.707824 1.534315 0.344151 0
1.579670 3.631779 1.511962 0
0.088074 3.728474 -0.165761 0
1.395451 2.287556 -0.072781 0
0.978235 4.754396 1.463151 0
-2.874712 2.825355 0.003338 0
1.546666 5.498857 0.899886 0
-2.718076 3.242203 0.206600 0
-0.146842 5.551848 0.107374 0
-1.013532 4.712703 0.019057 0
-1.992271 2.615738 -0.280528 0
-2.667719 3.131235 -0.133161 0
-2.244984 4.679181 -0.193817 0
-2.746177 3.762465 0.203747 0
1.579492 0.914040 -0.249902 0
-2.977323 3.090368 0.564652 0
-0.232842 0.949441 -0.143884 0
-0.135205 0.902705 -0.076943 0
0.289379 1.382249 -0.087746 0
-0.104228 0.861939 -0.130413 0
1.453630 1.064294 0.337540 0
0.288502 1.382048 -0.085771 0
-0.442394 1.231824 -0.090968 0
-0.153680 2.960003 -0.133122 0
-4.784395 4.323795 1.445675 0
-4.717756 6.773308 0.990511 0
0.246876 6.866149 1.398014 0
-2.532793 5.633812 0.151898 0
0.707441 0.862489 -0.242550 0
-0.666876 0.672425 -0.211945 0
0.049800 0.881034 0.005325 0
0.494456 0.436796 -0.125039 0
-0.167702 0.691949 -0.125728 0
-0.037920 1.060313 -0.067650 0
0.105964 0.678651 -0.127571 0
-3.045585 3.140303 0.577416 0
-0.825447 0.570882 -0.175811 0
0.679417 1.058804 -0.218676 0
-0.823872 0.462736 -0.171426 0
-0.099020 0.940245 -0.134062 0
-0.358330 4.143076 0.066023 0
-3.257329 3.151525 0.512694 0
-4.470910 3.966521 0.264024 0
-1.868690 2.733469 -0.401908 0
-3.922500 2.990005 0.134185 0
-0.008274 0.640711 -0.128143 0
-4.839900 3.834122 -0.244727 0
-3.674975 2.968918 0.101819 0
-3.067518 6.966627 1.416028 0
0.511600 2.688886 -0.099435 0
0.713194 3.984102 0.052966 0
1.911723 3.217497 1.077718 0
1.417174 1.737840 0.224148 0
1.638082 4.377923 0.066815 0
0.051381 6.971540 1.422657 0
1.516162 6.175632 0.856359 0
-3.482416 5.226067 0.278576 0
1.330296 1.851093 -0.203326 0
0.774644 1.580766 -0.251382 0
1.522701 4.722462 -0.573539 0
0.047968 0.393897 -0.132609 0
0.053227 0.389961 -0.131116 0
-0.807364 0.567469 -0.171058 0
1.453595 3.548110 0.208321 0
-1.799866 4.767990 0.069052 0
-0.101934 0.116784 -0.081509 0
-0.130192 0.149877 -0.117936 0
0.175848 0.611678 -0.127764 0
-0.175818 0.191882 -0.128740 0
-0.122766 0.797559 -0.066785 0
1.523007 0.697113 -0.501274 0
1.460940 0.780768 -0.087352 0
0.078586 1.822270 -0.016861 0
1.572108 0.813655 -0.419802 0
1.606060 4.616381 0.567281 0
-0.161328 0.556759 -0.129945 0
-0.401306 0.190827 -0.115915 0
-3.332799 6.523338 0.298417 0
-0.135568 0.420446 -0.108737 0
1.392981 2.140654 0.368898 0
0.345793 0.314927 -0.119717 0
-0.223465 0.765774 -0.120633 0
-2.052565 2.372052 -0.503310 0
1.464571 0.954683 0.201837 0
1.738512 1.641398 0.669345 0
-0.187799 0.693119 -0.118537 0
1.486545 0.948280 -0.089427 0
-2.154625 3.207379 -0.191471 0
1.351364 1.878966 -0.030124 0
-0.016148 4.665336 0.105489 0
-2.173797 2.302575 -0.664125 0
1.487793 5.470379 0.875254 0
-2.250479 5.483047 -0.173781 0
-2.061691 3.119642 -0.404328 0
1.441021 3.834249 0.132113 0
1.363468 1.931087 0.107695 0
-0.128482 0.212977 -0.114648 0
-2.167190 3.307078 -0.005238 0
-0.394390 0.315404 -0.097127 0
1.555656 4.246999 0.504716 0
-2.182089 2.198122 -0.364601 0
0.080767 3.039101 -0.183258 0
1.854574 2.823319 0.907528 0
1.389785 1.045299 0.269704 0
-0.329843 3.981948 0.217372 0
-4.659786 7.469281 0.557924 0
1.835378 2.825028 0.898732 0
1.510790 0.904836 0.269575 0
-1.833217 2.127830 -0.444202 0
-2.086673 5.084817 -0.182712 0
-2.057037 5.747312 -0.207720 0
1.892370 1.644013 1.147253 0
1.552216 3.688785 0.513628 0
-0.485071 0.279958 -0.131230 0
-2.400460 2.091456 -0.614214 0
0.543644 2.903775 -0.152218 0
0.376311 8.715059 1.117563 0
-0.314485 3.924166 0.077689 0
-4.235705 8.559882 0.759257 0
-4.773321 3.697923 1.433704 0
1.435433 4.662235 -0.349380 0
-2.287686 1.869188 -0.647237 0
0.663855 3.762941 0.195972 0
-2.597912 2.070300 -0.756333 0
-3.221460 2.617908 -0.865383 0
1.755811 2.789067 0.714476 0
-3.111698 5.272932 0.038928 0
1.893838 3.631737 1.423498 0
1.409390 5.342253 0.079978 0
-3.035964 3.112182 0.584978 0
0.683900 1.543836 -0.210950 0
-1.971130 5.026383 -0.341273 0
-0.059488 0.505313 -0.133141 0
-0.126870 0.213408 -0.122280 0
-3.249513 3.197047 -0.065003 0
-2.186054 2.065415 -0.874229 0
-2.138625 2.029136 -0.840072 0
-0.399836 0.321510 -0.103406 0
0.226530 1.524858 0.043516 0
-0.440439 0.404693 -0.130241 0
1.617609 0.727389 -0.328024 0
1.457344 4.578854 0.384111 0
-0.102109 1.050822 -0.060480 0
-2.252047 2.556145 -1.488844 0
-0.078364 0.429271 -0.110797 0
1.698246 5.364656 0.844826 0
0.242254 4.582016 1.470827 0
1.515326 3.766531 -0.060992 0
-4.803400 6.060083 1.030366 0
-0.866057 2.948194 0.234231 0
-1.616097 1.641549 -0.530787 0
-0.097347 0.940050 -0.134316 0
1.225880 1.343431 -0.039066 0
1.566465 0.921820 -0.336045 0
0.219329 6.456409 1.283901 0
-2.953407 2.475215 -0.794146 0
1.339830 2.000316 0.150192 0
-0.216275 3.507237 -0.210251 0
-0.162693 0.731351 -0.115104 0
-5.075670 4.569699 1.560641 0
-2.887946 2.927632 0.552497 0
-5.137196 7.478591 0.681548 0
1.580615 0.925815 -0.281793 0
-3.391964 2.475334 -0.194277 0
0.383098 1.179802 -0.135505 0
-1.900877 2.857375 -0.417939 0
1.591186 0.762986 -0.400724 0
0.804861 4.425683 -0.034175 0
-0.866955 0.499376 -0.203761 0
1.383220 2.086921 -0.233736 0
-0.189656 0.751774 -0.132323 0
1.332356 1.256679 -0.470568 0
0.636553 3.324758 -0.156173 0
1.569564 3.829522 0.667428 0
-0.334512 1.105374 -0.090398 0
-0.016548 3.921021 0.031970 0
-0.244400 4.289133 -0.021636 0
0.060952 2.994651 -0.138069 0
-1.791435 2.232411 -0.864040 0
-1.803035 2.850266 -0.405924 0
1.902872 7.487315 -0.343945 0
-2.946472 3.642663 0.373729 0
-1.577277 6.308341 1.456612 0
-2.340168 3.142587 0.112315 0
0.413507 1.214188 -0.124218 0
1.571316 0.815105 -0.417413 0
-5.392547 6.649265 1.584300 0
1.463936 0.822920 0.099014 0
-0.214268 0.722049 -0.103924 0
-0.062601 0.503714 -0.126214 0
-3.200064 3.197254 0.248043 0
-1.820114 2.798558 -0.402567 0
0.336731 1.425029 -0.165910 0
0.248118 1.658844 0.017073 0
1.491311 0.363514 -0.534406 0
1.499743 0.367548 -0.538540 0
1.500417 0.368467 -0.537016 0
1.531882 0.276020 -0.566842 0
1.524219 0.451398 -0.435875 0
0.921856 4.491186 -0.313715 0
0.641082 0.975112 -0.222165 0
-2.001487 5.111145 -0.344586 0
1.418655 0.967572 0.122092 0
-4.706825 6.124443 1.026547 0
-0.266697 1.113713 -0.067297 0
-1.974570 2.788509 -0.457533 0
-0.120637 0.731719 -0.137156 0
1.575494 0.884069 -0.253486 0
1.682764 5.406653 0.936966 0
1.252055 1.277981 -0.315485 0
-0.060838 3.692311 -0.195057 0
-2.105090 3.368921 -0.176036 0
1.539274 0.900253 -0.325005 0
0.664619 3.346489 -0.193519 0
-0.167114 3.590602 -0.195767 0
0.069164 3.008491 -0.245654 0
0.049254 0.826502 -0.133972 0
-2.106560 1.887947 0.007593 0
-4.427876 6.371336 0.788104 0
0.110817 0.726747 -0.145114 0
-2.196350 5.405250 0.043994 0
1.550989 3.886157 1.305947 0
1.496719 0.884340 -0.080667 0
-4.510925 4.034220 1.112442 0
1.551170 3.900623 -0.051595 0
1.357931 2.181712 0.145976 0
-2.482464 2.273832 -0.033240 0
0.483708 0.914944 -0.128229 0
-0.822200 0.573906 -0.176590 0
1.611821 0.905459 0.340223 0
1.479629 0.582942 -0.062783 0
1.504133 0.465106 -0.278001 0
2.351840 1.147933 0.478480 0
1.513211 0.460835 -0.135900 0
1.541525 0.628250 -0.310078 0
1.440267 0.516186 0.033287 0
1.407450 0.739225 0.099751 0
0.663736 1.041745 -0.207010 0
-1.885822 2.163662 -0.477289 0
-0.140678 1.026015 -0.109458 0
-6.970336 10.109178 0.733424 0
-5.387793 5.688678 1.541350 0
0.338978 1.276283 -0.109040 0
0.278696 1.268777 -0.067045 0
-0.152537 0.824552 -0.056965 0
0.030773 0.973282 -0.035722 0
0.046658 0.924570 -0.001485 0
-0.481652 1.191444 -0.095670 0
0.046343 0.935028 -0.003299 0
-0.104375 1.036708 -0.056743 0
1.472330 0.987198 0.248370 0
-4.549871 5.932297 1.367947 0
1.576292 2.119206 0.508485 0
1.451750 5.452238 0.105452 0
-4.797521 6.892031 1.045393 0
0.244666 4.575602 1.471434 0
-2.547270 1.831663 -0.692221 0
-0.122522 0.186124 -0.116366 0
-3.276663 3.321610 0.606144 0
-3.521230 2.819586 0.115877 0
-5.758676 5.546950 -0.154823 0
0.157857 5.903832 1.132838 0
-2.620275 6.479397 0.136096 0
-2.038063 2.649658 -0.452407 0
-5.034698 4.501508 1.402513 0
-0.142071 0.941180 -0.113686 0
-0.015215 1.148109 -0.066703 0
0.399536 1.501029 -0.095873 0
-3.877513 3.114520 0.252214 0
-0.219395 0.731550 -0.107950 0
1.558193 0.913800 -0.389990 0
0.403819 1.220909 -0.094873 0
0.033674 0.393478 -0.122113 0
0.383948 1.499360 -0.108342 0
0.484576 1.044673 -0.131253 0
-0.169924 0.199574 -0.150968 0
0.062344 0.487013 -0.133923 0
0.136282 0.489908 -0.123270 0
0.014471 0.380642 -0.124158 0
-0.465245 0.356145 -0.137210 0
0.055145 2.077544 -0.939787 0
-3.826631 6.875863 0.451065 0
-0.295403 1.524195 0.078174 0
1.351533 0.873092 -0.175100 0
0.258462 1.221638 -0.140984 0
-0.067767 0.340786 -0.116807 0
0.587688 1.194244 -0.175961 0
-0.189684 0.881851 -0.098499 0
1.215507 1.317562 -0.331676 0
-2.859175 3.021895 -0.226919 0
0.032543 0.353284 -0.115273 0
1.307333 3.662565 -0.520099 0
-0.163626 2.457799 0.148240 0
-3.153626 3.215273 0.594417 0
-2.693458 3.070579 0.508597 0
0.206753 0.350778 -0.112515 0
0.128542 3.785728 0.094819 0
0.218095 0.369078 -0.123992 0
-0.068939 0.421867 -0.112640 0
-3.082626 3.120749 0.178760 0
-0.101583 1.420847 -0.052644 0
-0.177130 1.850464 -0.144989 0
0.232433 1.585277 -0.056940 0
0.253632 1.667723 0.014845 0
0.611007 0.540767 -0.203650 0
1.831477 3.063806 1.058006 0
0.231243 0.142077 -0.103482 0
-4.048458 3.124940 0.275480 0
-0.294168 1.568793 -0.052303 0
0.318994 0.123248 -0.112724 0
-0.359105 0.704409 -0.128174 0
-2.596688 4.312886 -0.080210 0
-3.266946 7.481303 1.511550 0
0.298777 0.161009 -0.096016 0
-3.546892 2.471324 0.209001 0
2.122009 1.624477 0.266885 0
1.348294 1.872993 -0.214463 0
-2.324402 2.939366 -0.101370 0
1.363571 1.997374 -0.222921 0
-2.411887 2.575881 -0.868286 0
0.064432 0.519074 -0.147016 0
0.353788 0.247666 -0.117138 0
1.391008 2.055458 -0.220158 0
-2.667600 6.670641 0.126001 0
-4.641231 4.110246 0.250134 0
-4.270630 3.263127 0.270375 0
-4.631146 6.731096 1.429140 0
1.875485 2.744019 1.071323 0
-2.695922 7.424092 -1.160387 0
1.202518 1.802724 -0.169634 0
-0.764726 0.693830 -0.162636 0
-2.239918 4.033720 -0.355278 0
-0.272936 1.169826 -0.086828 0
-0.100037 0.713700 -0.114209 0
-2.203929 4.803456 -0.903626 0
1.405464 2.481112 -0.059468 0
-2.173742 3.118659 -0.839334 0
-0.162604 0.344350 -0.108875 0
-2.560266 2.554862 -0.438310 0
-1.796884 4.742435 -0.541056 0
1.482185 0.667306 0.132624 0
1.470339 0.593688 0.219860 0
1.522663 0.465302 -0.134912 0
1.481882 0.665099 0.133211 0
1.421481 0.669719 0.270845 0
1.526866 0.465621 -0.271712 0
1.767420 1.013023 0.930673 0
1.472066 0.599536 0.064645 0
1.451973 0.590157 0.072424 0
1.477107 0.383416 -0.312679 0
1.516719 0.467707 -0.132439 0
0.195149 0.527226 -0.123494 0
-0.079732 0.413692 -0.101461 0
0.262597 1.310590 -0.109515 0
-0.165253 0.753183 -0.094628 0
-1.035258 1.988747 -1.150239 0
-2.289515 2.911228 -0.074662 0
-3.171615 2.969838 -0.060154 0
0.036277 5.680996 1.450360 0
1.581483 5.967370 0.542868 0
1.518827 3.539615 0.216058 0
-0.125880 0.800116 0.270790 0
-0.345580 1.770423 -0.029671 0
1.734514 1.867958 0.407998 0
1.857797 2.890945 0.183449 0
-0.114116 0.810204 -0.129565 0
-0.336401 1.075603 -0.025758 0
-0.314215 1.014475 -0.020341 0
-0.168350 0.145601 -0.108442 0
-0.270491 0.136925 -0.103297 0
-0.163899 0.173983 -0.107476 0
-0.240503 0.148545 -0.117562 0
-0.697824 3.242502 0.057702 0
-4.756535 4.235365 0.835653 0
-0.100546 0.116263 -0.079091 0
0.046473 0.361587 -0.118860 0
1.483571 4.512721 -0.612146 0
1.376143 1.032386 0.286193 0
-3.045675 3.035564 0.239781 0
0.612069 0.532487 -0.191671 0
-4.764660 8.557246 1.348205 0
-0.780789 3.163581 -0.101544 0
-0.021854 0.915439 -0.056814 0
-0.339678 1.384751 0.022355 0
-1.434250 0.600220 -0.645947 0
-1.483890 0.623822 -0.681732 0
1.713441 1.503075 0.664777 0
1.183526 1.430585 -0.070768 0
-2.300443 8.526597 -0.107765 0
1.388857 1.382512 -0.045372 0
0.056359 0.508257 -0.122683 0
-0.591121 1.465493 -0.251817 0
-0.106283 0.866213 -0.116415 0
-0.364444 0.483441 -0.127095 0
-2.834210 4.909847 0.016819 0
0.035085 0.396141 -0.123598 0
-0.152408 0.334224 -0.106144 0
-3.948667 2.966174 0.233909 0
-0.078343 3.416196 0.049072 0
1.324388 2.246656 -0.276235 0
-0.704722 0.720250 -0.252334 0
1.494876 1.441133 0.252328 0
1.414704 2.275025 0.374970 0
-1.979723 2.500784 -0.144245 0
-0.482557 1.223993 -0.096037 0
1.433966 0.207347 -0.600644 0
1.516698 0.604333 -0.336973 0
0.016219 1.246380 -0.146588 0
-3.003096 4.103087 0.209874 0
-1.863423 2.538492 -0.833108 0
0.542807 2.949190 -0.168265 0
-2.240800 4.942834 -0.928436 0
1.603728 3.645683 -0.843944 0
-1.877221 2.283599 -0.684465 0
-0.780701 3.767237 0.228840 0
-0.395143 1.709627 -0.080081 0
-0.205308 1.117820 -0.042335 0
-0.219216 1.126632 -0.005326 0
-0.405859 1.310323 -0.018184 0
-0.467070 4.166845 -0.160327 0
0.234410 0.283689 -0.094618 0
-0.451379 1.198806 -0.075695 0
-1.739182 2.179469 -0.824204 0
0.401093 0.199858 -0.116422 0
-0.196936 0.676876 -0.119758 0
0.446423 0.254221 -0.117812 0
1.450105 3.759102 0.170802 0
1.632080 1.106376 0.316627 0
-1.869182 2.545466 -0.839644 0
-0.966659 2.975174 0.024656 0
0.351954 0.041287 -0.114015 0
-4.186901 3.223721 0.299409 0
-4.849752 3.755119 1.457474 0
-0.584751 3.911957 -0.080743 0
-4.288180 3.826409 0.286055 0
1.500772 5.035538 -0.194539 0
1.606917 4.400001 -0.136032 0
-5.176208 4.613612 1.440094 0
0.212953 0.362676 -0.118061 0
0.196670 0.528012 -0.125694 0
0.214267 0.364153 -0.119516 0
0.689033 1.050025 -0.101050 0
-1.235573 4.800668 0.123789 0
2.267256 9.921301 1.162860 0
-3.160218 5.840322 1.451526 0
-1.187704 4.839142 -0.036840 0
1.525017 0.717744 -0.362008 0
-2.742359 3.134253 0.517175 0
1.620845 0.733219 -0.328419 0
1.498999 0.589688 -0.305963 0
-0.749634 0.690337 -0.157220 0
-0.695263 1.450713 -0.135444 0
-2.276327 5.020428 -0.948623 0
1.669246 4.609175 -0.811651 0
0.106313 0.461824 -0.064054 0
-0.345525 1.048823 -0.100017 0
0.111110 0.466028 -0.069330 0
-2.361319 7.512085 -0.934313 0
-0.339445 4.037729 0.073176 0
1.556584 4.216241 0.090849 0
-0.385187 1.152763 -0.001336 0
0.108467 0.461910 -0.065357 0
-0.412245 1.302916 -0.040611 0
-0.007401 0.956937 -0.132593 0
-0.175709 0.971107 -0.070034 0
-0.683749 3.318833 0.214169 0
1.373464 1.323870 0.259590 0
-3.093735 3.221044 0.228316 0
-2.593293 7.256746 -1.256871 0
-2.464474 4.870230 -0.946560 0
1.376089 1.033482 0.262157 0
-0.690631 1.449371 -0.137527 0
-3.006412 5.012859 0.231523 0
1.362054 2.013491 -0.103387 0
-2.068385 3.513286 -0.514256 0
-4.382669 9.792993 0.834310 0
-0.353856 1.469911 -0.011966 0
0.796346 1.623134 -0.255339 0
-2.237422 2.674519 -0.909104 0
1.463090 2.466698 -0.328986 0
-1.831419 2.333094 -0.875317 0
-0.730602 3.500029 0.228906 0
-0.854187 3.496835 -0.144479 0
1.397852 1.052460 -0.214332 0
1.360459 1.032468 -0.054174 0
1.444874 2.448310 -0.340946 0
-2.870113 4.793330 -0.088169 0
-2.262540 4.842268 -0.175737 0
-2.269022 3.101406 -0.908164 0
-1.794831 2.288704 -0.851321 0
0.221579 0.370239 -0.125884 0
0.048502 0.794678 -0.126328 0
1.357244 2.240913 -0.236538 0
-2.116962 6.075870 -0.161405 0
-2.622460 3.901264 -0.190960 0
-1.077793 6.266332 1.438360 0
-4.395109 8.913748 0.789485 0
-0.845850 2.959657 0.222166 0
-1.090857 6.391041 1.464207 0
-0.096299 0.989786 -0.074594 0
-0.764257 0.424673 -0.134656 0
-0.706264 0.263082 -0.257030 0
-0.361459 1.140289 -0.136923 0
0.249714 0.155046 -0.119688 0
-0.699820 0.260511 -0.253589 0
-0.221708 1.143743 -0.055939 0
-0.213033 0.894441 -0.119890 0
-0.193824 0.886483 -0.117240 0
-1.980584 2.678780 -0.803944 0
-2.946018 3.410442 1.469586 0
1.726151 1.907820 0.373108 0
0.019694 0.618821 -0.161459 0
1.614432 2.302631 0.554243 0
1.186496 0.891079 -0.216676 0
0.103339 0.441246 -0.073404 0
-0.308464 4.201640 0.212845 0
1.506453 6.126664 0.848349 0
-5.040855 11.229559 0.297220 0
-2.231118 2.257432 -0.377117 0
-2.787168 3.129132 0.068177 0
-0.181522 1.063726 -0.222260 0
-0.961232 1.098058 -0.544511 0
-3.009595 2.920451 -1.925931 0
-2.961828 3.333636 0.230831 0
0.193840 0.393730 -0.121511 0
0.606297 3.066845 -0.429834 0
-0.280832 1.438377 -0.013685 0
47.173668 35.998951 -1.374593 0
1.602367 8.694509 1.401611 0
-4.609665 6.119581 1.175446 0
1.414119 1.324831 0.073288 0
-0.810130 1.697992 -0.176385 0
-0.185956 0.248811 -0.168686 0
-3.029310 2.721025 -1.209914 0
-0.125954 0.183786 -0.105641 0
0.097641 0.417298 -0.169396 0
-0.225975 0.270955 -0.207885 0
0.677557 1.065552 -0.220049 0
-2.104717 3.071328 -0.785580 0
-1.756154 6.556366 -0.040693 0
1.437048 0.213003 -0.512706 0
1.483909 0.218136 -0.533779 0
1.679166 1.440813 0.294335 0
-0.091760 0.988324 -0.125809 0
0.415257 1.624033 -0.144588 0
0.101863 0.446336 -0.113502 0
0.077613 0.396066 -0.117107 0
-0.073128 0.431818 -0.115320 0
2.114357 3.870900 1.009767 0
-2.783441 3.076874 0.221140 0
1.890241 3.230166 0.746392 0
-2.914449 2.991422 0.584082 0
-2.256150 2.831806 -0.851316 0
-0.270611 1.208100 -0.063681 0
-4.678884 6.724390 1.013176 0
-4.500256 6.472072 0.808108 0
1.904274 8.280428 0.953167 0
-3.814609 3.885921 -0.115500 0
-0.711533 3.359848 0.201127 0
-3.078162 5.199270 0.023816 0
-0.363725 1.183976 -0.096579 0
-0.197637 0.666845 -0.080822 0
-0.251279 1.289052 -0.009125 0
-1.797231 2.243536 -0.870309 0
-2.810585 2.997226 -0.908331 0
-2.390249 3.137569 0.332379 0
-2.380645 3.027974 -0.122789 0
1.616174 3.741818 0.737644 0
-2.271519 2.853577 -0.795746 0
1.576018 0.789958 -0.221932 0
0.061513 0.487276 -0.132617 0
-2.794542 3.427805 0.355328 0
-3.054404 3.118900 0.535049 0
0.169993 0.860441 0.003703 0
0.103502 0.887299 0.003142 0
0.700444 4.493670 -0.328911 0
-0.379769 1.216623 -0.008296 0
-0.308283 0.986441 -0.114333 0
0.557033 0.815985 -0.163772 0
1.887935 3.150170 1.109539 0
1.566868 3.980909 0.426900 0
-1.231068 4.084657 0.146330 0
-0.142780 0.186863 -0.109935 0
-0.222402 0.907737 -0.127377 0
-0.158859 0.129704 -0.114932 0
-0.167458 0.354735 -0.118268 0
1.449861 1.091509 0.266277 0
1.536747 0.625382 -0.305087 0
1.488768 0.575406 -0.305984 0
0.062073 0.334675 -0.122303 0
0.141240 0.580475 0.041306 0
0.785144 1.102076 -0.123794 0
0.044815 4.474958 0.268906 0
1.477754 0.589633 -0.070907 0
1.507013 0.464503 -0.130652 0
1.320513 0.064431 -0.572537 0
1.496127 0.387601 -0.161664 0
1.464772 1.398254 0.259543 0
1.701781 2.166592 0.524006 0
-2.705210 3.244756 0.207052 0
1.411548 1.739230 0.022353 0
-0.038046 1.056766 -0.118790 0
1.525798 0.450377 -0.431797 0
-2.208724 4.361807 -0.828273 0
-4.864468 6.149201 1.039468 0
0.402800 0.202924 -0.114226 0
1.459804 0.953092 0.197887 0
-0.065932 0.501382 -0.126239 0
-0.057733 0.998152 0.009664 0
0.055708 0.527556 -0.128371 0
0.046794 0.359788 -0.118935 0
1.353204 2.260173 0.103686 0
0.350574 0.040892 -0.112679 0
1.346681 1.879435 0.063162 0
-2.358007 2.685839 -0.070193 0
-0.411848 0.191731 -0.126830 0
-0.655882 1.511453 -0.261858 0
-0.282734 1.133667 -0.067890 0
1.355470 1.278470 -0.504703 0
-1.949175 2.754016 -0.445854 0
1.521467 2.232639 0.502328 0
0.423051 2.790004 0.116887 0
-1.774539 2.203991 -0.861825 0
-2.096785 2.196114 -0.464191 0
1.546430 3.634660 -0.068395 0
1.482180 0.888361 0.272447 0
-0.009669 0.958619 -0.130405 0
-0.118481 0.789001 0.267053 0
1.504085 5.629742 0.166500 0
1.850676 2.403669 1.266146 0
-7.030096 6.454824 0.600432 0
-3.056902 4.533003 -0.107532 0
-2.333486 4.177825 0.046386 0
-0.065820 0.501126 -0.126069 0
-0.066358 0.502986 -0.127335 0
0.389119 1.459731 -0.086271 0
-2.008267 2.039361 -0.590201 0
-2.351966 2.970259 -0.826189 0
-0.084734 0.217548 -0.047529 0
-0.124221 0.297869 -0.104525 0
-0.163373 0.223636 -0.120231 0
-0.125244 0.203958 -0.106132 0
-0.127539 0.153754 -0.102418 0
-0.096529 0.179578 -0.075733 0
0.104968 0.406712 -0.084526 0
-0.133371 0.191337 -0.113207 0
0.056347 2.882015 -0.166968 0
-3.444566 4.304161 0.452328 0
1.514461 1.060636 0.317937 0
-4.687033 6.850031 1.264244 0
1.462878 4.336604 -0.904386 0
1.457741 4.324848 -0.902706 0
-1.764295 4.835465 -0.764292 0
-1.851324 8.509037 0.981839 0
1.203576 0.706123 -0.327685 0
0.269279 3.135955 0.190643 0
1.805354 7.768624 0.733580 0
1.618051 3.686842 -0.845656 0
0.534871 1.084483 -0.153311 0
1.638780 1.426582 0.638893 0
0.059461 0.478243 -0.066814 0
0.053802 0.478816 -0.103065 0
-0.174548 0.361635 -0.102913 0
-0.247807 0.185858 -0.122696 0
-2.433751 4.361188 0.031936 0
-0.153669 0.320756 -0.062381 0
-0.419675 1.218423 -0.050846 0
-0.135377 0.417166 -0.107084 0
0.102208 0.456345 -0.118156 0
1.559964 0.635944 -0.394427 0
-0.067897 0.524323 -0.139283 0
1.405101 1.713815 -0.514845 0
0.056354 0.469028 -0.062820 0
-0.092524 0.668925 -0.128017 0
1.363376 1.506812 -0.065234 0
1.006605 2.742784 -0.454286 0
-2.801780 2.855330 0.538981 0
-1.901211 2.509838 -0.259257 0
0.082722 3.025913 -0.127421 0
-2.020249 2.139137 -0.536584 0
-2.846718 8.055813 0.052343 0
-0.812041 0.566366 -0.166162 0
-0.101191 0.692697 -0.111411 0
-0.102943 0.712941 -0.120581 0
1.366002 1.284967 -0.038361 0
-1.977169 2.687980 -0.292348 0
-0.074401 0.413173 -0.097337 0
0.048894 0.475679 -0.096917 0
0.239451 1.096568 -0.076024 0
-0.415242 1.761074 -0.072553 0
1.431039 5.750967 0.417336 0
0.108439 0.448651 -0.095154 0
-0.189333 0.856893 -0.103240 0
-4.368107 9.415286 -1.924273 0
1.342155 2.367385 0.098787 0
1.352027 0.736288 0.291456 0
1.509873 0.463470 -0.283685 0
1.466808 0.657210 0.133118 0
1.620259 0.906031 0.308401 0
1.478882 0.661957 0.133301 0
1.384949 1.012727 0.222812 0
-0.138721 0.793841 -0.040573 0
1.667073 7.023641 1.206903 0
-4.147740 6.420708 -2.834995 0
-0.107292 0.884828 -0.135204 0
-1.966225 2.481716 -0.139827 0
-2.488342 2.716110 -0.070118 0
-1.901979 10.851823 -0.950836 0
1.398636 1.318838 -0.043968 0
-0.130932 0.214400 -0.118438 0
0.170012 0.962323 -0.198942 0
-0.902482 1.994649 -0.326892 0
-0.076279 1.192195 0.256042 0
1.650903 2.012597 0.470369 0
-0.131906 0.149426 -0.120260 0
1.533090 0.696971 -0.512934 0
1.398958 1.734670 0.225739 0
1.335005 0.400081 -0.393281 0
-2.469185 3.565335 -0.287966 0
-0.119811 0.787482 0.267460 0
-4.736576 8.507689 1.205635 0
1.310883 2.234746 -0.262160 0
-0.070764 0.224221 -0.117770 0
1.584984 0.730005 -0.541613 0
-0.100958 0.308730 -0.125251 0
1.579211 0.576905 -0.593678 0
-4.642435 3.036093 -0.583215 0
-0.280861 0.140885 -0.117427 0
-0.168623 0.361454 -0.094935 0
-0.013306 0.421881 -0.132686 0
-0.174256 0.366744 -0.105597 0
-0.161463 0.932856 -0.068847 0
-0.160811 0.682313 -0.118895 0
-0.068213 0.413612 -0.100878 0
-2.187301 3.385378 -0.532491 0
1.718191 1.483541 0.325009 0
-2.243551 4.830328 -0.240564 0
-2.095222 2.195426 -0.460908 0
1.540654 4.210143 1.474509 0
0.113956 0.703792 -0.134256 0
-0.014316 0.410078 -0.123704 0
1.488789 0.876304 -0.075247 0
-2.090462 4.092329 -0.141566 0
-0.174296 0.363290 -0.104869 0
-2.752639 3.062207 -0.261940 0
1.500728 5.335936 -0.245493 0
-3.260551 2.994432 -0.073294 0
0.146174 4.108369 0.217198 0
-2.729988 2.855311 -0.196740 0
-0.470257 0.449768 -0.096996 0
-0.601742 0.621375 -0.215793 0
-2.903608 5.213819 0.358220 0
1.742557 1.108604 0.300352 0
1.459012 0.816537 0.097444 0
0.064982 8.064473 1.408155 0
1.715148 1.258762 0.361512 0
1.566323 0.789077 -0.215970 0
0.121827 1.008578 0.003715 0
1.490628 0.984341 0.240026 0
1.513162 0.507565 -0.336714 0
-2.159655 1.678198 -1.327133 0
1.584909 0.733869 -0.380539 0
-0.143992 0.305787 -0.083871 0
0.185837 1.212392 -0.005443 0
-0.087094 1.067774 -0.051954 0
1.426962 0.213591 -0.674454 0
-0.015717 0.414631 -0.125913 0
-0.098470 1.078742 -0.107892 0
0.135031 0.490456 -0.123097 0
1.551154 -0.078774 -0.810583 0
0.274975 1.039343 -0.090909 0
1.796670 1.990721 0.451208 0
-0.014068 0.417045 -0.129127 0
-0.004353 0.182117 0.027206 0
0.093181 0.400090 -0.163233 0
-0.073154 0.361167 -0.134698 0
-1.888714 1.850847 -1.204059 0
0.094470 0.405789 -0.165584 0
-2.535976 4.193272 -0.078211 0
0.332472 0.214051 -0.116365 0
0.043292 6.036609 1.562383 0
0.064090 0.120487 -0.003861 0
-0.635043 1.765222 -0.386834 0
-2.125399 1.644527 -0.182835 0
-0.178765 0.146991 -0.155307 0
-0.625497 0.538957 0.048822 0
0.208594 0.567472 -0.139476 0
0.031596 5.738431 1.472788 0
-0.901615 3.312494 0.234207 0
-0.073917 0.978404 -0.040115 0
-0.586234 2.233418 0.166624 0
1.342272 1.927264 0.276701 0
1.550355 3.620224 0.032032 0
0.468684 0.347387 -0.116884 0
-2.867095 3.233999 -0.115458 0
-3.457463 3.434891 0.077015 0
1.359983 1.846701 0.114165 0
0.068167 0.330849 -0.086971 0
0.274796 0.355202 -0.136712 0
-0.144573 0.121446 -0.102346 0
0.260478 0.335029 -0.125671 0
-0.089393 0.451311 -0.117728 0
-0.661795 2.259071 -1.190609 0
0.051925 0.235168 -0.065816 0
0.117180 4.355369 0.273498 0
0.056957 0.277263 -0.090246 0
-0.176668 0.307578 -0.156912 0
0.062674 0.332066 -0.119738 0
-0.057935 0.299236 -0.100889 0
-0.057028 0.295032 -0.099154 0
-0.134100 0.246569 -0.113142 0
0.519622 0.288389 -0.137081 0
1.366163 4.234420 -0.284142 0
0.047500 0.812018 -0.128198 0
1.365957 1.034189 0.224490 0
0.112806 0.473539 -0.071044 0
-0.350013 0.993474 0.005292 0
1.414390 1.723330 -0.731207 0
-0.229918 0.995931 -0.106561 0
1.492008 3.568017 0.295668 0
0.097315 0.679560 -0.127111 0
1.320217 0.998745 -0.033321 0
-1.965891 2.780257 -0.459231 0
-0.127747 0.801763 0.270071 0
1.475162 1.115851 -0.126015 0
1.735598 2.490338 1.312236 0
-2.893004 3.282880 0.066360 0
-2.935260 3.663367 0.436992 0
-0.603361 0.812242 -0.232765 0
0.001126 0.342086 -0.122144 0
0.117706 3.101277 0.072460 0
-4.552035 8.418974 1.334731 0
-4.383114 7.739091 1.283900 0
-2.983780 3.230253 1.401341 0
-4.729826 5.894120 1.323068 0
0.075677 0.368697 0.050372 0
1.387085 1.686480 0.230387 0
-0.114814 0.129304 -0.038591 0
-3.156839 3.392639 -1.888778 0
-5.178217 4.618798 1.096791 0
-4.816949 4.303123 1.096260 0
-0.060603 0.387031 -0.105331 0
1.124202 3.210246 -0.409068 0
-2.079496 2.184762 -0.586769 0
-2.141981 2.374978 -0.190793 0
-1.749096 4.791077 -0.670910 0
-2.303564 3.302462 -0.905237 0
1.815488 1.328539 0.592313 0
0.099622 0.877297 0.029814 0
0.547989 2.990624 -0.172206 0
1.472588 0.943525 -0.088805 0
-0.225126 0.862118 -0.006294 0
-0.218640 0.924677 -0.130089 0
0.098265 0.868419 0.005880 0
0.025603 0.876904 -0.098326 0
-1.909134 2.214562 -0.440144 0
0.399143 0.200633 -0.119435 0
1.644305 2.395577 0.521886 0
-2.419850 5.232131 -0.902801 0
-1.865145 1.514117 -0.090197 0
-1.521103 2.603121 -0.289653 0
-0.063549 0.401643 -0.111430 0
-2.468827 1.903358 -0.236195 0
1.707970 1.887412 0.336538 0
-0.088611 0.224467 -0.064481 0
-5.094504 3.839490 -3.447678 0
-0.249053 1.817812 -0.975639 0
-2.127081 4.353417 -0.102116 0
0.310650 1.159467 -0.120754 0
0.051861 0.878471 -0.141150 0
0.664908 1.243268 -0.062610 0
0.397967 0.201432 -0.113373 0
-2.202654 3.692235 -0.129431 0
2.345747 2.043124 0.426407 0
1.292640 0.984443 0.006950 0
-0.176340 0.214150 -0.150393 0
1.421556 1.335578 0.074150 0
-1.738643 0.507259 -1.657041 0
-2.387991 0.689691 -2.308649 0
-0.138393 0.067779 -0.111512 0
-0.133125 0.867854 -0.416700 0
1.401713 2.175158 0.366553 0
1.400090 2.127553 0.410074 0
-0.494197 0.932468 -0.477041 0
-23.603680 30.995111 5.127439 0
0.000706 3.435966 1.510078 0
-2.781872 2.873238 -0.211792 0
-2.863870 6.820724 1.396022 0
-0.124167 0.129927 -0.071439 0
-0.163436 0.143553 -0.107361 0
-0.914830 1.046797 -0.508573 0
-0.927702 1.058931 -0.517122 0
1.363008 1.035479 -0.024472 0
0.449850 0.267711 -0.123521 0
1.436738 3.506442 0.181576 0
-0.168177 0.252207 -0.149856 0
-0.363188 1.764030 -0.043683 0
-0.189607 0.786547 -0.090053 0
1.362167 1.866663 0.388543 0
0.719930 0.991355 -0.108691 0
0.032262 1.112981 -0.091907 0
-0.063680 0.393709 -0.112135 0
0.110492 0.471042 -0.067796 0
-0.173719 0.361911 -0.102711 0
0.111086 0.471209 -0.068034 0
0.278248 1.209816 -0.143434 0
0.096482 0.789755 0.007540 0
0.364063 1.342107 -0.116049 0
1.324357 1.823328 0.393592 0
0.006600 3.472604 -0.106111 0
1.471871 0.880014 0.130068 0
-0.062848 0.397590 -0.111385 0
-0.113611 0.786681 -0.127350 0
0.101161 0.449521 -0.115948 0
1.576813 0.889170 0.323987 0
1.473060 0.663368 -0.075096 0
-1.139584 2.126592 -0.672326 0
-0.037202 1.047301 -0.017146 0
-3.108202 2.111929 -0.333446 0
-3.525238 2.485023 0.121721 0
-0.072408 0.431967 -0.117796 0
-3.025745 3.269907 0.226842 0
-5.023829 6.249458 1.419141 0
-0.409748 0.806187 -0.118506 0
-0.344479 1.151984 -0.101438 0
-1.357107 0.387205 -1.286645 0
-0.811331 0.997953 -0.799830 0
0.019227 0.020055 0.042634 0
0.146987 0.623506 -0.014780 0
0.109207 0.043314 -0.032099 0
7.382647 2.268658 -7.779377 0
7.482705 2.316384 -7.892171 0
-0.187410 0.518282 -0.098365 0
-0.183729 0.355322 -0.100242 0
-2.680247 7.247503 -2.035107 0
0.327796 0.349329 0.119868 0
-0.064728 0.411168 -0.124273 0
0.312063 1.142665 -0.134043 0
0.107760 0.476395 -0.068029 0
-4.667132 5.917376 1.328228 0
-0.142825 0.345860 -0.063425 0
1.435140 4.391086 0.025077 0
-4.700014 5.756399 0.951558 0
-1.935160 2.211401 -0.325279 0
-5.055047 4.706166 1.339419 0
1.548979 3.823838 0.444639 0
0.058162 0.338947 -0.119225 0
0.078490 0.307289 -0.111142 0
-0.069354 0.348118 -0.123336 0
-0.164814 0.378910 -0.110127 0
-0.155689 0.312405 -0.118813 0
-0.173557 0.180718 -0.115813 0
-0.368798 1.219795 -0.107589 0
0.226164 0.268115 -0.115579 0
-4.245851 6.090030 0.392213 0
0.364167 1.350618 -0.118897 0
0.111393 0.436205 -0.120533 0
0.079031 0.323408 -0.125810 0
0.039608 0.690224 -0.138995 0
0.030260 1.128263 -0.142451 0
-0.484424 1.205497 -0.097996 0
-1.642370 4.374319 -1.112057 0
-0.015396 0.414338 -0.127209 0
-0.083396 1.294919 0.251804 0
-0.972087 1.769927 -0.173520 0
0.112453 0.444670 -0.123395 0
0.410398 0.125470 -0.127761 0
0.351017 0.040422 -0.113190 0
1.695491 2.627442 0.839122 0
-3.459608 3.377934 -0.075554 0
-0.331320 1.422117 0.078119 0
-2.840330 2.959211 -0.212419 0
1.334065 0.787636 0.257513 0
-2.270682 4.062304 -0.351641 0
-0.057531 0.355512 -0.091962 0
-0.056365 0.362653 -0.096499 0
-0.059615 0.372605 -0.102041 0
1.297051 1.572269 -0.461272 0
1.513956 4.173239 -0.583143 0
1.365291 2.218198 0.146894 0
1.445374 0.805274 0.096214 0
1.453735 0.748139 0.097512 0
1.439918 0.750215 0.068015 0
1.369772 1.662241 -0.102003 0
-0.165397 0.145011 -0.106222 0
1.195178 1.399619 -0.255684 0
0.586672 1.142230 -0.070197 0
0.498970 0.408554 -0.126652 0
0.047873 0.398540 -0.124939 0
-0.236406 1.137570 -0.079769 0
1.207346 1.366775 -0.178999 0
1.378694 2.026617 0.427738 0
0.045768 0.535368 -0.127208 0
0.013165 0.371604 -0.121196 0
-0.141006 0.929137 -0.111166 0
-0.059057 0.397017 -0.105088 0
1.596541 0.898255 0.325480 0
-2.241252 3.268678 -0.237277 0
1.445180 0.739947 0.097956 0
1.544517 0.726020 0.389317 0
1.478062 0.602113 0.066507 0
1.451726 0.523515 0.037490 0
1.488586 0.386283 -0.162084 0
1.355872 0.934620 -0.361489 0
0.016682 0.304302 -0.117822 0
-2.943581 7.062170 1.450217 0
-3.115388 6.363305 0.114787 0
-2.876233 3.139655 0.540413 0
-2.284816 5.077764 0.000490 0
-4.207175 6.254694 1.337765 0
-0.787688 2.397715 0.058692 0
-2.928565 3.986429 0.307736 0
-0.178720 0.078849 -0.115318 0
0.083721 0.488532 -0.065727 0
-0.064107 0.402708 -0.112617 0
-0.336061 1.059058 -0.123624 0
-0.270410 0.136967 -0.103451 0
-0.458717 1.158192 -0.131100 0
-0.000321 0.372078 -0.125446 0
1.049196 0.787059 -0.189307 0
-0.005719 0.422593 -0.165554 0
-0.203964 1.022433 -0.051777 0
0.059456 0.334269 -0.116120 0
0.023243 1.107839 -0.135057 0
0.030348 0.804646 -0.046660 0
0.001641 0.365372 -0.119320 0
1.135515 1.321039 -0.135310 0
-0.080062 0.413815 -0.100872 0
0.062952 0.337251 -0.124442 0
1.417477 0.070967 -0.629892 0
-0.159791 0.353941 -0.117587 0
-0.889727 3.915908 -0.002029 0
0.107852 0.428252 -0.113985 0
1.352365 2.272488 0.282275 0
0.137145 0.547920 -0.116043 0
-0.037881 1.116457 -0.129825 0
-0.214083 0.173738 -0.146837 0
-5.078022 3.855298 0.853890 0
-5.069047 3.904754 0.726509 0
0.025255 0.291471 -0.041133 0
0.212613 0.248259 -0.103300 0
-0.145532 0.121631 -0.103325 0
-0.140690 0.199853 -0.121831 0
-0.138104 0.247888 -0.114647 0
-0.179008 0.237368 -0.120503 0
-0.124267 0.219511 -0.106670 0
0.572518 0.441941 -0.159426 0
-0.173530 0.320914 -0.108268 0
-0.116487 0.244046 -0.098382 0
-0.210457 0.167583 -0.188590 0
-0.566110 0.348066 -0.154612 0
-0.162826 0.184033 -0.116793 0
-0.128731 0.248682 0.084515 0
-0.163230 0.377404 -0.109116 0
-0.168177 0.225912 -0.111740 0
1.516032 3.785882 0.409957 0
0.333874 0.179475 -0.124176 0
-5.398919 4.805429 1.533750 0
-0.175604 0.179996 -0.116392 0
-0.482730 0.378321 -0.128454 0
-0.179743 0.336239 -0.117685 0
0.235499 5.481486 1.407245 0
-0.188495 0.880705 -0.101298 0
0.095213 0.724691 -0.112120 0
-0.957894 0.843878 -0.575888 0
0.696419 1.303285 -0.074285 0
0.491072 0.397710 -0.123116 0
-0.763876 1.581618 -0.153131 0
-0.112682 3.536763 -0.008635 0
1.265762 0.963183 -0.003052 0
3.132639 2.377213 -0.397868 0
1.386591 1.046640 -0.099270 0
-0.773422 0.664147 -0.387964 0
-3.812220 3.404617 0.751318 0
0.530110 0.321534 -0.141363 0
-0.482319 1.687862 0.081792 0
-0.063385 0.392804 -0.101053 0
0.104548 0.435969 -0.104734 0
1.406080 1.306606 -0.166725 0
-3.853356 3.910645 0.703866 0
1.919923 3.665957 1.555098 0
-0.911140 0.272063 -0.858803 0
1.504713 3.676620 0.266645 0
0.063002 0.118187 -0.002414 0
0.080567 0.115920 -0.002809 0
-0.161429 0.177356 -0.114566 0
-0.104983 0.541274 -0.161356 0
0.063476 0.119088 -0.002488 0
0.210665 0.082599 -0.102069 0
0.113752 0.475945 -0.117449 0
0.016035 0.341575 -0.109908 0
0.083319 0.425057 -0.131085 0
0.263347 0.339155 -0.128210 0
0.332431 0.178037 -0.122289 0
0.033342 0.680296 -0.141003 0
-0.176433 0.144962 -0.152126 0
-0.073401 0.363877 -0.134501 0
-0.024868 0.364692 -0.137616 0
-3.077431 3.120414 0.171340 0
-0.028941 0.388469 -0.154429 0
-0.000512 0.355867 -0.130928 0
-0.137178 0.279975 -0.115043 0
-0.111207 0.260487 -0.087199 0
0.225540 0.100320 -0.106754 0
0.324051 0.293236 -0.107556 0
-0.068558 0.507748 -0.129132 0
0.201483 0.413066 -0.130136 0
0.014722 0.372348 -0.125443 0
0.364709 0.349313 -0.121120 0
-2.218749 1.871601 -0.227041 0
-0.131214 0.188465 -0.109255 0
-0.583504 0.594496 -0.356068 0
-0.173818 0.232337 -0.115652 0
-0.161032 0.337826 -0.096761 0
0.046163 0.045508 0.045451 0
-0.146319 0.272479 -0.091163 0
-0.119921 0.206908 -0.101969 0
-0.189591 0.153106 -0.166947 0
-0.171551 0.199810 -0.123694 0
-0.093547 0.236047 -0.072525 0
-0.125194 0.220554 -0.107104 0
0.021862 0.040949 0.048918 0
-0.118713 0.248258 -0.100872 0
-0.123293 0.218662 -0.106147 0
-0.123975 0.255815 -0.106162 0
-0.204430 0.166081 -0.183720 0
-0.156053 0.214350 -0.115599 0
-0.163918 0.353067 -0.118900 0
0.072625 0.134919 -0.015446 0
-0.166700 0.758287 -0.064624 0
-0.264717 0.128742 -0.120381 0
0.217838 0.358768 -0.120945 0
0.117760 0.296983 -0.088477 0
-0.158144 0.220351 -0.139672 0
0.508453 0.409625 -0.125641 0
-0.184436 0.237577 -0.133241 0
-0.149212 0.178269 -0.096836 0
-0.194833 0.243685 -0.135134 0
-0.273920 0.575337 -0.266375 0
-0.178937 0.205521 -0.129828 0
-0.161433 0.219942 -0.105338 0
-0.230576 0.179659 -0.122089 0
-0.074061 1.251949 0.244456 0
-0.180602 1.365507 0.380466 0
-0.123665 0.806695 0.273999 0
-0.140796 0.828104 -0.066131 0
-0.102692 0.806088 0.268544 0
1.409402 1.934399 0.432795 0
-3.005711 8.341496 1.450260 0
-2.367524 3.706389 1.194409 0
1.700198 1.763962 0.352614 0
0.784038 0.539335 -0.113125 0
1.434244 3.427181 0.206318 0
-3.697433 4.776088 0.846046 0
-4.758800 4.422735 0.927544 0
1.857236 2.698289 1.538896 0
-4.012313 7.169579 0.532300 0
-0.105112 1.149232 -0.110723 0
-1.938229 2.112314 -1.230320 0
1.852878 3.146879 0.603264 0
1.643475 2.357783 0.558917 0
1.967777 6.063917 1.290033 0
1.772247 2.339165 0.766323 0
0.027084 0.260282 0.023489 0
0.088869 7.538042 1.375400 0
-5.952937 7.805913 1.368061 0
1.909994 8.185055 0.714737 0
1.470593 5.444022 0.834757 0
0.509559 0.609650 -0.134439 0
1.380512 1.915814 0.140597 0
1.680059 1.279529 0.658387 0
-4.737571 8.790994 1.400533 0
1.354011 4.362929 -0.318693 0
-0.184299 0.738090 -0.129124 0
1.505999 5.096173 0.400520 0
-2.176818 4.190140 0.218163 0
-4.645818 5.839278 1.322360 0
-4.597597 5.909446 1.402359 0
1.338672 1.935989 0.444358 0
-1.246475 2.434211 -0.835498 0
0.791923 0.539389 -0.117433 0
-2.081840 4.288584 0.099026 0
1.401551 1.752058 0.110840 0
1.359287 2.351488 -0.314061 0
0.722049 0.658820 -0.267397 0
-2.400492 3.799418 -1.639573 0
-2.223905 4.136186 0.015391 0
1.846617 1.386711 0.652762 0
-0.149110 0.836042 -0.133575 0
-0.096172 3.421978 0.145978 0
0.259806 1.212753 -0.138733 0
0.280401 0.390080 -0.100049 0
0.311315 0.380806 -0.055784 0
0.374973 0.366720 -0.095330 0
0.291353 0.315958 -0.128679 0
0.353072 0.352207 -0.057293 0
-0.422194 0.334841 -0.104608 0
0.092536 0.380035 -0.114818 0
0.307663 0.388742 -0.079148 0
0.276367 0.337572 -0.093526 0
0.098954 0.430862 -0.139854 0
0.221627 0.297875 -0.062428 0
0.301662 0.415171 -0.106054 0
0.294595 0.318591 -0.130631 0
0.229816 0.558083 -0.253399 0
0.040069 0.498394 -0.123199 0
0.096571 0.407754 -0.127013 0
0.032528 0.064578 0.047578 0
-0.127079 1.890134 0.159259 0
-0.646929 0.736341 -0.385045 0
-0.184965 0.740297 -0.134740 0
0.433430 1.877254 -0.987053 0
0.345019 0.581914 -0.102321 0
-0.008993 0.367037 -0.142285 0
0.324055 0.400283 -0.127046 0
0.529100 0.949781 -0.143623 0
0.457129 3.011708 0.256759 0
1.593846 0.809502 0.347893 0
1.545762 0.390083 0.050810 0
0.168229 0.767065 0.000300 0
1.480109 0.481740 0.003073 0
0.266380 1.380424 -0.116060 0
-0.128276 0.941510 -0.067971 0
-0.064797 0.959750 -0.041061 0
0.250461 1.567360 -0.004243 0
1.500441 4.883344 -0.560076 0
1.858520 2.461088 1.563795 0
1.858092 2.464188 1.563689 0
1.475154 0.888047 0.112029 0
1.618271 0.632573 -0.305508 0
0.119307 0.864643 0.033027 0
0.120053 0.857859 0.034267 0
0.296787 1.557140 0.010998 0
-0.121963 1.041912 -0.098482 0
-0.060592 0.740766 -0.027593 0
-0.109701 0.978369 -0.057839 0
-0.133248 0.908091 -0.081277 0
0.268594 1.430953 -0.130458 0
1.515865 0.408773 0.291279 0
-0.128621 1.115308 -0.124941 0
0.506332 1.897728 -0.176409 0
0.341725 1.597318 -0.127245 0
0.182243 1.568096 -0.003336 0
1.356398 1.960753 -0.508971 0
1.560825 0.807749 -0.413927 0
1.854316 2.460630 1.561972 0
0.540503 2.025058 -0.196246 0
0.296974 1.033126 -0.134459 0
0.120244 0.734434 -0.123405 0
1.481751 0.313091 -0.162975 0
0.135320 0.848784 0.010075 0
0.086530 0.610025 -0.125284 0
0.186899 0.861404 -0.135980 0
0.289787 0.686606 -0.106959 0
1.363273 2.001878 0.425303 0
-0.142733 0.821634 -0.056417 0
1.685594 1.517766 0.341115 0
1.700584 1.421814 0.663860 0
1.444198 0.313113 -0.291922 0
1.482756 0.247115 -0.411672 0
1.470005 0.208524 -0.450565 0
1.467086 0.694078 0.328408 0
0.145781 0.478796 -0.123268 0
3.642067 1.066268 1.671455 0
1.321332 1.904384 -0.492284 0
0.072984 0.457261 -0.122291 0
1.876341 1.512751 0.731594 0
1.451077 0.438364 -0.377254 0
0.035362 0.806469 -0.001729 0
1.503697 0.228908 -0.275359 0
1.485252 0.134968 -0.413276 0
1.281376 2.114228 -0.562102 0
-0.069958 1.274364 -0.010279 0
0.184301 0.841221 0.004066 0
1.469675 2.066186 -0.355575 0
1.384308 1.999745 -0.531467 0
1.313411 2.094306 -0.442697 0
0.063454 0.590929 -0.124683 0
-0.139746 1.663800 0.067588 0
0.073161 0.456777 -0.121765 0
1.465023 0.239588 -0.372942 0
1.710976 1.792525 0.347939 0
0.521990 0.630203 -0.142105 0
0.444170 0.239645 -0.097989 0
1.619383 3.567979 -0.909506 0
1.350684 5.443683 0.110182 0
1.453899 0.355105 0.167873 0
1.441846 0.242436 -0.118039 0
1.498719 0.273364 0.133020 0
1.556620 0.237619 -0.133457 0
1.464579 0.210457 -0.104449 0
1.674981 0.764866 -0.388271 0
1.472673 0.359454 0.116378 0
0.247703 0.982881 -0.079551 0
-0.079785 0.986131 -0.093030 0
1.441514 0.220158 0.260778 0
1.761587 1.322657 0.602862 0
1.534214 0.333485 -0.070958 0
-0.548468 1.483166 -0.326354 0
-0.561773 1.129912 -0.352140 0
0.297883 0.703980 -0.106180 0
-0.160939 0.859080 -0.074818 0
-0.101721 1.005769 0.272725 0
0.453631 0.256207 -0.130905 0
0.471060 0.322913 -0.114698 0
0.081137 0.501828 -0.128695 0
0.018630 0.481038 -0.116481 0
-0.135232 0.912387 -0.162902 0
0.048558 0.378544 -0.120627 0
-0.193953 0.802669 -0.152411 0
0.062423 0.377283 -0.119648 0
-0.271130 0.977729 -0.126286 0
0.444663 0.301803 -0.114313 0
-0.150781 0.727196 -0.124335 0
-0.156277 0.715425 -0.134382 0
-0.155151 0.713421 -0.132564 0
-0.154607 0.235412 -0.117065 0
0.100898 0.438311 -0.142997 0
0.251832 0.150860 -0.108287 0
0.337931 0.428479 -0.099339 0
0.285307 0.387526 -0.106949 0
0.225018 0.569151 -0.250915 0
-0.125321 0.189611 -0.111805 0
-0.264040 0.441784 -0.121818 0
-0.078525 0.424827 -0.124407 0
0.260668 0.326780 -0.088027 0
0.303835 0.368916 -0.102834 0
0.064762 0.030595 0.044397 0
0.330998 0.312213 -0.120700 0
-0.203670 0.160567 -0.115379 0
0.226039 0.228058 -0.110185 0
-0.162428 0.111579 -0.109264 0
0.022213 0.054962 0.050838 0
0.064943 0.030536 0.044298 0
0.673026 1.027980 0.197742 0
-0.187757 0.360205 -0.164583 0
-0.594697 0.182796 -0.567902 0
0.071430 0.052393 0.053792 0
-0.032207 0.153969 0.001963 0
0.003802 0.051425 0.049832 0
-0.064931 0.190848 -0.018820 0
0.453907 0.571440 0.263855 0
0.750550 2.306522 -0.244894 0
-0.069836 0.699340 -0.130231 0
0.303416 0.372158 -0.114480 0
0.465176 0.537832 -0.100269 0
0.128204 0.560726 -0.103096 0
0.266554 0.704626 -0.128252 0
0.103521 0.596445 -0.126810 0
-0.271557 1.012035 -0.019214 0
-0.077014 0.472317 -0.124901 0
0.025634 0.649676 -0.026708 0
0.285009 3.108080 0.124361 0
0.476286 0.598762 0.231806 0
1.499757 0.462503 -0.282174 0
1.438543 0.230058 -0.114726 0
1.489697 0.236722 -0.295312 0
1.523059 0.239121 -0.424637 0
1.517127 0.231653 -0.128435 0
-0.124390 1.085863 -0.092747 0
-0.236317 0.735673 -0.121148 0
0.135361 3.483212 0.067742 0
-0.294956 0.721952 -0.122711 0
1.550526 4.275813 1.492720 0
1.397268 0.987020 0.216527 0
-0.175348 1.807775 0.119650 0
1.638362 0.932974 0.329646 0
1.488016 0.713694 0.284250 0
7.476863 3.715771 1.826779 0
-0.123467 0.780164 -0.045917 0
1.598412 1.257321 0.626331 0
1.460168 0.550699 0.291122 0
0.638322 1.706344 -0.230187 0
0.287780 0.639320 -0.092615 0
0.329627 0.577360 -0.093641 0
0.363018 0.588459 -0.126892 0
0.352686 0.515012 -0.123413 0
0.309082 0.619570 -0.099518 0
0.338912 0.572049 -0.097697 0
1.416806 0.754426 0.263785 0
0.063896 0.332011 -0.097856 0
0.486489 0.238972 -0.114515 0
0.017977 0.360949 -0.118088 0
0.000353 0.395380 -0.121663 0
1.486994 0.636239 0.371730 0
1.347484 1.952371 0.170752 0
1.556597 0.832489 -0.309276 0
1.495720 0.593289 -0.070824 0
1.553975 0.666883 0.133772 0
1.480297 0.600950 0.220786 0
1.455652 2.151359 0.482117 0
0.197343 0.891336 -0.082093 0
1.440616 0.353332 0.151951 0
-0.412349 3.886135 0.171358 0
-0.140766 3.736092 -0.209435 0
-0.578149 3.898824 0.141151 0
-0.451656 4.246754 0.134923 0
-0.002898 1.120703 0.023306 0
1.404899 0.420750 0.343123 0
1.492752 0.325229 -0.067622 0
0.018178 0.313861 -0.116556 0
1.447152 0.406119 0.381152 0
0.132112 0.603934 -0.114228 0
1.427138 0.383448 0.270055 0
-0.049365 1.226543 0.069696 0
1.442807 0.386155 0.273743 0
1.505901 0.322617 0.060565 0
1.670473 1.499320 0.647614 0
1.793832 2.369440 0.884859 0
1.301920 2.036051 -0.226600 0
0.001591 0.664196 -0.127542 0
1.539834 0.525488 -0.314557 0
-0.063888 1.017408 0.008414 0
0.023368 0.659870 -0.125616 0
-0.080520 0.819184 -0.118069 0
1.516806 0.610143 0.206274 0
1.479960 0.738524 -0.089961 0
-0.109798 1.019955 -0.098789 0
0.977060 3.216287 1.576722 0
1.607775 1.527819 0.300587 0
-0.263044 3.844473 0.155463 0
0.049296 0.778683 -0.126367 0
-0.074005 1.246562 0.241653 0
-0.068254 1.007124 0.120110 0
0.132918 0.597442 -0.125074 0
1.504207 0.868401 0.279788 0
1.651096 1.114648 0.318272 0
1.504508 1.002667 0.281442 0
-0.120477 1.106579 -0.097217 0
1.457899 0.451043 0.035375 0
0.254988 0.556700 -0.122009 0
1.560149 0.858241 0.328780 0
1.454617 0.509317 0.337529 0
1.465052 0.450963 0.035973 0
1.452836 0.453742 0.190594 0
1.456888 0.305118 -0.314389 0
1.698627 1.560034 0.657451 0
1.475884 0.775028 0.263420 0
1.471418 0.534177 0.183534 0
0.230191 1.297028 -0.050482 0
0.198470 0.849058 -0.069160 0
-0.419685 3.887779 0.051892 0
1.676051 0.949015 0.339462 0
0.353035 1.647261 -0.129933 0
0.449826 0.252995 -0.112529 0
0.085605 0.615051 -0.109194 0
0.332615 1.577695 0.034763 0
1.579396 0.628760 -0.076839 0
1.445484 0.424841 -0.284943 0
0.062313 0.375679 -0.118984 0
0.334453 2.905954 0.323053 0
0.269712 3.101371 0.262686 0
0.222282 1.498514 0.032708 0
-0.091814 0.841228 -0.130245 0
0.478590 0.291542 -0.112749 0
-0.086144 0.827864 -0.127071 0
0.220115 1.600097 0.025833 0
-0.075529 1.045169 -0.073933 0
-0.150854 0.837127 -0.074927 0
-0.206240 0.880333 -0.042512 0
-0.066046 0.668119 -0.125739 0
0.328411 1.570211 0.033370 0
1.779202 1.017735 0.928402 0
1.751102 1.003189 0.918607 0
-0.034918 0.949949 -0.123581 0
0.264917 0.706387 -0.123655 0
0.101162 3.255982 -0.009939 0
-0.423469 1.021373 -0.126365 0
0.336013 1.627936 0.032418 0
0.498177 0.337241 -0.124045 0
-0.309694 0.930605 0.006299 0
-0.067616 0.658078 -0.126225 0
-0.091089 1.059784 0.231846 0
0.267041 0.693859 -0.124605 0
1.557482 2.190593 -0.042294 0
0.189073 0.838262 -0.129129 0
1.474182 0.583280 -0.068354 0
1.400213 0.745398 0.256589 0
1.410174 0.562886 0.309379 0
1.476927 0.775176 0.265411 0
1.519846 0.462670 -0.268991 0
1.773176 1.018859 0.936192 0
0.778754 0.930492 -0.292966 0
1.477213 0.515814 -0.295522 0
1.413695 0.660630 -0.322539 0
1.788940 3.416630 -0.774952 0
1.349419 1.858740 -0.223498 0
1.383944 2.315722 0.281510 0
1.530163 0.771074 -0.377843 0
1.571813 0.783728 -0.392276 0
0.368726 0.415390 -0.110422 0
-0.302841 0.851944 -0.063336 0
0.188802 0.858656 0.002941 0
0.322835 0.571166 -0.100519 0
0.112685 0.598683 -0.125983 0
-0.191842 0.660861 -0.124743 0
0.089901 0.785803 0.024940 0
0.170207 0.758786 -0.128765 0
1.357601 0.934741 -0.309130 0
-0.272210 1.013522 -0.017840 0
-0.240799 0.829094 -0.064338 0
1.899614 1.552192 1.160475 0
1.475579 2.069688 -0.239680 0
1.877168 2.737885 1.550479 0
1.859788 2.729074 1.529424 0
0.045831 0.783365 -0.129674 0
-4.198752 4.522416 1.318648 0
0.370191 0.326980 -0.099064 0
-0.145263 0.823602 -0.057807 0
0.313695 0.612072 -0.104581 0
-0.126182 0.762147 -0.038338 0
-0.148416 0.778172 -0.126471 0
-0.346942 0.934499 -0.133726 0
0.120090 0.731003 -0.122537 0
0.126398 0.695560 -0.126576 0
0.358012 0.586149 -0.110664 0
1.293311 0.901837 -0.286650 0
0.265382 0.720040 -0.117683 0
-0.147639 0.765802 -0.124547 0
0.120554 0.747610 -0.126552 0
-0.114513 0.777745 0.268441 0
-0.277966 0.844579 -0.073157 0
0.430067 3.053256 0.124181 0
1.470572 0.371567 -0.072093 0
1.434628 0.505351 0.333286 0
1.578938 0.787693 -0.338184 0
1.442105 0.206227 -0.438695 0
0.291133 3.076653 0.122553 0
1.328326 1.864175 -0.411045 0
1.567293 0.621180 0.085889 0
1.461419 0.516166 0.036018 0
1.460687 0.522670 0.185843 0
-0.676347 1.765061 0.091271 0
1.801854 3.466241 -0.784038 0
0.462634 0.242955 -0.111669 0
-0.000035 0.395616 -0.122198 0
0.486360 0.290835 -0.115819 0
-0.251512 0.903334 -0.114268 0
-0.235856 0.882683 -0.062304 0
1.461172 0.827142 0.278081 0
1.442387 0.462246 0.333949 0
-0.223932 0.928754 -0.034675 0
-0.298895 0.947531 -0.105441 0
1.449166 0.466166 0.334716 0
-0.242730 0.948704 -0.037054 0
-0.244048 0.880317 -0.054363 0
1.457526 0.492803 0.184842 0
0.044766 0.768898 -0.126884 0
-0.151530 0.767842 -0.126851 0
0.085748 0.618212 -0.128034 0
0.326951 0.608386 -0.105087 0
0.302077 0.632369 -0.105042 0
0.300924 0.628552 -0.091096 0
0.221530 0.565278 -0.245683 0
0.495244 0.367603 -0.123281 0
0.313661 0.393944 -0.087475 0
-0.291006 1.011501 0.017848 0
0.237987 1.345591 -0.137102 0
1.487696 0.833764 0.103011 0
1.662449 1.723000 0.332186 0
1.585801 0.938577 0.109768 0
0.847911 0.381155 -0.396641 0
1.510217 2.885973 -0.614282 0
0.804090 0.373959 -0.365197 0
1.300142 0.357914 0.198531 0
0.879535 0.392438 -0.422620 0
0.802438 0.378386 -0.362125 0
0.735002 0.317384 -0.342870 0
0.886699 0.395833 -0.426704 0
0.577612 2.570045 -0.025373 0
1.519859 0.232043 -0.128908 0
1.639986 2.122337 0.501747 0
1.437673 0.449397 0.026119 0
-0.337044 1.148017 -0.827217 0
1.981107 0.608660 -0.020341 0
1.596030 0.789010 -0.400315 0
1.132849 0.756994 -0.255524 0
1.551516 5.200540 -0.209716 0
1.559035 3.956486 -0.069504 0
1.461306 1.552809 0.492514 0
-0.075879 4.331367 -0.303668 0
1.350938 0.942003 -0.334462 0
0.269021 1.294686 -0.079311 0
1.611304 0.628930 -0.354937 0
-2.903880 11.704156 0.202587 0
1.528368 0.457628 -0.388742 0
1.475441 0.369974 0.070220 0
1.441972 0.501278 0.333572 0
0.533719 1.303313 -0.141447 0
0.541465 1.263702 -0.120086 0
1.439592 0.425612 0.350186 0
1.081373 0.642034 0.249260 0
1.363375 2.027222 -0.104278 0
3.576303 1.048232 1.637817 0
-1.662260 2.057483 -2.201502 0
-0.432881 2.412066 0.363484 0
1.462169 0.377719 -0.312375 0
1.452214 0.309804 -0.309367 0
1.739601 -0.156067 -1.566453 0
1.504561 0.453457 -0.351892 0
-0.168018 0.979320 -0.072701 0
1.464514 0.524515 0.033435 0
0.465719 0.251534 -0.119826 0
1.460678 0.473231 0.004521 0
1.470554 0.455033 0.184921 0
-0.127721 0.886996 -0.056249 0
1.369889 0.639157 -0.053227 0
-0.033191 1.150724 0.010978 0
0.066792 0.741541 0.023927 0
1.355784 0.518804 -0.268476 0
1.062386 0.379851 -0.207137 0
1.427791 0.747836 0.305097 0
-0.098705 0.940841 -0.135103 0
-0.086893 0.993013 0.251909 0
-0.226577 0.867297 -0.060446 0
0.042440 0.776310 0.005160 0
1.499254 0.454795 -0.352910 0
0.135293 0.598911 -0.125746 0
-0.109582 0.843946 -0.049553 0
1.436754 0.446611 0.030563 0
1.499288 0.597280 -0.075701 0
1.441258 0.570566 0.322082 0
1.730939 0.366107 0.734730 0
1.446474 0.363960 0.066184 0
1.745572 0.368860 0.740092 0
1.421766 0.974045 0.091523 0
1.446020 0.443265 -0.142438 0
1.620466 1.947585 0.455855 0
0.540437 1.215845 -0.117288 0
1.634512 0.743161 -0.332013 0
1.454360 0.402674 0.310671 0
1.319573 2.169188 -0.221733 0
0.745048 3.783285 0.001535 0
0.115288 0.586233 -0.124129 0
-0.190663 7.267815 0.307483 0
1.821293 -0.171202 -1.650318 0
1.345973 0.517430 0.309242 0
1.605910 0.448738 0.463363 0
1.598549 0.589619 0.309055 0
-0.078743 1.051572 0.121632 0
1.377769 1.893014 0.275422 0
1.843555 2.963360 0.899298 0
1.444546 0.653336 0.131529 0
-0.003294 0.918678 -0.117464 0
1.455392 0.457819 0.182315 0
-0.074054 1.025970 0.120899 0
1.458272 0.528108 0.187153 0
-0.030938 1.039844 -0.119491 0
1.535823 0.771946 -0.323456 0
1.749835 1.937760 0.348756 0
-2.296658 4.682809 0.107036 0
0.168812 0.739820 -0.120011 0
0.488999 0.193179 -0.114535 0
-0.071834 1.016775 0.120573 0
-0.059190 0.503844 -0.132057 0
-0.265347 0.885844 -0.063227 0
-0.195570 0.866012 -0.091296 0
0.528684 0.160114 -0.136288 0
-0.062206 0.508881 -0.135808 0
-0.054461 0.489539 -0.126748 0
-0.000162 0.396469 -0.122772 0
-0.053313 0.487105 -0.126122 0
-0.136382 0.780253 -0.014904 0
-0.073318 1.083325 0.060496 0
0.043254 0.773937 0.005350 0
-0.000106 0.394925 -0.122083 0
-0.206917 0.894424 -0.097413 0
0.036377 0.807398 0.002514 0
0.113385 0.601942 -0.109893 0
1.495842 0.385714 -0.166130 0
0.049550 0.347682 -0.116742 0
-0.068367 1.216691 0.233988 0
0.063077 0.377043 -0.119042 0
1.486916 0.634599 0.373588 0
-0.088020 0.783324 -0.131368 0
1.487519 0.596753 0.043711 0
1.444906 0.305340 -0.304544 0
1.505134 0.473954 -0.318155 0
0.269702 0.737086 -0.120961 0
1.559897 0.783186 -0.326103 0
0.051497 0.349034 -0.115981 0
1.484335 0.376851 -0.314939 0
0.079932 0.502731 -0.121888 0
0.063422 0.377112 -0.119018 0
-0.023672 0.856816 -0.023121 0
1.419249 0.373863 -0.296719 0
1.481131 0.308964 -0.162866 0
0.196823 0.884187 -0.081558 0
0.016691 0.348525 -0.119842 0
-0.072463 0.995379 0.225929 0
0.063016 0.378199 -0.120101 0
0.135763 0.600624 -0.112067 0
1.466245 0.586800 0.219789 0
1.455941 0.307189 -0.161425 0
1.462456 0.455243 0.178448 0
1.464779 0.392240 0.220115 0
1.463532 0.305251 -0.308436 0
0.030768 0.362713 -0.119930 0
1.491606 0.369166 0.069850 0
0.618869 0.551822 -0.192663 0
1.470534 0.409670 0.381308 0
1.464275 0.388988 0.218377 0
0.084886 0.617765 -0.110581 0
1.467687 0.408828 0.379747 0
1.431611 0.669415 -0.081802 0
-0.076573 1.006793 0.229749 0
0.048253 0.347760 -0.119509 0
0.017993 0.346132 -0.117962 0
0.174875 0.754362 0.004472 0
0.094768 0.787536 0.012816 0
-0.132712 1.211418 -0.114628 0
1.307619 0.931778 0.208548 0
1.602169 1.086094 0.308313 0
1.441273 0.453542 0.034643 0
0.307736 0.631968 -0.105575 0
1.453101 0.924640 -0.080973 0
1.400878 0.656878 -0.314351 0
-0.122208 0.967845 -0.058574 0
1.645158 1.104557 0.312183 0
0.311724 0.625841 -0.102076 0
1.574907 0.534092 -0.320561 0
0.462201 3.031515 0.259063 0
1.513657 0.611120 0.206357 0
1.450171 0.323000 -0.191186 0
1.567859 0.643805 -0.305619 0
1.546344 0.860611 0.314263 0
1.705744 1.684486 0.293138 0
1.598197 1.012509 0.276605 0
0.484197 0.228639 -0.112714 0
0.265947 0.705245 -0.124510 0
-0.608366 3.804479 0.170405 0
0.622588 0.548351 -0.190246 0
0.073561 8.120632 1.436440 0
1.610206 4.428513 -0.142942 0
1.630282 0.803500 -0.288233 0
1.441186 0.947101 0.256996 0
7.780027 3.850882 1.884640 0
1.112893 2.389753 -0.509575 0
1.369345 3.309818 -0.021403 0
1.497655 6.113595 1.254624 0
1.488851 0.375500 -0.076852 0
1.454332 0.468637 0.153990 0
1.456877 0.527396 0.189981 0
-0.193124 3.989862 0.043522 0
0.433599 3.035752 0.293770 0
1.404840 0.982801 0.225765 0
0.457806 3.063368 0.185953 0
1.446022 0.371325 -0.062712 0
1.280725 0.371143 0.071295 0
1.479855 0.662344 -0.082483 0
0.457155 3.022701 0.191012 0
1.772549 0.575630 0.024551 0
-0.109493 1.039555 -0.060352 0
1.458151 0.405244 0.336574 0
1.363721 2.087141 0.374453 0
2.101324 3.556480 1.470454 0
-0.117910 0.578986 -0.033338 0
0.332679 2.013123 -0.014957 0
-0.123888 1.568717 0.101714 0
0.490186 0.330962 -0.120404 0
1.743506 1.849922 0.373136 0
0.124036 0.508079 -0.134892 0
0.127851 0.771212 0.017773 0
-0.066196 0.660826 -0.125147 0
-0.090970 0.833730 -0.128408 0
-0.241594 0.831550 -0.061300 0
0.285893 0.667848 -0.101059 0
0.264631 3.005268 0.251079 0
1.373809 2.372831 -0.253459 0
1.473531 0.395188 0.223297 0
1.456381 0.358796 0.150755 0
0.132859 0.858179 0.009475 0
0.435578 3.048856 0.123687 0
1.663663 1.243082 0.298169 0
-0.138856 3.693383 -0.204104 0
1.313099 5.122831 0.690607 0
2.185514 1.791897 1.571087 0
1.507229 0.506272 -0.333342 0
2.023510 1.670940 1.454226 0
-0.072469 1.280990 0.001855 0
1.385614 1.912278 -0.397757 0
1.511452 0.315635 -0.326404 0
1.446529 0.469877 0.000596 0
1.571674 0.779477 -0.270570 0
1.489747 0.596276 -0.328963 0
1.565502 0.635453 -0.396442 0
1.422832 5.380957 0.395714 0
1.434903 0.353511 0.125745 0
0.332516 1.521277 -0.133130 0
1.655092 0.601566 0.324130 0
1.310922 0.478401 0.307186 0
0.138297 0.842041 0.012387 0
1.334763 2.142862 -0.583688 0
0.188235 0.846718 -0.131535 0
1.304768 2.957996 1.040491 0
1.468975 0.852587 0.261359 0
1.461654 0.493675 0.185162 0
1.558902 0.858642 0.331185 0
0.170554 0.757148 -0.129018 0
1.340297 2.167437 -0.551609 0
1.511073 0.626798 0.345307 0
1.416074 0.740137 -0.083777 0
1.179333 6.471558 -0.366683 0
-0.309754 0.862412 -0.116225 0
-0.348917 0.837677 -0.148568 0
0.347883 0.564971 -0.120099 0
0.731016 0.501952 -0.101817 0
-0.068585 0.663324 -0.127349 0
0.181125 0.843759 0.003682 0
-0.317210 0.870685 -0.043329 0
-0.316622 0.873410 -0.118757 0
-0.262859 0.829173 -0.112827 0
0.186793 0.849640 0.003360 0
0.045062 0.773509 -0.127278 0
0.127543 0.696793 -0.129106 0
0.355291 0.592602 -0.106942 0
0.261441 0.711585 -0.114607 0
0.287251 0.674562 -0.103952 0
-0.085100 0.779026 -0.129487 0
0.640889 0.569529 -0.203946 0
1.354185 1.994899 0.422407 0
1.801126 1.425332 0.704947 0
1.532662 4.100576 0.315514 0
1.521169 4.077897 0.327497 0
1.382780 2.202312 0.328582 0
1.261566 1.971474 -0.215783 0
1.396088 4.421471 0.368025 0
1.267314 2.116785 -0.284460 0
1.492821 4.048839 0.068903 0
1.467050 5.477282 0.431935 0
1.261252 5.454821 -0.288618 0
1.353300 2.387296 -0.053924 0
1.487161 0.364165 -0.066733 0
1.557132 0.917830 -0.334094 0
1.830429 3.469803 0.821554 0
-0.131785 1.911757 0.317462 0
-5.884880 5.461874 1.289145 0
-4.691781 6.779277 1.299721 0
-0.076137 3.440846 0.164233 0
-0.124178 0.815176 0.272521 0
0.502194 0.896233 -0.129793 0
-0.237897 0.825526 -0.056590 0
-0.144560 0.781332 -0.124519 0
-0.163448 0.860308 0.047082 0
-0.167831 0.790046 0.000365 0
0.123074 0.698906 -0.122837 0
-0.248429 0.845606 -0.061275 0
-0.101869 0.768885 -0.128558 0
-0.271238 0.852047 -0.115552 0
-0.104666 0.792792 0.271386 0
0.191223 0.855247 -0.133263 0
-0.296471 0.843801 -0.063379 0
0.070059 0.624942 -0.113152 0
0.365731 0.321949 -0.096266 0
-0.251891 0.923841 0.018838 0
-0.230945 1.046844 0.032937 0
0.246518 1.554462 0.021553 0
0.358414 0.579845 -0.123244 0
-0.100145 0.781950 0.268708 0
-0.277174 0.933985 -0.037345 0
-0.271896 1.000988 0.022195 0
-0.300719 0.875948 -0.085495 0
1.906765 1.800077 1.129858 0
0.483113 0.363968 -0.116461 0
0.494286 0.272218 -0.120587 0
-0.082483 1.344169 0.231113 0
0.070074 0.635237 -0.117222 0
-1.943501 3.880958 -0.150495 0
-0.034997 1.054740 -0.119272 0
1.460072 0.520041 0.155104 0
1.462327 0.305643 -0.311560 0
1.917158 2.541409 1.023916 0
1.442826 0.559785 0.298110 0
1.451188 0.454003 0.192113 0
1.636737 3.817771 0.681375 0
1.438819 0.736147 0.097105 0
0.138812 3.657702 0.105066 0
0.060438 0.584181 -0.116859 0
1.338114 1.836673 -0.299971 0
-0.073802 1.019508 0.039984 0
0.350846 3.077833 0.342057 0
-0.093482 0.908583 0.264204 0
0.647840 0.524804 -0.108025 0
-0.099632 0.920470 0.265443 0
0.167191 0.767774 -0.130302 0
-0.282477 0.832664 -0.012606 0
-0.264134 0.937279 -0.052803 0
0.062421 0.582349 -0.125215 0
1.445850 0.942043 0.196774 0
1.549741 0.623554 0.064759 0
1.553369 5.302404 -0.187519 0
1.433105 0.353932 0.119393 0
1.863188 2.744545 1.029440 0
0.962864 4.665154 1.440006 0
0.900808 4.258394 1.309967 0
1.466928 0.315840 -0.311720 0
1.501339 0.319502 -0.324803 0
1.515425 0.321718 0.056998 0
1.511911 0.447124 -0.429231 0
1.475929 0.274110 0.133186 0
1.488582 0.132118 -0.412151 0
1.516665 0.227608 -0.278060 0
1.446928 0.269193 0.152285 0
1.500102 0.441813 -0.431339 0
1.493245 0.437610 0.458928 0
0.224950 3.375686 1.484856 0
-0.152295 3.796869 0.222837 0
0.427958 3.008519 0.122646 0
0.229591 1.554274 0.009339 0
1.450466 0.205276 -0.441368 0
0.108133 3.889400 0.071096 0
1.587142 0.808419 0.346990 0
-0.155873 3.890408 0.227480 0
-0.418186 3.925847 0.176784 0
-0.412993 3.883317 0.038650 0
1.385980 3.737313 -0.532840 0
1.415458 0.968241 0.090104 0
-0.295057 3.558237 0.092918 0
1.619120 1.457459 0.627572 0
1.465315 0.449366 0.033039 0
1.479299 0.201612 -0.382478 0
1.518806 0.469148 -0.146500 0
0.922051 1.289119 -0.466499 0
0.749474 0.853489 -0.276960 0
1.511437 0.465347 0.485467 0
3.278094 -0.403792 -3.161875 0
1.515797 0.280817 0.287139 0
1.560974 0.224566 -0.256440 0
0.653060 3.789475 0.194551 0
1.611459 0.620308 0.351216 0
1.426619 3.497689 0.128084 0
1.317388 1.860653 -0.182304 0
1.451100 0.814571 0.093184 0
1.862988 2.472340 1.570405 0
1.675043 6.438412 0.157247 0
1.275528 0.319648 0.311491 0
1.622271 4.445269 0.527094 0
1.535994 0.903933 -0.384258 0
1.454988 0.357029 0.151506 0
0.050556 0.767575 -0.125037 0
0.255173 1.042251 -0.102443 0
1.316748 1.843060 -0.409262 0
1.332829 2.295519 -0.245104 0
1.369464 2.175133 -0.463013 0
0.172920 0.765195 0.001575 0
1.557896 0.475204 -0.319066 0
0.271467 1.468214 -0.141060 0
1.339415 1.920570 -0.182523 0
-0.210116 0.839679 -0.055769 0
0.017636 0.361014 -0.118776 0
0.068369 0.599651 -0.110223 0
-0.211346 0.865686 -0.151687 0
-0.126216 1.603111 0.102788 0
1.468001 0.858357 -0.069580 0
0.318048 0.626250 -0.099710 0
0.209075 1.038635 -0.021383 0
1.444674 0.817792 0.272613 0
0.457862 0.365023 -0.102515 0
1.449159 0.936993 -0.332237 0
-0.127232 0.791488 -0.131234 0
1.628070 0.810153 0.296472 0
0.774478 0.803956 -0.402312 0
0.474080 0.240860 -0.118105 0
1.474258 1.566794 0.259457 0
0.347449 0.505689 -0.118253 0
0.328409 0.572423 -0.128427 0
1.698696 1.273299 0.663971 0
-0.147299 0.845947 -0.133636 0
0.582785 2.816760 -0.242195 0
0.025598 0.939834 0.005623 0
1.397486 1.728340 0.224738 0
1.420978 5.322912 0.525304 0
3.193485 1.356523 0.777602 0
-0.090809 0.445489 -0.185113 0
-0.093104 0.447428 -0.187944 0
-1.328611 2.279197 -0.248212 0
0.956581 4.626868 1.429588 0
-2.796711 4.048635 0.342258 0
1.802425 2.577219 0.746082 0
2.852066 3.742619 1.209698 0
1.211180 2.839511 0.214358 0
-0.128676 0.175700 -0.057086 0
-0.122295 0.164924 -0.052609 0
1.351908 1.343640 0.073423 0
1.516082 1.603505 0.282572 0
-0.195472 0.859304 -0.040159 0
1.319212 2.071762 0.086556 0
1.399051 2.008168 -0.169774 0
1.215553 3.139877 -0.592811 0
1.442348 3.815384 -0.749212 0
1.492184 4.448849 0.158033 0
1.322419 2.253378 -0.245676 0
0.908925 2.863795 1.410424 0
1.471384 3.993876 0.191743 0
1.356529 2.166018 0.115442 0
1.398828 1.300306 -0.165550 0
1.442871 0.268182 0.152695 0
1.190444 2.653576 0.798212 0
1.453410 0.469866 0.153963 0
1.472337 0.270419 0.130657 0
1.517424 0.227544 -0.277697 0
1.497561 0.531236 0.319229 0
1.554521 0.516778 -0.349841 0
1.484411 0.228799 -0.120996 0
1.444475 0.458994 0.184011 0
1.487344 0.595982 0.214200 0
1.584761 3.765631 0.522397 0
0.691216 0.305886 -0.118322 0
0.137975 0.488908 -0.121713 0
0.176250 0.715268 -0.003428 0
0.772120 0.257990 -0.129632 0
0.488965 0.256900 -0.116181 0
0.127277 0.683104 -0.127955 0
0.507164 0.257064 -0.130581 0
0.194256 0.583686 -0.116886 0
0.273502 0.666440 -0.098631 0
0.137890 0.595068 -0.109223 0
0.482351 0.237477 -0.114888 0
0.633608 0.235898 -0.104499 0
0.261306 0.711994 -0.114891 0
-0.293172 3.805799 0.030621 0
0.526242 1.208797 -0.110287 0
0.836462 0.387229 -0.388500 0
1.347029 2.166879 -0.459558 0
-0.333217 3.951115 0.219741 0
-0.238969 4.445853 -0.164399 0
-0.615420 3.807236 0.042185 0
1.739005 0.231367 -0.467370 0
-0.201636 3.718398 0.053730 0
1.487518 0.223381 -0.268449 0
0.129194 0.844411 0.004186 0
-0.520326 3.867250 0.140827 0
1.477316 0.607206 0.221216 0
1.337966 2.097235 0.298004 0
1.617246 0.431831 -1.048317 0
1.488096 0.998520 0.268915 0
1.205425 0.443861 -0.275253 0
0.468207 0.239874 -0.117573 0
1.442083 2.314343 0.384538 0
0.416142 0.131507 -0.128008 0
0.256840 1.228785 -0.142255 0
1.477024 0.600368 0.077206 0
1.594808 0.793125 0.291950 0
1.474353 0.517317 0.324008 0
0.349179 1.643773 -0.130970 0
1.487299 0.493308 0.343548 0
-0.093680 0.766951 -0.130249 0
1.448675 0.523045 0.039207 0
2.012697 2.112819 0.372250 0
0.467602 3.072807 0.119684 0
0.362517 0.647105 -0.123985 0
0.130732 3.366548 0.069231 0
0.320906 0.557928 -0.085201 0
1.524375 1.519385 0.267790 0
1.537236 0.632482 -0.320920 0
0.000253 0.395526 -0.121532 0
0.000082 0.395574 -0.121883 0
0.491014 0.644782 -0.124098 0
-0.224719 3.801702 0.226479 0
-0.124646 0.857108 -0.070381 0
0.105012 0.920150 0.032387 0
1.660771 1.224387 0.336241 0
0.132126 0.597443 -0.125225 0
0.484694 0.639940 -0.121077 0
-0.037221 4.398139 -0.155104 0
0.123528 3.895431 0.131380 0
1.537969 5.055831 -0.579660 0
1.348321 1.947725 0.171348 0
1.374518 1.917309 -0.323227 0
1.313771 1.815059 -0.300839 0
1.487827 4.611703 -0.544461 0
1.853584 5.694211 1.226593 0
1.450007 0.944740 0.199072 0
1.812158 3.456748 -0.794071 0
1.357453 2.280724 -0.313679 0
1.467397 1.311652 0.264663 0
1.560264 4.014070 0.427613 0
1.464654 0.584681 0.042154 0
0.063610 0.593754 -0.121746 0
-0.682473 1.082870 -0.113459 0
-0.419994 1.020508 -0.130495 0
-0.274197 0.866890 -0.109848 0
0.387321 0.236452 -0.118030 0
-0.125307 1.352793 -0.141372 0
-0.310194 0.750364 -0.056117 0
-0.336241 0.932889 -0.049951 0
-0.126831 0.681272 -0.094191 0
-0.266469 0.791505 -0.032083 0
-0.234001 0.816718 -0.062916 0
1.132511 1.080020 -0.228222 0
-0.293243 0.900623 -0.000603 0
-0.272295 1.113511 0.003441 0
0.303966 0.629413 -0.105002 0
1.628472 1.089298 0.303626 0
-2.388723 3.734410 -1.567055 0
0.046260 0.785599 -0.129729 0
-0.200734 0.868044 -0.038339 0
-0.273515 1.017259 -0.019251 0
-0.161154 0.786945 -0.132844 0
-0.292876 0.882068 -0.041919 0
-0.285201 0.847758 -0.078628 0
0.003592 0.623645 -0.125921 0
0.332716 0.626282 -0.104148 0
-0.188313 0.898587 -0.016402 0
0.354910 0.572230 -0.107375 0
0.006552 0.920919 0.014287 0
1.588346 0.791810 0.289100 0
0.019452 0.349078 -0.117068 0
0.322845 0.570968 -0.099842 0
0.480598 0.324550 -0.118770 0
3.469134 1.016539 1.581203 0
0.321158 1.579426 -0.002247 0
0.319459 1.380217 -0.091070 0
0.478722 0.289399 -0.113359 0
0.557792 0.558644 -0.103327 0
1.157589 1.548551 -0.491170 0
0.350432 0.569018 -0.105788 0
0.034602 0.816993 -0.000265 0
-0.273294 1.015810 -0.024533 0
-0.322364 0.906961 0.001598 0
-0.316713 0.872303 -0.119452 0
0.329830 0.629064 -0.104680 0
-0.553926 1.119640 -0.347455 0
0.198409 0.864180 -0.077135 0
-0.431801 0.954305 -0.089995 0
-0.109231 1.016437 0.278605 0
0.092697 0.705489 0.017239 0
0.187136 0.848055 0.002013 0
-2.942248 4.667792 1.479075 0
-0.170424 0.798623 0.053677 0
0.373665 0.625671 -0.122869 0
1.548850 0.325069 -0.077549 0
0.081158 0.812813 0.017609 0
1.440588 1.842227 -0.047974 0
-0.110262 0.839507 -0.049614 0
1.290493 1.986414 -0.199470 0
1.427562 0.495950 0.332462 0
1.359179 2.206177 -0.536538 0
1.361111 0.626046 -0.058892 0
0.258838 2.977420 0.122313 0
3.472426 1.081458 1.672349 0
0.532916 2.115518 -0.206553 0
1.509824 0.700233 0.284063 0
1.472170 1.317481 0.266119 0
0.343872 1.480092 -0.139991 0
1.488034 0.526587 0.298455 0
0.132424 3.681990 0.118072 0
1.539984 0.630839 -0.305233 0
1.398800 1.324554 0.075919 0
-0.135090 4.011532 0.065716 0
1.389029 1.295997 -0.161773 0
1.395410 1.787231 -0.043327 0
1.221602 2.002104 -0.277616 0
0.356452 1.657372 -0.119036 0
-0.487126 3.218394 0.248998 0
1.554815 0.857048 0.325785 0
0.339332 1.571610 -0.142182 0
1.478358 0.476486 0.003512 0
1.410214 0.537422 0.315250 0
1.459975 0.490471 0.162027 0
0.292135 1.579496 0.033494 0
1.471030 0.400787 0.224115 0
1.428778 0.401074 0.373732 0
1.466202 0.406250 0.337905 0
2.070611 1.613771 0.428114 0
0.102742 0.756932 0.013521 0
-0.103858 1.017654 -0.056691 0
0.090629 0.812530 0.003588 0
-0.092448 0.983146 -0.050832 0
-0.133014 0.780399 -0.004064 0
-0.194076 0.837965 -0.035997 0
-0.274958 1.020778 -0.017973 0
-0.069633 1.007077 0.119904 0
-0.266494 0.992220 0.022676 0
-0.270291 0.951473 0.017473 0
-0.127806 1.102980 -0.124012 0
-0.066383 0.664713 -0.126865 0
-0.071623 1.014138 0.040053 0
-0.128816 0.768291 -0.000964 0
-0.015532 1.004499 -0.090043 0
-0.084873 1.074715 -0.051385 0
-0.310648 0.937001 0.007380 0
0.131942 0.855483 0.008027 0
0.490867 0.257139 -0.117812 0
-0.132244 0.684759 -0.129977 0
0.090273 0.793949 0.014493 0
-0.143670 0.819933 -0.055685 0
-0.134993 0.690612 -0.132769 0
-0.240732 0.739809 -0.026391 0
-0.177341 0.873195 -0.032727 0
-0.069811 0.929025 -0.050474 0
-0.139509 0.697613 -0.134079 0
0.087738 0.793926 0.016805 0
-0.197867 0.616410 -0.088042 0
1.441900 5.353798 0.650889 0
6.973714 0.948481 1.714725 0
1.520386 0.154097 -0.195515 0
0.574107 2.748992 -0.235359 0
0.260175 0.696898 -0.113883 0
1.464116 0.209472 0.218707 0
1.450281 0.149691 -0.192473 0
0.199282 0.897881 -0.079441 0
0.321680 0.569458 -0.099552 0
0.330701 1.577494 -0.004463 0
0.296993 3.049219 0.116237 0
0.062378 0.593659 -0.126284 0
0.253547 3.089397 0.209383 0
0.027878 0.363356 -0.121774 0
0.111830 0.600641 -0.110175 0
0.677491 1.996822 -0.246379 0
0.670551 0.533592 -0.107961 0
0.030267 0.362509 -0.119766 0
0.459364 0.249240 -0.114987 0
0.280142 3.105729 0.281981 0
-0.296901 0.870618 -0.015073 0
0.433673 2.981471 0.123043 0
0.471705 3.316457 0.315564 0
0.265023 3.080841 0.197045 0
0.698651 1.374183 0.387858 0
0.129695 0.673993 -0.122884 0
0.121233 0.535093 -0.113986 0
0.693430 0.304208 -0.116792 0
0.278187 0.679675 -0.097442 0
0.122839 0.728314 -0.120653 0
0.117382 0.540217 -0.118115 0
0.260447 0.671990 -0.099857 0
1.487630 0.330340 -0.060454 0
1.522076 0.434261 0.452524 0
0.352690 1.659570 0.182305 0
0.055937 0.597299 -0.121648 0
4.160010 -0.607259 -4.039712 0
-0.055288 0.953373 0.043458 0
-0.130816 1.595981 0.068554 0
-0.075040 0.775955 -0.037412 0
1.455332 0.372992 -0.310680 0
1.492908 0.380079 -0.165933 0
1.785264 -0.155311 -1.620625 0
1.506349 0.575872 0.305304 0
-0.115287 0.901508 -0.059320 0
1.466730 0.529767 0.185221 0
0.062707 0.585361 -0.124704 0
1.510135 0.563439 0.335567 0
1.438977 0.542458 0.321418 0
0.312211 1.499242 0.006308 0
-0.127622 1.057238 -0.103460 0
1.459585 0.643685 0.369738 0
1.468464 2.028995 -0.447601 0
-0.270856 0.973057 -0.020950 0
-0.077209 1.257495 0.239104 0
-0.070425 1.225740 0.232699 0
-0.147700 0.850440 -0.072218 0
2.014665 1.643476 1.244954 0
1.945029 1.599801 1.199767 0
3.173022 0.998472 1.526908 0
1.562004 1.450625 0.272974 0
1.556633 1.375008 0.276907 0
0.323733 1.548062 -0.001868 0
0.279803 1.584272 0.035566 0
0.332731 1.564795 0.035004 0
1.127943 1.585156 -0.151861 0
1.317320 2.155521 -0.223297 0
1.178063 1.675999 -0.134662 0
-0.070103 1.031904 -0.110070 0
0.012316 4.414280 0.050192 0
0.010652 3.326082 1.483374 0
1.848864 2.728274 1.517671 0
0.276356 3.130430 0.122060 0
-0.169543 4.958905 0.051780 0
1.434087 0.449971 -0.232255 0
1.480368 0.380536 -0.318004 0
1.377012 1.675357 0.193594 0
0.217605 3.333873 1.481658 0
1.306048 2.163434 -0.302534 0
1.360314 1.876203 -0.309623 0
1.346150 2.963495 -0.736991 0
1.542692 4.334662 0.497716 0
1.419880 0.433800 -0.316846 0
0.047846 0.353792 -0.121655 0
1.459682 0.372765 -0.309319 0
2.746056 1.190905 0.642362 0
0.049719 0.348013 -0.117797 0
1.441884 0.689325 0.368409 0
1.481067 0.467993 0.472000 0
0.199250 0.882724 -0.079147 0
0.308983 0.634079 -0.014429 0
0.340225 0.167547 -0.116679 0
-0.428923 0.371204 -0.266754 0
0.010192 0.042327 0.068762 0
-0.022211 0.073808 0.047821 0
0.070707 0.051348 0.053876 0
0.035410 0.028760 0.056140 0
-0.026313 0.141298 0.007967 0
0.071064 0.051697 0.053743 0
-0.010475 0.083425 0.068159 0
-0.228857 0.325817 -0.223188 0
0.132844 0.590412 -0.111390 0
0.305104 0.368102 -0.104192 0
-0.409401 0.992464 -0.123042 0
0.034354 0.826797 -0.051283 0
0.070706 0.596917 -0.103426 0
0.311708 0.391603 -0.086275 0
0.287302 0.389970 -0.107512 0
0.354728 0.579557 -0.105740 0
-0.013084 4.876487 0.118903 0
0.460119 3.231375 0.300096 0
-2.329810 1.877808 -1.497205 0
0.401204 2.813116 0.301396 0
0.919258 0.590812 -0.147104 0
0.168259 0.746715 -0.123609 0
0.006647 0.372465 -0.132237 0
0.130501 0.673124 -0.120901 0
0.037212 0.767469 -0.084334 0
1.386579 1.353765 0.211805 0
0.173423 0.762485 0.002734 0
1.411033 1.327399 0.075553 0
0.467347 3.089344 0.204629 0
0.107654 3.816277 0.166244 0
1.481754 0.525456 0.154698 0
1.560178 0.877739 -0.285904 0
1.396863 2.339054 0.097818 0
0.087833 0.605509 -0.123462 0
0.185550 0.860216 -0.137198 0
1.306231 1.717056 -0.486449 0
0.273070 3.156381 0.186566 0
1.471188 0.553924 0.327778 0
0.015992 0.350325 -0.121371 0
0.517054 0.244278 -0.131811 0
0.627556 0.556001 -0.193886 0
0.458756 0.249850 -0.115184 0
0.499961 0.333713 -0.131244 0
0.134784 0.601345 -0.112622 0
0.492971 0.237133 -0.118719 0
0.127693 0.675415 -0.119687 0
1.517411 0.716302 0.283825 0
-0.423049 3.880884 0.168602 0
1.511860 0.560541 0.343187 0
1.553097 0.876710 -0.287411 0
1.506735 0.581969 0.388689 0
1.658150 1.254646 0.641925 0
1.389329 0.953694 0.102180 0
0.148403 0.475297 -0.120226 0
0.139582 0.485741 -0.119419 0
1.938527 3.366390 0.969253 0
1.355531 2.110973 0.231270 0
-0.219003 4.320711 0.241480 0
1.915147 1.501939 0.398048 0
1.533326 4.250496 -0.121307 0
1.581076 8.018054 -0.642502 0
1.455874 0.679903 0.272756 0
-0.286016 0.935643 -0.002007 0
-0.278252 0.951105 0.001077 0
0.018200 0.328687 -0.117124 0
0.091173 0.792484 0.015150 0
1.070163 3.470135 1.714057 0
1.608862 1.089296 0.314477 0
0.950099 2.936011 1.452584 0
1.514249 3.861768 0.004241 0
1.392577 1.313434 -0.042919 0
-0.005095 0.522637 -0.120944 0
-0.191408 3.812828 0.046556 0
3.576524 1.141841 -3.634878 0
-0.133184 0.785701 -0.036026 0
1.546905 2.031668 0.801801 0
-0.446540 0.710106 0.154728 0
-3.053070 3.337261 -1.894879 0
0.045242 0.761334 0.005785 0
-3.029375 3.063013 -0.268805 0
-1.981495 3.857322 0.006985 0
-5.010339 3.639807 1.120894 0
-2.494470 2.648460 -1.603347 0
-5.296122 4.718384 1.493677 0
-0.017656 0.446639 -0.180149 0
-5.435023 4.192217 1.590427 0
-5.214623 4.017967 1.599025 0
-4.105538 3.164826 0.588124 0
1.934960 3.505431 0.908241 0
-0.391398 0.433121 -0.227785 0
0.624256 1.909021 -0.228457 0
-0.890616 0.942837 -0.550012 0
-0.252125 1.041448 0.028373 0
0.111538 0.102246 0.041479 0
0.491499 0.280544 -0.119246 0
-0.166169 0.860397 0.045569 0
1.449054 0.678469 0.286228 0
1.577730 0.791574 -0.223343 0
1.470282 0.529141 0.186396 0
-0.219617 0.662420 -0.121404 0
0.262478 0.364134 -0.087230 0
-0.155937 0.661219 -0.005008 0
-0.035399 1.110269 -0.075272 0
0.130754 0.592380 -0.122568 0
1.740925 1.928198 0.364963 0
1.850296 5.089386 1.452943 0
0.015208 0.038533 0.054467 0
0.011116 0.048911 0.049232 0
1.862726 1.739082 1.132292 0
-0.175072 3.733861 0.150934 0
0.300229 0.325359 -0.135304 0
0.140196 0.584361 -0.265355 0
0.249825 0.150098 -0.107736 0
0.358377 0.357601 -0.059356 0
0.095754 0.400992 -0.124026 0
0.306135 0.376797 -0.055248 0
0.313647 0.320252 -0.100281 0
0.228468 0.558501 -0.251580 0
0.357393 0.175392 -0.126495 0
0.245392 0.337703 -0.075565 0
0.384600 0.378340 -0.100193 0
0.516044 0.316652 -0.129503 0
0.067480 0.239520 -0.070530 0
0.067841 0.239219 -0.069813 0
0.068601 0.240108 -0.071493 0
1.328233 1.743807 -0.496175 0
0.469114 2.992488 0.211447 0
1.452040 0.400001 0.276908 0
1.506457 0.368989 0.070427 0
1.468340 0.451367 0.038816 0
1.330941 2.105957 -0.443081 0
1.348279 2.184445 -0.529618 0
1.329913 2.298860 0.064998 0
1.616560 0.799344 -0.286363 0
1.342909 2.222594 -0.586286 0
0.121851 4.236222 0.269255 0
0.949656 3.109652 1.526464 0
1.479312 0.766074 0.067615 0
1.522726 0.759812 0.284442 0
1.316309 1.251472 -0.315096 0
0.086310 0.800580 0.022178 0
-0.087226 0.988885 0.251852 0
1.444384 0.532079 0.316520 0
0.189404 0.856827 -0.133008 0
1.459429 0.374380 -0.076397 0
1.490499 0.641042 0.375268 0
1.414549 0.401540 0.327817 0
1.553653 0.476428 -0.323182 0
1.486014 0.403117 0.391958 0
1.516279 0.510122 -0.330223 0
0.520501 1.051638 -0.102676 0
0.519263 1.046679 -0.096859 0
0.679073 0.371255 -0.112394 0
-0.066543 1.013267 0.039953 0
1.480756 0.464819 -0.304443 0
0.352070 1.656340 -0.125515 0
0.259542 0.701939 -0.109873 0
0.694735 0.506399 -0.097844 0
0.633792 3.692141 0.141085 0
0.674585 0.496226 -0.092837 0
0.605390 0.474605 -0.074016 0
1.628143 2.147088 0.509995 0
2.033169 1.420794 0.630296 0
0.303535 3.095227 0.328510 0
1.456089 0.382168 -0.308244 0
1.272540 5.221742 0.457585 0
1.474502 5.564580 -0.255183 0
1.445347 2.102461 0.484640 0
1.300786 1.935245 0.139948 0
1.509642 6.387430 0.740148 0
0.148810 0.477607 -0.121616 0
1.724939 0.556737 -0.004451 0
1.358016 5.712892 0.060221 0
0.522881 0.464540 -0.097326 0
0.224902 1.312518 -0.052796 0
0.225288 1.345252 -0.057865 0
0.189947 0.844498 -0.129148 0
0.131548 0.669614 -0.121738 0
-0.044191 1.055965 0.005464 0
0.326154 0.398747 -0.061317 0
0.344961 0.562294 -0.104720 0
0.231546 0.581577 -0.260761 0
0.337797 0.486975 -0.146867 0
-0.327898 0.313148 -0.220858 0
0.042338 0.105926 0.090201 0
0.182061 0.754796 -0.042498 0
-0.938905 1.523635 -0.591339 0
0.391129 0.238551 -0.119772 0
-0.263470 0.855701 -0.087466 0
0.385124 0.235106 -0.117040 0
-0.318557 0.862583 -0.036538 0
1.496059 0.323237 -0.162858 0
1.490825 0.408939 0.226752 0
1.468633 0.367981 0.071746 0
1.449409 0.644428 0.368114 0
1.489858 0.387013 0.284292 0
0.377245 0.370505 -0.095623 0
-0.961403 1.855092 -0.620746 0
-0.422547 1.350531 -0.138636 0
0.277460 1.378628 -0.101960 0
0.231439 1.067201 -0.116010 0
0.106625 0.571749 -0.116846 0
1.458696 0.384096 -0.157552 0
-0.747376 1.290955 -1.189329 0
-1.059800 1.390124 -1.407182 0
0.196223 0.874679 -0.080795 0
-0.790856 1.488392 -1.327796 0
1.448802 0.655589 0.368322 0
1.355292 0.476648 0.296684 0
0.327035 1.666474 0.030267 0
1.466046 0.313406 -0.160323 0
0.245986 3.271176 -0.867485 0
1.492680 0.329234 -0.066063 0
1.389405 2.180924 0.331681 0
1.347132 2.134825 -0.452009 0
0.479831 1.168679 -0.123834 0
1.573846 0.816897 0.333562 0
0.117371 0.565538 -0.109065 0
1.411359 1.308445 -0.166322 0
0.328714 1.631225 -0.008648 0
0.276929 0.692231 -0.102354 0
0.980235 4.726030 -0.573960 0
1.460565 0.408434 0.384714 0
2.179776 1.615446 0.691103 0
1.390564 0.144497 -0.571845 0
1.550718 0.135628 -0.427108 0
1.444146 0.204224 0.217182 0
0.223578 5.638384 1.467552 0
1.513611 0.221606 -0.286439 0
0.345799 0.309768 -0.087453 0
1.508232 0.613866 -0.291452 0
-0.214115 0.667872 -0.117807 0
1.466556 0.479172 -0.340624 0
0.374823 0.336129 -0.108940 0
0.202812 0.566896 -0.128537 0
0.206057 0.513847 -0.123494 0
0.798490 0.345310 -0.134400 0
0.766482 0.340451 -0.122963 0
0.136275 0.596616 -0.124161 0
0.179201 0.722600 -0.112768 0
1.581390 0.705484 -0.313566 0
0.239706 3.200252 -0.844843 0
0.091156 0.783565 0.025484 0
1.520310 1.547546 0.265406 0
0.004708 0.296291 -0.115026 0
1.478151 0.459451 -0.139124 0
1.288076 1.849088 -0.479210 0
1.432508 0.676397 0.324198 0
1.028035 1.679758 -0.202704 0
0.925163 1.369401 -0.360320 0
0.263501 0.700422 -0.110920 0
0.031263 0.773902 -0.061549 0
0.031074 0.795308 -0.058282 0
1.099319 0.415382 0.257746 0
0.021337 0.817671 -0.101415 0
0.131068 0.855152 0.007450 0
0.018715 0.056869 0.051326 0
0.286640 0.403540 -0.105748 0
0.358725 0.317689 -0.096850 0
0.285325 0.309813 -0.124541 0
0.094944 0.398520 -0.122781 0
0.239499 0.594875 -0.270751 0
0.137338 0.567045 -0.254967 0
0.132741 0.597372 -0.109159 0
0.189047 0.605704 -0.128364 0
0.152448 0.471870 -0.116669 0
0.800283 1.755614 -0.216594 0
0.036432 0.822684 -0.051349 0
0.167253 0.755310 -0.357714 0
1.502696 0.170263 -0.109069 0
1.440940 0.213484 0.064019 0
1.429278 0.221258 0.259658 0
1.384702 0.221331 0.254199 0
1.494182 0.212681 -0.074295 0
0.140137 0.479211 -0.115034 0
1.549316 0.345044 -0.336354 0
1.511038 0.320753 -0.328183 0
1.403180 0.202893 -0.244266 0
1.523468 0.154212 -0.585996 0
1.361830 1.267768 -0.158915 0
1.459357 0.513550 -0.001859 0
-0.287080 0.948199 0.004952 0
1.479398 0.224672 0.136001 0
1.747351 0.369258 0.740713 0
1.482998 0.225094 0.135027 0
1.426584 1.328634 -0.167483 0
0.352865 0.953958 -0.183764 0
3.870730 1.900322 0.958999 0
0.167796 0.715578 -0.100206 0
1.364549 0.412794 -0.345583 0
-0.132882 1.632788 0.113089 0
0.132810 0.642536 -0.132492 0
1.465946 0.305969 -0.157146 0
2.706738 0.799246 1.235797 0
0.354382 0.584656 -0.105061 0
-0.172710 0.723598 -0.122606 0
0.361114 0.598633 -0.116210 0
0.130674 0.616430 -0.118428 0
-0.138874 0.784883 -0.009336 0
0.488515 0.188093 -0.135621 0
0.064849 0.610046 -0.127589 0
0.287468 0.312674 -0.126750 0
-0.156838 0.238136 -0.119505 0
0.351840 0.507701 -0.171820 0
0.490826 0.146866 -0.114676 0
1.460629 0.851059 -0.061706 0
-0.377555 0.937648 -0.112540 0
-0.035035 1.076924 -0.122527 0
-0.264624 0.971207 0.038287 0
0.193482 0.808692 -0.053099 0
-0.291595 0.855800 -0.014745 0
0.130155 0.613425 -0.115762 0
-0.191999 0.833883 -0.037686 0
-0.263069 0.826476 -0.066293 0
-0.076365 0.418259 -0.122018 0
0.167363 0.736222 -0.121895 0
