ply
format ascii 1.0
element vertex 3098
property float x
property float y
property float z
property int map_id
end_header
0.190052 0.513802 -0.119617 0
1.410279 1.316057 -0.049471 0
-0.149054 1.055106 -0.116266 0
0.352740 1.390842 -0.100624 0
0.337194 1.266496 -0.147474 0
-0.112253 0.792110 0.269642 0
-0.240107 0.929184 -0.122172 0
1.743734 1.284427 0.562675 0
1.371269 2.068689 -0.231768 0
1.341739 5.457206 0.395279 0
0.108473 0.452736 -0.063879 0
-0.100541 0.934659 -0.046137 0
-0.115290 0.794878 -0.131106 0
-0.168161 0.687065 -0.126053 0
-0.385656 1.277492 -0.013743 0
-0.492837 1.201573 -0.102519 0
1.028960 0.662589 -0.158411 0
1.403795 1.389718 0.070429 0
0.658385 1.232212 -0.067669 0
-0.101298 0.944266 -0.135645 0
-0.279139 1.256851 -0.069810 0
-0.457761 1.261751 -0.069922 0
0.065477 3.522702 0.012875 0
1.247693 1.234997 -0.189861 0
1.433071 0.976265 0.122104 0
1.160644 0.754114 -0.135429 0
1.228836 0.792907 -0.133896 0
0.717743 1.403938 -0.100786 0
1.585212 1.749606 0.274278 0
1.438482 1.659186 0.250684 0
1.403842 1.087879 0.223707 0
1.381051 1.011758 0.223860 0
0.406134 0.203900 -0.117591 0
-0.147471 0.941915 -0.079943 0
-0.031223 1.015145 -0.117587 0
0.048037 0.814678 -0.129721 0
0.048969 0.467491 -0.091405 0
-0.121124 0.845806 -0.129384 0
-0.008018 0.977312 -0.137682 0
-0.192509 0.697893 -0.118671 0
0.101757 0.798741 -0.128957 0
-0.199988 1.281137 -0.243094 0
0.742315 0.476114 -0.090162 0
-0.090314 0.668610 -0.126040 0
0.135139 0.480934 -0.120212 0
-0.359142 1.152331 0.006205 0
0.221709 1.511181 -0.039524 0
1.404988 1.750796 0.006328 0
-0.349861 0.883388 -0.055989 0
0.172551 0.805836 -0.126400 0
-0.037931 0.963799 -0.121997 0
-0.180867 3.143383 -0.051127 0
0.747995 0.513839 -0.097107 0
0.636263 1.450978 -0.201133 0
-0.281473 1.158726 -0.077315 0
-0.495004 1.205086 -0.100958 0
0.660363 1.240756 -0.066258 0
-0.079467 0.414372 -0.101955 0
-0.066396 0.498605 -0.125506 0
-0.083384 1.109346 -0.117237 0
-0.007673 0.982229 -0.131782 0
0.045372 0.812777 -0.128887 0
-0.041461 1.123962 -0.107690 0
-0.878685 3.005053 0.231682 0
1.591625 3.848202 0.675538 0
1.394027 1.934230 0.068184 0
1.386203 2.067292 -0.108741 0
1.489598 3.540340 0.048628 0
1.773005 1.537350 0.321350 0
1.410601 0.991974 0.224669 0
0.679698 3.937475 0.185547 0
1.443543 1.785297 0.115820 0
1.395775 1.392094 0.069881 0
1.863922 2.866596 0.749011 0
1.425156 2.282153 0.383464 0
1.575144 6.393416 0.893924 0
1.706287 1.799301 0.646210 0
1.252113 3.854749 -0.461874 0
-5.677164 8.115044 0.486979 0
0.169144 0.806563 -0.124960 0
-0.151665 0.829384 0.097289 0
-4.776900 6.081127 1.030920 0
1.350307 2.251255 0.106005 0
1.535401 3.718786 0.275169 0
1.834270 3.515785 1.488818 0
1.822064 1.727281 1.074866 0
1.287808 1.279318 -0.199044 0
1.433087 2.298834 0.473100 0
1.537248 3.715493 0.247085 0
1.650021 3.918678 0.683871 0
1.701298 1.906715 0.355673 0
1.404596 1.706200 0.197839 0
2.019181 3.156025 0.804077 0
0.205827 4.339546 1.386413 0
-0.375575 1.916427 -0.469914 0
-3.424613 2.796212 0.204267 0
-2.658705 3.150358 0.184900 0
1.477738 1.415222 0.254086 0
-0.122713 1.102331 -0.074647 0
-2.795008 3.086049 -1.796468 0
-3.099982 5.158207 0.236708 0
-2.806768 2.171549 -0.285000 0
-1.984523 2.799582 -0.460675 0
-2.042437 5.025184 -0.190579 0
-3.144565 3.732949 0.285632 0
1.516662 7.901240 0.952220 0
-2.842895 3.198004 0.069785 0
-0.119135 0.728740 -0.133437 0
-4.890871 6.117847 1.446648 0
-0.465112 1.166257 -0.137647 0
0.102895 0.799341 -0.128037 0
1.473237 0.702506 -0.356972 0
0.402600 1.521794 -0.165479 0
0.503010 0.958275 -0.141876 0
1.424400 2.379899 0.112030 0
-0.099496 0.750783 -0.125963 0
-4.836244 8.698668 1.325072 0
-0.117659 0.346893 -0.089407 0
-4.825567 8.673920 1.353066 0
-3.011945 3.165864 0.600225 0
-0.030244 3.826162 0.137529 0
1.377969 2.367203 0.054669 0
-2.990889 8.264106 1.438741 0
0.954885 4.673210 1.441985 0
1.564896 0.918350 -0.334987 0
0.265622 6.928945 1.412178 0
-1.552394 6.208188 1.430259 0
-1.829734 8.390359 0.958568 0
-2.867392 2.941629 0.564427 0
1.906272 2.805993 1.360479 0
0.391022 1.417713 -0.092200 0
0.833619 4.662699 0.042694 0
-3.351761 3.674889 -2.191901 0
1.224332 1.413088 -0.661366 0
1.271736 1.492008 -0.696723 0
-2.611666 4.178797 -0.066015 0
1.406135 1.323409 -0.046773 0
1.400067 1.908405 0.390995 0
-2.725024 4.066333 -0.224458 0
-0.338850 1.085078 -0.075469 0
1.733173 4.949987 0.632833 0
-2.038301 2.758927 -0.298672 0
1.754798 2.257543 0.533549 0
1.410295 5.916127 0.070999 0
1.528700 4.200592 0.506398 0
1.425331 1.733410 0.199425 0
1.219860 1.332669 -0.041626 0
1.580621 4.343924 -0.131852 0
0.120222 4.320244 0.271512 0
1.495161 5.662263 0.751447 0
-3.718704 8.350300 0.213481 0
-1.900476 2.206661 -0.440389 0
1.388342 2.070991 -0.106292 0
0.016949 4.191105 0.064208 0
-0.232559 7.799387 0.317369 0
-1.980489 2.798850 -0.460981 0
1.528044 6.239541 0.847492 0
1.380500 2.064102 -0.105658 0
0.013318 4.623805 1.485863 0
0.125083 4.273649 0.270695 0
1.503373 5.923487 1.087924 0
-2.109417 2.225920 -0.602860 0
0.375422 8.711774 1.110963 0
1.741483 5.621658 0.913190 0
0.365358 1.412126 -0.100319 0
1.433498 2.289720 0.470734 0
1.422075 2.267884 0.394408 0
1.376795 1.865929 0.388739 0
1.466539 5.965752 0.869774 0
0.064629 3.589253 -0.002001 0
-2.367531 4.386412 -0.098860 0
1.361874 1.933253 0.282145 0
1.691560 1.463725 0.314228 0
1.657383 1.249676 0.646428 0
0.023846 4.658040 1.486676 0
-0.862509 2.974154 0.228464 0
0.030291 5.778872 1.461608 0
1.414075 3.422172 0.152792 0
1.522705 5.741101 0.514445 0
1.375588 4.414661 0.348208 0
1.412891 1.312252 -0.167742 0
0.396247 0.200728 -0.111781 0
-0.418428 1.261261 -0.056168 0
0.654840 3.809923 0.184853 0
0.082977 4.759228 0.273968 0
-3.754856 8.433601 0.309657 0
-3.530046 6.347140 0.409893 0
1.371215 2.285891 0.280432 0
-0.138079 0.734005 -0.117838 0
-2.285669 3.013240 -0.084709 0
1.730388 1.282466 0.359799 0
1.381705 1.014917 0.276610 0
-0.121155 0.802637 0.270897 0
-0.495111 1.219202 -0.106983 0
-0.115692 0.801193 -0.131753 0
1.473316 3.549743 0.283212 0
1.387589 1.018390 0.292227 0
1.419576 1.759716 0.013642 0
-0.365599 1.597365 -0.024718 0
-1.898617 2.207815 -0.442228 0
1.745901 1.927386 0.441941 0
1.438052 1.386394 0.253600 0
1.369585 2.294270 0.283183 0
1.378651 2.209403 0.097592 0
1.664453 1.247762 0.652772 0
-4.677728 6.895353 1.464497 0
-4.772946 6.861179 1.024089 0
0.545284 3.132180 0.090831 0
1.958735 3.297894 1.112548 0
1.859095 2.416385 1.274942 0
1.403260 1.395460 0.071356 0
0.062594 3.411857 0.019405 0
1.436418 2.310627 0.474869 0
1.397352 1.907260 0.391535 0
1.701961 7.170681 1.234429 0
-0.861880 2.938939 0.235035 0
-0.705064 2.845485 0.101231 0
1.744575 5.248253 0.542817 0
1.350732 2.096971 0.230045 0
1.391311 1.304582 -0.044822 0
1.693470 1.791440 0.645210 0
1.453747 0.925228 -0.119349 0
1.851351 2.828515 0.907587 0
0.046908 0.816016 -0.129874 0
1.217542 1.312576 -0.311959 0
1.780423 4.884617 1.399645 0
0.254950 5.776198 1.467660 0
1.573352 4.311301 1.505570 0
-0.138815 3.663388 -0.000923 0
0.226353 3.416031 1.495572 0
1.844256 1.753657 1.083605 0
1.482149 5.285031 -0.246509 0
-1.977204 7.442365 -0.132859 0
1.466473 3.824475 0.040612 0
1.872527 2.872370 0.751099 0
1.355634 1.858221 0.415940 0
1.498810 1.038051 0.305156 0
1.569902 5.595473 0.910464 0
1.431225 1.742959 0.198581 0
1.723186 1.805960 0.335571 0
1.401238 1.733474 0.225614 0
1.223029 1.339427 -0.040988 0
1.402521 2.263944 0.095551 0
1.689392 4.847300 0.594584 0
1.675307 1.990745 0.463287 0
1.878807 3.059277 0.914644 0
0.863115 0.555605 -0.118235 0
1.876589 3.600699 1.528618 0
2.109586 3.582515 1.480049 0
-0.843978 2.796984 0.150242 0
-0.841946 2.811778 0.114595 0
-0.016927 4.858809 0.114496 0
-0.148737 4.629911 0.057927 0
-0.189528 3.691064 -0.027306 0
1.496352 6.000522 -0.268133 0
1.513266 5.981251 0.125185 0
1.534466 5.810402 0.170326 0
1.501670 5.576087 0.765833 0
1.353876 1.866545 0.070719 0
1.606071 4.371562 -0.131265 0
1.467001 3.569442 0.038170 0
1.360551 2.404216 0.097569 0
1.699261 1.800312 0.646995 0
1.888092 3.223482 0.740054 0
-3.552732 3.178898 0.324768 0
1.947545 3.654660 0.561265 0
1.788317 2.369628 0.880352 0
0.174934 0.814895 -0.130388 0
0.388305 8.526896 1.361719 0
-3.005832 3.533387 1.505701 0
-2.471439 5.078027 0.006674 0
-2.277538 2.559139 -0.180518 0
1.626365 3.796656 0.013259 0
-1.861991 1.886713 0.124146 0
1.508572 1.917724 0.447108 0
1.666156 6.313797 -0.129613 0
-2.155664 6.067267 -0.078372 0
1.446327 0.905577 -0.123074 0
1.342880 1.643100 -0.455429 0
-0.297349 0.989004 -0.118775 0
0.103514 0.855592 0.004317 0
0.670178 1.044387 -0.205834 0
-0.792564 0.556217 -0.161216 0
-0.384728 1.679340 -0.041969 0
0.228869 1.592738 -0.055784 0
-0.400536 0.183662 -0.111247 0
0.344933 1.297826 -0.160358 0
-0.282532 1.130273 -0.068791 0
-2.208985 2.103023 -0.860645 0
1.203406 1.351869 -0.033526 0
-1.897360 2.981796 -0.439658 0
-2.245958 3.557744 -0.062710 0
1.574656 4.287792 -0.579996 0
-2.691741 2.942770 0.522797 0
-4.029725 3.587663 0.374587 0
0.048943 3.688908 -0.000183 0
1.487650 0.895865 0.130956 0
1.862914 2.422499 1.279170 0
-0.242460 3.713692 -0.110237 0
1.329794 0.924220 0.081311 0
-2.729608 3.240692 0.207038 0
-2.385216 3.117016 0.341680 0
-4.822052 7.009296 1.288735 0
0.619151 1.186077 -0.069169 0
0.235286 7.326367 1.318932 0
-0.320615 4.390579 0.217918 0
-3.056291 5.948579 1.502748 0
-2.221240 4.127718 -0.070848 0
-3.041479 3.026827 -0.175807 0
-3.699680 3.623093 -0.076271 0
1.462258 1.048483 0.355184 0
1.478632 5.548396 1.230625 0
-3.277791 3.184762 0.516473 0
1.380394 0.997112 0.223328 0
1.399515 2.088299 -0.109255 0
-0.000342 4.965528 0.104602 0
1.457494 4.935258 0.382861 0
-2.995340 5.083797 0.042401 0
-2.224172 4.108838 -0.063875 0
1.374172 1.938569 0.289512 0
1.789099 5.824054 1.371976 0
-0.331633 4.537477 0.219724 0
-4.157668 5.984901 0.357515 0
-2.952414 4.346995 0.243789 0
-2.716738 3.245563 -0.089239 0
1.683618 2.250044 0.526995 0
-3.054809 3.570909 1.528309 0
1.217329 1.311731 -0.311397 0
-2.950588 4.676665 1.481349 0
-3.151116 4.678553 1.469437 0
-3.386960 3.416028 0.198791 0
2.142817 1.756307 1.300351 0
-2.471992 4.164792 -0.185398 0
1.472209 4.407858 0.156588 0
-2.269971 5.033940 -0.205231 0
1.550621 4.038258 0.418234 0
1.527184 6.033014 0.933330 0
1.730805 1.906741 0.438408 0
-2.086681 2.713025 -0.466527 0
0.278050 7.083357 1.447411 0
1.402316 1.382333 -0.051444 0
-2.912004 8.139400 1.411187 0
-2.953118 5.835263 1.462010 0
1.381994 5.287586 1.104450 0
-2.882662 5.522911 1.418723 0
-4.917050 8.509541 1.404052 0
-3.040549 4.599541 1.444001 0
-2.632676 7.064579 1.279913 0
-3.656642 7.196840 0.395797 0
1.539979 5.786919 0.605415 0
-3.383155 3.405123 -0.158839 0
-4.552931 9.861628 0.828067 0
-2.171137 3.634394 -0.098318 0
1.359832 5.734710 0.052936 0
-2.759020 3.255031 -0.064440 0
-4.952497 4.724890 -0.369452 0
1.401930 1.305378 -0.164974 0
-2.714512 7.271359 0.225364 0
1.526244 6.182663 0.892641 0
-3.202935 4.029661 0.463576 0
-0.649164 0.644979 0.096700 0
1.488092 5.558795 0.526122 0
-3.167936 4.741620 1.483953 0
-3.532578 6.760090 -0.044694 0
-2.924276 6.388165 0.118299 0
-2.803613 2.921748 -0.215806 0
1.316076 5.573074 0.084034 0
-2.871120 3.241102 0.072376 0
-2.678538 2.839756 -0.088881 0
-2.703398 3.210427 -0.071809 0
-2.260784 4.838978 -0.198797 0
-2.937124 3.361503 1.462759 0
1.545722 2.168429 0.498314 0
1.436607 0.961481 0.243140 0
0.928651 1.054334 -0.128986 0
-4.541612 6.618743 1.418842 0
-2.494300 3.317221 0.235736 0
-0.310902 0.511765 -0.131305 0
-0.184854 0.338742 -0.118398 0
0.048681 0.824628 -0.130655 0
0.162002 0.787518 0.061987 0
-0.135888 0.785625 -0.039145 0
-2.745890 2.828071 -0.232643 0
1.413479 0.988844 0.227692 0
1.383987 1.999857 -0.117200 0
1.347152 1.013926 -0.134462 0
1.357217 0.853153 -0.058102 0
0.082340 0.415382 -0.128772 0
0.081155 0.410879 -0.124298 0
1.406508 0.982431 0.226478 0
0.101433 0.437905 -0.104619 0
-0.136250 0.415352 -0.105166 0
1.564711 0.619915 -0.323990 0
-2.305065 6.231863 -0.039251 0
-2.421945 4.516574 -0.089763 0
-2.338362 4.834556 -0.112099 0
-3.482309 6.901588 0.269710 0
1.268807 5.311584 -0.125168 0
-3.067989 3.057445 -0.197930 0
-2.394394 3.140246 0.334557 0
-3.867858 3.128715 0.092898 0
-2.694518 3.228865 -0.093347 0
0.040137 4.504285 0.267467 0
-3.173005 7.142982 1.452356 0
-3.190215 4.718053 1.481145 0
-2.222727 4.061913 -0.106550 0
1.448725 2.045722 0.471559 0
-3.482234 2.664554 -0.123014 0
0.152458 2.136889 -0.197233 0
1.398562 1.321150 -0.040225 0
1.418479 1.316975 -0.167917 0
0.738606 1.025568 -0.105767 0
0.353347 1.295610 -0.073469 0
1.584285 0.845545 -0.310616 0
1.108257 1.281419 -0.126410 0
1.381166 1.039382 0.260408 0
1.485625 0.897872 0.129626 0
0.687540 1.043688 -0.100984 0
-0.305285 0.987319 -0.119999 0
-5.007579 6.082611 1.504362 0
-2.913658 2.981558 0.584578 0
-4.792623 6.869514 0.983877 0
-4.803823 6.910472 1.278066 0
1.759403 5.740878 1.363504 0
-57.524185 51.175526 -0.008447 0
-2.214112 4.735784 -0.188686 0
-3.031873 3.051812 0.178700 0
1.706806 1.255208 0.559500 0
-2.655442 2.842325 -0.108517 0
1.799226 2.569087 0.848727 0
-0.195716 3.797884 -0.197644 0
-2.278092 4.065603 -0.351407 0
1.898577 5.548994 0.818139 0
-2.742873 5.442013 0.168672 0
-2.836922 4.753655 -0.075438 0
-0.198135 3.790362 -0.197124 0
-3.299369 3.299573 -0.185403 0
-2.897497 7.779952 0.247395 0
-2.182092 5.299798 0.049195 0
-2.259565 5.015017 -0.215743 0
1.638603 0.743710 -0.335688 0
-1.786238 5.015226 -0.143477 0
0.401163 1.247081 -0.100507 0
-4.208907 5.253835 0.562859 0
-2.248344 4.699830 -0.187972 0
-2.473658 3.334711 0.129015 0
1.389785 1.971574 -0.096035 0
-4.436736 9.956904 0.851195 0
1.498906 5.605656 1.262078 0
1.377068 5.778248 0.044626 0
1.462715 0.934367 -0.119794 0
-4.348674 6.263712 0.347298 0
-0.898700 3.022056 0.191954 0
1.358405 4.286332 0.356942 0
-3.502409 6.314290 0.420168 0
-3.294602 3.219957 0.008025 0
1.575106 2.182392 0.525891 0
1.463340 3.501863 0.072142 0
-2.468184 3.679049 -0.176822 0
-3.280778 3.192327 0.508049 0
-3.251645 3.310746 -0.094137 0
-2.488591 3.699079 -0.199395 0
1.451050 0.915057 -0.121691 0
-2.199541 2.301006 -0.637049 0
1.397962 1.384242 -0.050337 0
1.200714 1.382328 -0.352818 0
1.399661 1.091662 0.220899 0
-2.842797 7.728105 0.252559 0
-0.055556 3.936976 -0.177338 0
-0.254550 3.850454 -0.127575 0
1.735664 5.254922 0.538616 0
-2.084336 3.151239 -0.412137 0
1.427760 2.173760 0.417659 0
-0.919438 4.663163 0.236643 0
-0.961103 3.781396 0.122208 0
1.580935 5.964076 0.176440 0
1.531970 1.958964 -0.054046 0
-1.895517 3.876824 -0.074452 0
1.427617 2.290967 0.381546 0
-2.717029 3.198157 0.183916 0
0.241109 0.308372 -0.108741 0
-0.236472 6.964974 0.303739 0
-2.660951 3.980726 -0.225966 0
-3.201175 7.455335 1.504813 0
1.851698 7.823611 0.737469 0
0.319799 0.122932 -0.113424 0
-0.317490 3.739563 0.092091 0
1.569883 3.644625 0.675614 0
-2.856462 4.750023 0.236250 0
-0.175336 0.677664 -0.130657 0
1.510372 0.904598 0.273511 0
4.424087 1.105516 -4.302633 0
1.574089 0.778915 -0.279195 0
0.400004 1.203270 -0.090060 0
-0.185082 0.343607 -0.122056 0
0.408622 0.668130 -0.119483 0
-0.246069 1.036185 0.045662 0
-0.446146 1.216969 -0.077741 0
0.097349 0.797512 -0.132868 0
-5.008289 4.474857 1.464569 0
1.871323 3.186875 0.903385 0
-2.324768 4.024323 -0.632703 0
1.705271 1.282113 0.591620 0
1.370384 1.997543 -0.231029 0
-0.480503 0.275284 -0.129610 0
1.340144 3.505512 0.054382 0
-0.304258 0.992322 -0.121326 0
-0.201874 0.886446 -0.116224 0
-0.086410 1.064997 -0.101811 0
0.407632 1.248107 -0.099056 0
0.777693 0.594712 -0.147428 0
0.418167 1.230458 -0.126614 0
-0.207239 3.350986 -0.074196 0
-4.653337 4.837639 1.460614 0
0.019685 3.671790 -0.222896 0
-0.032085 3.608842 -0.127991 0
1.354834 1.860513 -0.225488 0
1.729698 1.480539 0.300580 0
0.064135 2.996896 -0.237864 0
1.339203 2.070093 0.227285 0
-2.347448 1.805649 -0.183131 0
-0.064398 3.963120 -0.080706 0
-3.164979 2.425185 -2.030191 0
-0.137388 0.779889 -0.037298 0
0.304250 1.130873 -0.133884 0
1.362747 1.830163 0.116326 0
-0.303923 0.998871 -0.122996 0
-2.896151 3.271863 0.070224 0
1.698050 1.794009 0.645570 0
-3.354169 7.513211 0.219459 0
-2.228213 4.777782 -0.197717 0
-2.332278 3.385345 -0.256489 0
1.572059 5.922577 -0.112456 0
1.874622 2.480851 1.009807 0
-2.394611 4.696452 -0.025495 0
1.399737 4.488835 -0.358205 0
1.565882 0.923368 -0.338576 0
1.596035 4.434514 -0.648126 0
-4.246655 3.276208 0.297954 0
-4.977686 6.210816 1.448913 0
-5.001623 4.466010 1.459174 0
0.282203 8.056757 1.399783 0
-5.134358 3.893773 0.529766 0
1.378820 4.502171 -0.315667 0
1.557717 0.775853 -0.387641 0
0.239100 1.571070 0.029390 0
-0.006719 3.502197 1.534397 0
-0.116985 0.826718 -0.128505 0
-0.019372 0.660066 -0.126821 0
1.562185 4.029013 0.427905 0
1.554729 0.771820 -0.329992 0
-17.387083 15.954318 -0.636297 0
-0.058888 4.034127 -0.196615 0
-0.197435 2.576348 0.234909 0
-0.084918 1.050913 -0.052550 0
0.612731 0.949445 -0.209056 0
-0.069248 1.465362 -0.015990 0
-0.083988 1.059996 -0.048580 0
1.346705 2.027632 0.149696 0
-2.934364 4.602056 -0.105744 0
-0.301550 4.500843 -0.342412 0
1.789951 1.159445 -0.325082 0
-3.278149 3.588644 1.521642 0
-2.044826 4.010067 -0.157618 0
-3.180641 3.175737 -0.199984 0
-2.743798 5.605478 0.133509 0
-2.316289 2.954355 -0.108367 0
-2.191988 3.420740 -0.247114 0
1.476987 3.583800 0.049900 0
1.367522 1.907170 -0.031064 0
-2.364661 2.610723 -0.206522 0
1.355065 1.923345 0.115149 0
1.406452 2.083003 -0.113810 0
1.626462 2.003886 0.465343 0
0.082896 3.286627 -0.147504 0
1.410037 4.544771 -0.353505 0
1.726065 1.550759 0.346532 0
1.596848 3.674664 1.526333 0
0.089505 3.795741 -0.172727 0
1.416486 2.322345 -0.076241 0
0.993476 4.855604 1.491570 0
-3.505428 3.439861 -0.054441 0
1.559551 5.562231 0.908500 0
-2.759390 3.291574 0.206251 0
-0.152295 5.894786 0.104074 0
-0.918169 4.247563 0.029978 0
-1.991601 2.616321 -0.280471 0
-3.129689 3.690075 -0.171627 0
-2.297991 4.806201 -0.201314 0
-2.786317 3.815997 0.202859 0
1.585205 0.918184 -0.252148 0
-2.957834 3.071394 0.563031 0
-0.221104 0.893885 -0.123093 0
-0.135404 0.892905 -0.075036 0
0.284432 1.338171 -0.076395 0
-0.106531 0.877133 -0.135456 0
1.449793 1.061669 0.336529 0
0.292544 1.404652 -0.090953 0
-0.443512 1.234244 -0.091265 0
-0.157224 3.101211 -0.143162 0
-5.154854 4.648489 1.537691 0
-4.844132 6.949590 1.014946 0
0.228225 6.464745 1.313559 0
0.689801 0.849544 -0.239509 0
-0.666512 0.672265 -0.211768 0
-0.011566 0.979342 -0.135135 0
0.051549 0.894068 0.000996 0
0.449760 0.399773 -0.098745 0
-0.165331 0.682722 -0.122660 0
-0.037160 1.071111 -0.071898 0
0.106134 0.678122 -0.127251 0
-3.041939 3.131645 0.578213 0
-0.822942 0.572080 -0.176097 0
0.694603 1.093710 -0.231483 0
-0.830931 0.467188 -0.174048 0
-0.099903 0.941098 -0.135073 0
-3.315573 3.206583 0.517040 0
-4.379502 3.890267 0.265787 0
-1.861196 2.720622 -0.399510 0
-3.930213 2.995834 0.133978 0
-0.008335 0.639254 -0.126536 0
-4.857143 3.846928 -0.245976 0
-3.695529 2.992566 0.099803 0
-3.141399 7.142586 1.450513 0
0.624815 3.221132 -0.168477 0
0.605206 3.457203 0.076197 0
2.014277 3.401729 1.130036 0
1.343680 1.980970 -0.211594 0
1.419063 1.741618 0.223628 0
1.606978 4.297055 0.079560 0
0.051944 6.958590 1.417564 0
-3.554356 5.363999 0.285066 0
-2.790297 4.745867 0.038560 0
1.346134 1.873925 -0.205465 0
0.797466 1.627252 -0.260945 0
1.445319 4.490615 -0.520499 0
0.072717 0.432396 -0.171681 0
-0.807224 0.567461 -0.170902 0
1.449408 3.546128 0.205037 0
-2.005144 5.342722 0.059710 0
-0.130423 0.150079 -0.118279 0
0.177602 0.599300 -0.119037 0
-0.175355 0.191129 -0.128347 0
-0.120725 0.782936 -0.061050 0
1.522004 0.696579 -0.500677 0
1.483532 0.798902 -0.092918 0
1.609806 1.399161 0.629479 0
1.570711 0.915746 -0.332483 0
-0.268344 4.863871 -0.407979 0
1.608822 4.405765 0.520184 0
1.584395 0.820902 -0.426804 0
1.519756 4.349112 0.557598 0
-0.162679 0.556993 -0.130411 0
-0.394614 0.186393 -0.110354 0
-3.587651 7.032983 0.286219 0
-0.137682 0.424833 -0.110595 0
1.352524 2.064679 0.364268 0
0.345922 0.314660 -0.119408 0
-0.217661 0.742982 -0.111080 0
-2.029391 2.346966 -0.492688 0
1.457139 0.949987 0.201346 0
1.689167 1.586820 0.652927 0
-0.190523 0.698492 -0.120926 0
1.481540 0.945088 -0.088409 0
-2.430489 3.616730 -0.223112 0
1.358560 1.889082 -0.031307 0
-0.016473 4.644224 0.105069 0
-2.163636 2.296153 -0.659451 0
1.684533 6.134005 0.980845 0
-2.164810 5.248410 -0.170252 0
-2.063374 3.122655 -0.404729 0
1.805606 7.676847 1.305442 0
1.402089 3.721011 0.142499 0
1.359429 1.925828 0.106717 0
0.040024 0.797488 0.006284 0
-0.128652 0.213212 -0.114944 0
-2.192763 3.346689 -0.003715 0
-0.445622 0.341331 -0.130143 0
-2.163994 2.181648 -0.360258 0
0.080634 3.077202 -0.189714 0
-4.914639 4.571269 1.146589 0
-0.248450 3.390102 0.221384 0
-4.743234 7.609680 0.566075 0
1.843009 2.833972 0.904166 0
1.442893 0.856720 0.267666 0
-2.065115 2.407552 -0.534013 0
-2.139277 5.212248 -0.190198 0
-2.184629 6.121458 -0.233369 0
1.942511 1.692543 1.176926 0
1.564472 3.717346 0.516420 0
-0.483365 0.277395 -0.131487 0
-1.145554 1.090778 -0.208043 0
0.505838 2.675784 -0.122440 0
-0.316421 3.910496 0.080044 0
-4.501039 9.105107 0.801219 0
-4.946828 3.826171 1.481171 0
1.443691 4.682134 -0.352896 0
-2.356294 1.916454 -0.672302 0
0.667516 3.785623 0.195717 0
-3.242575 2.634397 -0.871637 0
1.887641 3.026757 0.748745 0
-3.545431 6.006090 0.025205 0
1.943617 3.736410 1.455659 0
1.493397 5.684242 0.062092 0
-3.579493 3.673935 0.653153 0
0.615575 1.386089 -0.171779 0
1.475702 2.191590 0.513810 0
-1.977572 5.049893 -0.346435 0
-0.056593 0.505165 -0.123036 0
1.446249 0.483853 -0.309345 0
-0.127184 0.213814 -0.122706 0
-3.297168 3.243729 -0.066135 0
-2.458732 2.319701 -1.007660 0
-2.384577 2.268540 -0.975410 0
-0.448581 0.347902 -0.131839 0
0.225262 1.536589 0.043061 0
-0.438021 0.402098 -0.129300 0
1.696725 0.764707 -0.356171 0
1.377748 4.355305 0.360321 0
-0.077056 0.401720 -0.095093 0
1.745426 5.516817 0.860660 0
0.242114 4.630877 1.485161 0
1.632754 4.056352 -0.076633 0
-4.838574 6.105896 1.040632 0
-0.870424 2.961732 0.233641 0
-1.619772 1.644639 -0.532028 0
-0.097391 0.933745 -0.132380 0
1.311579 1.464631 -0.064152 0
1.561087 0.918764 -0.334023 0
1.338761 1.997379 0.150569 0
-0.231910 3.690322 -0.232658 0
-0.170048 0.759290 -0.126960 0
-5.259139 4.737506 1.611888 0
-3.064581 3.096276 0.567180 0
-5.050503 7.363632 0.671710 0
1.582540 0.926744 -0.283524 0
-3.505720 2.556151 -0.209296 0
0.393463 1.217533 -0.145125 0
-1.874252 2.822091 -0.405139 0
1.597462 0.767472 -0.404030 0
0.724215 3.965520 -0.003076 0
1.364341 2.051494 -0.228944 0
-0.187848 0.747894 -0.132714 0
1.396501 1.325356 -0.513992 0
0.614044 3.249332 -0.149215 0
0.041015 3.362494 -0.179961 0
-1.665444 2.072418 -0.781251 0
-1.890004 2.977336 -0.437410 0
1.862701 7.258131 -0.338315 0
-2.813953 3.477911 0.364148 0
-1.567453 6.264444 1.444233 0
-3.857411 3.454809 0.248633 0
-2.367926 3.174514 0.110824 0
1.544044 0.798101 -0.404096 0
-4.713968 5.809014 1.418806 0
1.434398 0.807895 0.101531 0
-0.224998 0.761767 -0.120531 0
-0.063385 0.501230 -0.124796 0
-3.212201 3.208939 0.248786 0
-1.854401 2.865860 -0.398555 0
0.336657 1.423817 -0.165516 0
0.254789 0.983919 0.027510 0
0.248792 1.624190 0.020113 0
1.491547 0.363777 -0.534538 0
1.500020 0.367824 -0.538697 0
1.500591 0.368712 -0.537113 0
1.511014 0.269595 -0.556790 0
1.472962 0.431885 -0.416387 0
1.068273 1.714156 0.275860 0
0.869820 4.549770 -0.301701 0
1.741151 1.926573 0.362991 0
0.662396 1.030542 -0.248648 0
-2.011498 5.134768 -0.347682 0
1.427418 0.973389 0.119530 0
-4.733438 6.157067 1.031407 0
-0.246175 1.029999 -0.044107 0
-1.986786 2.805121 -0.461295 0
-0.120347 0.729378 -0.135878 0
1.707622 5.486240 0.947892 0
1.252437 1.278352 -0.315680 0
-0.056720 3.606031 -0.185700 0
-2.110214 3.376228 -0.176922 0
1.546622 0.906742 -0.329226 0
0.643525 3.248845 -0.182631 0
0.068991 3.099632 -0.264828 0
0.048199 0.832240 -0.137146 0
-1.742225 1.563028 0.020781 0
-4.777099 6.865860 0.868239 0
0.112832 0.731830 -0.149627 0
-10.567777 9.402472 2.446266 0
-2.122352 5.213633 0.051687 0
1.565161 3.930587 1.319710 0
1.492230 0.880980 -0.081179 0
1.635816 4.103242 -0.062659 0
1.409157 2.272982 0.149619 0
-2.680515 2.483548 -0.037409 0
0.479895 0.895061 -0.123094 0
-0.817102 0.570477 -0.174507 0
1.117328 0.239433 -0.346723 0
1.741551 0.978173 0.341213 0
1.353428 0.525790 -0.039652 0
1.681525 0.535980 -0.316740 0
1.539838 0.628268 0.222710 0
1.529542 0.718402 0.386175 0
1.472332 0.444106 -0.129149 0
1.582399 0.649796 -0.324035 0
1.492871 0.542387 0.027276 0
1.578050 0.766299 0.311707 0
1.938537 1.102918 0.351187 0
1.216966 0.637902 0.118179 0
1.659181 1.255074 0.643275 0
0.670081 1.055136 -0.212074 0
-1.868474 2.145662 -0.473000 0
-0.160621 1.076497 -0.124299 0
-6.086891 8.806664 0.672593 0
-5.245475 5.543672 1.507855 0
0.337908 1.275467 -0.109085 0
0.332371 1.484360 -0.103758 0
-0.156937 0.855670 -0.065945 0
0.031862 0.947210 -0.028708 0
0.046903 0.928478 -0.002530 0
-0.469472 1.164309 -0.089277 0
1.430203 0.980518 0.098341 0
0.046280 0.940344 -0.005082 0
-0.104099 1.037615 -0.057251 0
1.432254 0.953802 0.247188 0
1.426212 5.376473 0.112307 0
-4.815519 6.920337 1.050374 0
0.242773 4.595163 1.475097 0
-0.122233 0.186174 -0.116135 0
-3.285652 3.330729 0.608818 0
-3.528782 2.825254 0.116094 0
0.232803 8.344804 1.535687 0
-2.591745 6.398005 0.140852 0
-4.559933 9.214438 0.808153 0
-2.059405 2.678367 -0.458825 0
-5.070425 4.537099 1.411359 0
-0.141615 0.941794 -0.113527 0
-0.011684 1.337710 -0.103921 0
0.400250 1.503440 -0.096288 0
-4.282753 3.450736 0.262067 0
-0.229135 0.767246 -0.122815 0
1.560394 0.915446 -0.391666 0
0.416827 1.288575 -0.113126 0
0.033736 0.393203 -0.121841 0
0.596559 2.412684 -0.218100 0
-0.251774 0.272659 -0.232585 0
0.062370 0.481089 -0.131231 0
0.140373 0.508310 -0.129701 0
0.014320 0.385481 -0.126376 0
0.036018 0.536524 -0.194487 0
-4.256110 7.653696 0.445036 0
-0.197606 1.075240 0.072092 0
1.517210 0.985977 -0.220752 0
0.273880 1.193138 -0.139408 0
-0.067151 0.339914 -0.115894 0
0.577284 1.176476 -0.174264 0
-0.155535 0.747003 -0.073950 0
1.216117 1.318077 -0.331972 0
-2.705923 2.861820 -0.211920 0
0.033055 0.371205 -0.124751 0
0.627263 1.740175 -0.204071 0
-0.603884 8.186028 0.370548 0
-3.158223 3.219687 0.595140 0
-2.708179 3.086041 0.511530 0
0.210883 0.357889 -0.115975 0
0.156702 4.897313 0.069798 0
0.218162 0.368763 -0.123327 0
-2.921862 2.934429 0.188274 0
-0.042863 1.163040 0.005304 0
0.233250 1.611742 -0.061705 0
0.253736 1.667815 0.014977 0
1.971481 3.328334 1.134489 0
0.226469 0.138764 -0.099275 0
-4.204310 3.245569 0.284468 0
-0.308515 1.648003 -0.070301 0
0.321011 0.124236 -0.114190 0
-0.356031 0.696742 -0.127923 0
-2.488878 4.151437 -0.081016 0
0.297564 0.160075 -0.094634 0
-3.589834 2.500932 0.210520 0
2.068321 1.580604 0.269047 0
1.351701 1.873172 -0.218483 0
-2.238172 2.844560 -0.089934 0
1.372661 2.009325 -0.227560 0
-2.477372 2.644465 -0.897767 0
0.059510 0.466442 -0.123918 0
1.537048 1.146180 0.598563 0
0.353481 0.247148 -0.116651 0
1.371700 2.026592 -0.213714 0
-2.498802 6.250407 0.128159 0
-4.575832 6.642467 1.406668 0
1.884144 2.757284 1.076662 0
-2.720667 7.496905 -1.170404 0
0.028097 0.721364 0.038108 0
-0.772912 0.702196 -0.168736 0
-2.234127 4.014186 -0.352815 0
-0.261991 1.148016 -0.080715 0
-0.100865 0.707260 -0.111249 0
-2.386511 5.200544 -0.999693 0
1.352341 2.384381 -0.050433 0
-2.282936 3.277577 -0.891965 0
-2.212314 3.526471 -1.469666 0
-0.160162 0.338481 -0.104586 0
-2.453404 2.453994 -0.414594 0
-1.818127 4.798839 -0.548974 0
1.477727 0.668239 0.131880 0
1.493094 0.606017 0.226174 0
1.493488 0.450180 -0.130906 0
1.485775 0.666912 0.132804 0
1.557479 0.747404 0.271882 0
1.503511 0.454993 -0.260927 0
1.744313 0.998501 0.922735 0
1.532126 0.630722 0.057515 0
1.476317 0.604194 0.064342 0
1.428607 0.363907 -0.294910 0
1.528511 0.467781 -0.137481 0
0.188421 0.501133 -0.109726 0
-0.079602 0.413908 -0.101491 0
0.260818 1.214450 -0.084586 0
-0.168261 0.758516 -0.097246 0
-2.593748 3.315702 -0.109369 0
1.495093 5.661139 1.217884 0
-3.337739 3.145553 -0.080714 0
0.036136 5.748053 1.464683 0
1.447382 5.439577 0.504641 0
1.573590 3.675748 0.213486 0
-0.354579 1.790810 -0.032304 0
1.822097 1.970019 0.431428 0
1.389524 2.217641 0.151768 0
-0.207237 1.313625 -0.249156 0
-0.301670 0.978996 -0.018231 0
-0.309304 1.000193 -0.019077 0
-0.159957 0.170062 -0.103995 0
-0.146992 0.809357 0.067190 0
-4.835414 4.309108 0.846855 0
-0.098466 0.114368 -0.076521 0
0.046643 0.366159 -0.121600 0
1.418396 1.331293 0.074035 0
1.473480 4.480711 -0.605904 0
1.370769 1.031379 0.287100 0
-2.937098 2.926880 0.233394 0
0.652806 0.570807 -0.193573 0
-4.798480 8.624911 1.360696 0
-0.798447 3.237038 -0.114749 0
-0.021358 0.883245 -0.050885 0
-1.423712 1.752981 -0.865777 0
1.184839 1.432071 -0.071039 0
-2.370218 8.785626 -0.115750 0
1.399386 1.394149 -0.047480 0
0.056509 0.508005 -0.122518 0
-0.690188 1.695384 -0.336481 0
-0.102152 0.944904 -0.142518 0
-0.364081 0.482899 -0.126750 0
-2.311847 4.050944 0.053992 0
0.035188 0.394770 -0.122737 0
1.592801 2.339345 0.530461 0
-0.152164 0.334168 -0.105988 0
-3.850533 2.891051 0.232927 0
-0.087370 3.082121 0.050683 0
1.290403 2.176996 -0.265283 0
-0.670773 0.689283 -0.230795 0
1.467523 1.408337 0.251794 0
1.427508 2.297158 0.377360 0
-2.059385 2.603545 -0.159443 0
-0.633423 1.616250 -0.199359 0
1.724879 0.265704 -0.772366 0
-3.015869 4.120237 0.210119 0
-1.840297 2.506365 -0.820334 0
0.487531 2.465941 -0.100732 0
-2.300636 5.068193 -0.963095 0
1.522815 3.457396 -0.784652 0
1.255777 2.142235 -0.247399 0
-1.635258 1.992967 -0.581306 0
-0.882615 4.296893 0.231006 0
-0.393544 1.704337 -0.078139 0
-0.053924 0.883477 -0.083239 0
-0.182577 0.889502 0.021342 0
-0.214783 1.111174 -0.003347 0
-0.394119 1.251676 -0.014378 0
0.069260 7.711914 1.366091 0
-0.420750 1.128354 -0.048415 0
-1.814172 2.273691 -0.867455 0
0.400108 0.199055 -0.115264 0
-0.195037 0.693780 -0.126377 0
1.355903 1.960916 0.172641 0
0.447137 0.254967 -0.118902 0
1.470533 3.811544 0.171154 0
-1.862536 2.537000 -0.834918 0
-0.891576 2.731398 0.040756 0
0.349353 0.040574 -0.111877 0
0.405589 0.014484 -0.119867 0
-4.830552 3.741756 1.454550 0
-4.030875 3.600814 0.276711 0
1.525612 5.104982 -0.199240 0
1.607978 4.392589 -0.139841 0
-5.752613 5.126705 1.566390 0
0.206550 0.348174 -0.109244 0
0.196700 0.527703 -0.125461 0
0.214975 0.364485 -0.119634 0
0.680195 1.030145 -0.095587 0
-0.041722 3.634484 -0.129240 0
-3.225972 5.969114 1.481308 0
-1.416174 5.729792 -0.062663 0
1.543994 0.729504 -0.373102 0
-2.762823 3.155733 0.520552 0
1.620736 0.733418 -0.329668 0
1.512142 0.597383 -0.310905 0
-0.748518 0.689074 -0.156413 0
-0.951113 1.958958 -0.205987 0
-2.358156 5.215253 -0.990830 0
0.009176 1.503790 -0.147870 0
0.106924 0.462905 -0.064023 0
-0.357846 1.106135 -0.119174 0
0.110292 0.463450 -0.069231 0
-2.293620 7.286432 -0.897104 0
1.343591 2.217854 -0.229560 0
-0.307963 3.880944 0.085786 0
1.587513 4.272752 0.092377 0
-0.375924 1.125689 -0.001000 0
0.108904 0.463169 -0.065739 0
-0.417266 1.322899 -0.045580 0
-0.004900 0.964312 -0.135774 0
-3.246962 3.380166 0.235370 0
-2.157278 5.982672 -0.992863 0
-2.489486 4.920900 -0.956325 0
1.387571 1.041292 0.264331 0
-0.681778 1.432193 -0.135713 0
-3.041857 5.069697 0.232361 0
-2.032311 3.450640 -0.500974 0
-4.561874 10.214173 0.865355 0
-0.438168 1.998468 -0.094534 0
-1.920388 2.267021 -0.749530 0
1.514742 2.545419 -0.352006 0
-1.838304 2.342058 -0.878295 0
-0.695858 3.324955 0.230547 0
-0.845130 3.440092 -0.137561 0
1.396106 1.051273 -0.213914 0
1.360565 1.032456 -0.054267 0
1.362052 2.298485 -0.291439 0
-2.904180 4.854356 -0.088342 0
-2.173821 4.644657 -0.159051 0
-2.155231 2.941324 -0.845295 0
1.861362 2.714597 1.542769 0
-1.806700 2.303418 -0.857372 0
0.050020 0.849266 -0.139707 0
1.355276 2.237535 -0.235599 0
-2.194845 3.233188 -0.134789 0
-1.039756 6.060874 1.397398 0
-4.522037 9.181017 0.805635 0
-0.812740 2.848952 0.216754 0
-1.081188 6.327834 1.449098 0
-0.100806 0.998437 -0.073837 0
-0.758420 0.420634 -0.131712 0
-0.346883 0.739907 -0.139132 0
-0.706988 0.263629 -0.258056 0
-0.362274 1.142924 -0.137374 0
0.236273 0.145589 -0.107510 0
-0.697797 0.259412 -0.252929 0
-0.345133 0.731626 -0.136220 0
-0.221155 1.165918 -0.060903 0
-0.210435 0.886204 -0.117125 0
-0.191758 0.870574 -0.110101 0
1.422525 2.205122 -0.217942 0
-2.033632 2.752511 -0.828231 0
-3.710428 3.253049 0.236989 0
-2.948802 3.412739 1.469870 0
1.736563 1.921005 0.375253 0
0.019929 0.607290 -0.157179 0
1.068567 0.798493 -0.188589 0
0.102584 0.439194 -0.071185 0
-0.328715 4.515729 0.211338 0
-1.465365 1.254951 -0.890656 0
-2.206315 2.233917 -0.371845 0
-2.806810 3.150851 0.068246 0
-0.108027 0.704382 -0.128802 0
-77.008278 72.085724 -48.940639 0
-2.971428 3.343829 0.231292 0
0.510245 1.610167 -0.069149 0
0.193984 0.393673 -0.121321 0
-0.276287 1.417494 -0.012620 0
-0.352351 1.792306 0.068051 0
38.014732 29.013700 -1.120277 0
1.438422 7.696107 1.233763 0
-4.625510 6.131531 1.178243 0
1.413279 1.321776 0.073285 0
-0.721601 1.521313 -0.151950 0
-0.119206 0.177620 -0.098908 0
-0.121451 0.178704 -0.100631 0
0.405413 39.195114 -0.443452 0
0.097120 0.413498 -0.167638 0
-0.122087 0.166460 -0.100268 0
0.775860 1.238723 -0.287275 0
-1.993511 2.899097 -0.739823 0
-2.049084 7.651360 -0.087690 0
1.453956 0.216881 -0.520898 0
1.494270 0.220255 -0.540044 0
1.728111 1.483046 0.300049 0
0.148422 4.244432 0.222516 0
-0.089203 0.981628 -0.122905 0
0.440986 1.670990 -0.156807 0
-0.121751 0.788381 0.271648 0
-0.416072 0.135702 -0.112980 0
0.102004 0.446615 -0.113473 0
0.080929 0.416067 -0.127902 0
-0.072782 0.431006 -0.114684 0
1.873178 3.429437 0.920123 0
-2.895094 3.194927 0.226174 0
1.888961 3.228512 0.743909 0
1.566133 0.785090 -0.219281 0
-3.067107 3.137583 0.601484 0
-2.209680 2.768245 -0.834210 0
-0.146695 0.800167 -0.041883 0
-0.263192 1.179365 -0.056830 0
-4.758036 6.845143 1.031457 0
-4.580108 6.590473 0.820443 0
1.834657 7.978387 0.927680 0
-3.104557 5.259526 0.037631 0
-0.199617 0.649607 -0.073006 0
-0.251774 1.289078 -0.010123 0
-1.812509 2.261458 -0.878591 0
-2.127839 2.889670 -0.852585 0
-2.425842 3.180016 0.336687 0
-2.436134 3.103811 -0.129504 0
1.570193 0.786091 -0.221536 0
0.061542 0.487186 -0.132471 0
-2.815311 3.453288 0.357288 0
-3.064870 3.129377 0.536617 0
0.171067 0.867804 0.001598 0
0.091710 0.854111 0.009428 0
0.684947 4.492242 -0.325443 0
-0.013102 1.079805 -0.083855 0
-0.404142 1.295670 -0.021674 0
-0.480525 1.162254 -0.150225 0
-0.327810 1.056566 -0.135918 0
0.638041 0.942497 -0.222835 0
0.562207 0.872894 -0.144867 0
1.933729 3.238256 1.139749 0
1.565467 3.975230 0.423553 0
1.606514 5.386461 0.399738 0
-1.065206 3.537604 0.142432 0
-0.142606 0.186666 -0.109628 0
-0.218757 0.901905 -0.123469 0
-0.157520 0.128635 -0.113266 0
-0.167627 0.354565 -0.117877 0
1.555715 0.636000 -0.311865 0
1.495113 0.580971 -0.311834 0
0.062230 0.335007 -0.122444 0
0.164365 0.710455 0.003568 0
1.205215 1.307563 -0.305131 0
0.045446 4.532541 0.267811 0
1.499945 0.600728 -0.077580 0
1.451845 0.441537 -0.120411 0
1.359906 0.068665 -0.598128 0
1.502726 0.388139 -0.164857 0
1.412101 1.336905 0.252700 0
1.778354 2.268658 0.546051 0
-3.843933 3.430196 0.341500 0
-2.743737 3.290913 0.207516 0
1.417538 1.745935 0.020884 0
-0.036957 1.032050 -0.113292 0
1.496995 0.439648 -0.424770 0
-2.248374 4.434182 -0.844592 0
1.499609 0.877013 -0.239680 0
1.698428 3.980739 0.690214 0
-4.886292 6.179414 1.046338 0
0.401929 0.202203 -0.113385 0
-0.323686 0.078691 -0.082545 0
-0.066762 0.503719 -0.127000 0
-0.319321 0.076999 -0.079223 0
0.055466 0.522741 -0.126534 0
0.046587 0.361845 -0.118918 0
1.381140 2.309156 0.105131 0
0.350752 0.040981 -0.112653 0
-3.525039 4.088152 -0.191161 0
-0.410728 0.191180 -0.125898 0
-0.602319 1.396447 -0.219093 0
-0.283555 1.145240 -0.072638 0
-0.005030 1.020450 -0.151583 0
1.414422 1.340839 -0.544860 0
1.902962 8.169758 1.363730 0
-1.954184 2.763747 -0.448293 0
0.367380 2.765165 0.121376 0
-2.345948 2.947512 -1.227057 0
-2.128022 2.229055 -0.473158 0
-2.447002 3.185533 -0.815821 0
1.502305 0.901128 0.271961 0
-0.115856 0.790508 0.265163 0
1.588073 5.991731 0.157154 0
1.873335 2.436256 1.284773 0
-7.126925 6.542424 0.607751 0
-2.966515 4.403313 -0.103267 0
-2.483835 4.436579 0.032137 0
-0.066029 0.501906 -0.126439 0
0.392605 1.474277 -0.086716 0
-1.878813 1.896987 -0.528957 0
-2.383259 3.005925 -0.841205 0
-0.081571 0.211818 -0.044374 0
-0.131775 0.312423 -0.113060 0
-0.157741 0.217333 -0.114782 0
-0.122026 0.199955 -0.102474 0
-0.122804 0.149448 -0.097313 0
-0.106306 0.192419 -0.086654 0
0.108154 0.424322 -0.090493 0
-0.129012 0.186406 -0.108337 0
0.132538 0.866668 0.010607 0
0.052738 3.070652 -0.163082 0
-2.694421 3.378215 0.367252 0
1.494773 1.049845 0.316803 0
1.402656 1.323168 0.073329 0
-4.729137 6.913182 1.276230 0
-0.478412 0.363986 -0.149079 0
1.919331 5.865685 -1.306660 0
1.472658 4.375844 -0.916355 0
-1.836300 5.050198 -0.806458 0
-1.968847 8.960351 1.005379 0
-1.845180 8.463438 0.978847 0
1.408525 0.857769 -0.444729 0
-4.758457 4.430375 1.029147 0
1.877573 8.088831 0.741512 0
0.672204 1.544016 -0.232658 0
0.592957 1.201619 -0.178818 0
1.606698 1.396958 0.629962 0
0.059159 0.484348 -0.070449 0
0.053906 0.478198 -0.102705 0
-0.173630 0.363647 -0.104354 0
-0.246791 0.185201 -0.121572 0
-2.563895 4.609626 0.030446 0
-0.175253 0.379513 -0.103644 0
-0.432724 1.255970 -0.055439 0
-0.137500 0.421180 -0.108967 0
0.102468 0.456691 -0.118156 0
-0.070945 0.526769 -0.138692 0
1.374546 1.676902 -0.490103 0
0.056841 0.472863 -0.065894 0
-0.092898 0.669501 -0.128010 0
1.367146 1.513778 -0.067517 0
-0.726141 0.547862 -0.160533 0
1.699480 4.600840 -0.913179 0
-3.215933 3.254685 0.569756 0
-1.894825 2.506390 -0.255685 0
0.082106 3.136088 -0.143405 0
-2.029186 2.148602 -0.539181 0
-2.930458 8.297892 0.047914 0
-0.814477 0.568922 -0.167494 0
1.696320 1.275104 0.657301 0
-0.101652 0.697547 -0.113890 0
-0.102451 0.701469 -0.116996 0
1.383571 1.302041 -0.039603 0
-1.984147 2.696620 -0.293513 0
-0.076024 0.418221 -0.100488 0
0.048425 0.476118 -0.097609 0
0.257442 1.180571 -0.098987 0
-0.352967 1.451153 -0.018649 0
1.483842 5.959713 0.426047 0
0.111553 0.454123 -0.099064 0
-0.188583 0.852918 -0.101666 0
-0.892525 1.844837 -0.202118 0
1.362875 2.405462 0.097361 0
1.506697 0.460402 -0.285458 0
1.647812 0.928783 0.317075 0
1.528705 0.468143 -0.293861 0
1.499660 0.674701 0.130612 0
1.612493 0.915423 0.315353 0
1.503705 0.674799 0.131780 0
1.381106 1.009715 0.222008 0
-0.135871 0.782192 -0.037346 0
1.631531 6.809259 1.196530 0
-0.106638 0.887144 -0.140143 0
-2.001593 2.525513 -0.147674 0
-2.500061 2.729094 -0.070311 0
-0.179650 1.916235 0.026310 0
1.401998 1.320642 -0.045157 0
-0.130742 0.214469 -0.118209 0
0.170829 0.967999 -0.202500 0
-0.887014 1.978725 -0.317846 0
-0.084396 1.211059 0.259132 0
1.662975 2.025862 0.471356 0
1.438581 0.982000 0.118333 0
-0.061058 2.673913 0.102305 0
0.689451 1.095246 -0.230094 0
0.884586 4.195397 -0.495776 0
1.321620 0.395429 -0.385556 0
-0.121321 0.797451 0.267616 0
1.321898 2.269177 -0.253546 0
-0.070752 0.224294 -0.117799 0
-4.656312 3.044783 -0.584427 0
-0.280389 0.140942 -0.117110 0
-0.168380 0.361485 -0.094789 0
-0.010263 0.420081 -0.133043 0
-0.174830 0.367952 -0.106842 0
-0.144797 0.830208 -0.039200 0
-0.161359 0.682279 -0.118705 0
-0.068020 0.413745 -0.100821 0
-1.995774 3.109209 -0.468844 0
1.729323 1.493500 0.325415 0
-2.205929 4.736876 -0.232302 0
-2.102595 2.204307 -0.461274 0
1.570823 4.300144 1.503169 0
0.102874 0.671849 -0.120317 0
0.233699 1.421357 -0.029539 0
-0.014398 0.408963 -0.122781 0
1.485403 0.872830 -0.076316 0
-2.119336 4.134001 -0.145903 0
-0.173915 0.361630 -0.102720 0
-2.629542 2.934173 -0.243021 0
-3.299840 3.045131 -0.075523 0
0.144772 4.083113 0.216737 0
-2.828779 2.957917 -0.203890 0
-0.510403 0.502854 -0.138608 0
-0.547423 0.547758 -0.165297 0
-3.642989 6.564058 0.406536 0
1.612096 1.012366 0.294666 0
1.460832 0.817128 0.097679 0
0.067544 8.008019 1.397473 0
1.706635 1.253049 0.363975 0
1.478109 0.745780 -0.192327 0
1.529135 4.271458 -0.622064 0
0.085965 0.824768 0.015672 0
1.485203 0.977707 0.247819 0
1.474212 0.493496 -0.322160 0
-2.792699 2.140594 -1.767270 0
1.533828 0.711281 -0.359588 0
-0.143694 0.305810 -0.083551 0
0.180499 1.212486 -0.003254 0
-0.088270 1.071227 -0.052695 0
1.435428 0.216284 -0.678571 0
-0.015677 0.414902 -0.125978 0
0.652836 2.724819 -0.314178 0
0.135324 0.485751 -0.121726 0
-0.151748 0.419789 -0.114082 0
1.574710 -0.078368 -0.826761 0
0.275295 1.040231 -0.090982 0
-0.014318 0.405647 -0.122803 0
-0.004197 0.181558 0.027759 0
0.093351 0.398443 -0.161650 0
1.765493 2.555793 0.598329 0
-0.072546 0.358712 -0.132951 0
0.094800 0.404699 -0.166743 0
-2.175726 2.124423 -1.401392 0
0.094624 0.406032 -0.165668 0
0.333768 0.215102 -0.117479 0
0.037590 5.455022 1.412782 0
-0.491532 1.391455 -0.290020 0
-1.562759 1.218374 -0.121281 0
-0.198020 0.158172 -0.174773 0
-5.624919 4.463349 0.015685 0
1.729073 1.802826 0.342554 0
0.207097 0.562297 -0.137508 0
1.822152 2.410411 0.896307 0
0.035186 5.714421 1.462410 0
0.954012 0.717828 -0.067056 0
-0.861265 3.156281 0.231151 0
-0.078982 1.043041 -0.046798 0
-0.810036 3.045742 0.205697 0
1.362139 1.949591 0.278919 0
1.583958 3.704693 0.027995 0
1.574019 3.833219 0.668664 0
1.705060 2.212487 0.521027 0
0.514076 0.385913 -0.134530 0
-2.887421 3.256455 -0.116916 0
-3.461025 3.438219 0.077630 0
1.376467 1.862669 0.115301 0
0.078956 0.392569 -0.116511 0
-0.855044 3.165150 0.225779 0
0.272923 0.352127 -0.134851 0
-0.141164 0.119141 -0.098909 0
0.258546 0.331876 -0.123747 0
-0.086509 0.440154 -0.112967 0
0.078436 0.312375 -0.112596 0
-0.042706 0.252487 -0.076210 0
0.057717 0.292596 -0.097179 0
0.060397 0.309738 -0.108061 0
-0.171195 0.299595 -0.151000 0
0.063768 0.340980 -0.125410 0
-0.038502 0.236067 -0.066140 0
-0.038692 0.235667 -0.066374 0
-0.128585 0.238581 -0.107183 0
0.462566 0.260198 -0.112705 0
0.048494 0.817735 -0.130081 0
1.366900 1.034843 0.223113 0
0.107682 0.454976 -0.062360 0
-0.337972 0.086017 -0.095457 0
-0.517808 1.502341 -0.100322 0
0.504707 0.609679 -0.132708 0
-0.255358 1.091304 -0.122717 0
1.496592 3.584963 0.295534 0
0.097106 0.678452 -0.124433 0
0.048511 0.465909 -0.089062 0
1.320722 0.998978 -0.033392 0
-1.970903 2.786553 -0.460615 0
-0.117965 0.778934 0.269345 0
1.476113 1.116353 -0.126327 0
0.443126 1.733996 -0.158079 0
1.826813 2.630228 0.613168 0
1.813283 2.627015 1.382741 0
-2.906513 3.296833 0.065959 0
-2.957664 3.690597 0.439693 0
-0.591193 0.790878 -0.222945 0
0.001847 0.346531 -0.124941 0
0.118187 3.119392 0.072126 0
-0.574428 1.099788 -0.184447 0
-4.567653 8.057784 1.336060 0
-3.165027 3.455630 1.484695 0
-0.293453 0.865048 -0.154175 0
1.266531 4.883829 0.961328 0
1.754966 1.510358 0.666755 0
-0.004508 0.430259 -0.063102 0
-5.790831 7.494310 1.699774 0
0.076234 0.366515 0.050034 0
1.393814 1.700141 0.219060 0
1.419724 1.349385 -0.381685 0
-4.936140 4.404975 1.046060 0
-4.817527 4.303353 1.096409 0
2.377962 3.940010 1.285538 0
-0.060078 0.385227 -0.104296 0
1.687696 4.835603 0.528855 0
1.185433 3.383706 -0.431379 0
-2.106268 2.210667 -0.595234 0
-0.937718 3.598184 0.053547 0
-2.255836 2.510049 -0.212985 0
-2.412309 3.459241 -0.958253 0
1.809583 1.323318 0.599875 0
0.112950 1.008260 0.004274 0
1.352818 1.997649 -0.221499 0
0.549702 3.000854 -0.173684 0
1.463185 0.937412 -0.088501 0
-0.239765 1.207392 -0.114030 0
-0.212914 0.892327 -0.118682 0
0.101987 0.877359 0.004037 0
0.027906 0.881879 -0.097532 0
-1.912182 2.217588 -0.441189 0
-0.158461 0.716629 -0.060420 0
1.368793 2.098876 0.376010 0
0.397878 0.199779 -0.118360 0
2.582721 3.663056 1.115971 0
1.548251 2.256594 0.511411 0
-2.341954 5.040113 -0.858947 0
-0.089095 1.133746 -0.120346 0
-10.738691 8.504231 -0.753478 0
-0.822909 1.438992 -0.132988 0
-1.397172 1.092986 -0.111997 0
-0.157799 0.348545 -0.136457 0
-0.028510 0.398221 -0.161887 0
-2.163287 4.431722 -0.105905 0
-0.076875 0.436934 -0.132950 0
0.308950 1.152207 -0.119592 0
0.051147 0.845324 -0.133442 0
0.594432 1.111380 -0.055024 0
0.397374 0.201030 -0.113010 0
-2.333801 3.925788 -0.156643 0
-5.223925 4.656488 1.304589 0
2.158828 1.877320 0.395801 0
1.288992 0.981329 0.006965 0
-0.171609 0.209352 -0.145340 0
1.404070 1.319778 0.074650 0
-0.711657 0.226988 -0.667314 0
-0.727046 0.235205 -0.689166 0
-2.513011 0.722017 -2.435587 0
-0.137427 0.894333 -0.435139 0
-0.475951 0.900891 -0.459877 0
-4.256072 5.611675 0.960310 0
-0.002439 3.373086 1.482615 0
-0.024989 0.304001 -0.050022 0
-2.791793 2.882551 -0.212810 0
-0.125058 0.130216 -0.071802 0
-0.164216 0.143772 -0.107672 0
-0.956312 1.088869 -0.537949 0
-0.930730 1.061602 -0.518624 0
1.363192 1.035438 -0.024514 0
0.442454 0.262730 -0.119616 0
-0.364396 1.770057 -0.044220 0
1.388664 1.903958 0.393203 0
0.882380 1.211922 -0.177454 0
0.018685 1.382395 -0.122107 0
-0.063353 0.392452 -0.111389 0
0.111083 0.469844 -0.067438 0
0.278336 1.209735 -0.143482 0
1.430591 0.209268 -0.598283 0
0.099417 0.872778 -0.001080 0
0.364868 1.348439 -0.116235 0
0.018053 3.639814 -0.133846 0
1.492290 0.891691 0.129750 0
-0.060081 0.386778 -0.106708 0
-0.114269 0.795025 -0.129891 0
0.101047 0.448284 -0.115317 0
1.608705 0.903439 0.326016 0
1.448161 0.802433 0.310033 0
1.461373 0.653135 -0.072234 0
-0.882832 1.624248 -0.479740 0
-0.033314 0.986288 -0.001009 0
1.648229 0.926404 0.321148 0
-3.113130 2.114431 -0.333504 0
-3.557139 2.507623 0.122167 0
-0.072426 0.432650 -0.118142 0
-3.049224 3.294482 0.228153 0
-0.515279 0.991967 -0.159152 0
-0.344385 1.152044 -0.101201 0
-3.408898 0.938838 -3.237003 0
-0.083222 0.152645 -0.063115 0
-5.957053 -0.004116 -5.390276 0
0.166182 0.703002 -0.023920 0
2.512518 0.752287 -2.599639 0
-1.294618 5.960020 -0.987297 0
-6.496702 15.127326 -4.582537 0
-0.104916 0.229663 -0.042963 0
-2.918831 7.895460 -2.233572 0
-0.064648 0.410574 -0.123888 0
0.332296 1.219169 -0.159714 0
0.107701 0.475711 -0.067567 0
-4.479764 5.621347 1.287553 0
-2.675619 4.997904 -1.777412 0
1.457757 4.464511 0.021620 0
-4.902841 4.565244 1.305499 0
1.531221 3.778828 0.437874 0
0.078628 0.303614 -0.108562 0
-0.068975 0.346351 -0.121807 0
-0.164540 0.378131 -0.109615 0
-0.173984 0.180857 -0.115912 0
-0.345067 1.140621 -0.098533 0
0.225680 0.267131 -0.114791 0
-4.410691 6.308347 0.382306 0
0.366670 1.369288 -0.120261 0
0.111442 0.435866 -0.120382 0
0.040995 0.751414 -0.156695 0
0.029329 1.096192 -0.136786 0
-0.420037 1.055340 -0.078516 0
-34.674606 89.774338 -23.875086 0
-0.014968 0.410718 -0.125431 0
-0.092529 1.404574 0.265879 0
-0.675125 1.254659 -0.103411 0
0.112746 0.445777 -0.123831 0
0.351221 0.040505 -0.113165 0
1.732794 2.705677 0.870089 0
-3.467609 3.385238 -0.076195 0
-1.581817 6.321601 0.110674 0
-2.853962 2.973811 -0.213162 0
1.324413 0.788423 0.258895 0
-2.233234 3.990833 -0.341688 0
-0.050072 0.328424 -0.074532 0
-0.059442 0.370808 -0.101625 0
1.589212 4.377732 -0.625249 0
1.368269 2.225312 0.146767 0
1.473271 0.822446 0.095413 0
1.437344 0.739928 0.098136 0
1.431911 0.745987 0.068558 0
1.404454 1.712060 -0.107758 0
-0.166932 0.146743 -0.107785 0
0.527160 0.431024 -0.137526 0
0.047657 0.391582 -0.121622 0
0.905028 0.630031 -0.154456 0
-0.237218 1.149347 -0.081418 0
1.208204 1.367821 -0.179310 0
1.396457 2.053608 0.431975 0
0.043674 0.548125 -0.133276 0
0.012274 0.377316 -0.123577 0
-0.144718 0.938105 -0.113715 0
-0.059120 0.397418 -0.105241 0
1.437507 0.745626 0.096921 0
1.564750 0.874426 0.312273 0
-2.262957 3.301004 -0.240861 0
1.451956 0.744428 0.099484 0
1.541679 0.724640 0.388895 0
1.540010 0.723741 0.388456 0
1.526605 0.628680 0.058287 0
1.435363 0.517204 0.039167 0
1.411287 0.359146 -0.143133 0
1.440873 1.001406 -0.395123 0
-2.954621 7.092044 1.454857 0
-3.126828 6.385128 0.119844 0
-2.339901 5.204809 -0.002749 0
-1.571399 4.582608 -0.073867 0
-2.953758 4.020580 0.309957 0
0.078254 0.447475 -0.055350 0
-0.078151 0.459138 -0.137323 0
-0.314329 0.994225 -0.110499 0
-0.268875 0.136265 -0.102545 0
-0.382146 0.972578 -0.093973 0
-0.000474 0.373973 -0.126326 0
1.479353 1.113645 -0.290819 0
-0.043916 0.924785 -0.433239 0
-0.156381 0.832273 -0.026681 0
0.023506 1.132750 -0.140051 0
0.024838 0.860141 -0.054532 0
0.001415 0.363607 -0.117912 0
1.136441 1.322305 -0.135589 0
-0.084546 0.425352 -0.106010 0
0.063109 0.337576 -0.124580 0
1.407730 0.069291 -0.625290 0
-0.158048 0.350647 -0.115779 0
-0.802973 3.506704 0.012745 0
0.107571 0.428283 -0.113390 0
1.370594 2.305339 0.283664 0
0.120064 0.468378 -0.085610 0
-0.035499 1.034963 -0.117452 0
-4.941744 3.747100 0.840466 0
-4.742401 3.664540 0.680116 0
0.021019 0.424240 -0.088257 0
-0.139720 0.117844 -0.097720 0
-0.135644 0.194156 -0.116228 0
-0.134024 0.242080 -0.110245 0
-0.172701 0.230435 -0.114858 0
-0.098685 0.186813 -0.079002 0
0.427313 0.326324 -0.099908 0
-0.167913 0.312261 -0.103430 0
-0.112766 0.238222 -0.094154 0
-0.202251 0.162091 -0.179863 0
-0.158057 0.179704 -0.112244 0
-0.167839 0.385543 -0.113029 0
-0.162306 0.219446 -0.106454 0
2.095559 5.303868 0.549889 0
1.329112 1.617005 -0.457128 0
0.331432 0.178079 -0.122523 0
-5.134049 4.573966 1.465187 0
-0.176395 0.180413 -0.116910 0
-0.482000 0.376321 -0.125840 0
-0.177910 0.334438 -0.118650 0
0.235444 5.577226 1.427304 0
-0.148672 0.726401 -0.072317 0
0.098932 0.766836 -0.122317 0
-0.868843 0.766021 -0.517933 0
0.730295 1.371660 -0.080799 0
-0.652797 1.365693 -0.121247 0
-0.113553 3.557161 -0.009675 0
1.267906 0.964758 -0.003280 0
0.238868 4.678170 1.497088 0
3.134462 2.378649 -0.398859 0
1.384419 1.044523 -0.098930 0
-0.752717 0.645741 -0.374180 0
0.532609 0.321501 -0.142235 0
-0.500919 1.748365 0.082604 0
-0.061669 0.385769 -0.097971 0
0.103676 0.430701 -0.102625 0
1.413065 1.309652 -0.169498 0
-2.666222 2.722506 0.505081 0
1.880217 3.592660 1.521184 0
-1.047280 0.310100 -0.998119 0
0.062793 0.117010 -0.001534 0
0.095809 0.142013 -0.020101 0
-0.157347 0.173649 -0.110588 0
-0.112968 0.562160 -0.166783 0
0.064652 0.120697 -0.004085 0
0.208718 0.081504 -0.099946 0
0.113070 0.468811 -0.115021 0
0.015626 0.347790 -0.111045 0
0.460805 0.349777 0.073884 0
0.082686 0.420188 -0.128565 0
0.261393 0.335958 -0.126261 0
0.327365 0.174918 -0.118851 0
0.035845 0.843625 -0.188945 0
-0.214616 0.166870 -0.191806 0
-0.071857 0.357651 -0.130442 0
-0.005067 0.248966 -0.072729 0
-3.081900 3.124452 0.171310 0
-0.028301 0.384400 -0.152027 0
-0.002837 0.391819 -0.152094 0
-0.132091 0.271729 -0.109567 0
-0.107612 0.254074 -0.083283 0
0.096261 0.203094 -0.052236 0
0.223657 0.099123 -0.104779 0
-0.040482 0.967237 -0.125953 0
0.217779 0.097708 -0.100622 0
0.320159 0.289147 -0.104998 0
-0.067131 0.500543 -0.126223 0
0.199825 0.408726 -0.127934 0
0.014858 0.369357 -0.123851 0
0.360163 0.344410 -0.118351 0
-1.301617 1.116766 -0.112382 0
-0.112784 0.169100 -0.089984 0
-0.167730 0.225610 -0.110212 0
-0.153465 0.324904 -0.090426 0
0.045548 0.043612 0.046612 0
-0.166691 0.302792 -0.107965 0
-0.115904 0.201678 -0.097430 0
-0.186897 0.151530 -0.164062 0
-0.165470 0.194000 -0.117950 0
-0.090408 0.230300 -0.068937 0
-0.121368 0.215434 -0.102769 0
-0.115434 0.243082 -0.097123 0
-0.119308 0.213320 -0.101617 0
-0.119289 0.248539 -0.100915 0
-0.196679 0.160800 -0.175414 0
-0.150578 0.208283 -0.110246 0
-0.160570 0.347032 -0.115585 0
0.071974 0.132613 -0.013784 0
-0.163172 0.744854 -0.062270 0
-0.257287 0.125662 -0.115375 0
0.215983 0.354837 -0.118748 0
0.116315 0.291586 -0.085359 0
-0.127980 0.186018 -0.105975 0
0.442575 0.356295 -0.100101 0
-0.176248 0.228861 -0.125703 0
-0.143013 0.172403 -0.091238 0
-0.186582 0.235139 -0.127821 0
-0.172279 0.199215 -0.123583 0
-0.155905 0.213809 -0.100362 0
-0.225098 0.175958 -0.117878 0
1.358558 4.395135 -0.298297 0
1.255647 4.813813 0.780760 0
-3.102888 4.895160 1.548599 0
0.188891 0.846260 -0.130496 0
0.458967 0.394846 -0.108963 0
-0.113925 0.778729 0.266822 0
-2.502737 2.224592 -1.633350 0
1.375311 2.376942 0.070662 0
-4.961646 7.780107 1.075909 0
-3.228103 5.956529 -0.000996 0
1.028249 5.014654 1.541496 0
0.173197 0.743045 -0.031504 0
1.832737 2.422572 0.791604 0
1.489647 3.620879 0.222600 0
-4.547419 6.483971 1.476617 0
-2.560183 4.463598 -0.242325 0
-4.785035 6.200980 1.292385 0
1.664666 7.094615 0.636168 0
-4.837912 6.364017 1.128449 0
1.566307 1.294483 0.615493 0
-0.082140 0.821091 0.239098 0
0.084041 5.995063 1.122348 0
0.034828 0.684018 -0.139637 0
-2.820617 3.196085 -1.894599 0
0.033023 0.659720 -0.129020 0
-4.893087 6.111794 -2.175613 0
-2.460487 4.883157 -0.214301 0
-4.703187 6.062530 1.427074 0
0.228993 3.261044 0.131122 0
1.352604 1.963615 -0.227495 0
-2.001455 8.160763 -0.481987 0
-0.120945 3.708936 0.140262 0
0.789081 0.538187 -0.116990 0
-5.578668 8.051034 1.519763 0
1.502888 4.034283 0.111566 0
1.411239 1.766099 0.109061 0
1.857925 1.755152 1.098481 0
1.391827 1.981449 -0.096377 0
-0.281772 0.935178 -0.036382 0
0.316637 0.321638 -0.127529 0
-0.095211 0.823349 0.263552 0
-0.279006 0.960888 0.016914 0
1.408874 1.403487 0.069419 0
0.117440 1.421002 0.422391 0
-0.289470 0.906165 -0.053023 0
-0.126514 0.885199 -0.145109 0
-2.816577 5.258876 1.321448 0
-0.022291 0.404314 -0.025271 0
-0.103288 1.642697 0.155834 0
1.385324 1.903127 0.275559 0
-0.020238 1.217344 -0.347589 0
0.364725 0.584796 -0.141710 0
-2.696646 4.488540 0.197826 0
-0.064133 2.497591 -0.132444 0
-0.088389 0.835239 0.245814 0
1.751321 1.702539 0.297237 0
-0.258129 0.855327 -0.058901 0
0.168324 0.756285 -0.129381 0
-0.052728 0.918227 0.114318 0
38.549236 47.160530 19.468441 0
2.034053 3.848781 0.875340 0
-4.151550 6.265140 0.571221 0
-5.137923 9.220527 1.059964 0
0.284523 0.290891 -0.122165 0
0.458199 0.380525 -0.108562 0
-0.180578 0.893881 0.066402 0
-0.256287 0.759501 -0.029625 0
-0.055766 0.628034 -0.108509 0
0.278024 1.579196 0.035557 0
1.332272 2.044478 0.363100 0
-3.107928 5.183640 0.228537 0
1.723270 1.825787 0.368832 0
-0.072122 0.657721 -0.127216 0
1.695320 1.720331 0.287400 0
1.856850 2.657649 0.769942 0
-0.071711 0.657806 -0.127391 0
-0.547062 1.211881 0.029124 0
-0.541998 1.282751 0.087913 0
-0.079404 1.052510 -0.067383 0
1.888053 2.898582 0.763765 0
-0.183074 0.687229 0.042861 0
-0.071415 0.660910 -0.127170 0
-2.320028 3.247259 -0.086056 0
0.177038 2.564927 0.162415 0
-3.075388 5.213796 0.082123 0
0.763898 1.022524 -0.261093 0
1.490958 2.161570 0.465492 0
0.250161 5.928783 1.532751 0
1.290477 1.805346 -0.199408 0
0.686556 1.084658 -0.211604 0
0.381758 1.538231 -0.130930 0
1.822770 3.495425 0.188387 0
0.031322 0.779146 -0.032361 0
-0.408545 0.476417 -0.390527 0
1.352799 2.160218 0.114677 0
-2.336614 3.137296 -0.069234 0
-0.083610 0.744520 0.240476 0
1.451055 1.987926 -0.277797 0
0.285696 0.675535 -0.105022 0
-0.232040 0.676308 -0.124844 0
-0.079405 1.109830 0.062074 0
-0.299981 0.879904 -0.007981 0
-0.286648 0.907292 -0.008656 0
1.373335 1.921560 -0.434406 0
1.928265 2.548735 0.999159 0
1.352898 2.030810 0.148485 0
1.375677 2.119416 -0.216814 0
-0.226046 0.932796 0.104505 0
0.130111 0.883240 0.041461 0
-0.350691 0.871827 -0.005423 0
1.569565 0.884013 -0.288496 0
1.386652 0.985024 0.222557 0
0.219619 1.581568 0.025520 0
1.527241 0.959664 0.265134 0
1.334428 2.147509 -0.234792 0
-3.068776 5.143181 0.230720 0
-2.315666 3.526806 -0.008890 0
-2.357183 3.156105 -0.072321 0
0.352787 0.514806 -0.125596 0
1.509026 2.438061 -0.612118 0
0.265100 0.716379 -0.127139 0
1.761584 1.315438 0.594800 0
0.218948 3.699477 0.133180 0
0.431955 3.867539 0.357523 0
0.241880 2.025483 0.209972 0
-0.153494 0.726374 -0.122505 0
1.013881 1.370041 -0.381346 0
0.164604 0.754008 -0.126664 0
1.372838 2.231174 -0.545651 0
1.362820 1.789015 -0.513493 0
-0.147580 0.581487 -0.094217 0
1.078046 1.823957 -0.430479 0
-2.909738 4.964427 0.100579 0
-0.278143 0.874317 -0.064502 0
-2.358664 3.920285 -0.145830 0
-2.506263 3.368885 0.124903 0
-0.073880 1.058754 -0.115806 0
1.301704 2.050257 -0.230021 0
0.449801 3.214561 0.131197 0
0.388462 2.858577 0.127576 0
0.262585 2.633877 0.289467 0
0.237033 3.121785 0.125723 0
1.738669 1.827932 0.511826 0
0.230629 2.904283 0.124830 0
0.252465 3.143227 0.278686 0
0.358144 2.815457 0.120426 0
-3.262340 2.986710 -0.510088 0
-2.921005 2.913043 -0.053347 0
-3.464688 3.076286 -0.176103 0
-3.659684 2.888034 -0.798196 0
-0.071993 1.031775 0.007803 0
-0.713102 0.742269 -0.163814 0
-0.246869 1.129556 -0.038227 0
-0.000290 1.255533 -0.113818 0
0.261724 0.711317 -0.115498 0
-0.277440 0.858262 -0.115650 0
0.319429 0.570832 -0.101173 0
-0.302070 0.764597 -0.125169 0
-0.346761 1.581311 0.034809 0
-0.322285 0.866919 -0.039100 0
-0.022188 1.334057 -0.116800 0
0.548090 1.154821 -0.089549 0
-0.174540 0.976028 0.063262 0
0.570731 1.238613 -0.089379 0
0.657010 0.526747 -0.107324 0
0.258705 1.229143 -0.143095 0
-0.299169 0.857112 -0.014226 0
0.285665 0.674562 -0.104655 0
-0.269632 1.099753 0.006655 0
0.187398 0.854885 0.001956 0
2.620459 2.816661 0.531053 0
1.431408 2.237390 0.365361 0
1.526813 5.411902 -0.253275 0
-2.756010 2.795283 -0.227384 0
-0.486692 0.765957 -0.132615 0
0.308010 0.211636 -0.005230 0
0.484878 0.437026 -0.121073 0
-0.482344 1.440464 -0.040575 0
1.537703 0.909823 -0.387642 0
1.399446 1.328638 -0.469803 0
1.473109 4.566092 -0.537623 0
1.334194 4.232721 0.354103 0
1.487775 4.483178 -0.597797 0
1.597538 4.351894 -0.710804 0
-0.137401 0.802094 -0.050332 0
0.604808 0.538303 -0.183107 0
0.347444 0.566626 -0.105070 0
1.550888 1.399501 0.320270 0
-0.302530 0.914295 -0.043400 0
-0.266949 0.880215 -0.061860 0
0.336043 0.597222 -0.103061 0
-0.102743 0.794401 0.269549 0
-0.093090 1.022017 0.254834 0
-0.373188 0.907357 -0.089546 0
-3.015798 3.544403 0.367359 0
-0.278702 1.004614 0.037826 0
-2.068626 3.451961 -0.114367 0
-2.700335 3.237567 0.247823 0
1.742223 1.927139 0.342751 0
1.590114 2.598350 0.306385 0
0.128079 3.554106 0.112362 0
1.974934 2.604921 0.892465 0
-2.680676 3.071168 -0.133000 0
-2.021101 2.201097 -0.481448 0
-3.212523 3.769357 -0.167418 0
2.216422 3.782620 1.083024 0
-2.957897 3.215034 0.548667 0
1.663567 1.493633 0.339707 0
-3.503940 3.843279 0.264482 0
1.532554 0.844912 0.325094 0
-0.274545 0.952250 -0.008594 0
-0.080597 0.741456 -0.030106 0
-0.309799 0.954003 -0.010591 0
-0.289647 0.937859 -0.038421 0
-0.154578 0.839845 -0.076035 0
1.371534 1.376654 0.070815 0
0.437772 0.401955 -0.124511 0
-0.131231 0.789777 0.169067 0
1.804801 2.406625 1.523724 0
0.128123 0.863857 0.005551 0
-0.080202 0.817817 0.244985 0
0.186884 0.858818 0.002550 0
0.098415 0.838705 -0.000557 0
-0.240008 0.885963 -0.040752 0
0.183409 0.815741 -0.119646 0
1.314758 2.316507 0.094974 0
-0.179299 3.070463 0.132380 0
-0.078765 1.009343 0.225330 0
-0.288501 0.962602 -0.000146 0
-0.301553 0.845855 -0.062040 0
-0.077133 1.012010 0.040321 0
-0.130808 0.943122 -0.067934 0
-0.011528 0.614748 -0.101673 0
-0.095915 1.081144 0.244716 0
0.472335 0.645886 -0.124135 0
-0.010387 0.612300 -0.100622 0
0.466410 0.406529 -0.123024 0
-0.179144 0.733728 -0.125308 0
-0.058360 0.449495 -0.087973 0
-0.248877 0.762146 -0.149655 0
-0.276946 0.855333 -0.093696 0
0.275803 0.679636 -0.104716 0
-0.277793 0.879462 -0.109641 0
-0.189224 0.842138 -0.037359 0
-0.187760 0.648930 -0.121291 0
-0.096065 0.519399 -0.124205 0
0.478407 0.652010 -0.127495 0
-0.060867 0.451157 -0.090265 0
-0.098927 0.773879 -0.132633 0
-0.032919 1.427496 -0.109434 0
-0.180145 0.854081 -0.028202 0
-0.133452 0.773162 -0.020009 0
-0.234610 0.680125 -0.132080 0
0.085285 0.438098 0.116224 0
0.338709 0.579357 -0.101188 0
0.282896 0.665665 -0.104208 0
0.305401 0.601354 -0.102528 0
0.076224 0.685069 0.151811 0
-0.308182 0.975837 -0.004655 0
-0.276899 1.018666 -0.017709 0
0.341658 0.581580 -0.102958 0
-0.260680 0.924054 -0.052045 0
-0.164531 0.565923 -0.129357 0
0.880480 0.441161 -0.708388 0
0.348743 0.567619 -0.127898 0
0.343272 0.563335 -0.124672 0
0.711732 0.607537 -0.491452 0
0.121546 0.691366 -0.125584 0
0.570696 1.338966 -0.132748 0
0.236795 1.856838 0.188390 0
0.963050 3.177996 1.556806 0
1.018594 1.715910 -0.379992 0
1.542673 2.443169 -0.535773 0
1.875303 5.149786 1.463676 0
1.482545 0.890524 0.112338 0
0.528223 1.113999 -0.153563 0
-0.224829 0.412068 -0.256277 0
1.359333 0.104275 -1.256772 0
0.296439 1.347602 0.389075 0
-0.158003 0.591005 -0.087105 0
-0.424015 0.923981 -0.203802 0
0.183562 1.258577 -0.368177 0
-3.824608 3.423943 0.243939 0
0.644784 0.332264 -0.237687 0
1.764884 1.318559 0.625498 0
0.118891 0.761140 -0.130980 0
-0.037747 1.067785 -0.057331 0
0.113871 0.824209 0.035145 0
-0.156923 0.855919 -0.135771 0
-0.315939 0.938481 0.006715 0
-0.253337 0.755574 -0.028216 0
-0.033588 1.047770 -0.051756 0
0.170346 0.782716 -0.124265 0
0.032868 0.764577 -0.077703 0
0.318659 0.622652 -0.101639 0
-0.277759 1.000377 0.036724 0
0.307209 0.603140 -0.102922 0
-0.275969 0.992564 -0.046031 0
-0.344110 0.830700 -0.094539 0
-0.181872 1.502931 -0.156187 0
-0.092270 0.425062 -0.101362 0
1.371845 1.884073 0.414920 0
0.623072 1.370534 -0.101060 0
-0.574739 0.665440 -0.318357 0
0.057000 0.600960 -0.120877 0
-0.619864 0.828833 -0.138747 0
-1.424122 0.867656 -0.297847 0
-0.140370 0.852448 0.196060 0
0.037275 0.777624 0.003447 0
-0.218813 0.993810 -0.023633 0
-3.475109 2.503998 0.104838 0
0.352357 0.572319 -0.110419 0
-3.599289 2.514009 0.218015 0
-2.566304 2.797674 0.506883 0
1.986382 3.777249 -0.188833 0
-5.028306 2.731760 -0.883747 0
-0.236953 0.925755 -0.021759 0
-3.386174 2.477286 0.190485 0
-0.249547 1.058380 0.073959 0
0.429961 0.776689 -0.108135 0
1.876960 5.142857 1.470571 0
0.806310 0.594118 0.170101 0
-0.277976 0.883255 -0.091945 0
-0.257622 0.956081 0.044654 0
-2.167164 2.059303 -1.374458 0
-0.701197 1.473359 0.078340 0
-5.253222 5.138333 -3.487660 0
-0.310420 0.530895 -0.212688 0
0.049936 0.940522 -0.020387 0
-0.437935 0.570740 -0.136984 0
-0.305249 0.438487 -0.098492 0
0.028723 1.277227 -0.097900 0
-0.318928 0.551569 -0.099936 0
0.042461 0.831565 -0.091518 0
-0.434297 0.950938 -0.090160 0
-0.199215 0.846421 -0.035353 0
-0.034524 1.040680 -0.049408 0
-0.456744 0.728718 -0.143178 0
-0.245016 0.827832 -0.064458 0
1.321739 2.087414 -0.237579 0
-0.210647 0.821892 -0.050748 0
-0.323751 0.878013 -0.128679 0
-3.593299 2.849803 -0.789542 0
-0.163260 0.840696 0.044475 0
-0.033757 2.381686 -0.124627 0
-0.471107 0.552895 -0.132277 0
-0.593206 0.898775 -0.187392 0
-2.860145 3.282015 0.080866 0
-0.368691 0.875607 -0.002609 0
-3.827939 3.779398 0.297075 0
1.878598 2.477526 0.811079 0
-3.061451 3.091632 0.605965 0
0.654396 3.853390 0.107582 0
1.575900 3.598564 1.529288 0
-0.101601 0.943983 -0.136004 0
1.461967 0.820672 0.092566 0
-0.166159 0.843623 -0.013845 0
-0.191562 0.655731 -0.122680 0
-0.305410 0.855069 -0.065188 0
2.085832 1.113695 0.550764 0
1.587209 0.904585 0.313602 0
-0.254809 0.934863 -0.015012 0
0.820331 0.530110 -0.339441 0
-0.273549 0.972563 -0.020078 0
1.635250 1.095184 0.305342 0
-0.360305 0.864491 -0.001728 0
0.966441 1.254361 -0.334721 0
0.219414 0.993713 -0.024394 0
0.185779 0.857723 0.001393 0
1.942070 0.433909 -1.817154 0
1.875427 2.742607 1.552364 0
-0.376879 0.997177 -0.005646 0
-0.462759 1.482822 0.080948 0
-0.228638 0.846918 -0.099300 0
-2.919807 2.247051 -1.903957 0
-0.414843 0.322694 -0.097144 0
0.117258 0.662240 -0.114177 0
-0.270619 0.958551 -0.050457 0
-0.275736 0.860215 -0.112849 0
-0.139359 1.171436 -0.133595 0
-0.618534 0.467167 -0.182710 0
-0.075749 1.293074 0.229252 0
0.192543 0.904586 -0.005402 0
0.264602 0.714796 -0.115765 0
-0.249479 0.841038 -0.060546 0
0.724197 0.504355 -0.099695 0
-0.311165 0.850758 -0.032991 0
1.876204 2.761863 1.544670 0
-0.084612 1.004245 0.222408 0
0.118464 0.923904 0.025155 0
-2.651879 4.127487 -1.741892 0
1.210401 1.751832 0.410554 0
1.408456 1.806994 -0.045742 0
-0.309180 0.951420 -0.112357 0
-2.794346 2.366489 -1.805984 0
1.756492 1.947733 0.359218 0
-0.098599 0.855671 -0.132796 0
-0.094984 0.770661 -0.128772 0
1.676011 1.498482 0.651761 0
-0.136796 0.787246 0.007310 0
0.038176 0.802890 0.004218 0
-0.293190 0.852052 -0.012643 0
-0.033268 1.388789 -0.103097 0
0.471072 0.329645 -0.112622 0
-4.111442 3.650804 0.382643 0
-1.362182 2.632194 -0.909386 0
1.592359 1.550064 0.289143 0
1.989282 1.631710 1.210879 0
-0.087588 1.011150 -0.047806 0
1.864718 3.517643 0.869441 0
-0.090636 0.777144 -0.129909 0
-0.379256 0.924206 -0.111214 0
-0.454634 1.027887 -0.139811 0
-0.666952 7.767258 0.529650 0
-4.888778 9.078908 1.444823 0
1.495190 3.464617 -0.068819 0
1.176751 3.169187 0.056415 0
-0.208530 0.646977 -0.105453 0
0.464453 0.489909 -0.110114 0
-0.131717 0.769964 -0.002202 0
-0.004074 0.963946 -0.128512 0
-0.159625 1.028335 -0.085776 0
-0.320336 0.915997 -0.023732 0
-0.468893 0.937073 -0.141781 0
-0.279600 1.025036 -0.017474 0
1.874531 5.723319 1.243792 0
0.187318 1.303884 0.038399 0
-0.271667 0.866613 -0.087929 0
-0.269062 1.027649 0.045324 0
1.003588 0.667010 -0.364494 0
-0.307013 0.886639 -0.089118 0
-0.005701 0.939175 -0.127286 0
-0.084134 1.349130 0.254870 0
0.322575 0.600054 -0.103283 0
-0.276653 1.000525 0.036039 0
-1.811466 2.551820 -0.155648 0
1.691755 3.990430 0.303408 0
-2.752778 3.134039 0.514532 0
-2.700369 2.984288 -0.141329 0
-2.156473 2.360329 -0.468432 0
1.414285 1.954964 0.013406 0
-2.570404 1.986336 -1.596716 0
0.217542 0.952201 -0.028555 0
-2.619210 4.550484 0.241391 0
1.424479 1.315433 -0.169498 0
-0.109742 0.819302 0.277524 0
-0.498534 0.834224 -0.308019 0
0.093506 0.131429 -0.014555 0
0.095704 0.134147 -0.016736 0
-0.414198 0.378659 -0.217958 0
-0.064359 0.096797 0.013519 0
0.095897 0.134251 -0.016817 0
-0.064633 0.096927 0.013370 0
-0.066458 0.098653 0.012163 0
-2.500302 2.048821 -1.844994 0
0.061646 0.452141 0.077215 0
-0.133195 0.680963 -0.129329 0
-0.070279 0.654086 -0.124911 0
-0.068735 0.648429 -0.122740 0
-0.291773 0.849141 -0.047558 0
-0.117719 0.777494 0.269083 0
-2.467716 3.147559 -0.127263 0
0.243420 1.031594 -0.051738 0
0.592805 1.865566 -0.216681 0
-0.384879 0.935749 -0.110414 0
-2.401731 3.348077 -0.095612 0
-2.534186 2.437887 -1.603287 0
1.911561 3.099375 0.931028 0
-0.102815 0.915853 -0.053636 0
1.449931 0.983305 0.068615 0
-0.218879 0.688629 -0.119390 0
-0.293360 0.868393 -0.040053 0
-0.237084 1.014709 0.014879 0
1.066031 3.413913 1.683826 0
1.723661 1.905523 0.338195 0
0.119568 0.762465 -0.130823 0
0.142976 1.045365 0.013134 0
1.384245 3.456903 0.032232 0
-4.149268 3.964802 0.139333 0
-3.159600 2.434429 1.600354 0
-5.302127 4.840721 1.603377 0
-3.196187 3.503586 1.482092 0
0.326327 0.645275 -0.117520 0
0.307395 0.604029 -0.103040 0
0.455700 1.012384 -0.078652 0
0.149500 1.378613 0.006631 0
-0.095896 0.858150 -0.040590 0
0.302958 0.621918 -0.105392 0
-0.026970 1.313849 -0.119954 0
0.231618 0.485936 -0.124889 0
-0.203022 0.878838 -0.095594 0
-0.284024 1.001785 0.018742 0
-0.294004 0.872332 -0.082527 0
-0.088155 0.930222 -0.116608 0
-0.040198 2.016890 -0.107933 0
-0.306003 0.865942 -0.015673 0
0.127205 3.949920 0.130668 0
-0.130549 4.004633 0.055792 0
-0.760498 0.535585 -0.582175 0
-0.116467 0.891242 -0.177085 0
-3.773596 3.440201 -0.338176 0
-0.155032 0.770789 -0.123758 0
-0.115078 0.873737 -0.172112 0
-3.174546 2.343169 -0.224153 0
-0.143731 0.713801 -0.101133 0
-2.886720 2.242192 -0.065986 0
-0.714560 0.894637 -0.242313 0
0.618564 3.699935 0.117374 0
-0.023863 3.795866 0.108249 0
0.055531 1.768038 0.534610 0
-2.009023 2.474647 -0.197087 0
-0.119306 0.864029 -0.139989 0
-1.117162 1.135086 -0.685020 0
-3.171249 2.346943 -0.234423 0
0.122691 0.769733 -0.138744 0
-0.311127 0.931170 0.008611 0
-0.032840 1.249536 -0.151147 0
-3.218948 2.870955 0.186156 0
-3.541680 2.936453 0.083403 0
0.040842 0.778723 -0.128604 0
-1.680994 1.984946 -1.000934 0
0.042741 0.789721 -0.132448 0
0.040387 0.780771 -0.128951 0
1.449025 1.377076 -0.290236 0
1.631328 1.451372 0.295112 0
-0.129433 3.990667 0.060963 0
-2.404559 4.298075 0.164482 0
-0.071453 0.721546 -0.034624 0
2.048393 3.013311 1.171032 0
-0.131163 0.787156 0.154347 0
1.404613 1.370661 0.214580 0
1.378162 2.266207 -0.329276 0
1.329925 2.117852 -0.450085 0
1.277215 2.081976 -0.499471 0
3.034209 2.446096 1.154060 0
0.018377 4.588952 1.472798 0
1.602185 0.852285 -0.317217 0
0.099685 0.858918 -0.001663 0
0.251891 1.595437 -0.006732 0
0.375147 3.335873 0.311718 0
-0.036311 1.052792 -0.112307 0
-0.218053 6.909793 0.203241 0
0.165661 0.771610 -0.127861 0
-0.203830 0.887981 -0.093499 0
0.966732 2.922748 -0.357583 0
-0.169450 1.396831 -0.127682 0
-4.780594 6.894783 1.330448 0
-0.188971 0.739437 -0.130152 0
1.527982 4.144550 0.137033 0
1.507178 4.921536 -0.394625 0
1.456507 2.137098 0.498594 0
-0.172731 0.700250 -0.266061 0
1.898461 5.934857 0.916646 0
-0.134555 0.688870 -0.115819 0
0.300486 0.338067 -0.116666 0
-0.311585 0.897557 -0.010660 0
-0.164309 0.782984 -0.131857 0
-0.148828 0.835955 -0.065502 0
0.751404 0.625215 -0.235760 0
1.567382 0.838353 -0.306478 0
1.776674 1.324413 0.595221 0
-0.245513 0.773183 -0.116808 0
0.328266 0.459232 -0.116203 0
0.427482 0.400991 -0.120865 0
-0.150960 0.534989 -0.127490 0
-0.097862 0.780854 0.262693 0
-0.069354 0.993333 0.154120 0
-0.274867 0.900413 -0.065651 0
-0.270474 0.995192 0.022931 0
-0.181765 0.799424 -0.123934 0
1.095619 1.077828 -0.015886 0
-0.075125 1.051525 0.005108 0
-0.076713 1.043881 -0.064271 0
1.438758 0.739398 0.090982 0
1.576785 0.770390 -0.102488 0
0.297148 0.638646 -0.105178 0
0.166236 0.755493 -0.128166 0
1.420508 2.280660 -0.491340 0
-2.349921 3.302649 -0.090033 0
0.521216 0.417700 -0.137901 0
0.125123 0.849316 -0.000008 0
1.397315 1.942652 -0.333416 0
1.664195 1.692354 0.285394 0
-0.201147 3.307808 0.226487 0
-0.132044 0.810106 -0.128396 0
2.151671 1.139361 0.571482 0
1.413763 1.312832 -0.166962 0
0.024149 0.848795 -0.040296 0
-0.200580 0.873106 -0.092052 0
-0.097609 0.769532 -0.129134 0
0.298337 0.640481 -0.105587 0
1.717940 1.808096 0.506180 0
-0.275515 0.871744 -0.054099 0
0.232725 3.783834 1.682098 0
-0.145634 1.778540 0.107161 0
0.322944 0.574261 -0.103179 0
-2.211353 3.554031 -0.110700 0
-0.095942 0.844782 -0.131493 0
-0.295546 0.759092 -0.133803 0
-0.142096 0.705615 -0.122949 0
1.700204 1.252834 0.346697 0
0.306574 0.665735 -0.103818 0
-0.279719 0.943956 0.002528 0
1.670689 1.250542 0.657318 0
2.020769 0.443635 -1.918803 0
-0.188362 0.746220 -0.132964 0
-0.200024 0.844468 -0.039574 0
-0.269626 2.913970 0.251271 0
-2.813291 4.667115 -0.075582 0
-4.804376 6.179183 1.454141 0
0.117420 0.752761 -0.126910 0
1.336803 1.875152 -0.416564 0
1.599103 0.790090 -0.282839 0
-2.340702 3.136824 -0.143953 0
-0.171095 0.851671 -0.032900 0
-0.078867 1.044789 0.121560 0
-0.029696 4.222672 -0.146633 0
-2.584314 2.746476 -0.206261 0
-2.120736 2.924961 -0.304164 0
1.690851 0.969750 0.896128 0
1.459137 0.878056 0.129380 0
1.742357 0.996478 0.915471 0
1.736639 0.996860 0.921396 0
-2.140661 2.984137 -0.216741 0
-2.653667 2.807566 -0.210966 0
-0.030095 4.180187 -0.143178 0
-2.483059 2.894421 -0.205477 0
-2.002646 2.818993 -0.217592 0
-0.135686 1.129838 -0.127936 0
1.455468 0.951215 0.198546 0
1.572036 0.786321 -0.336073 0
1.484460 0.744284 -0.357992 0
0.219666 1.017182 -0.094822 0
0.257751 5.737747 1.451643 0
0.667088 0.530572 -0.106001 0
-0.165437 0.788724 -0.132613 0
-0.199857 0.850770 -0.036607 0
0.088127 0.814196 0.024693 0
1.404989 1.800431 -0.044887 0
-0.109714 1.550449 0.097591 0
-0.320567 0.872440 -0.118176 0
-0.531663 1.048315 -0.171425 0
-0.188810 0.840455 -0.036360 0
-0.153058 0.827829 -0.070523 0
-2.084254 2.544742 -0.135836 0
-0.429802 1.030532 -0.130156 0
-0.134702 0.896785 -0.070758 0
-2.543211 2.735073 -0.227416 0
-0.291900 0.861764 -0.038324 0
-0.287687 1.146786 0.024805 0
1.329127 1.822345 -0.298114 0
-0.114376 2.844831 0.125610 0
-0.001536 1.188698 -0.155697 0
0.311238 0.630028 -0.105306 0
1.584600 1.077720 0.310427 0
1.348353 1.955328 0.170335 0
1.435106 0.760497 0.257256 0
-0.321341 0.912631 -0.020201 0
-0.343769 0.941084 -0.001237 0
-4.911526 6.207981 1.350009 0
0.129447 0.862703 0.009365 0
1.638710 1.117687 0.297704 0
-0.320215 0.878923 -0.010200 0
-0.133288 1.136541 -0.086415 0
-0.321843 0.866027 -0.113307 0
-0.193916 0.656655 -0.123894 0
0.033726 0.768892 -0.021949 0
1.650552 1.228387 0.343171 0
1.594188 1.797370 0.268224 0
-0.174958 2.627854 0.099815 0
0.558305 1.578436 -0.171714 0
1.427516 4.316891 -0.562824 0
-2.076365 2.913779 -0.215073 0
-0.098464 0.855354 -0.133938 0
-0.039326 0.960935 -0.126660 0
-0.078180 1.238240 0.251235 0
-0.163540 0.783365 -0.131229 0
-0.283292 0.870613 0.006680 0
-0.256964 0.880240 -0.091129 0
0.048753 0.657308 0.021354 0
-0.092905 0.802474 -0.135133 0
-0.199092 0.833609 -0.043354 0
-0.347101 0.849585 -0.020507 0
-0.075030 1.035520 -0.052388 0
-0.316877 0.868276 -0.117704 0
-0.138586 0.801867 -0.053664 0
-0.083860 1.033280 0.227873 0
-0.045738 0.888240 0.110088 0
-0.252602 0.857325 -0.072708 0
-0.071712 1.205321 0.236913 0
-0.078914 1.032649 0.039386 0
0.314656 0.341153 -0.127598 0
-0.033860 1.022411 -0.114100 0
0.029754 0.820220 -0.096002 0
1.925261 3.095446 0.767216 0
-0.344000 0.642184 -0.204500 0
-0.278370 0.961168 0.019005 0
0.261629 0.715955 -0.118129 0
-0.104072 0.793809 0.271870 0
-0.094532 0.772548 0.259836 0
0.169372 0.762049 -0.128785 0
0.117836 0.867438 0.033102 0
0.306929 0.603203 -0.102639 0
0.230005 1.589595 0.006932 0
0.160092 1.520355 0.031553 0
-0.472766 0.658599 -0.489284 0
-0.480352 0.668312 -0.500351 0
-0.476930 0.672283 -0.500160 0
1.850208 2.449779 0.957968 0
-0.469118 0.666402 -0.490368 0
-0.731789 1.121991 -0.125493 0
1.577845 0.886015 -0.255721 0
-1.096351 1.102941 -1.150685 0
-2.871199 4.158353 0.231617 0
-2.897898 4.940140 0.094646 0
0.144799 0.637100 -0.078081 0
0.219520 3.400461 1.496246 0
1.759765 1.000862 0.930247 0
-0.052466 0.932037 0.018160 0
-2.314495 3.886569 0.162270 0
-2.115322 3.622308 -0.010167 0
0.795827 1.706383 -0.161718 0
1.845967 2.458318 1.555127 0
1.836908 2.442757 1.551252 0
1.830829 2.440845 1.547706 0
1.881858 2.507401 1.590581 0
2.129308 1.757146 1.542414 0
1.716251 1.514549 0.293215 0
1.720665 2.208169 -0.672200 0
1.121639 1.654611 -0.404323 0
1.754852 2.619348 1.449149 0
-0.444357 0.993428 -0.019071 0
0.470558 0.407787 -0.124778 0
0.383601 0.508207 -0.122736 0
-0.278999 0.851520 -0.069796 0
-0.074654 1.019806 0.120435 0
-0.337521 0.844781 -0.037408 0
-0.271305 0.943978 -0.052386 0
-0.160873 0.834422 -0.051634 0
1.452636 0.945812 0.201574 0
0.039248 0.782065 0.006737 0
-0.305404 0.944614 -0.009491 0
-0.139322 0.789633 0.091930 0
-5.118106 4.553454 1.435306 0
-2.163962 4.161719 -0.001050 0
-0.178220 0.812818 0.000079 0
1.312287 2.218116 -0.302376 0
1.322081 2.245886 -0.274991 0
0.222982 1.078161 0.050117 0
-0.205755 0.934062 0.070511 0
1.523143 1.370932 0.268280 0
1.266225 2.431619 -0.504987 0
0.189772 0.848127 -0.132390 0
0.492696 0.270453 -0.121900 0
0.124524 0.681694 -0.125627 0
-0.247417 1.157949 -0.016344 0
-0.350844 0.872053 -0.005445 0
-0.212650 0.837436 -0.054411 0
0.225738 3.107404 0.247230 0
-2.914074 3.297293 0.533999 0
1.334154 1.845502 -0.303647 0
-2.638103 3.968517 -0.141003 0
0.116955 0.748585 -0.126804 0
-0.173067 2.253962 0.216929 0
-0.576550 0.436045 -0.163419 0
0.032826 0.774206 -0.021536 0
-0.323597 0.904879 0.002160 0
-0.517331 0.815581 -0.152375 0
0.475625 0.254310 -0.128238 0
0.524129 0.392800 -0.141524 0
0.129762 0.866990 0.007744 0
0.041170 0.779535 -0.128212 0
-0.292260 0.951693 0.018298 0
-0.308957 0.922687 0.008655 0
1.833442 1.405831 0.381605 0
-0.742440 1.140193 -0.130172 0
0.161267 1.737481 0.025788 0
-1.871137 2.935657 -1.199826 0
0.484988 0.297500 -0.118215 0
-0.254277 0.757009 -0.027989 0
0.120567 3.834864 0.077752 0
-0.090017 0.787365 -0.130501 0
-0.170641 2.991511 0.087851 0
0.511216 1.565833 -0.149683 0
0.283572 0.670798 -0.103527 0
0.121871 0.827323 0.002878 0
1.789299 1.372681 0.373210 0
-0.364620 0.887134 -0.100305 0
-2.650914 4.753444 -0.309669 0
1.478208 6.058727 1.234031 0
-0.299231 0.930605 -0.014226 0
-0.079193 1.030138 0.039691 0
-0.200007 0.868958 -0.091985 0
1.877682 0.437316 -1.757028 0
-0.748267 1.517748 -0.085674 0
0.351533 0.575272 -0.108270 0
-0.245385 0.776316 -0.117325 0
0.267421 0.707245 -0.130209 0
-0.619787 0.392235 -0.172838 0
-0.034532 0.139290 0.083977 0
0.019951 0.052167 0.052480 0
-0.054928 0.395177 -0.119668 0
-0.005289 0.309781 -0.111370 0
0.039619 0.073798 0.019613 0
-0.003068 0.385004 -0.117141 0
-0.076706 0.376578 -0.114842 0
0.056079 0.562518 -0.116263 0
0.214697 0.092556 -0.115427 0
-0.457873 0.323937 -0.118381 0
0.127663 0.575352 -0.118615 0
-0.005256 0.315423 -0.114769 0
-0.146632 0.665127 -0.119789 0
0.056440 0.582884 -0.117103 0
0.354282 0.876571 -0.428586 0
0.307858 0.751968 -0.358197 0
-1.984843 2.084449 -1.234392 0
-0.113248 0.296717 0.121877 0
0.066554 0.598882 -0.106149 0
-0.048980 0.975721 0.119726 0
2.804890 2.648773 1.046064 0
-4.357258 -0.057726 -4.036156 0
-4.178357 3.731458 0.641405 0
-0.272608 0.954791 -0.009221 0
0.145800 0.477537 -0.122034 0
-2.895812 2.106143 -0.175212 0
-2.803907 0.990090 -1.807399 0
-3.850097 3.750297 -0.789452 0
0.311147 0.560254 -0.105000 0
0.283765 0.603010 -0.094336 0
-0.347536 0.840524 -0.001312 0
-0.270133 0.517099 -0.125799 0
-0.097995 0.599252 -0.010197 0
0.134827 0.603234 -0.114700 0
0.229398 0.484287 -0.123272 0
0.253098 0.559715 -0.125548 0
0.181943 0.597513 -0.125900 0
0.131165 0.586229 -0.111333 0
0.042373 0.788693 -0.131671 0
-0.155936 0.854344 -0.135283 0
1.434462 0.998760 0.229205 0
1.493319 0.877106 -0.071191 0
0.116072 0.684586 -0.119365 0
-0.104399 0.826772 -0.178208 0
-0.176838 0.784850 -0.028920 0
-0.817316 1.537443 -0.453089 0
-0.067253 0.658115 -0.119852 0
-0.141109 0.794717 0.003613 0
0.043166 0.777686 -0.126410 0
-0.273710 1.007664 -0.020971 0
-0.202957 0.641746 -0.103055 0
-0.149559 0.763921 -0.121850 0
0.356717 0.582299 -0.109704 0
-0.231714 0.726464 -0.114689 0
0.088010 0.803589 0.024581 0
-0.155544 0.771968 -0.125110 0
-0.139139 0.797279 0.000764 0
0.340200 0.574933 -0.100224 0
0.260160 0.710611 -0.116237 0
-0.244823 0.829717 -0.063220 0
-0.274494 1.011298 -0.017999 0
-0.285564 0.837439 -0.076388 0
0.321129 0.572575 -0.102623 0
-0.246558 0.763681 -0.129124 0
-0.274892 0.849267 -0.115763 0
-0.318011 0.869744 -0.118024 0
-0.377686 1.605236 0.079661 0
0.981423 2.185992 -0.235518 0
-0.034219 1.033959 -0.116856 0
0.547444 1.155404 -0.090664 0
-0.019481 1.327255 -0.120336 0
-0.310510 0.837337 -0.032328 0
-0.269181 0.967186 0.016697 0
-0.039969 1.114419 -0.069931 0
-0.235921 0.952293 -0.062031 0
-0.189599 1.030920 -0.110212 0
1.352212 2.383891 -0.054713 0
-3.240406 3.169262 0.493393 0
-2.770167 3.143682 0.503846 0
-3.573007 3.114010 0.243153 0
-3.616521 2.996892 0.048676 0
-0.243022 1.035524 0.044725 0
-2.386558 3.201640 0.162335 0
-2.835385 2.653742 -0.051478 0
-3.038003 3.519095 -0.150480 0
-3.453464 2.869425 0.063655 0
-3.173950 2.912076 0.040030 0
-3.693229 3.664181 0.294569 0
-0.119721 0.865248 -0.140310 0
-5.202081 4.012291 1.539394 0
-0.172882 0.994762 0.152476 0
1.453065 1.995440 0.007118 0
-5.022705 3.653023 0.788040 0
-2.986661 2.310628 1.518584 0
-2.738964 2.169641 0.022630 0
-0.502403 0.774418 -0.146687 0
0.353111 2.731620 0.120122 0
-0.251170 0.867515 -0.088282 0
1.370290 1.925365 -0.031611 0
-3.310394 3.451269 0.702363 0
-0.154449 0.854250 -0.031682 0
-2.556297 3.021777 -0.199662 0
1.354658 1.900195 -0.030955 0
0.519085 0.393415 -0.139676 0
-4.317911 5.400805 -1.626165 0
-4.427794 5.541605 -1.625138 0
1.274050 1.852256 -0.475137 0
1.204503 1.764192 -0.442791 0
1.413976 0.998288 0.221981 0
1.467430 0.740741 -0.306523 0
0.638418 3.070957 -0.328533 0
1.442352 5.496939 0.400892 0
-0.146937 0.702621 -0.135964 0
-0.556558 1.509423 -0.024626 0
1.447322 0.861271 -0.298595 0
-0.141732 0.786238 -0.005440 0
-0.420622 0.914287 -0.050807 0
-0.092531 0.979913 -0.128343 0
-0.117254 0.790077 0.272103 0
0.530109 1.149646 -0.119131 0
1.549177 0.862360 0.313526 0
1.555206 1.888875 -0.642077 0
1.410838 1.340170 -0.448140 0
2.127095 0.436841 -2.012843 0
2.045460 0.438955 -1.959803 0
0.086585 0.815672 0.014208 0
1.627943 1.585860 0.284122 0
1.347448 2.280586 -0.278830 0
1.461849 2.191778 -0.249434 0
-2.674712 4.404117 -0.067868 0
-2.373177 3.601421 -0.014915 0
-0.281174 1.032112 -0.023703 0
0.036289 0.732648 -0.023165 0
0.115256 0.825608 0.034641 0
0.088426 0.827901 0.012728 0
1.484042 0.882419 -0.259082 0
-0.297764 0.754690 -0.121515 0
-0.425240 0.938381 -0.085013 0
-0.431986 0.948071 -0.087598 0
0.259443 0.708498 -0.115058 0
-0.208723 0.851827 -0.045024 0
-0.141044 0.790035 -0.022271 0
-0.432217 0.948729 -0.089248 0
0.298437 0.641959 -0.105967 0
0.382062 0.232941 -0.116943 0
0.401819 0.266014 -0.073209 0
-0.234875 0.596490 -0.128986 0
0.598720 1.208079 -0.174934 0
1.304451 1.797827 -0.385797 0
1.808134 1.802025 0.304944 0
1.297888 2.124546 -0.222190 0
0.329145 1.868891 0.117953 0
-0.578807 0.625127 -0.345890 0
-2.204530 2.059187 -1.388096 0
-2.410223 3.331959 -0.240048 0
-0.218287 0.602387 0.172586 0
1.360847 1.931906 -0.480314 0
3.953251 3.352579 1.473486 0
-2.477869 4.462257 0.039074 0
1.384534 2.284502 -0.328880 0
1.218517 1.172287 0.486933 0
3.925136 3.518592 1.469393 0
1.336150 2.029523 0.381606 0
-2.536822 3.187321 -0.199568 0
0.072006 1.325821 0.277942 0
-0.253256 0.577037 -0.165567 0
-0.083878 0.744070 0.243735 0
-0.316987 0.539339 -0.216006 0
-0.270938 1.012607 -0.029042 0
-2.476774 3.115864 -0.190348 0
-3.508373 5.601190 0.292545 0
1.316131 2.276979 -0.306109 0
0.248676 1.591132 0.020163 0
-0.000293 3.564103 1.585045 0
-2.473591 3.288373 0.227324 0
1.428336 1.746309 -0.573887 0
1.338667 1.875387 -0.416050 0
1.320219 1.619870 -0.526654 0
1.344885 1.887742 -0.419734 0
0.784166 1.121300 -0.272453 0
1.575331 1.668034 0.288393 0
0.652813 0.571057 -0.196708 0
0.320424 1.551856 -0.152721 0
-0.133720 1.112811 -0.125269 0
-2.714947 4.069753 0.016234 0
-2.467244 3.316153 0.130224 0
-2.342943 3.556972 -0.018320 0
1.563499 3.641979 0.227388 0
-3.586114 3.174327 -0.175815 0
-2.933211 3.194813 0.556837 0
1.515758 5.636543 0.766302 0
-3.905687 2.636714 -0.218296 0
-3.135779 3.172532 -1.905728 0
0.247876 3.908754 0.233770 0
-4.906545 3.571264 0.887199 0
1.570135 4.162644 0.358664 0
-2.855582 3.168189 -1.713878 0
-4.996861 3.642276 1.032801 0
1.422517 1.734724 0.198311 0
0.732746 0.613682 -0.235418 0
-0.310431 0.869500 -0.117118 0
-0.315121 0.843334 -0.037923 0
0.353276 0.567538 -0.118599 0
-0.278427 1.015560 -0.024360 0
1.637178 1.106482 0.314463 0
1.607186 1.084412 0.308642 0
1.459040 0.772639 0.261145 0
-0.413733 0.960891 -0.198881 0
-0.132113 0.792521 -0.130982 0
0.072681 2.763362 -0.060877 0
-0.153061 0.860773 -0.036318 0
-0.293881 0.952761 0.018881 0
1.390632 3.412844 -0.548846 0
1.396202 1.863141 -0.491312 0
0.381266 4.101089 0.371185 0
-3.158433 2.436547 1.591770 0
-4.728259 3.566842 0.810379 0
-4.599489 3.364255 1.131252 0
1.555215 6.328585 0.874269 0
2.004534 4.749953 -0.797663 0
-0.249450 0.980941 -0.041343 0
-2.095337 2.300531 -0.458345 0
-2.968704 3.121072 0.613143 0
-3.351457 3.241624 0.522791 0
1.353234 1.862027 -0.223265 0
-0.318062 0.882281 -0.011786 0
-2.804460 2.918019 -0.209857 0
-3.422644 3.449940 -0.180615 0
-2.854081 3.414005 0.286919 0
1.889861 2.485144 1.096535 0
-0.282713 0.942715 -0.012460 0
-0.095360 0.848824 -0.132987 0
0.219477 0.486758 -0.123155 0
-1.059720 1.276308 -0.300467 0
-2.510670 3.131958 -0.193292 0
1.654771 2.185298 1.133545 0
0.276265 0.705999 -0.110688 0
-0.339683 0.947776 -0.000856 0
0.008352 1.379874 -0.110712 0
-0.251519 0.981186 0.062288 0
-2.493395 3.329791 0.270766 0
1.349706 1.868842 -0.317126 0
-0.132723 0.896551 -0.077358 0
-0.299362 0.886871 -0.043617 0
-0.268957 0.989636 0.023161 0
1.962516 1.068540 0.521075 0
-0.319381 0.871529 -0.008040 0
0.294188 0.670132 -0.104953 0
0.309993 0.666035 -0.105259 0
0.305401 0.314954 -0.121174 0
-0.162164 0.837821 -0.012613 0
0.288650 0.680960 -0.106831 0
-0.164022 0.843815 -0.012805 0
-0.157517 0.859440 -0.136949 0
1.352858 0.711795 0.102284 0
-0.409894 0.629177 -0.151851 0
-2.423726 3.257303 0.138954 0
-3.807716 3.299230 -0.048153 0
-3.298917 2.483050 -2.064986 0
-0.438056 1.049199 -0.133584 0
0.123709 0.762715 -0.127922 0
1.359219 2.397801 -0.055247 0
-0.134023 0.693227 0.016738 0
1.840751 3.131207 0.599846 0
-0.291749 0.951279 0.005298 0
-0.315569 0.893318 0.002887 0
-2.946409 3.530546 1.522447 0
-3.779663 2.658342 -0.141162 0
-0.555947 0.646782 -0.194684 0
0.105423 4.243095 0.263816 0
-3.267672 7.482340 1.507929 0
1.921895 8.393677 1.393849 0
-0.878475 1.316196 -0.301154 0
-0.460250 0.620694 -0.129747 0
1.356125 1.869197 -0.319146 0
-3.142724 5.317803 0.244815 0
1.433789 2.119586 -0.116950 0
-3.490535 6.292859 0.403554 0
0.059888 0.593971 -0.121104 0
0.058746 0.571852 -0.115257 0
-0.094224 0.527026 -0.109655 0
-0.066255 0.447026 -0.058673 0
-0.049482 0.298294 -0.104898 0
-0.228942 0.132824 -0.114444 0
0.051802 0.342819 -0.105629 0
-3.968614 2.883804 0.215964 0
-3.430169 2.461538 0.105665 0
-3.085814 1.115893 -1.984968 0
-0.259544 0.763677 -0.030040 0
-0.135889 0.683234 -0.130565 0
0.429282 0.401535 -0.122124 0
-0.188334 0.696999 -0.083829 0
-0.098274 0.772037 -0.130679 0
0.432594 0.404043 -0.125100 0
-0.136011 0.797938 -0.053011 0
-0.193468 0.698297 -0.030634 0
-0.268895 1.101134 0.008258 0
0.214485 3.036408 0.135878 0
0.077427 0.999884 -0.013901 0
0.501094 0.790401 -0.190645 0
-3.520695 3.549801 0.718636 0
-4.786740 3.676193 0.353687 0
-4.162496 3.209729 1.258729 0
-2.978251 3.410259 0.072339 0
-2.813713 3.328535 -0.219720 0
-2.624835 2.636396 -0.218968 0
-0.282812 1.062265 0.045117 0
-3.060783 3.029013 0.269367 0
1.403462 1.338172 -0.313775 0
-3.662086 2.509878 0.111096 0
1.679468 4.699942 -0.077816 0
0.200876 0.510460 -0.121354 0
0.089207 0.817727 0.026103 0
0.051506 0.843328 0.006370 0
-0.310723 0.932570 -0.004377 0
-0.073696 1.038788 -0.102436 0
0.211864 0.479065 -0.123123 0
0.204047 3.376555 0.222976 0
1.010681 3.319076 1.630587 0
-0.260118 1.161621 -0.020036 0
-3.588982 2.621505 -0.683688 0
-3.578426 2.618971 -0.692243 0
-3.575952 2.842651 0.017589 0
-0.543824 1.565274 0.077096 0
-0.417287 0.905587 -0.049820 0
-0.071398 0.669230 -0.126775 0
-0.096737 0.431882 -0.112436 0
-0.057641 0.629852 -0.110116 0
-0.045539 0.469911 -0.078406 0
-0.085493 0.421436 -0.104255 0
-0.069953 0.659238 -0.127459 0
-0.054814 0.486913 -0.091001 0
-0.226706 0.668151 -0.121450 0
-0.066303 0.645941 -0.120065 0
0.335323 0.322667 -0.194556 0
0.075532 0.419961 0.108018 0
0.292069 0.339873 -0.148113 0
0.336439 0.324269 -0.195749 0
0.303623 0.368350 -0.118795 0
-0.154087 0.682209 -0.123087 0
0.618582 0.540345 -0.140852 0
0.479736 0.497615 -0.117427 0
-0.062871 0.993977 0.010032 0
-0.133592 0.796690 -0.133277 0
0.469525 0.642696 -0.121606 0
0.479664 0.411092 -0.129727 0
-0.299340 0.896780 0.007068 0
-0.266614 0.774090 -0.033610 0
-0.298377 0.835119 -0.036350 0
-0.230251 0.848743 -0.062194 0
-0.263951 0.717121 -0.133107 0
-0.279583 0.852486 -0.068973 0
-0.099739 0.986977 0.269067 0
-0.211094 0.871154 -0.050381 0
-3.518133 2.540329 0.100506 0
-2.859752 2.531358 -0.233208 0
0.004650 1.153837 -0.141229 0
1.978816 3.160655 0.811067 0
-0.481612 1.195961 0.015707 0
-2.834306 2.158184 -0.060970 0
0.000937 1.389747 -0.121195 0
0.042887 0.824443 0.001882 0
-0.138315 1.171710 -0.098316 0
-0.103409 0.465321 -0.111837 0
-1.410279 0.862600 -0.294761 0
0.056847 0.597485 -0.119447 0
-0.280497 0.885964 -0.093412 0
0.345703 0.563688 -0.120402 0
-0.088742 0.423491 -0.106471 0
-0.306218 0.841069 -0.058975 0
-2.564011 2.315538 -0.191555 0
-3.516474 2.547890 -0.490808 0
1.615289 4.140680 -0.002250 0
-2.828384 3.211736 0.912284 0
-4.980520 3.785367 0.652438 0
1.494675 1.810087 0.227463 0
1.726384 1.834672 0.371269 0
-3.395483 3.595582 -1.887847 0
1.698594 3.273511 1.009056 0
1.639067 4.647463 0.494228 0
-0.066147 0.416795 -0.091974 0
-0.201673 0.971417 -0.287655 0
-0.190017 0.578786 -0.258205 0
-3.975018 4.079103 -3.015004 0
-0.008828 0.051221 0.049973 0
0.099333 0.137776 -0.019129 0
1.381656 1.968402 0.122999 0
1.575475 1.938262 -0.230474 0
-0.423722 0.089891 -0.398187 0
1.554181 5.524632 0.895137 0
-0.213673 0.841444 -0.055927 0
-0.039316 1.082415 -0.061831 0
-0.275882 0.979335 0.015837 0
-3.514122 3.151406 -0.073281 0
-3.385687 3.293356 0.135332 0
-2.079395 2.285279 -0.449703 0
0.555903 1.265282 -0.128746 0
1.902491 2.893334 0.931532 0
1.762854 4.857557 1.377512 0
-0.035199 1.331020 -0.096577 0
-0.127814 1.080700 -0.116033 0
-0.130381 0.764552 -0.041272 0
0.070014 2.647825 0.537099 0
-3.890700 3.755390 0.125249 0
0.166869 0.748840 0.006244 0
-0.067025 0.969467 0.012499 0
-3.102318 3.439125 0.242201 0
-0.134493 0.718123 0.057660 0
0.169381 0.854875 0.008285 0
0.162760 1.730295 0.024755 0
-0.412409 0.909031 -0.033750 0
-0.374058 0.598848 -0.131539 0
0.092325 0.819920 0.011577 0
-0.268219 0.935812 -0.049395 0
-2.939353 2.584895 -0.165008 0
-2.688185 2.817343 -0.207559 0
0.395849 2.930162 0.212523 0
-0.192369 1.044643 0.030139 0
-2.083130 2.313911 -0.202081 0
-2.876943 3.139011 0.551216 0
-3.022660 3.148616 0.554065 0
-3.571275 3.247515 0.014439 0
-2.947887 3.099452 0.602548 0
-1.944530 2.405247 -0.187355 0
-2.067188 2.326652 -0.200635 0
-2.172390 2.686592 -0.209260 0
0.450731 3.253998 0.202801 0
0.313065 0.740816 -0.120394 0
0.183006 1.641323 0.027438 0
0.161241 0.744539 -0.123302 0
-2.863909 2.201441 -0.058527 0
-0.555657 1.307132 -0.185236 0
1.502085 5.092527 0.399730 0
0.029806 0.117330 0.098253 0
-3.442674 2.992515 -0.063506 0
-1.991306 1.885783 -1.434208 0
0.029379 0.517078 0.213786 0
-0.002401 0.379075 -0.114717 0
0.422588 0.759076 -0.103433 0
-1.145441 1.668744 0.285027 0
-0.284849 0.379765 -0.153867 0
0.153718 0.449062 -0.129598 0
-2.483373 3.406104 -0.096266 0
-2.490026 2.530702 0.459626 0
-2.958885 3.385963 0.095174 0
-2.883410 3.041358 0.630613 0
-0.169019 2.616871 0.094991 0
-0.130101 0.762123 -0.040969 0
0.312484 0.551568 -0.119138 0
0.033062 0.770284 -0.066436 0
-0.279862 0.805425 -0.031443 0
0.112610 0.846389 0.033320 0
0.097545 0.832879 0.010158 0
0.251457 0.557783 -0.124362 0
0.230215 0.509068 -0.124721 0
-0.042608 0.907199 -0.112448 0
0.045031 0.847498 -0.097403 0
-0.290195 0.815746 -0.004024 0
-0.280746 0.907120 -0.062864 0
-0.162728 0.839108 -0.050526 0
0.069027 0.967112 -0.009326 0
0.322406 0.557054 -0.123641 0
0.501962 1.071158 -0.139123 0
1.434427 1.746742 -0.483666 0
0.135469 1.024088 -0.014340 0
-0.272902 0.985793 0.038911 0
-0.035156 1.035576 -0.118377 0
-0.166001 0.832436 -0.028961 0
0.239365 3.151955 0.190551 0
0.032416 0.774206 -0.068262 0
-0.365268 0.472038 -0.135046 0
-0.199899 1.091962 0.030958 0
0.033821 0.783205 -0.070586 0
0.117630 0.754205 -0.127704 0
-3.088788 3.230641 0.650627 0
0.127447 0.686383 -0.128914 0
-0.288307 0.870030 -0.040603 0
0.189099 3.142051 0.181118 0
0.081075 0.642288 -0.079255 0
-0.318231 0.870505 -0.007732 0
-3.732184 3.358921 -0.080474 0
-2.164051 2.753191 -0.206066 0
-5.722458 5.113940 -3.623696 0
-3.066790 2.745910 -1.975817 0
1.984013 0.229725 -1.964186 0
-0.323554 0.552623 -0.223837 0
1.427613 1.991910 0.060009 0
1.473743 1.184602 0.584435 0
-3.403743 5.007783 0.464489 0
-2.124788 2.136642 -1.561233 0
-2.464999 4.397069 0.158138 0
-0.780064 0.846840 -0.454151 0
-0.284624 1.006038 0.014442 0
-2.329323 2.636591 -1.582696 0
0.188260 0.304912 -0.089399 0
0.027148 0.623855 -0.117659 0
0.128312 0.595151 -0.113851 0
-0.295241 0.751714 -0.120359 0
-0.237234 0.750302 -0.119362 0
-0.075888 0.464808 -0.093174 0
-0.017727 0.489955 -0.126431 0
-0.980020 0.709472 0.462495 0
0.021033 0.345548 -0.111423 0
1.428052 1.745708 -0.485135 0
-0.160610 0.889341 0.036522 0
-0.259259 0.931083 -0.001108 0
-0.037552 1.068609 -0.124589 0
-0.698939 1.062810 -0.206554 0
-3.411387 2.457692 0.099059 0
-5.127944 4.551314 0.485039 0
-3.439257 3.788603 0.260506 0
-0.102882 0.934531 -0.076927 0
-0.098090 0.458303 -0.108171 0
-0.097810 0.453209 -0.106809 0
-0.050325 0.378066 -0.112735 0
0.057536 0.355145 -0.120134 0
-0.007146 0.977080 -0.136059 0
-0.052548 0.373395 -0.111544 0
-0.177391 0.672223 -0.064833 0
-0.158922 0.766487 -0.125107 0
0.067415 0.607930 -0.106913 0
0.012201 0.320330 -0.116757 0
0.016324 0.444124 -0.119457 0
0.211768 0.120424 -0.123123 0
0.348585 0.573139 -0.108431 0
0.044216 0.368815 -0.115199 0
0.275113 0.743097 -0.135092 0
0.213011 0.121066 -0.124562 0
0.242963 0.118258 -0.122793 0
-0.196387 0.911997 -0.063920 0
0.124741 0.601504 -0.114732 0
-0.088105 0.413308 -0.095618 0
-0.160121 0.657396 -0.112807 0
-0.075259 0.458817 -0.090456 0
-0.173745 0.693964 -0.097459 0
-0.485080 0.370389 -0.127588 0
0.058804 0.366165 -0.126150 0
-0.228387 0.135451 -0.117388 0
-0.122401 0.741763 0.134057 0
-0.240938 1.034159 -0.054190 0
-0.356141 0.952100 -0.141135 0
-3.207388 3.128121 -0.072485 0
-0.200001 0.847152 -0.036413 0
-1.958012 1.510540 -1.212156 0
0.045543 0.360187 -0.112495 0
-0.131174 0.706345 -0.106700 0
-0.075488 0.453525 -0.085875 0
-2.583195 1.952490 -1.556804 0
-0.149054 0.719207 -0.112775 0
-0.023000 0.091802 0.077573 0
0.113001 0.408634 -0.165353 0
-0.085784 0.504493 -0.104301 0
0.237158 0.112532 -0.121297 0
-0.104259 0.893620 0.275446 0
-1.472873 1.657075 0.496292 0
0.225806 0.342991 -0.117999 0
-2.774794 0.038168 -2.554781 0
1.407814 1.767350 -0.001313 0
1.372801 2.108050 0.156677 0
-1.182351 1.384656 -0.828867 0
0.029812 0.117350 0.098069 0
1.382303 2.203554 -0.474753 0
0.056743 0.566808 -0.114308 0
-0.101505 0.461210 -0.111796 0
0.133233 0.624008 -0.120894 0
-1.426225 0.862933 -0.296015 0
0.066116 0.598149 -0.105220 0
0.089439 0.387434 -0.117327 0
0.091231 0.394595 -0.120862 0
-0.090813 0.423041 -0.097685 0
-0.033311 0.407301 -0.105986 0
0.252338 0.394566 -0.143772 0
0.162378 0.432030 -0.141893 0
-0.003370 0.387807 -0.118253 0
0.185375 0.042674 -0.109339 0
-0.022947 0.096536 0.078736 0
0.104624 0.575305 -0.118181 0
0.223569 0.520906 -0.229650 0
-0.323123 0.089761 -0.213907 0
-3.932366 1.088215 -3.749763 0
-2.038360 2.241704 -0.194943 0
-2.827140 2.487398 -0.156543 0
0.638210 0.555364 -0.177695 0
0.499800 0.512429 0.222895 0
-1.938294 1.681993 -1.210403 0
-0.044836 0.741991 -0.131004 0
2.155180 1.754161 0.830324 0
-0.225808 0.391023 -0.222607 0
1.166172 0.045632 -1.109859 0
2.131455 3.611701 1.492367 0
1.820145 2.410665 0.732277 0
-3.583655 3.680734 0.256868 0
-1.417405 1.348950 -0.917907 0
-0.403481 0.554225 0.174217 0
-3.496627 3.594567 0.252852 0
-2.876482 0.134308 -2.714635 0
-2.780020 0.032703 -2.549501 0
-0.278605 1.123746 0.004683 0
-0.167702 0.691338 -0.121838 0
-2.971615 0.305257 -2.849805 0
-2.705329 0.039630 -2.481208 0
-0.057479 0.405280 -0.125363 0
